<?xml version="1.0" standalone="no"?>
<!DOCTYPE svg PUBLIC "-//W3C//DTD SVG 1.1//EN" "http://www.w3.org/Graphics/SVG/1.1/DTD/svg11.dtd" >
<svg xmlns="http://www.w3.org/2000/svg" xmlns:xlink="http://www.w3.org/1999/xlink" version="1.1">
<metadata>
Created by FontForge 20170731 at Fri Feb 17 16:55:50 2017
 By Aleksey,,,
Copyright 2016 The Cabin Project Authors (impallari@gmail.com)
</metadata>
<defs>
<font id="CabinCondensed-Regular" horiz-adv-x="0" >
  <font-face 
    font-family="Cabin Condensed"
    font-weight="400"
    font-stretch="condensed"
    units-per-em="1000"
    panose-1="0 0 5 6 0 0 0 0 0 0"
    ascent="800"
    descent="-200"
    x-height="490"
    cap-height="700"
    bbox="-188 -284 1102 1124"
    underline-thickness="50"
    underline-position="-150"
    unicode-range="U+000D-25CA"
  />
<missing-glyph horiz-adv-x="603" 
d="M50 700h503v-700h-503v700zM473 70v560h-343v-560h343z" />
    <glyph glyph-name=".notdef" horiz-adv-x="603" 
d="M50 700h503v-700h-503v700zM473 70v560h-343v-560h343z" />
    <glyph glyph-name=".null" 
 />
    <glyph glyph-name="nonmarkingreturn" unicode="&#xd;" horiz-adv-x="194" 
 />
    <glyph glyph-name="space" unicode=" " horiz-adv-x="194" 
 />
    <glyph glyph-name="exclam" unicode="!" horiz-adv-x="232" 
d="M76 195l-18 505h116l-18 -505v-26h-80v26zM66 105h100v-105h-100v105z" />
    <glyph glyph-name="quotedbl" unicode="&#x22;" horiz-adv-x="293" 
d="M30 700h94l-17 -210h-60zM169 700h94l-17 -210h-60z" />
    <glyph glyph-name="numbersign" unicode="#" horiz-adv-x="617" 
d="M131 216h-102l34 84h98l38 123h-106l26 84h110l63 193h74l-63 -193h107l63 193h75l-63 -193h96l-26 -84h-99l-39 -123h109l-35 -84h-103l-73 -227h-75l73 227h-107l-74 -227h-74zM341 300l40 123h-107l-39 -123h106z" />
    <glyph glyph-name="dollar" unicode="$" horiz-adv-x="499" 
d="M427.5 54q-46.5 -49 -130.5 -63l8 -135h-77l7 130h-3q-49 0 -102.5 11.5t-87.5 27.5l13 100q40 -25 89 -40.5t97 -15.5q62 0 97 25.5t35 74.5q0 35 -16.5 60t-47.5 44.5t-87 44.5q-66 30 -104.5 55t-61.5 62t-23 92q0 79 55.5 129t147.5 57l-8 131h77l-8 -131
q79 -7 140 -37l-10 -94q-83 49 -169 49q-58 0 -91 -24t-33 -74q0 -34 17.5 -56.5t48.5 -40t94 -46.5q94 -42 137 -90.5t43 -121.5q0 -75 -46.5 -124z" />
    <glyph glyph-name="percent" unicode="%" horiz-adv-x="760" 
d="M68 370q-38 56 -38 147t37.5 144t108.5 53q70 0 107.5 -53t37.5 -144q0 -92 -37.5 -147.5t-107.5 -55.5t-108 56zM244 517q0 127 -68 127q-69 0 -69 -127q0 -66 16.5 -99.5t52.5 -33.5q68 0 68 133zM512 700h80l-345 -700h-81zM477 42q-38 56 -38 147t37.5 144t108.5 53
q70 0 107.5 -53t37.5 -144q0 -92 -37.5 -147.5t-107.5 -55.5t-108 56zM653 189q0 127 -68 127q-69 0 -69 -127q0 -66 16.5 -99.5t52.5 -33.5q68 0 68 133z" />
    <glyph glyph-name="ampersand" unicode="&#x26;" horiz-adv-x="540" 
d="M78 28.5q-50 51.5 -50 133.5q0 56 27 105.5t80 98.5q-33 56 -49 96.5t-16 73.5q0 51 23.5 89t62.5 58t85 20q62 0 95 -35t33 -90q0 -120 -133 -222l146 -197q20 39 24 192h82q-3 -156 -50 -252l81 -99h-97l-33 46q-34 -38 -71.5 -53.5t-89.5 -15.5q-100 0 -150 51.5z
M220 428q41 45 57 70t16 61t-16.5 56t-43.5 20q-34 0 -56.5 -26t-22.5 -75q0 -57 44 -129zM344 105l-167 208q-28 -25 -44 -63t-16 -81q0 -56 28.5 -90.5t89.5 -34.5q67 0 109 61z" />
    <glyph glyph-name="quotesingle" unicode="'" horiz-adv-x="154" 
d="M30 700h94l-17 -210h-60z" />
    <glyph glyph-name="parenleft" unicode="(" horiz-adv-x="274" 
d="M90.5 59.5q-30.5 106.5 -30.5 247.5t30.5 247.5t86.5 195.5h75q-49 -93 -77 -201t-28 -242t28 -242t77 -201h-75q-56 89 -86.5 195.5z" />
    <glyph glyph-name="parenright" unicode=")" horiz-adv-x="274" 
d="M98 65.5q28 107.5 28 241.5t-28 241.5t-76 201.5h74q56 -89 86.5 -195t30.5 -248t-30.5 -248t-86.5 -195h-74q48 94 76 201.5z" />
    <glyph glyph-name="asterisk" unicode="*" horiz-adv-x="376" 
d="M151 558l-122 78l28 47l113 -87l-7 144h50l-7 -144l113 86l28 -46l-121 -78l122 -78l-28 -47l-114 86l7 -142h-50l7 142l-114 -86l-28 46z" />
    <glyph glyph-name="plus" unicode="+" horiz-adv-x="387" 
d="M154 243h-119v76h119v133h79v-133h119v-76h-119v-133h-79v133z" />
    <glyph glyph-name="comma" unicode="," horiz-adv-x="190" 
d="M47 -107l36 107h-33v105h100v-95l-52 -117h-51z" />
    <glyph glyph-name="hyphen" unicode="-" horiz-adv-x="351" 
d="M42 354h267v-86h-267v86z" />
    <glyph glyph-name="period" unicode="." horiz-adv-x="180" 
d="M40 105h99v-105h-99v105z" />
    <glyph glyph-name="slash" unicode="/" horiz-adv-x="308" 
d="M248 700h91l-259 -785h-90z" />
    <glyph glyph-name="zero" unicode="0" horiz-adv-x="606" 
d="M168 33q-57 47 -87.5 131t-30.5 192q0 106 32 187.5t89.5 126t131.5 44.5q76 0 133 -44.5t88.5 -125.5t31.5 -188q0 -108 -30 -192t-87.5 -131t-135.5 -47t-135 47zM418.5 149.5q40.5 72.5 40.5 206.5q0 131 -41.5 199t-114.5 68q-70 0 -113 -68.5t-43 -198.5
q0 -134 40.5 -206.5t115.5 -72.5t115.5 72.5z" />
    <glyph glyph-name="one" unicode="1" horiz-adv-x="294" 
d="M129 564q-41 -43 -89 -61l-12 88q36 14 72.5 44.5t55.5 64.5h64v-700h-91v564z" />
    <glyph glyph-name="two" unicode="2" horiz-adv-x="451" 
d="M211 291q45 82 63.5 132.5t18.5 99.5q0 46 -26 73t-70 27q-62 0 -124 -48l-9 90q72 49 147 49q84 0 131.5 -51.5t47.5 -130.5q0 -64 -22 -121.5t-80 -163.5l-86 -158h203v-89h-353z" />
    <glyph glyph-name="three" unicode="3" horiz-adv-x="451" 
d="M370 296.5q31 -44.5 31 -112.5q0 -59 -27.5 -104t-75.5 -69.5t-108 -24.5q-87 0 -160 35l23 90q33 -17 63.5 -25.5t67.5 -8.5q55 0 87.5 31.5t32.5 80.5q0 60 -34 94t-102 34h-17v85h17q58 0 86 30.5t28 85.5q0 51 -24 78t-70 27q-30 0 -58 -11t-59 -32l-16 98
q65 36 141 36q87 0 135 -52t48 -135q0 -56 -25.5 -98.5t-71.5 -65.5q57 -22 88 -66.5z" />
    <glyph glyph-name="four" unicode="4" horiz-adv-x="452" 
d="M434 247v-76h-70v-171h-91v171h-261l285 529h67v-453h70zM273 247v248l-131 -248h131z" />
    <glyph glyph-name="five" unicode="5" horiz-adv-x="454" 
d="M321.5 413q47.5 -29 72 -80t24.5 -116q0 -69 -29 -121.5t-79.5 -81t-113.5 -28.5q-42 0 -82.5 11.5t-72.5 31.5l23 87q66 -39 130 -39q56 0 91.5 38t35.5 102q0 69 -38.5 106t-102.5 37q-54 0 -102 -15l43 355h266l-4 -84h-183l-21 -175q10 1 31 1q64 0 111.5 -29z" />
    <glyph glyph-name="six" unicode="6" horiz-adv-x="480" 
d="M359.5 392.5q40.5 -27.5 63.5 -76t23 -108.5q0 -64 -24.5 -114.5t-69 -79t-102.5 -28.5q-95 0 -146.5 67.5t-51.5 182.5q0 103 38 197.5t97.5 166.5t125.5 114l61 -58q-71 -45 -129 -115.5t-84 -156.5q44 36 107 36q51 0 91.5 -27.5zM324 106q27 39 27 99q0 58 -27 96
t-74 38t-73.5 -38t-26.5 -97q0 -61 26.5 -99t73.5 -38t74 39z" />
    <glyph glyph-name="seven" unicode="7" horiz-adv-x="423" 
d="M413 700l-234 -700h-95l207 616h-261v84h383z" />
    <glyph glyph-name="eight" unicode="8" horiz-adv-x="530" 
d="M452 311q24 -47 24 -109t-25.5 -111t-73.5 -77t-114 -28q-65 0 -112.5 28t-72 76.5t-24.5 111.5q0 62 23.5 109.5t67.5 73.5q-28 26 -43.5 63t-15.5 82q0 76 44 130t133 54q90 0 133.5 -54t43.5 -130q0 -46 -14 -83t-42 -62q44 -27 68 -74zM202 600.5
q-21 -27.5 -21 -74.5q0 -45 21.5 -75t60.5 -30t61 30t22 75q0 46 -21.5 74t-61.5 28t-61 -27.5zM348 109q31 38 31 98t-30.5 96t-85.5 36q-53 0 -82 -36t-29 -96q0 -61 29 -98.5t82 -37.5q54 0 85 38z" />
    <glyph glyph-name="nine" unicode="9" horiz-adv-x="480" 
d="M376.5 646.5q51.5 -67.5 51.5 -182.5q0 -103 -38 -197.5t-97.5 -166.5t-124.5 -114l-61 58q71 46 128.5 116t83.5 156q-44 -36 -107 -36q-51 0 -91.5 27.5t-63.5 76t-23 108.5q0 64 24.5 114.5t69 79t102.5 28.5q95 0 146.5 -67.5zM304 399q27 38 27 97q0 61 -26.5 99
t-74.5 38q-47 0 -74 -39t-27 -99q0 -58 27 -96t74 -38t74 38z" />
    <glyph glyph-name="colon" unicode=":" horiz-adv-x="180" 
d="M40 490h99v-105h-99v105zM40 105h99v-105h-99v105z" />
    <glyph glyph-name="semicolon" unicode=";" horiz-adv-x="190" 
d="M47 -107l36 107h-33v105h100v-95l-52 -117h-51zM48 469h99v-105h-99v105z" />
    <glyph glyph-name="less" unicode="&#x3c;" horiz-adv-x="355" 
d="M30 238v86l305 163v-86l-233 -120l233 -120v-86z" />
    <glyph glyph-name="equal" unicode="=" horiz-adv-x="387" 
d="M35 394h317v-76h-317v76zM35 236h317v-76h-317v76z" />
    <glyph glyph-name="greater" unicode="&#x3e;" horiz-adv-x="355" 
d="M20 161l233 120l-233 120v86l305 -163v-86l-305 -163v86z" />
    <glyph glyph-name="question" unicode="?" horiz-adv-x="432" 
d="M127 196q0 59 18 98t55 89q30 39 41.5 56t19.5 38t8 48q0 49 -29 76.5t-79 27.5t-102 -27l-9 80q62 32 147 32q53 0 91.5 -24t58 -64.5t19.5 -88.5q0 -47 -16.5 -81t-36.5 -60.5t-26 -34.5q-38 -49 -53.5 -81.5t-15.5 -77.5v-33h-91v27zM122 105h100v-105h-100v105z" />
    <glyph glyph-name="at" unicode="@" horiz-adv-x="607" 
d="M92.5 -19q-57.5 68 -57.5 189q0 106 44.5 194t119 138.5t160.5 50.5q100 0 157 -68t57 -185q0 -85 -30 -145.5t-92 -60.5q-18 0 -27.5 10t-9.5 41q0 25 6 54.5t18 75.5q3 14 10.5 45t13.5 59q-45 53 -104 53q-53 0 -104 -41t-83.5 -106.5t-32.5 -131.5q0 -48 19 -80.5
t59 -32.5t84.5 31t70.5 85q-2 -14 -2 -35q0 -30 12 -54.5t38 -24.5q23 0 57 19.5t54 44.5l3 -2q-44 -86 -120 -138.5t-165 -52.5q-98 0 -155.5 68zM216.5 124.5q-9.5 18.5 -9.5 48.5q0 52 25.5 97.5t63 73t69.5 27.5t39 -22q-8 -52 -35.5 -109.5t-61.5 -95.5t-62 -38
q-19 0 -28.5 18.5z" />
    <glyph glyph-name="A" unicode="A" horiz-adv-x="540" 
d="M379 190h-217l-56 -190h-98l215 700h94l215 -700h-97zM354 275l-84 284l-83 -284h167z" />
    <glyph glyph-name="B" unicode="B" horiz-adv-x="531" 
d="M493 200q0 -92 -53.5 -146t-147.5 -54h-226v700h182q93 0 144 -43.5t51 -128.5q0 -50 -16 -89.5t-47 -61.5q113 -42 113 -177zM157 408h80q60 0 84.5 22.5t24.5 83.5q0 59 -24.5 81t-84.5 22h-80v-209zM364.5 113.5q29.5 30.5 29.5 89.5q0 64 -28.5 92.5t-81.5 28.5h-127
v-241h127q51 0 80.5 30.5z" />
    <glyph glyph-name="C" unicode="C" horiz-adv-x="524" 
d="M181 30.5q-72 44.5 -111.5 127t-39.5 192.5q0 109 40.5 191.5t112.5 127.5t163 45q80 0 152 -30l-10 -85q-64 32 -124 32q-74 0 -126.5 -37t-79.5 -101t-27 -143t27 -143t79.5 -101t127.5 -37q65 0 123 30l10 -85q-64 -28 -148 -28q-97 0 -169 44.5z" />
    <glyph glyph-name="D" unicode="D" horiz-adv-x="619" 
d="M66 700h224q87 0 154.5 -42t105.5 -121t38 -187t-38 -187t-105.5 -121t-154.5 -42h-224v700zM273 83q105 0 159.5 70t54.5 197t-54.5 197t-159.5 70h-116v-534h116z" />
    <glyph glyph-name="E" unicode="E" horiz-adv-x="477" 
d="M66 700h374v-83h-283v-209h224v-84h-224v-241h291v-83h-382v700z" />
    <glyph glyph-name="F" unicode="F" horiz-adv-x="450" 
d="M66 700h369v-83h-278v-208h215v-84h-215v-325h-91v700z" />
    <glyph glyph-name="G" unicode="G" horiz-adv-x="571" 
d="M183 32.5q-74 46.5 -113.5 129t-39.5 188.5q0 109 42 191.5t115.5 127.5t167.5 45q86 0 156 -30l-10 -85q-33 16 -65.5 24t-71.5 8q-74 0 -126.5 -37t-79.5 -101t-27 -143q0 -126 59 -203.5t173 -77.5q44 0 77 14v185h-89v83h180v-319q-33 -21 -79 -33.5t-94 -12.5
q-101 0 -175 46.5z" />
    <glyph glyph-name="H" unicode="H" horiz-adv-x="636" 
d="M66 700h91v-289h322v289h91v-700h-91v322h-322v-322h-91v700z" />
    <glyph glyph-name="I" unicode="I" horiz-adv-x="240" 
d="M74 700h92v-700h-92v700z" />
    <glyph glyph-name="J" unicode="J" horiz-adv-x="243" 
d="M-1 -91q46 0 62.5 18t16.5 70v703h91v-732q0 -69 -37 -104.5t-103 -35.5h-21z" />
    <glyph glyph-name="K" unicode="K" horiz-adv-x="527" 
d="M84 700h91v-700h-91v700zM180 371l225 329h101l-227 -329l227 -371h-101z" />
    <glyph glyph-name="L" unicode="L" horiz-adv-x="430" 
d="M66 700h91v-617h267v-83h-358v700z" />
    <glyph glyph-name="M" unicode="M" horiz-adv-x="709" 
d="M575 0l-46 506l-169 -361l-169 361l-47 -506h-97l76 700h77l160 -361l160 361h77l76 -700h-98z" />
    <glyph glyph-name="N" unicode="N" horiz-adv-x="603" 
d="M66 700h103l277 -512v512h91v-700h-85l-295 541v-541h-91v700z" />
    <glyph glyph-name="O" unicode="O" horiz-adv-x="653" 
d="M173.5 31q-67.5 45 -105.5 127.5t-38 191.5t38 191.5t105.5 127.5t153.5 45t153 -45t105 -127.5t38 -191.5t-38 -191.5t-105 -127.5t-153 -45t-153.5 45zM474.5 153.5q51.5 76.5 51.5 196.5t-51.5 196.5t-147.5 76.5t-148 -76.5t-52 -196.5t52 -196.5t148 -76.5
t147.5 76.5z" />
    <glyph glyph-name="P" unicode="P" horiz-adv-x="505" 
d="M74 700h180q110 0 171.5 -58t61.5 -169t-61.5 -169.5t-171.5 -58.5h-88v-245h-92v700zM246 329q146 0 146 144t-146 144h-80v-288h80z" />
    <glyph glyph-name="Q" unicode="Q" horiz-adv-x="653" 
d="M605 213q-18 -63 -51 -109l62 -65l-57 -53l-58 60q-74 -60 -174 -60q-86 0 -153.5 45t-105.5 127.5t-38 191.5t38 191.5t105.5 127.5t153.5 45t153 -45t105 -127.5t38 -191.5q0 -74 -18 -137zM437 113l-85 89l56 53l79 -82q39 72 39 177q0 120 -51.5 196.5t-147.5 76.5
t-148 -76.5t-52 -196.5t52 -196.5t148 -76.5q65 0 110 36z" />
    <glyph glyph-name="R" unicode="R" horiz-adv-x="541" 
d="M73 700h180q110 0 171.5 -54.5t61.5 -159.5q0 -60 -28.5 -108.5t-79.5 -76.5l140 -301h-108l-125 274q-16 -2 -33 -2h-88v-272h-91v700zM245 356q76 0 111 33t35 97q0 65 -35 98t-111 33h-81v-261h81z" />
    <glyph glyph-name="S" unicode="S" horiz-adv-x="499" 
d="M129.5 -2.5q-53.5 11.5 -87.5 27.5l13 100q40 -25 89 -40.5t97 -15.5q62 0 97 25.5t35 74.5q0 35 -16.5 60t-47.5 44.5t-87 44.5q-66 30 -104.5 55t-61.5 62t-23 92q0 56 29 98.5t81.5 65.5t119.5 23q51 0 96.5 -11t77.5 -27l-10 -94q-83 49 -169 49q-58 0 -91 -24
t-33 -74q0 -34 17.5 -56.5t48.5 -40t94 -46.5q94 -42 137 -90.5t43 -121.5q0 -89 -65 -140.5t-177 -51.5q-49 0 -102.5 11.5z" />
    <glyph glyph-name="T" unicode="T" horiz-adv-x="476" 
d="M192 617h-174v83h440v-83h-174v-617h-92v617z" />
    <glyph glyph-name="U" unicode="U" horiz-adv-x="617" 
d="M120 62q-61 76 -61 215v423h91v-397q0 -73 11.5 -123t46.5 -80.5t100 -30.5q66 0 101 30.5t46.5 80.5t11.5 123v397h91v-423q0 -140 -61 -215.5t-189 -75.5q-127 0 -188 76z" />
    <glyph glyph-name="V" unicode="V" horiz-adv-x="566" 
d="M557 700l-222 -700h-105l-222 700h98l177 -583l177 583h97z" />
    <glyph glyph-name="W" unicode="W" horiz-adv-x="831" 
d="M8 700h98l126 -573l132 559h103l131 -559l127 573h97l-172 -700h-103l-133 554l-130 -554h-103z" />
    <glyph glyph-name="X" unicode="X" horiz-adv-x="534" 
d="M219 353l-207 347h101l155 -264l153 264h101l-206 -347l210 -353h-101l-157 271l-159 -271h-101z" />
    <glyph glyph-name="Y" unicode="Y" horiz-adv-x="517" 
d="M504 700l-206 -397v-303h-91v303l-208 397h101l152 -301l151 301h101z" />
    <glyph glyph-name="Z" unicode="Z" horiz-adv-x="480" 
d="M469 85v-85h-462l317 615h-278v85h419l-317 -615h321z" />
    <glyph glyph-name="bracketleft" unicode="[" horiz-adv-x="288" 
d="M58 750h221v-67h-140v-751h140v-67h-221v885z" />
    <glyph glyph-name="backslash" unicode="\" horiz-adv-x="363" 
d="M35 700h87l217 -785h-86z" />
    <glyph glyph-name="bracketright" unicode="]" horiz-adv-x="293" 
d="M14 -52h140v719h-140v83h221v-885h-221v83z" />
    <glyph glyph-name="asciicircum" unicode="^" horiz-adv-x="434" 
d="M40 543l177 216l177 -216v-109l-177 200l-177 -200v109z" />
    <glyph glyph-name="underscore" unicode="_" horiz-adv-x="480" 
d="M-1 -36h482v-86h-482v86z" />
    <glyph glyph-name="grave" unicode="`" horiz-adv-x="387" 
d="M120 641v99l147 -93v-63z" />
    <glyph glyph-name="a" unicode="a" horiz-adv-x="434" 
d="M60 30q-36 40 -36 102q0 92 77 132.5t172 42.5q0 64 -19 89t-64 25q-58 0 -118 -45l-11 73q63 51 146 51q79 0 117 -45.5t38 -146.5v-143q0 -57 8 -80.5t35 -23.5h11l-11 -71h-19q-46 0 -68 17t-36 55q-23 -33 -57 -52.5t-73 -19.5q-56 0 -92 40zM229 79.5
q26 18.5 44 48.5v117q-77 -4 -117 -29.5t-40 -78.5q0 -76 63 -76q24 0 50 18.5z" />
    <glyph glyph-name="b" unicode="b" horiz-adv-x="492" 
d="M367.5 465q43.5 -35 66.5 -93.5t23 -126.5q0 -71 -24 -129.5t-67.5 -92t-100.5 -33.5q-40 0 -74.5 15t-57.5 43l-4 -48h-79v750h87v-307q52 57 128 57q59 0 102.5 -35zM335.5 118.5q32.5 51.5 32.5 126.5q0 77 -32 127t-86 50t-87.5 -45.5t-33.5 -131.5
q0 -89 33.5 -133.5t87.5 -44.5q53 0 85.5 51.5z" />
    <glyph glyph-name="c" unicode="c" horiz-adv-x="385" 
d="M82 60.5q-58 70.5 -58 181.5q0 115 58 186.5t172 71.5q61 0 109 -25l-14 -77q-45 24 -94 24q-67 0 -104.5 -46.5t-37.5 -129.5t38.5 -131t106.5 -48q52 0 92 24l12 -78q-20 -10 -50 -16.5t-60 -6.5q-112 0 -170 70.5z" />
    <glyph glyph-name="d" unicode="d" horiz-adv-x="492" 
d="M437 750v-750h-77l-7 45q-23 -27 -55 -41t-70 -14q-57 0 -102 33.5t-71 91.5t-26 129q0 69 24.5 127.5t70 93.5t104.5 35q73 0 122 -51v301h87zM325 110.5q33 43.5 33 133.5q0 87 -33 132.5t-88 45.5q-34 0 -61 -23t-42.5 -63.5t-15.5 -91.5q0 -48 15.5 -88.5t43 -64.5
t60.5 -24q55 0 88 43.5z" />
    <glyph glyph-name="e" unicode="e" horiz-adv-x="439" 
d="M132.5 24.5q-52.5 34.5 -79 93.5t-26.5 131q0 69 24.5 126.5t71 91t110.5 33.5q82 0 133.5 -55t51.5 -152q0 -17 -4 -47h-298q3 -87 43.5 -132t105.5 -45q31 0 65.5 7.5t60.5 21.5l8 -78q-55 -30 -140 -30q-74 0 -126.5 34.5zM329 307q0 50 -24.5 81.5t-70.5 31.5
q-45 0 -74.5 -28t-39.5 -85h209z" />
    <glyph glyph-name="f" unicode="f" horiz-adv-x="292" 
d="M82 421h-68l10 69h58v131q0 58 33 93.5t94 35.5q37 0 65 -11l-11 -75q-21 7 -40 7q-26 0 -40 -16.5t-14 -46.5v-118h108v-69h-108v-421h-87v421z" />
    <glyph glyph-name="g" unicode="g" horiz-adv-x="424" 
d="M75.5 -214.5q-54.5 35.5 -54.5 97.5q0 71 78 124q-46 22 -46 67q0 23 14 40.5t40 27.5q-37 26 -57 70t-20 97q0 54 21 97.5t60.5 68.5t92.5 25q64 0 108 -36q39 36 83 36q13 0 25 -2l-9 -70q-10 2 -20 2q-21 0 -42 -9q29 -47 29 -112q0 -54 -21 -98.5t-60.5 -71
t-92.5 -26.5q-28 0 -50 7q-19 -8 -19 -23q0 -13 13 -20.5t46 -17.5l69 -21q62 -19 97.5 -37.5t52.5 -44t17 -63.5q0 -68 -59 -105.5t-154 -37.5q-87 0 -141.5 35.5zM271 216.5q24 34.5 24 91.5q0 54 -24 88t-67 34t-67 -33.5t-24 -88.5q0 -57 24 -91.5t67 -34.5t67 34.5z
M309.5 -162q32.5 17 32.5 50q0 27 -20 42.5t-73 31.5l-80 24q-68 -43 -68 -90q0 -37 32.5 -56t89.5 -19q54 0 86.5 17z" />
    <glyph glyph-name="h" unicode="h" horiz-adv-x="475" 
d="M388.5 440.5q40.5 -59.5 40.5 -160.5v-280h-87v269q0 78 -22 114.5t-68 36.5q-34 0 -61.5 -18.5t-46.5 -51.5v-350h-87v750h87v-312q21 29 55 45.5t73 16.5q76 0 116.5 -59.5z" />
    <glyph glyph-name="i" unicode="i" horiz-adv-x="204" 
d="M58 700h87v-99h-87v99zM58 490h87v-490h-87v490z" />
    <glyph glyph-name="j" unicode="j" horiz-adv-x="205" 
d="M59 700h87v-99h-87v99zM0 -174q27 3 39 11.5t16 28t4 61.5v563h87v-597q0 -65 -29 -93.5t-77 -36.5l-31 -5z" />
    <glyph glyph-name="k" unicode="k" horiz-adv-x="418" 
d="M61 750h87v-482l147 222h104l-162 -226l165 -264h-105l-149 250v-250h-87v750z" />
    <glyph glyph-name="l" unicode="l" horiz-adv-x="228" 
d="M82 24q-27 34 -27 84v642h87v-590q0 -44 4.5 -64.5t17.5 -27.5t42 -7l-11 -71h-30q-56 0 -83 34z" />
    <glyph glyph-name="m" unicode="m" horiz-adv-x="745" 
d="M702 280v-280h-87v269q0 80 -21.5 115.5t-72.5 35.5q-49 0 -75 -36t-26 -104v-280h-87v269q0 77 -21.5 114t-66.5 37q-33 0 -61 -18t-47 -50v-352h-87v490h72l7 -62q21 33 57 52.5t79 19.5q45 0 77.5 -21.5t51.5 -61.5q19 39 56.5 61t89.5 22q162 0 162 -220z" />
    <glyph glyph-name="n" unicode="n" horiz-adv-x="467" 
d="M381.5 440.5q40.5 -59.5 40.5 -160.5v-280h-87v269q0 78 -22.5 115.5t-67.5 37.5q-33 0 -61 -18.5t-47 -51.5v-352h-87v490h74l6 -61q21 33 56.5 52t78.5 19q76 0 116.5 -59.5z" />
    <glyph glyph-name="o" unicode="o" horiz-adv-x="472" 
d="M123 23.5q-48 33.5 -73.5 91.5t-25.5 130t25.5 130t73.5 91.5t114 33.5q65 0 113 -33.5t73 -91.5t25 -130t-25 -130t-73 -91.5t-113 -33.5q-66 0 -114 33.5zM327 114q32 47 32 131t-32 130.5t-90 46.5q-60 0 -92 -46.5t-32 -130.5q0 -85 32 -131.5t92 -46.5q58 0 90 47z
" />
    <glyph glyph-name="p" unicode="p" horiz-adv-x="486" 
d="M372.5 466.5q44.5 -33.5 68 -91.5t23.5 -130q0 -112 -51 -183.5t-144 -71.5q-38 0 -70.5 13.5t-55.5 39.5v-285h-87v732h67l8 -59q53 69 138 69q59 0 103.5 -33.5zM342.5 114q32.5 47 32.5 131q0 83 -32.5 130t-89.5 47q-30 0 -58 -20t-45.5 -60t-17.5 -97
q0 -59 17.5 -99t45 -59.5t58.5 -19.5q57 0 89.5 47z" />
    <glyph glyph-name="q" unicode="q" horiz-adv-x="493" 
d="M464 490v-732h-87v276q-46 -44 -116 -44q-98 0 -151.5 71.5t-53.5 183.5q0 68 24.5 126.5t71 93.5t107.5 35q44 0 75.5 -13.5t55.5 -41.5l6 45h68zM355 111.5q34 44.5 34 133.5q0 86 -34 131.5t-87 45.5q-57 0 -90 -47t-33 -130q0 -84 33 -131t90 -47q53 0 87 44.5z" />
    <glyph glyph-name="r" unicode="r" horiz-adv-x="295" 
d="M57 490h71l11 -82q33 48 62.5 70t62.5 22q13 0 23 -3l-9 -99q-13 3 -30 3q-33 0 -62 -16.5t-42 -38.5v-346h-87v490z" />
    <glyph glyph-name="s" unicode="s" horiz-adv-x="360" 
d="M33 30l11 88q64 -50 132 -50q36 0 56.5 15t20.5 44q0 22 -9.5 36t-31.5 27t-68 34q-54 25 -79 57t-25 83q0 60 42 98t113 38q72 0 126 -32l-11 -81q-27 18 -51 26.5t-57 8.5q-35 0 -55 -15t-20 -42t17.5 -41t68.5 -37q71 -32 100 -64.5t29 -85.5q0 -69 -43 -108t-117 -39
q-86 0 -149 40z" />
    <glyph glyph-name="t" unicode="t" horiz-adv-x="298" 
d="M112.5 24q-27.5 34 -27.5 83v314h-68l8 69h60v121l87 9v-130h106v-69h-106v-279q0 -45 16.5 -63t57.5 -18h31l-8 -71h-72q-57 0 -84.5 34z" />
    <glyph glyph-name="u" unicode="u" horiz-adv-x="475" 
d="M407 490v-490h-74l-6 60q-20 -33 -54 -51.5t-75 -18.5q-77 0 -114.5 51.5t-37.5 147.5v301h87v-290q0 -66 19.5 -98.5t65.5 -32.5q32 0 58 18t44 50v353h87z" />
    <glyph glyph-name="v" unicode="v" horiz-adv-x="420" 
d="M4 490h93l114 -387l112 387h93l-162 -490h-87z" />
    <glyph glyph-name="w" unicode="w" horiz-adv-x="613" 
d="M4 490h97l77 -393l86 378h83l87 -378l77 393h97l-125 -490h-88l-89 363l-89 -363h-87z" />
    <glyph glyph-name="x" unicode="x" horiz-adv-x="412" 
d="M151 244l-141 246h103l95 -196l87 196h105l-138 -238l142 -252h-104l-95 194l-94 -194h-103z" />
    <glyph glyph-name="y" unicode="y" horiz-adv-x="445" 
d="M183 22l-179 468h93l131 -365l120 365h93l-263 -732h-93z" />
    <glyph glyph-name="z" unicode="z" horiz-adv-x="406" 
d="M159 78h220v-78h-361l225 411h-214v79h355z" />
    <glyph glyph-name="braceleft" unicode="{" horiz-adv-x="272" 
d="M182.5 656q-24.5 -26 -24.5 -86q0 -23 4 -79q4 -54 4 -77q0 -44 -19.5 -69t-56.5 -38q37 -13 56.5 -38t19.5 -69q0 -23 -4 -77q-4 -56 -4 -79q0 -60 24.5 -86t72.5 -26h17v-68h-27q-80 0 -118.5 40.5t-38.5 109.5q0 21 4 75q4 56 4 81q0 56 -18 81.5t-62 25.5v60
q44 0 62 25.5t18 81.5q0 25 -4 81q-4 54 -4 75q0 69 38.5 109.5t118.5 40.5h27v-68h-17q-48 0 -72.5 -26z" />
    <glyph glyph-name="bar" unicode="|" horiz-adv-x="226" 
d="M71 750h85v-959h-85v959z" />
    <glyph glyph-name="braceright" unicode="}" horiz-adv-x="272" 
d="M193.5 362.5q17.5 -25.5 61.5 -25.5v-60q-44 0 -61.5 -25.5t-17.5 -81.5q0 -25 4 -81q4 -54 4 -75q0 -69 -38.5 -109.5t-118.5 -40.5h-27v68h17q48 0 72 26t24 86q0 23 -4 79q-4 54 -4 77q0 44 19.5 69t57.5 38q-38 13 -57.5 38t-19.5 69q0 23 4 77q4 56 4 79
q0 60 -24 86t-72 26h-17v68h27q80 0 118.5 -40.5t38.5 -109.5q0 -21 -4 -75q-4 -56 -4 -81q0 -56 17.5 -81.5z" />
    <glyph glyph-name="asciitilde" unicode="~" horiz-adv-x="403" 
d="M238 303q-18 6 -39 18q-20 10 -32.5 15t-27.5 5t-23.5 -11.5t-8.5 -31.5h-71q2 59 25 90.5t65 31.5q23 0 41 -6.5t40 -18.5q18 -9 31 -14t27 -5q15 0 23.5 11.5t8.5 31.5h70q-2 -59 -25 -90.5t-64 -31.5q-22 0 -40 6z" />
    <glyph glyph-name="uni00A0" unicode="&#xa0;" horiz-adv-x="194" 
 />
    <glyph glyph-name="exclamdown" unicode="&#xa1;" horiz-adv-x="226" 
d="M166 500v-105h-100v105h100zM156 331v-26l18 -505h-116l18 505v26h80z" />
    <glyph glyph-name="cent" unicode="&#xa2;" horiz-adv-x="385" 
d="M362 13q-40 -20 -99 -23l8 -134h-78l8 138q-87 17 -132 84t-45 164q0 101 44.5 169t132.5 84l-8 135h78l-8 -130q58 -3 100 -25l-14 -77q-45 24 -94 24q-67 0 -104.5 -46.5t-37.5 -129.5t38.5 -131t106.5 -48q52 0 92 24z" />
    <glyph glyph-name="sterling" unicode="&#xa3;" horiz-adv-x="448" 
d="M428 83v-83h-388q34 85 52 154.5t27 162.5h-69v72h76l12 112q9 102 53 157.5t125 55.5q53 0 107 -27l-10 -98q-25 21 -46.5 31.5t-46.5 10.5q-79 0 -92 -122l-12 -120h160v-72h-168q-8 -81 -19 -132.5t-31 -101.5h270z" />
    <glyph glyph-name="currency" unicode="&#xa4;" horiz-adv-x="626" 
d="M528 253.5q-15 -44.5 -42 -77.5l88 -88l-27 -27l-87 87q-62 -54 -147 -54q-86 0 -146 54l-88 -87l-27 27l88 88q-27 33 -41.5 77t-14.5 95q0 50 15 94t42 77l-89 89l27 27l88 -87q62 54 146 54q86 0 146 -54l88 87l27 -27l-88 -88q27 -34 42 -78t15 -94t-15 -94.5z
M417 224q37 49 37 124t-37 124t-104 49t-103.5 -49t-36.5 -124t36.5 -124t103.5 -49t104 49z" />
    <glyph glyph-name="yen" unicode="&#xa5;" horiz-adv-x="514" 
d="M333 361h114v-73h-144v-67h144v-73h-144v-148h-91v148h-144v73h144v67h-144v73h114l-178 339h102l152 -300l150 300h101z" />
    <glyph glyph-name="brokenbar" unicode="&#xa6;" horiz-adv-x="230" 
d="M73 750h85v-408h-85v408zM73 198h85v-408h-85v408z" />
    <glyph glyph-name="section" unicode="&#xa7;" horiz-adv-x="456" 
d="M123 -73q-40 11 -60 28l13 62q68 -41 131 -41q48 0 76 22t28 65q0 26 -15 44t-37 29.5t-64 28.5q-50 19 -82 37t-54 49t-22 79q0 50 29 88t81 61q-35 24 -50 52t-15 67q0 67 43 109.5t122 42.5q44 0 83 -12t64 -28l-13 -62q-31 19 -64.5 31t-65.5 12q-44 0 -70.5 -23
t-26.5 -56q0 -36 27 -57.5t83 -46.5q50 -22 80.5 -41.5t52.5 -52.5t22 -83q0 -41 -23.5 -80t-81.5 -63q60 -36 60 -119q0 -62 -40.5 -107.5t-127.5 -45.5q-43 0 -83 11zM324 258q22 29 22 66q0 72 -139 124q-48 -13 -75.5 -37.5t-27.5 -68.5q0 -34 19.5 -56t52.5 -36t90 -31
q36 10 58 39z" />
    <glyph glyph-name="dieresis" unicode="&#xa8;" horiz-adv-x="437" 
d="M100 671h82v-80h-82v80zM256 671h82v-80h-82v80z" />
    <glyph glyph-name="copyright" unicode="&#xa9;" horiz-adv-x="602" 
d="M163.5 78q-60.5 41 -95 115.5t-34.5 171.5q0 98 34.5 172.5t95 115t137.5 40.5t138 -40.5t95 -115t34 -172.5q0 -97 -34 -171.5t-95 -115.5t-138 -41t-137.5 41zM459.5 159.5q55.5 79.5 55.5 205.5t-55.5 205t-158.5 79t-158.5 -79t-55.5 -205t55.5 -205.5t158.5 -79.5
t158.5 79.5zM209.5 242.5q-38.5 45.5 -38.5 120.5q0 76 38.5 121.5t99.5 45.5q42 0 82 -19l-8 -59q-41 19 -74 19q-35 0 -53.5 -30t-18.5 -78q0 -47 18.5 -77.5t53.5 -30.5q34 0 74 20l8 -58q-35 -20 -82 -20q-61 0 -99.5 45.5z" />
    <glyph glyph-name="ordfeminine" unicode="&#xaa;" horiz-adv-x="298" 
d="M47.5 455q-21.5 21 -21.5 59q0 52 40.5 76.5t100.5 29.5q-2 23 -10 32.5t-31 9.5q-18 0 -34 -4.5t-39 -15.5l-5 60q53 23 99 23q43 0 69.5 -26.5t26.5 -81.5v-93q0 -14 4 -20.5t14 -6.5h11l-5 -60h-29q-42 0 -59 34q-11 -16 -30.5 -26.5t-42.5 -10.5q-37 0 -58.5 21z
M168 509v61q-31 -3 -47.5 -15t-16.5 -36q0 -30 27 -30q20 0 37 20z" />
    <glyph glyph-name="guillemotleft" unicode="&#xab;" horiz-adv-x="529" 
d="M9 284l134 206h107l-135 -206l135 -206h-107zM239 284l134 206h107l-135 -206l135 -206h-107z" />
    <glyph glyph-name="logicalnot" unicode="&#xac;" horiz-adv-x="472" 
d="M348 332h-302v74h380v-255h-78v181z" />
    <glyph glyph-name="uni00AD" unicode="&#xad;" horiz-adv-x="371" 
d="M52 354h267v-86h-267v86z" />
    <glyph glyph-name="registered" unicode="&#xae;" horiz-adv-x="602" 
d="M163.5 78q-60.5 41 -95 115.5t-34.5 171.5q0 98 34.5 172.5t95 115t137.5 40.5t138 -40.5t95 -115t34 -172.5q0 -97 -34 -171.5t-95 -115.5t-138 -41t-137.5 41zM459.5 159q55.5 80 55.5 206t-55.5 205.5t-158.5 79.5t-158.5 -79.5t-55.5 -205.5t55.5 -206t158.5 -80
t158.5 80zM198 531h105q47 0 72.5 -22.5t25.5 -77.5q0 -48 -44 -87l62 -134h-65l-55 117h-38v-117h-63v321zM289 383q26 0 36.5 13t10.5 37q0 25 -10 37.5t-35 12.5h-30v-100h28z" />
    <glyph glyph-name="macron" unicode="&#xaf;" horiz-adv-x="480" 
d="M100 660h280v-68h-280v68z" />
    <glyph glyph-name="degree" unicode="&#xb0;" horiz-adv-x="267" 
d="M41 520.5q-33 38.5 -33 97.5q0 60 33 98.5t92 38.5t92.5 -39t33.5 -98t-33.5 -97.5t-92.5 -38.5t-92 38.5zM192.5 549.5q20.5 28.5 20.5 68.5t-20.5 69t-59.5 29q-38 0 -59 -29t-21 -69t21 -68.5t59 -28.5q39 0 59.5 28.5z" />
    <glyph glyph-name="plusminus" unicode="&#xb1;" horiz-adv-x="387" 
d="M159 312h-124v69h124v139h69v-139h124v-69h-124v-138h-69v138zM35 130h317v-70h-317v70z" />
    <glyph glyph-name="uni00B2" unicode="&#xb2;" horiz-adv-x="264" 
d="M236 451v-65h-203l87 158q18 33 25.5 56t7.5 46q0 26 -13 41.5t-38 15.5q-30 0 -63 -26l-7 71q16 10 39 17t46 7q51 0 81.5 -32.5t30.5 -83.5q0 -34 -11 -65.5t-42 -85.5l-31 -54h91z" />
    <glyph glyph-name="uni00B3" unicode="&#xb3;" horiz-adv-x="310" 
d="M240.5 545.5q17.5 -24.5 17.5 -59.5q0 -52 -36 -83t-91 -31q-48 0 -95 19l19 67q35 -22 69 -22q28 0 43.5 13.5t15.5 40.5q0 56 -71 56h-11v63h12q28 0 44.5 13.5t16.5 36.5t-13 36t-37 13q-30 0 -59 -18l-7 68q34 14 78 14q51 0 80.5 -27t29.5 -72q0 -63 -55 -92
q32 -11 49.5 -35.5z" />
    <glyph glyph-name="acute" unicode="&#xb4;" horiz-adv-x="427" 
d="M140 645l147 94v-98l-147 -57v61z" />
    <glyph glyph-name="uni00B5" unicode="&#xb5;" horiz-adv-x="476" 
d="M50 490h87v-297q0 -59 23.5 -92t69.5 -33q30 0 52 14.5t42 44.5v363h87v-382q0 -25 8.5 -36t29.5 -11h4l-8 -71h-15q-73 0 -99 63q-24 -32 -50.5 -48t-62.5 -16q-49 0 -82 28v-259h-86v732z" />
    <glyph glyph-name="paragraph" unicode="&#xb6;" horiz-adv-x="538" 
d="M263 243q-77 5 -130 39t-79 85t-26 107q0 58 27.5 109.5t83.5 84t136 32.5h223v-66h-62v-634h-55v634h-73v-634h-45v243z" />
    <glyph glyph-name="periodcentered" unicode="&#xb7;" horiz-adv-x="221" 
d="M57 343h107v-130h-107v130z" />
    <glyph glyph-name="cedilla" unicode="&#xb8;" horiz-adv-x="367" 
d="M245.5 -76q21.5 -22 21.5 -59q0 -43 -28.5 -67t-72.5 -24q-38 0 -66 13l15 47q25 -11 51 -11q22 0 34.5 10.5t12.5 31.5q0 19 -11 29.5t-32 10.5q-16 0 -37 -6l24 101h46l-17 -54q38 0 59.5 -22z" />
    <glyph glyph-name="uni00B9" unicode="&#xb9;" horiz-adv-x="206" 
d="M74 665q-17 -23 -39 -31l-7 66q19 8 37 24.5t29 33.5h51v-372h-71v279z" />
    <glyph glyph-name="ordmasculine" unicode="&#xba;" horiz-adv-x="319" 
d="M62.5 476.5q-36.5 42.5 -36.5 103.5t36 103t98 42q61 0 97 -42t36 -103t-36 -103.5t-97 -42.5t-97.5 42.5zM201.5 517.5q15.5 24.5 15.5 62.5t-15.5 62t-41.5 24q-28 0 -43.5 -24t-15.5 -62q0 -39 15.5 -63t43.5 -24q26 0 41.5 24.5z" />
    <glyph glyph-name="guillemotright" unicode="&#xbb;" horiz-adv-x="529" 
d="M413 284l-134 206h106l135 -206l-135 -206h-106zM183 284l-134 206h106l135 -206l-135 -206h-106z" />
    <glyph glyph-name="onequarter" unicode="&#xbc;" horiz-adv-x="531" 
d="M66 607q-17 -23 -39 -31l-7 66q19 8 37 24.5t29 33.5h51v-372h-71v279zM389 700h80l-345 -700h-81zM511 133v-54h-36v-79h-69v79h-158l168 293h59v-239h36zM406 181l4 75l-40 -76l-28 -47h64v48z" />
    <glyph glyph-name="onehalf" unicode="&#xbd;" horiz-adv-x="580" 
d="M66 607q-17 -23 -39 -31l-7 66q19 8 37 24.5t29 33.5h51v-372h-71v279zM389 700h80l-345 -700h-81zM561 65v-65h-203l87 158q18 33 25.5 56t7.5 46q0 26 -13 41.5t-38 15.5q-30 0 -63 -26l-7 71q16 10 39 17t46 7q51 0 81.5 -32.5t30.5 -83.5q0 -34 -11 -65.5t-42 -85.5
l-31 -54h91z" />
    <glyph glyph-name="threequarters" unicode="&#xbe;" horiz-adv-x="584" 
d="M224.5 487.5q17.5 -24.5 17.5 -59.5q0 -52 -36 -83t-91 -31q-48 0 -95 19l19 67q35 -22 69 -22q28 0 43.5 13.5t15.5 40.5q0 56 -71 56h-11v63h12q28 0 44.5 13.5t16.5 36.5t-13 36t-37 13q-30 0 -59 -18l-7 68q34 14 78 14q51 0 80.5 -27t29.5 -72q0 -63 -55 -92
q32 -11 49.5 -35.5zM444 700h80l-345 -700h-81zM565 133v-54h-36v-79h-69v79h-158l168 293h59v-239h36zM460 181l4 75l-40 -76l-28 -47h64v48z" />
    <glyph glyph-name="questiondown" unicode="&#xbf;" horiz-adv-x="336" 
d="M254 395h-100v105h100v-105zM249 304q0 -59 -18 -98t-55 -89q-30 -39 -41.5 -56t-19.5 -38t-8 -48q0 -49 29 -76.5t79 -27.5t102 27l9 -80q-62 -32 -147 -32q-53 0 -91.5 24t-58 64.5t-19.5 88.5q0 47 16.5 81t36.5 60.5t26 34.5q38 49 53.5 81.5t15.5 77.5v33h91v-27z
" />
    <glyph glyph-name="Agrave" unicode="&#xc0;" horiz-adv-x="540" 
d="M379 190h-217l-56 -190h-98l215 700h94l215 -700h-97zM354 275l-84 284l-83 -284h167zM197 808v95l147 -81v-58z" />
    <glyph glyph-name="Aacute" unicode="&#xc1;" horiz-adv-x="540" 
d="M379 190h-217l-56 -190h-98l215 700h94l215 -700h-97zM354 275l-84 284l-83 -284h167zM198 822l147 81v-93l-147 -46v58z" />
    <glyph glyph-name="Acircumflex" unicode="&#xc2;" horiz-adv-x="540" 
d="M379 190h-217l-56 -190h-98l215 700h94l215 -700h-97zM354 275l-84 284l-83 -284h167zM154 816l117 83l117 -83v-61l-117 62l-117 -62v61z" />
    <glyph glyph-name="Atilde" unicode="&#xc3;" horiz-adv-x="540" 
d="M379 190h-217l-56 -190h-98l215 700h94l215 -700h-97zM354 275l-84 284l-83 -284h167zM310 793.5q-16 5.5 -37 15.5q-3 1 -20.5 8.5t-30.5 7.5q-14 0 -22 -8.5t-8 -23.5h-65q0 48 19 74t54 26q16 0 32 -5.5t37 -15.5q3 -1 20.5 -8.5t30.5 -7.5q14 0 22 8.5t8 23.5h65
q0 -48 -19 -74t-54 -26q-16 0 -32 5.5z" />
    <glyph glyph-name="Adieresis" unicode="&#xc4;" horiz-adv-x="540" 
d="M379 190h-217l-56 -190h-98l215 700h94l215 -700h-97zM354 275l-84 284l-83 -284h167zM152 869h84v-75h-84v75zM306 869h84v-75h-84v75z" />
    <glyph glyph-name="Aring" unicode="&#xc5;" horiz-adv-x="540" 
d="M379 190h-217l-56 -190h-98l215 700h94l215 -700h-97zM354 275l-84 284l-83 -284h167zM201.5 784.5q-24.5 28.5 -24.5 69.5q0 40 25 69t69 29t69 -29t25 -69q0 -41 -24.5 -69.5t-69.5 -28.5t-69.5 28.5zM303 814.5q12 14.5 12 39.5q0 24 -12 39t-32 15t-32 -15t-12 -39
q0 -25 12 -39.5t32 -14.5t32 14.5z" />
    <glyph glyph-name="AE" unicode="&#xc6;" horiz-adv-x="752" 
d="M723 83v-83h-382v185h-172l-78 -185h-96l296 700h424v-83h-283v-209h223v-84h-223v-241h291zM341 270v326l-137 -326h137z" />
    <glyph glyph-name="Ccedilla" unicode="&#xc7;" horiz-adv-x="524" 
d="M360 -14l-13 -40q38 0 59.5 -22t21.5 -59q0 -43 -28.5 -67t-72.5 -24q-38 0 -66 13l15 47q25 -11 51 -11q22 0 34.5 10.5t12.5 31.5q0 19 -11 29.5t-32 10.5q-16 0 -37 -6l21 89q-87 8 -151.5 54.5t-99 125.5t-34.5 182q0 109 40.5 191.5t112.5 127.5t163 45
q80 0 152 -30l-10 -85q-64 32 -124 32q-74 0 -126.5 -37t-79.5 -101t-27 -143t27 -143t79.5 -101t127.5 -37q65 0 123 30l10 -85q-62 -27 -138 -28z" />
    <glyph glyph-name="Egrave" unicode="&#xc8;" horiz-adv-x="477" 
d="M66 700h374v-83h-283v-209h224v-84h-224v-241h291v-83h-382v700zM180 808v95l147 -81v-58z" />
    <glyph glyph-name="Eacute" unicode="&#xc9;" horiz-adv-x="477" 
d="M66 700h374v-83h-283v-209h224v-84h-224v-241h291v-83h-382v700zM181 822l147 81v-93l-147 -46v58z" />
    <glyph glyph-name="Ecircumflex" unicode="&#xca;" horiz-adv-x="477" 
d="M66 700h374v-83h-283v-209h224v-84h-224v-241h291v-83h-382v700zM137 816l117 83l117 -83v-61l-117 62l-117 -62v61z" />
    <glyph glyph-name="Edieresis" unicode="&#xcb;" horiz-adv-x="477" 
d="M66 700h374v-83h-283v-209h224v-84h-224v-241h291v-83h-382v700zM135 869h84v-75h-84v75zM289 869h84v-75h-84v75z" />
    <glyph glyph-name="Igrave" unicode="&#xcc;" horiz-adv-x="240" 
d="M74 700h92v-700h-92v700zM46 808v95l147 -81v-58z" />
    <glyph glyph-name="Iacute" unicode="&#xcd;" horiz-adv-x="240" 
d="M74 700h92v-700h-92v700zM47 822l147 81v-93l-147 -46v58z" />
    <glyph glyph-name="Icircumflex" unicode="&#xce;" horiz-adv-x="240" 
d="M74 700h92v-700h-92v700zM3 816l117 83l117 -83v-61l-117 62l-117 -62v61z" />
    <glyph glyph-name="Idieresis" unicode="&#xcf;" horiz-adv-x="240" 
d="M74 700h92v-700h-92v700zM1 869h84v-75h-84v75zM155 869h84v-75h-84v75z" />
    <glyph glyph-name="Eth" unicode="&#xd0;" horiz-adv-x="623" 
d="M72 313h-62v84h62v303h222q87 0 154.5 -42t105.5 -121t38 -187t-38 -187t-105.5 -121t-154.5 -42h-222v313zM277 83q105 0 159.5 70t54.5 197t-54.5 197t-159.5 70h-114v-220h119v-84h-119v-230h114z" />
    <glyph glyph-name="Ntilde" unicode="&#xd1;" horiz-adv-x="603" 
d="M66 700h103l277 -512v512h91v-700h-85l-295 541v-541h-91v700zM347 793.5q-16 5.5 -37 15.5q-3 1 -20.5 8.5t-30.5 7.5q-14 0 -22 -8.5t-8 -23.5h-65q0 48 19 74t54 26q16 0 32 -5.5t37 -15.5q3 -1 20.5 -8.5t30.5 -7.5q14 0 22 8.5t8 23.5h65q0 -48 -19 -74t-54 -26
q-16 0 -32 5.5z" />
    <glyph glyph-name="Ograve" unicode="&#xd2;" horiz-adv-x="653" 
d="M173.5 31q-67.5 45 -105.5 127.5t-38 191.5t38 191.5t105.5 127.5t153.5 45t153 -45t105 -127.5t38 -191.5t-38 -191.5t-105 -127.5t-153 -45t-153.5 45zM474.5 153.5q51.5 76.5 51.5 196.5t-51.5 196.5t-147.5 76.5t-148 -76.5t-52 -196.5t52 -196.5t148 -76.5
t147.5 76.5zM253 808v95l147 -81v-58z" />
    <glyph glyph-name="Oacute" unicode="&#xd3;" horiz-adv-x="653" 
d="M173.5 31q-67.5 45 -105.5 127.5t-38 191.5t38 191.5t105.5 127.5t153.5 45t153 -45t105 -127.5t38 -191.5t-38 -191.5t-105 -127.5t-153 -45t-153.5 45zM474.5 153.5q51.5 76.5 51.5 196.5t-51.5 196.5t-147.5 76.5t-148 -76.5t-52 -196.5t52 -196.5t148 -76.5
t147.5 76.5zM254 822l147 81v-93l-147 -46v58z" />
    <glyph glyph-name="Ocircumflex" unicode="&#xd4;" horiz-adv-x="653" 
d="M173.5 31q-67.5 45 -105.5 127.5t-38 191.5t38 191.5t105.5 127.5t153.5 45t153 -45t105 -127.5t38 -191.5t-38 -191.5t-105 -127.5t-153 -45t-153.5 45zM474.5 153.5q51.5 76.5 51.5 196.5t-51.5 196.5t-147.5 76.5t-148 -76.5t-52 -196.5t52 -196.5t148 -76.5
t147.5 76.5zM210 816l117 83l117 -83v-61l-117 62l-117 -62v61z" />
    <glyph glyph-name="Otilde" unicode="&#xd5;" horiz-adv-x="653" 
d="M173.5 31q-67.5 45 -105.5 127.5t-38 191.5t38 191.5t105.5 127.5t153.5 45t153 -45t105 -127.5t38 -191.5t-38 -191.5t-105 -127.5t-153 -45t-153.5 45zM474.5 153.5q51.5 76.5 51.5 196.5t-51.5 196.5t-147.5 76.5t-148 -76.5t-52 -196.5t52 -196.5t148 -76.5
t147.5 76.5zM366 793.5q-16 5.5 -37 15.5q-3 1 -20.5 8.5t-30.5 7.5q-14 0 -22 -8.5t-8 -23.5h-65q0 48 19 74t54 26q16 0 32 -5.5t37 -15.5q3 -1 20.5 -8.5t30.5 -7.5q14 0 22 8.5t8 23.5h65q0 -48 -19 -74t-54 -26q-16 0 -32 5.5z" />
    <glyph glyph-name="Odieresis" unicode="&#xd6;" horiz-adv-x="653" 
d="M173.5 31q-67.5 45 -105.5 127.5t-38 191.5t38 191.5t105.5 127.5t153.5 45t153 -45t105 -127.5t38 -191.5t-38 -191.5t-105 -127.5t-153 -45t-153.5 45zM474.5 153.5q51.5 76.5 51.5 196.5t-51.5 196.5t-147.5 76.5t-148 -76.5t-52 -196.5t52 -196.5t148 -76.5
t147.5 76.5zM208 869h84v-75h-84v75zM362 869h84v-75h-84v75z" />
    <glyph glyph-name="multiply" unicode="&#xd7;" horiz-adv-x="374" 
d="M296 113l-109 117l-109 -117l-54 49l113 122l-112 121l54 50l108 -117l108 117l54 -50l-112 -121l113 -122z" />
    <glyph glyph-name="Oslash" unicode="&#xd8;" horiz-adv-x="653" 
d="M600 504q23 -69 23 -154q0 -109 -38 -191.5t-105 -127.5t-153 -45q-85 0 -152 44l-45 -74h-85l74 123q-43 48 -66 117t-23 154q0 109 38 191.5t105.5 127.5t153.5 45t151 -44l45 74h85l-74 -122q43 -49 66 -118zM172 165l258 426q-43 32 -103 32q-96 0 -148 -76.5
t-52 -196.5q0 -113 45 -185zM474.5 153.5q51.5 76.5 51.5 196.5q0 112 -44 185l-259 -426q45 -32 104 -32q96 0 147.5 76.5z" />
    <glyph glyph-name="Ugrave" unicode="&#xd9;" horiz-adv-x="617" 
d="M120 62q-61 76 -61 215v423h91v-397q0 -73 11.5 -123t46.5 -80.5t100 -30.5q66 0 101 30.5t46.5 80.5t11.5 123v397h91v-423q0 -140 -61 -215.5t-189 -75.5q-127 0 -188 76zM235 808v95l147 -81v-58z" />
    <glyph glyph-name="Uacute" unicode="&#xda;" horiz-adv-x="617" 
d="M120 62q-61 76 -61 215v423h91v-397q0 -73 11.5 -123t46.5 -80.5t100 -30.5q66 0 101 30.5t46.5 80.5t11.5 123v397h91v-423q0 -140 -61 -215.5t-189 -75.5q-127 0 -188 76zM236 822l147 81v-93l-147 -46v58z" />
    <glyph glyph-name="Ucircumflex" unicode="&#xdb;" horiz-adv-x="617" 
d="M120 62q-61 76 -61 215v423h91v-397q0 -73 11.5 -123t46.5 -80.5t100 -30.5q66 0 101 30.5t46.5 80.5t11.5 123v397h91v-423q0 -140 -61 -215.5t-189 -75.5q-127 0 -188 76zM192 816l117 83l117 -83v-61l-117 62l-117 -62v61z" />
    <glyph glyph-name="Udieresis" unicode="&#xdc;" horiz-adv-x="617" 
d="M120 62q-61 76 -61 215v423h91v-397q0 -73 11.5 -123t46.5 -80.5t100 -30.5q66 0 101 30.5t46.5 80.5t11.5 123v397h91v-423q0 -140 -61 -215.5t-189 -75.5q-127 0 -188 76zM190 869h84v-75h-84v75zM344 869h84v-75h-84v75z" />
    <glyph glyph-name="Yacute" unicode="&#xdd;" horiz-adv-x="517" 
d="M504 700l-206 -397v-303h-91v303l-208 397h101l152 -301l151 301h101zM179 822l147 81v-93l-147 -46v58z" />
    <glyph glyph-name="Thorn" unicode="&#xde;" horiz-adv-x="511" 
d="M74 700h92v-155h123q104 0 154.5 -47t50.5 -130q0 -82 -51 -129t-154 -47h-123v-192h-92v700zM282 271q59 0 89.5 25t30.5 72t-30.5 72t-89.5 25h-116v-194h116z" />
    <glyph glyph-name="germandbls" unicode="&#xdf;" horiz-adv-x="499" 
d="M211 0v75q41 -12 84 -12q41 0 65 21.5t24 58.5q0 40 -19 64t-56 50q-38 28 -57 52.5t-19 65.5q0 30 11 55t36 60q27 37 37 60.5t10 54.5q0 37 -18.5 58.5t-53.5 21.5q-45 0 -68 -34.5t-23 -97.5v-553h-87v421h-60l8 69h52v61q0 104 49 158.5t131 54.5q71 0 113.5 -41
t42.5 -110q0 -40 -11.5 -71.5t-38.5 -70.5q-23 -34 -32 -51t-9 -34q0 -23 14 -40t45 -42q29 -23 47.5 -42t31.5 -47.5t13 -67.5q0 -49 -23 -85.5t-63 -56t-88 -19.5q-44 0 -88 14z" />
    <glyph glyph-name="agrave" unicode="&#xe0;" horiz-adv-x="434" 
d="M60 30q-36 40 -36 102q0 92 77 132.5t172 42.5q0 64 -19 89t-64 25q-58 0 -118 -45l-11 73q63 51 146 51q79 0 117 -45.5t38 -146.5v-143q0 -57 8 -80.5t35 -23.5h11l-11 -71h-19q-46 0 -68 17t-36 55q-23 -33 -57 -52.5t-73 -19.5q-56 0 -92 40zM229 79.5
q26 18.5 44 48.5v117q-77 -4 -117 -29.5t-40 -78.5q0 -76 63 -76q24 0 50 18.5zM143 641v99l147 -93v-63z" />
    <glyph glyph-name="aacute" unicode="&#xe1;" horiz-adv-x="434" 
d="M60 30q-36 40 -36 102q0 92 77 132.5t172 42.5q0 64 -19 89t-64 25q-58 0 -118 -45l-11 73q63 51 146 51q79 0 117 -45.5t38 -146.5v-143q0 -57 8 -80.5t35 -23.5h11l-11 -71h-19q-46 0 -68 17t-36 55q-23 -33 -57 -52.5t-73 -19.5q-56 0 -92 40zM229 79.5
q26 18.5 44 48.5v117q-77 -4 -117 -29.5t-40 -78.5q0 -76 63 -76q24 0 50 18.5zM144 645l147 94v-98l-147 -57v61z" />
    <glyph glyph-name="acircumflex" unicode="&#xe2;" horiz-adv-x="434" 
d="M60 30q-36 40 -36 102q0 92 77 132.5t172 42.5q0 64 -19 89t-64 25q-58 0 -118 -45l-11 73q63 51 146 51q79 0 117 -45.5t38 -146.5v-143q0 -57 8 -80.5t35 -23.5h11l-11 -71h-19q-46 0 -68 17t-36 55q-23 -33 -57 -52.5t-73 -19.5q-56 0 -92 40zM229 79.5
q26 18.5 44 48.5v117q-77 -4 -117 -29.5t-40 -78.5q0 -76 63 -76q24 0 50 18.5zM110 624l107 91l107 -91v-60l-107 67l-107 -67v60z" />
    <glyph glyph-name="atilde" unicode="&#xe3;" horiz-adv-x="434" 
d="M60 30q-36 40 -36 102q0 92 77 132.5t172 42.5q0 64 -19 89t-64 25q-58 0 -118 -45l-11 73q63 51 146 51q79 0 117 -45.5t38 -146.5v-143q0 -57 8 -80.5t35 -23.5h11l-11 -71h-19q-46 0 -68 17t-36 55q-23 -33 -57 -52.5t-73 -19.5q-56 0 -92 40zM229 79.5
q26 18.5 44 48.5v117q-77 -4 -117 -29.5t-40 -78.5q0 -76 63 -76q24 0 50 18.5zM252 587q-15 7 -36 20q-27 20 -46 20q-13 0 -20 -10.5t-7 -28.5h-72q5 111 76 111q20 0 35 -7t36 -20q27 -20 46 -20q13 0 20 10.5t7 28.5h72q-5 -111 -76 -111q-20 0 -35 7z" />
    <glyph glyph-name="adieresis" unicode="&#xe4;" horiz-adv-x="434" 
d="M60 30q-36 40 -36 102q0 92 77 132.5t172 42.5q0 64 -19 89t-64 25q-58 0 -118 -45l-11 73q63 51 146 51q79 0 117 -45.5t38 -146.5v-143q0 -57 8 -80.5t35 -23.5h11l-11 -71h-19q-46 0 -68 17t-36 55q-23 -33 -57 -52.5t-73 -19.5q-56 0 -92 40zM229 79.5
q26 18.5 44 48.5v117q-77 -4 -117 -29.5t-40 -78.5q0 -76 63 -76q24 0 50 18.5zM98 671h82v-80h-82v80zM254 671h82v-80h-82v80z" />
    <glyph glyph-name="aring" unicode="&#xe5;" horiz-adv-x="434" 
d="M60 30q-36 40 -36 102q0 92 77 132.5t172 42.5q0 64 -19 89t-64 25q-58 0 -118 -45l-11 73q63 51 146 51q79 0 117 -45.5t38 -146.5v-143q0 -57 8 -80.5t35 -23.5h11l-11 -71h-19q-46 0 -68 17t-36 55q-23 -33 -57 -52.5t-73 -19.5q-56 0 -92 40zM229 79.5
q26 18.5 44 48.5v117q-77 -4 -117 -29.5t-40 -78.5q0 -76 63 -76q24 0 50 18.5zM147.5 597q-24.5 29 -24.5 71q0 41 24.5 70.5t69.5 29.5q46 0 70 -29t24 -71t-24 -71t-70 -29q-45 0 -69.5 29zM251 626.5q13 15.5 13 41.5q0 25 -13 41t-34 16t-34 -16t-13 -41
q0 -26 13 -41.5t34 -15.5t34 15.5z" />
    <glyph glyph-name="ae" unicode="&#xe6;" horiz-adv-x="687" 
d="M662 246h-297q2 -86 42.5 -131.5t105.5 -45.5q31 0 65.5 7.5t60.5 21.5l8 -78q-55 -30 -139 -30q-60 0 -106.5 23.5t-76.5 65.5q-35 -44 -71.5 -66.5t-86.5 -22.5q-63 0 -103 39.5t-40 102.5q0 91 70.5 131.5t181.5 43.5v6q0 60 -20 84t-66 24q-58 0 -118 -45l-11 73
q63 51 146 51q49 0 81 -18.5t50 -57.5q60 76 158 76q75 0 122.5 -55t47.5 -152q0 -17 -4 -47zM577 307q0 50 -24 81.5t-70 31.5t-75.5 -28.5t-38.5 -84.5h208zM246 81q28 20 49 55q-19 52 -19 110q-74 -3 -117 -32t-43 -81q0 -32 19.5 -52t50.5 -20q32 0 60 20z" />
    <glyph glyph-name="ccedilla" unicode="&#xe7;" horiz-adv-x="385" 
d="M315.5 -2.5q-27.5 -6.5 -55.5 -7.5l-14 -44q38 0 59.5 -22t21.5 -59q0 -43 -28.5 -67t-72.5 -24q-38 0 -66 13l15 47q25 -11 51 -11q22 0 34.5 10.5t12.5 31.5q0 19 -11 29.5t-32 10.5q-16 0 -37 -6l22 93q-94 12 -142.5 80.5t-48.5 169.5q0 115 58 186.5t172 71.5
q61 0 109 -25l-14 -77q-45 24 -94 24q-67 0 -104.5 -46.5t-37.5 -129.5t38.5 -131t106.5 -48q52 0 92 24l12 -78q-19 -9 -46.5 -15.5z" />
    <glyph glyph-name="egrave" unicode="&#xe8;" horiz-adv-x="439" 
d="M132.5 24.5q-52.5 34.5 -79 93.5t-26.5 131q0 69 24.5 126.5t71 91t110.5 33.5q82 0 133.5 -55t51.5 -152q0 -17 -4 -47h-298q3 -87 43.5 -132t105.5 -45q31 0 65.5 7.5t60.5 21.5l8 -78q-55 -30 -140 -30q-74 0 -126.5 34.5zM329 307q0 50 -24.5 81.5t-70.5 31.5
q-45 0 -74.5 -28t-39.5 -85h209zM160 641v99l147 -93v-63z" />
    <glyph glyph-name="eacute" unicode="&#xe9;" horiz-adv-x="439" 
d="M132.5 24.5q-52.5 34.5 -79 93.5t-26.5 131q0 69 24.5 126.5t71 91t110.5 33.5q82 0 133.5 -55t51.5 -152q0 -17 -4 -47h-298q3 -87 43.5 -132t105.5 -45q31 0 65.5 7.5t60.5 21.5l8 -78q-55 -30 -140 -30q-74 0 -126.5 34.5zM329 307q0 50 -24.5 81.5t-70.5 31.5
q-45 0 -74.5 -28t-39.5 -85h209zM161 645l147 94v-98l-147 -57v61z" />
    <glyph glyph-name="ecircumflex" unicode="&#xea;" horiz-adv-x="439" 
d="M132.5 24.5q-52.5 34.5 -79 93.5t-26.5 131q0 69 24.5 126.5t71 91t110.5 33.5q82 0 133.5 -55t51.5 -152q0 -17 -4 -47h-298q3 -87 43.5 -132t105.5 -45q31 0 65.5 7.5t60.5 21.5l8 -78q-55 -30 -140 -30q-74 0 -126.5 34.5zM329 307q0 50 -24.5 81.5t-70.5 31.5
q-45 0 -74.5 -28t-39.5 -85h209zM127 624l107 91l107 -91v-60l-107 67l-107 -67v60z" />
    <glyph glyph-name="edieresis" unicode="&#xeb;" horiz-adv-x="439" 
d="M132.5 24.5q-52.5 34.5 -79 93.5t-26.5 131q0 69 24.5 126.5t71 91t110.5 33.5q82 0 133.5 -55t51.5 -152q0 -17 -4 -47h-298q3 -87 43.5 -132t105.5 -45q31 0 65.5 7.5t60.5 21.5l8 -78q-55 -30 -140 -30q-74 0 -126.5 34.5zM329 307q0 50 -24.5 81.5t-70.5 31.5
q-45 0 -74.5 -28t-39.5 -85h209zM115 671h82v-80h-82v80zM271 671h82v-80h-82v80z" />
    <glyph glyph-name="igrave" unicode="&#xec;" horiz-adv-x="206" 
d="M58 490h90v-490h-90v490zM29 641v99l147 -93v-63z" />
    <glyph glyph-name="iacute" unicode="&#xed;" horiz-adv-x="206" 
d="M58 490h90v-490h-90v490zM30 645l147 94v-98l-147 -57v61z" />
    <glyph glyph-name="icircumflex" unicode="&#xee;" horiz-adv-x="206" 
d="M58 490h90v-490h-90v490zM-4 624l107 91l107 -91v-60l-107 67l-107 -67v60z" />
    <glyph glyph-name="idieresis" unicode="&#xef;" horiz-adv-x="206" 
d="M58 490h90v-490h-90v490zM-16 671h82v-80h-82v80zM140 671h82v-80h-82v80z" />
    <glyph glyph-name="eth" unicode="&#xf0;" horiz-adv-x="440" 
d="M379 452.5q30 -86.5 30 -182.5q0 -145 -54 -213.5t-147 -68.5q-57 0 -100.5 28t-67 77.5t-23.5 111.5q0 63 22 113t64 79t100 29q68 0 106 -45q-5 50 -26 97t-56 85l-102 -61l-33 54l85 51q-37 25 -85 40l13 54q75 -14 135 -57l94 56l32 -54l-76 -45q59 -62 89 -148.5z
M284.5 109q29.5 39 29.5 99t-29 97.5t-77 37.5q-46 0 -74 -39.5t-28 -93.5q0 -59 27.5 -99.5t73.5 -40.5q48 0 77.5 39z" />
    <glyph glyph-name="ntilde" unicode="&#xf1;" horiz-adv-x="467" 
d="M381.5 440.5q40.5 -59.5 40.5 -160.5v-280h-87v269q0 78 -22.5 115.5t-67.5 37.5q-33 0 -61 -18.5t-47 -51.5v-352h-87v490h74l6 -61q21 33 56.5 52t78.5 19q76 0 116.5 -59.5zM272 587q-15 7 -36 20q-27 20 -46 20q-13 0 -20 -10.5t-7 -28.5h-72q5 111 76 111
q20 0 35 -7t36 -20q27 -20 46 -20q13 0 20 10.5t7 28.5h72q-5 -111 -76 -111q-20 0 -35 7z" />
    <glyph glyph-name="ograve" unicode="&#xf2;" horiz-adv-x="472" 
d="M123 23.5q-48 33.5 -73.5 91.5t-25.5 130t25.5 130t73.5 91.5t114 33.5q65 0 113 -33.5t73 -91.5t25 -130t-25 -130t-73 -91.5t-113 -33.5q-66 0 -114 33.5zM327 114q32 47 32 131t-32 130.5t-90 46.5q-60 0 -92 -46.5t-32 -130.5q0 -85 32 -131.5t92 -46.5q58 0 90 47z
M163 641v99l147 -93v-63z" />
    <glyph glyph-name="oacute" unicode="&#xf3;" horiz-adv-x="472" 
d="M123 23.5q-48 33.5 -73.5 91.5t-25.5 130t25.5 130t73.5 91.5t114 33.5q65 0 113 -33.5t73 -91.5t25 -130t-25 -130t-73 -91.5t-113 -33.5q-66 0 -114 33.5zM327 114q32 47 32 131t-32 130.5t-90 46.5q-60 0 -92 -46.5t-32 -130.5q0 -85 32 -131.5t92 -46.5q58 0 90 47z
M164 645l147 94v-98l-147 -57v61z" />
    <glyph glyph-name="ocircumflex" unicode="&#xf4;" horiz-adv-x="472" 
d="M123 23.5q-48 33.5 -73.5 91.5t-25.5 130t25.5 130t73.5 91.5t114 33.5q65 0 113 -33.5t73 -91.5t25 -130t-25 -130t-73 -91.5t-113 -33.5q-66 0 -114 33.5zM327 114q32 47 32 131t-32 130.5t-90 46.5q-60 0 -92 -46.5t-32 -130.5q0 -85 32 -131.5t92 -46.5q58 0 90 47z
M130 624l107 91l107 -91v-60l-107 67l-107 -67v60z" />
    <glyph glyph-name="otilde" unicode="&#xf5;" horiz-adv-x="472" 
d="M123 23.5q-48 33.5 -73.5 91.5t-25.5 130t25.5 130t73.5 91.5t114 33.5q65 0 113 -33.5t73 -91.5t25 -130t-25 -130t-73 -91.5t-113 -33.5q-66 0 -114 33.5zM327 114q32 47 32 131t-32 130.5t-90 46.5q-60 0 -92 -46.5t-32 -130.5q0 -85 32 -131.5t92 -46.5q58 0 90 47z
M272 587q-15 7 -36 20q-27 20 -46 20q-13 0 -20 -10.5t-7 -28.5h-72q5 111 76 111q20 0 35 -7t36 -20q27 -20 46 -20q13 0 20 10.5t7 28.5h72q-5 -111 -76 -111q-20 0 -35 7z" />
    <glyph glyph-name="odieresis" unicode="&#xf6;" horiz-adv-x="472" 
d="M123 23.5q-48 33.5 -73.5 91.5t-25.5 130t25.5 130t73.5 91.5t114 33.5q65 0 113 -33.5t73 -91.5t25 -130t-25 -130t-73 -91.5t-113 -33.5q-66 0 -114 33.5zM327 114q32 47 32 131t-32 130.5t-90 46.5q-60 0 -92 -46.5t-32 -130.5q0 -85 32 -131.5t92 -46.5q58 0 90 47z
M118 671h82v-80h-82v80zM274 671h82v-80h-82v80z" />
    <glyph glyph-name="divide" unicode="&#xf7;" horiz-adv-x="407" 
d="M156 503h95v-99h-95v99zM35 319h337v-76h-337v76zM156 159h95v-100h-95v100z" />
    <glyph glyph-name="oslash" unicode="&#xf8;" horiz-adv-x="472" 
d="M431 354q17 -50 17 -109q0 -72 -25 -130t-73 -91.5t-113 -33.5q-49 0 -93 21l-29 -51h-75l51 91q-33 35 -50 85t-17 109q0 72 25.5 130t73.5 91.5t114 33.5q50 0 92 -21l29 51h74l-51 -91q33 -35 50 -85zM135 131l156 278q-23 13 -54 13q-60 0 -92 -46.5t-32 -130.5
q0 -68 22 -114zM327 114q32 47 32 131q0 68 -22 114l-155 -279q26 -13 55 -13q58 0 90 47z" />
    <glyph glyph-name="ugrave" unicode="&#xf9;" horiz-adv-x="475" 
d="M407 490v-490h-74l-6 60q-20 -33 -54 -51.5t-75 -18.5q-77 0 -114.5 51.5t-37.5 147.5v301h87v-290q0 -66 19.5 -98.5t65.5 -32.5q32 0 58 18t44 50v353h87zM150 641v99l147 -93v-63z" />
    <glyph glyph-name="uacute" unicode="&#xfa;" horiz-adv-x="475" 
d="M407 490v-490h-74l-6 60q-20 -33 -54 -51.5t-75 -18.5q-77 0 -114.5 51.5t-37.5 147.5v301h87v-290q0 -66 19.5 -98.5t65.5 -32.5q32 0 58 18t44 50v353h87zM151 645l147 94v-98l-147 -57v61z" />
    <glyph glyph-name="ucircumflex" unicode="&#xfb;" horiz-adv-x="475" 
d="M407 490v-490h-74l-6 60q-20 -33 -54 -51.5t-75 -18.5q-77 0 -114.5 51.5t-37.5 147.5v301h87v-290q0 -66 19.5 -98.5t65.5 -32.5q32 0 58 18t44 50v353h87zM117 624l107 91l107 -91v-60l-107 67l-107 -67v60z" />
    <glyph glyph-name="udieresis" unicode="&#xfc;" horiz-adv-x="475" 
d="M407 490v-490h-74l-6 60q-20 -33 -54 -51.5t-75 -18.5q-77 0 -114.5 51.5t-37.5 147.5v301h87v-290q0 -66 19.5 -98.5t65.5 -32.5q32 0 58 18t44 50v353h87zM105 671h82v-80h-82v80zM261 671h82v-80h-82v80z" />
    <glyph glyph-name="yacute" unicode="&#xfd;" horiz-adv-x="445" 
d="M183 22l-179 468h93l131 -365l120 365h93l-263 -732h-93zM149 645l147 94v-98l-147 -57v61z" />
    <glyph glyph-name="thorn" unicode="&#xfe;" horiz-adv-x="485" 
d="M371.5 466.5q44.5 -33.5 68 -91.5t23.5 -130q0 -112 -51 -183.5t-144 -71.5q-38 0 -70.5 13.5t-55.5 39.5v-285h-87v992h87v-305q50 55 126 55q59 0 103.5 -33.5zM341.5 114q32.5 47 32.5 131q0 83 -32.5 130t-89.5 47q-30 0 -58 -20t-45.5 -60t-17.5 -97q0 -59 17.5 -99
t45 -59.5t58.5 -19.5q57 0 89.5 47z" />
    <glyph glyph-name="ydieresis" unicode="&#xff;" horiz-adv-x="445" 
d="M183 22l-179 468h93l131 -365l120 365h93l-263 -732h-93zM103 671h82v-80h-82v80zM259 671h82v-80h-82v80z" />
    <glyph glyph-name="Amacron" unicode="&#x100;" horiz-adv-x="540" 
d="M379 190h-217l-56 -190h-98l215 700h94l215 -700h-97zM354 275l-84 284l-83 -284h167zM121 859h300v-66h-300v66z" />
    <glyph glyph-name="amacron" unicode="&#x101;" horiz-adv-x="434" 
d="M60 30q-36 40 -36 102q0 92 77 132.5t172 42.5q0 64 -19 89t-64 25q-58 0 -118 -45l-11 73q63 51 146 51q79 0 117 -45.5t38 -146.5v-143q0 -57 8 -80.5t35 -23.5h11l-11 -71h-19q-46 0 -68 17t-36 55q-23 -33 -57 -52.5t-73 -19.5q-56 0 -92 40zM229 79.5
q26 18.5 44 48.5v117q-77 -4 -117 -29.5t-40 -78.5q0 -76 63 -76q24 0 50 18.5zM77 660h280v-68h-280v68z" />
    <glyph glyph-name="Abreve" unicode="&#x102;" horiz-adv-x="540" 
d="M379 190h-217l-56 -190h-98l215 700h94l215 -700h-97zM354 275l-84 284l-83 -284h167zM170 797.5q-35 33.5 -35 80.5h80q0 -26 15.5 -39.5t40.5 -13.5t40.5 13.5t15.5 39.5h80q0 -47 -35 -80.5t-101 -33.5t-101 33.5z" />
    <glyph glyph-name="abreve" unicode="&#x103;" horiz-adv-x="434" 
d="M60 30q-36 40 -36 102q0 92 77 132.5t172 42.5q0 64 -19 89t-64 25q-58 0 -118 -45l-11 73q63 51 146 51q79 0 117 -45.5t38 -146.5v-143q0 -57 8 -80.5t35 -23.5h11l-11 -71h-19q-46 0 -68 17t-36 55q-23 -33 -57 -52.5t-73 -19.5q-56 0 -92 40zM229 79.5
q26 18.5 44 48.5v117q-77 -4 -117 -29.5t-40 -78.5q0 -76 63 -76q24 0 50 18.5zM116 611q-35 35 -35 86h78q0 -26 14.5 -41t43.5 -15t43.5 15t14.5 41h78q0 -51 -35 -86t-101 -35t-101 35z" />
    <glyph glyph-name="Aogonek" unicode="&#x104;" horiz-adv-x="540" 
d="M379 190h-217l-56 -190h-98l215 700h94l215 -700h-97zM354 275l-84 284l-83 -284h167zM511 0q-34 -34 -51 -60t-17 -53q0 -21 13 -32.5t35 -11.5t43 9l15 -47q-28 -13 -66 -13q-42 0 -70 22t-28 61q0 35 19.5 64.5t53.5 60.5h53z" />
    <glyph glyph-name="aogonek" unicode="&#x105;" horiz-adv-x="434" 
d="M437 -195q-28 -13 -66 -13q-42 0 -70 22t-28 61q0 33 18.5 62t49.5 59q-23 7 -36 23t-23 43q-23 -33 -57 -52.5t-73 -19.5q-56 0 -92 40t-36 102q0 92 77 132.5t172 42.5q0 64 -19 89t-64 25q-58 0 -118 -45l-11 73q63 51 146 51q79 0 117 -45.5t38 -146.5v-143
q0 -57 8 -80.5t35 -23.5h11l-11 -71h-16q-29 -30 -43.5 -54t-14.5 -49q0 -21 13 -32.5t35 -11.5t43 9zM273 245q-77 -4 -117 -29.5t-40 -78.5q0 -76 63 -76q24 0 50 18.5t44 48.5v117z" />
    <glyph glyph-name="Cacute" unicode="&#x106;" horiz-adv-x="524" 
d="M181 30.5q-72 44.5 -111.5 127t-39.5 192.5q0 109 40.5 191.5t112.5 127.5t163 45q80 0 152 -30l-10 -85q-64 32 -124 32q-74 0 -126.5 -37t-79.5 -101t-27 -143t27 -143t79.5 -101t127.5 -37q65 0 123 30l10 -85q-64 -28 -148 -28q-97 0 -169 44.5zM262 822l147 81v-93
l-147 -46v58z" />
    <glyph glyph-name="cacute" unicode="&#x107;" horiz-adv-x="385" 
d="M82 60.5q-58 70.5 -58 181.5q0 115 58 186.5t172 71.5q61 0 109 -25l-14 -77q-45 24 -94 24q-67 0 -104.5 -46.5t-37.5 -129.5t38.5 -131t106.5 -48q52 0 92 24l12 -78q-20 -10 -50 -16.5t-60 -6.5q-112 0 -170 70.5zM160 645l147 94v-98l-147 -57v61z" />
    <glyph glyph-name="Ccircumflex" unicode="&#x108;" horiz-adv-x="524" 
d="M181 30.5q-72 44.5 -111.5 127t-39.5 192.5q0 109 40.5 191.5t112.5 127.5t163 45q80 0 152 -30l-10 -85q-64 32 -124 32q-74 0 -126.5 -37t-79.5 -101t-27 -143t27 -143t79.5 -101t127.5 -37q65 0 123 30l10 -85q-64 -28 -148 -28q-97 0 -169 44.5zM218 816l117 83
l117 -83v-61l-117 62l-117 -62v61z" />
    <glyph glyph-name="ccircumflex" unicode="&#x109;" horiz-adv-x="385" 
d="M82 60.5q-58 70.5 -58 181.5q0 115 58 186.5t172 71.5q61 0 109 -25l-14 -77q-45 24 -94 24q-67 0 -104.5 -46.5t-37.5 -129.5t38.5 -131t106.5 -48q52 0 92 24l12 -78q-20 -10 -50 -16.5t-60 -6.5q-112 0 -170 70.5zM126 624l107 91l107 -91v-60l-107 67l-107 -67v60z
" />
    <glyph glyph-name="Cdotaccent" unicode="&#x10a;" horiz-adv-x="524" 
d="M181 30.5q-72 44.5 -111.5 127t-39.5 192.5q0 109 40.5 191.5t112.5 127.5t163 45q80 0 152 -30l-10 -85q-64 32 -124 32q-74 0 -126.5 -37t-79.5 -101t-27 -143t27 -143t79.5 -101t127.5 -37q65 0 123 30l10 -85q-64 -28 -148 -28q-97 0 -169 44.5zM289 880h92v-89h-92
v89z" />
    <glyph glyph-name="cdotaccent" unicode="&#x10b;" horiz-adv-x="385" 
d="M82 60.5q-58 70.5 -58 181.5q0 115 58 186.5t172 71.5q61 0 109 -25l-14 -77q-45 24 -94 24q-67 0 -104.5 -46.5t-37.5 -129.5t38.5 -131t106.5 -48q52 0 92 24l12 -78q-20 -10 -50 -16.5t-60 -6.5q-112 0 -170 70.5zM189 680h88v-89h-88v89z" />
    <glyph glyph-name="Ccaron" unicode="&#x10c;" horiz-adv-x="524" 
d="M181 30.5q-72 44.5 -111.5 127t-39.5 192.5q0 109 40.5 191.5t112.5 127.5t163 45q80 0 152 -30l-10 -85q-64 32 -124 32q-74 0 -126.5 -37t-79.5 -101t-27 -143t27 -143t79.5 -101t127.5 -37q65 0 123 30l10 -85q-64 -28 -148 -28q-97 0 -169 44.5zM335 865l117 62v-61
l-117 -83l-117 83v61z" />
    <glyph glyph-name="ccaron" unicode="&#x10d;" horiz-adv-x="385" 
d="M82 60.5q-58 70.5 -58 181.5q0 115 58 186.5t172 71.5q61 0 109 -25l-14 -77q-45 24 -94 24q-67 0 -104.5 -46.5t-37.5 -129.5t38.5 -131t106.5 -48q52 0 92 24l12 -78q-20 -10 -50 -16.5t-60 -6.5q-112 0 -170 70.5zM126 651v60l107 -68l107 68v-60l-107 -93z" />
    <glyph glyph-name="Dcaron" unicode="&#x10e;" horiz-adv-x="619" 
d="M66 700h224q87 0 154.5 -42t105.5 -121t38 -187t-38 -187t-105.5 -121t-154.5 -42h-224v700zM273 83q105 0 159.5 70t54.5 197t-54.5 197t-159.5 70h-116v-534h116zM310 865l117 62v-61l-117 -83l-117 83v61z" />
    <glyph glyph-name="dcaron" unicode="&#x10f;" horiz-adv-x="548" 
d="M437 750v-750h-77l-7 45q-23 -27 -55 -41t-70 -14q-57 0 -102 33.5t-71 91.5t-26 129q0 69 24.5 127.5t70 93.5t104.5 35q73 0 122 -51v301h87zM325 110.5q33 43.5 33 133.5q0 87 -33 132.5t-88 45.5q-34 0 -61 -23t-42.5 -63.5t-15.5 -91.5q0 -48 15.5 -88.5t43 -64.5
t60.5 -24q55 0 88 43.5zM477 750h92l-28 -167h-64v167z" />
    <glyph glyph-name="Dcroat" unicode="&#x110;" horiz-adv-x="623" 
d="M72 313h-62v84h62v303h222q87 0 154.5 -42t105.5 -121t38 -187t-38 -187t-105.5 -121t-154.5 -42h-222v313zM277 83q105 0 159.5 70t54.5 197t-54.5 197t-159.5 70h-114v-220h119v-84h-119v-230h114z" />
    <glyph glyph-name="dcroat" unicode="&#x111;" horiz-adv-x="503" 
d="M501 587h-64v-587h-77l-7 45q-23 -27 -55 -41t-70 -14q-57 0 -102 33.5t-71 91.5t-26 129q0 69 24.5 127.5t70 93.5t104.5 35q73 0 122 -51v138h-140v70h140v93h87v-93h64v-70zM325 110.5q33 43.5 33 133.5q0 87 -33 132.5t-88 45.5q-34 0 -61 -23t-42.5 -63.5
t-15.5 -91.5q0 -48 15.5 -88.5t43 -64.5t60.5 -24q55 0 88 43.5z" />
    <glyph glyph-name="Emacron" unicode="&#x112;" horiz-adv-x="477" 
d="M66 700h374v-83h-283v-209h224v-84h-224v-241h291v-83h-382v700zM104 859h300v-66h-300v66z" />
    <glyph glyph-name="emacron" unicode="&#x113;" horiz-adv-x="439" 
d="M132.5 24.5q-52.5 34.5 -79 93.5t-26.5 131q0 69 24.5 126.5t71 91t110.5 33.5q82 0 133.5 -55t51.5 -152q0 -17 -4 -47h-298q3 -87 43.5 -132t105.5 -45q31 0 65.5 7.5t60.5 21.5l8 -78q-55 -30 -140 -30q-74 0 -126.5 34.5zM329 307q0 50 -24.5 81.5t-70.5 31.5
q-45 0 -74.5 -28t-39.5 -85h209zM94 660h280v-68h-280v68z" />
    <glyph glyph-name="Ebreve" unicode="&#x114;" horiz-adv-x="477" 
d="M66 700h374v-83h-283v-209h224v-84h-224v-241h291v-83h-382v700zM153 797.5q-35 33.5 -35 80.5h80q0 -26 15.5 -39.5t40.5 -13.5t40.5 13.5t15.5 39.5h80q0 -47 -35 -80.5t-101 -33.5t-101 33.5z" />
    <glyph glyph-name="ebreve" unicode="&#x115;" horiz-adv-x="439" 
d="M132.5 24.5q-52.5 34.5 -79 93.5t-26.5 131q0 69 24.5 126.5t71 91t110.5 33.5q82 0 133.5 -55t51.5 -152q0 -17 -4 -47h-298q3 -87 43.5 -132t105.5 -45q31 0 65.5 7.5t60.5 21.5l8 -78q-55 -30 -140 -30q-74 0 -126.5 34.5zM329 307q0 50 -24.5 81.5t-70.5 31.5
q-45 0 -74.5 -28t-39.5 -85h209zM133 611q-35 35 -35 86h78q0 -26 14.5 -41t43.5 -15t43.5 15t14.5 41h78q0 -51 -35 -86t-101 -35t-101 35z" />
    <glyph glyph-name="Edotaccent" unicode="&#x116;" horiz-adv-x="477" 
d="M66 700h374v-83h-283v-209h224v-84h-224v-241h291v-83h-382v700zM208 880h92v-89h-92v89z" />
    <glyph glyph-name="edotaccent" unicode="&#x117;" horiz-adv-x="439" 
d="M132.5 24.5q-52.5 34.5 -79 93.5t-26.5 131q0 69 24.5 126.5t71 91t110.5 33.5q82 0 133.5 -55t51.5 -152q0 -17 -4 -47h-298q3 -87 43.5 -132t105.5 -45q31 0 65.5 7.5t60.5 21.5l8 -78q-55 -30 -140 -30q-74 0 -126.5 34.5zM329 307q0 50 -24.5 81.5t-70.5 31.5
q-45 0 -74.5 -28t-39.5 -85h209zM190 680h88v-89h-88v89z" />
    <glyph glyph-name="Eogonek" unicode="&#x118;" horiz-adv-x="477" 
d="M66 700h374v-83h-283v-209h224v-84h-224v-241h291v-83h-382v700zM449 0q-34 -34 -51 -60t-17 -53q0 -21 13 -32.5t35 -11.5t43 9l15 -47q-28 -13 -66 -13q-42 0 -70 22t-28 61q0 35 19.5 64.5t53.5 60.5h53z" />
    <glyph glyph-name="eogonek" unicode="&#x119;" horiz-adv-x="439" 
d="M437 -175q-28 -13 -66 -13q-42 0 -70 22t-28 61q0 27 12.5 51t34.5 49q-32 -5 -61 -5q-74 0 -126.5 34.5t-79 93.5t-26.5 131q0 69 24.5 126.5t71 91t110.5 33.5q82 0 133.5 -55t51.5 -152q0 -17 -4 -47h-298q3 -87 43.5 -132t105.5 -45q31 0 65.5 7.5t60.5 21.5l8 -78
q-34 -34 -51 -60t-17 -53q0 -21 13 -32.5t35 -11.5t43 9zM159.5 392q-29.5 -28 -39.5 -85h209q0 50 -24.5 81.5t-70.5 31.5q-45 0 -74.5 -28z" />
    <glyph glyph-name="Ecaron" unicode="&#x11a;" horiz-adv-x="477" 
d="M66 700h374v-83h-283v-209h224v-84h-224v-241h291v-83h-382v700zM254 865l117 62v-61l-117 -83l-117 83v61z" />
    <glyph glyph-name="ecaron" unicode="&#x11b;" horiz-adv-x="439" 
d="M132.5 24.5q-52.5 34.5 -79 93.5t-26.5 131q0 69 24.5 126.5t71 91t110.5 33.5q82 0 133.5 -55t51.5 -152q0 -17 -4 -47h-298q3 -87 43.5 -132t105.5 -45q31 0 65.5 7.5t60.5 21.5l8 -78q-55 -30 -140 -30q-74 0 -126.5 34.5zM329 307q0 50 -24.5 81.5t-70.5 31.5
q-45 0 -74.5 -28t-39.5 -85h209zM127 651v60l107 -68l107 68v-60l-107 -93z" />
    <glyph glyph-name="Gcircumflex" unicode="&#x11c;" horiz-adv-x="571" 
d="M183 32.5q-74 46.5 -113.5 129t-39.5 188.5q0 109 42 191.5t115.5 127.5t167.5 45q86 0 156 -30l-10 -85q-33 16 -65.5 24t-71.5 8q-74 0 -126.5 -37t-79.5 -101t-27 -143q0 -126 59 -203.5t173 -77.5q44 0 77 14v185h-89v83h180v-319q-33 -21 -79 -33.5t-94 -12.5
q-101 0 -175 46.5zM233 816l117 83l117 -83v-61l-117 62l-117 -62v61z" />
    <glyph glyph-name="gcircumflex" unicode="&#x11d;" horiz-adv-x="424" 
d="M75.5 -214.5q-54.5 35.5 -54.5 97.5q0 71 78 124q-46 22 -46 67q0 23 14 40.5t40 27.5q-37 26 -57 70t-20 97q0 54 21 97.5t60.5 68.5t92.5 25q64 0 108 -36q39 36 83 36q13 0 25 -2l-9 -70q-10 2 -20 2q-21 0 -42 -9q29 -47 29 -112q0 -54 -21 -98.5t-60.5 -71
t-92.5 -26.5q-28 0 -50 7q-19 -8 -19 -23q0 -13 13 -20.5t46 -17.5l69 -21q62 -19 97.5 -37.5t52.5 -44t17 -63.5q0 -68 -59 -105.5t-154 -37.5q-87 0 -141.5 35.5zM271 216.5q24 34.5 24 91.5q0 54 -24 88t-67 34t-67 -33.5t-24 -88.5q0 -57 24 -91.5t67 -34.5t67 34.5z
M309.5 -162q32.5 17 32.5 50q0 27 -20 42.5t-73 31.5l-80 24q-68 -43 -68 -90q0 -37 32.5 -56t89.5 -19q54 0 86.5 17zM141 624l107 91l107 -91v-60l-107 67l-107 -67v60z" />
    <glyph glyph-name="Gbreve" unicode="&#x11e;" horiz-adv-x="571" 
d="M183 32.5q-74 46.5 -113.5 129t-39.5 188.5q0 109 42 191.5t115.5 127.5t167.5 45q86 0 156 -30l-10 -85q-33 16 -65.5 24t-71.5 8q-74 0 -126.5 -37t-79.5 -101t-27 -143q0 -126 59 -203.5t173 -77.5q44 0 77 14v185h-89v83h180v-319q-33 -21 -79 -33.5t-94 -12.5
q-101 0 -175 46.5zM249 797.5q-35 33.5 -35 80.5h80q0 -26 15.5 -39.5t40.5 -13.5t40.5 13.5t15.5 39.5h80q0 -47 -35 -80.5t-101 -33.5t-101 33.5z" />
    <glyph glyph-name="gbreve" unicode="&#x11f;" horiz-adv-x="424" 
d="M75.5 -214.5q-54.5 35.5 -54.5 97.5q0 71 78 124q-46 22 -46 67q0 23 14 40.5t40 27.5q-37 26 -57 70t-20 97q0 54 21 97.5t60.5 68.5t92.5 25q64 0 108 -36q39 36 83 36q13 0 25 -2l-9 -70q-10 2 -20 2q-21 0 -42 -9q29 -47 29 -112q0 -54 -21 -98.5t-60.5 -71
t-92.5 -26.5q-28 0 -50 7q-19 -8 -19 -23q0 -13 13 -20.5t46 -17.5l69 -21q62 -19 97.5 -37.5t52.5 -44t17 -63.5q0 -68 -59 -105.5t-154 -37.5q-87 0 -141.5 35.5zM271 216.5q24 34.5 24 91.5q0 54 -24 88t-67 34t-67 -33.5t-24 -88.5q0 -57 24 -91.5t67 -34.5t67 34.5z
M309.5 -162q32.5 17 32.5 50q0 27 -20 42.5t-73 31.5l-80 24q-68 -43 -68 -90q0 -37 32.5 -56t89.5 -19q54 0 86.5 17zM147 611q-35 35 -35 86h78q0 -26 14.5 -41t43.5 -15t43.5 15t14.5 41h78q0 -51 -35 -86t-101 -35t-101 35z" />
    <glyph glyph-name="Gdotaccent" unicode="&#x120;" horiz-adv-x="571" 
d="M183 32.5q-74 46.5 -113.5 129t-39.5 188.5q0 109 42 191.5t115.5 127.5t167.5 45q86 0 156 -30l-10 -85q-33 16 -65.5 24t-71.5 8q-74 0 -126.5 -37t-79.5 -101t-27 -143q0 -126 59 -203.5t173 -77.5q44 0 77 14v185h-89v83h180v-319q-33 -21 -79 -33.5t-94 -12.5
q-101 0 -175 46.5zM304 880h92v-89h-92v89z" />
    <glyph glyph-name="gdotaccent" unicode="&#x121;" horiz-adv-x="424" 
d="M75.5 -214.5q-54.5 35.5 -54.5 97.5q0 71 78 124q-46 22 -46 67q0 23 14 40.5t40 27.5q-37 26 -57 70t-20 97q0 54 21 97.5t60.5 68.5t92.5 25q64 0 108 -36q39 36 83 36q13 0 25 -2l-9 -70q-10 2 -20 2q-21 0 -42 -9q29 -47 29 -112q0 -54 -21 -98.5t-60.5 -71
t-92.5 -26.5q-28 0 -50 7q-19 -8 -19 -23q0 -13 13 -20.5t46 -17.5l69 -21q62 -19 97.5 -37.5t52.5 -44t17 -63.5q0 -68 -59 -105.5t-154 -37.5q-87 0 -141.5 35.5zM271 216.5q24 34.5 24 91.5q0 54 -24 88t-67 34t-67 -33.5t-24 -88.5q0 -57 24 -91.5t67 -34.5t67 34.5z
M309.5 -162q32.5 17 32.5 50q0 27 -20 42.5t-73 31.5l-80 24q-68 -43 -68 -90q0 -37 32.5 -56t89.5 -19q54 0 86.5 17zM204 680h88v-89h-88v89z" />
    <glyph glyph-name="Gcommaaccent" unicode="&#x122;" horiz-adv-x="571" 
d="M183 32.5q-74 46.5 -113.5 129t-39.5 188.5q0 109 42 191.5t115.5 127.5t167.5 45q86 0 156 -30l-10 -85q-33 16 -65.5 24t-71.5 8q-74 0 -126.5 -37t-79.5 -101t-27 -143q0 -126 59 -203.5t173 -77.5q44 0 77 14v185h-89v83h180v-319q-33 -21 -79 -33.5t-94 -12.5
q-101 0 -175 46.5zM312 -284l36 107h-33v86h92v-76l-52 -117h-43z" />
    <glyph glyph-name="gcommaaccent" unicode="&#x123;" horiz-adv-x="424" 
d="M75.5 -214.5q-54.5 35.5 -54.5 97.5q0 71 78 124q-46 22 -46 67q0 23 14 40.5t40 27.5q-37 26 -57 70t-20 97q0 54 21 97.5t60.5 68.5t92.5 25q64 0 108 -36q39 36 83 36q13 0 25 -2l-9 -70q-10 2 -20 2q-21 0 -42 -9q29 -47 29 -112q0 -54 -21 -98.5t-60.5 -71
t-92.5 -26.5q-28 0 -50 7q-19 -8 -19 -23q0 -13 13 -20.5t46 -17.5l69 -21q62 -19 97.5 -37.5t52.5 -44t17 -63.5q0 -68 -59 -105.5t-154 -37.5q-87 0 -141.5 35.5zM271 216.5q24 34.5 24 91.5q0 54 -24 88t-67 34t-67 -33.5t-24 -88.5q0 -57 24 -91.5t67 -34.5t67 34.5z
M309.5 -162q32.5 17 32.5 50q0 27 -20 42.5t-73 31.5l-80 24q-68 -43 -68 -90q0 -37 32.5 -56t89.5 -19q54 0 86.5 17zM298 769l-36 -107h33v-86h-92v76l52 117h43z" />
    <glyph glyph-name="Hcircumflex" unicode="&#x124;" horiz-adv-x="636" 
d="M66 700h91v-289h322v289h91v-700h-91v322h-322v-322h-91v700zM201 816l117 83l117 -83v-61l-117 62l-117 -62v61z" />
    <glyph glyph-name="hcircumflex" unicode="&#x125;" horiz-adv-x="475" 
d="M388.5 440.5q40.5 -59.5 40.5 -160.5v-280h-87v269q0 78 -22 114.5t-68 36.5q-34 0 -61.5 -18.5t-46.5 -51.5v-350h-87v750h87v-312q21 29 55 45.5t73 16.5q76 0 116.5 -59.5zM-16 866l117 83l117 -83v-61l-117 62l-117 -62v61z" />
    <glyph glyph-name="Hbar" unicode="&#x126;" horiz-adv-x="644" 
d="M634 501h-60v-501h-91v322h-322v-322h-91v501h-60v62h60v137h91v-137h322v137h91v-137h60v-62zM483 501h-322v-90h322v90z" />
    <glyph glyph-name="hbar" unicode="&#x127;" horiz-adv-x="483" 
d="M397.5 440.5q40.5 -59.5 40.5 -160.5v-280h-87v269q0 77 -22.5 114t-67.5 37q-33 0 -61 -18t-47 -51v-351h-87v587h-64v70h64v93h87v-93h140v-70h-140v-149q21 29 55 45.5t73 16.5q76 0 116.5 -59.5z" />
    <glyph glyph-name="Itilde" unicode="&#x128;" horiz-adv-x="240" 
d="M74 700h92v-700h-92v700zM159 793.5q-16 5.5 -37 15.5q-3 1 -20.5 8.5t-30.5 7.5q-14 0 -22 -8.5t-8 -23.5h-65q0 48 19 74t54 26q16 0 32 -5.5t37 -15.5q3 -1 20.5 -8.5t30.5 -7.5q14 0 22 8.5t8 23.5h65q0 -48 -19 -74t-54 -26q-16 0 -32 5.5z" />
    <glyph glyph-name="itilde" unicode="&#x129;" horiz-adv-x="206" 
d="M58 490h90v-490h-90v490zM138 587q-15 7 -36 20q-27 20 -46 20q-13 0 -20 -10.5t-7 -28.5h-72q5 111 76 111q20 0 35 -7t36 -20q27 -20 46 -20q13 0 20 10.5t7 28.5h72q-5 -111 -76 -111q-20 0 -35 7z" />
    <glyph glyph-name="Imacron" unicode="&#x12a;" horiz-adv-x="240" 
d="M74 700h92v-700h-92v700zM-30 859h300v-66h-300v66z" />
    <glyph glyph-name="imacron" unicode="&#x12b;" horiz-adv-x="206" 
d="M58 490h90v-490h-90v490zM-37 660h280v-68h-280v68z" />
    <glyph glyph-name="Ibreve" unicode="&#x12c;" horiz-adv-x="240" 
d="M74 700h92v-700h-92v700zM19 797.5q-35 33.5 -35 80.5h80q0 -26 15.5 -39.5t40.5 -13.5t40.5 13.5t15.5 39.5h80q0 -47 -35 -80.5t-101 -33.5t-101 33.5z" />
    <glyph glyph-name="ibreve" unicode="&#x12d;" horiz-adv-x="206" 
d="M58 490h90v-490h-90v490zM2 611q-35 35 -35 86h78q0 -26 14.5 -41t43.5 -15t43.5 15t14.5 41h78q0 -51 -35 -86t-101 -35t-101 35z" />
    <glyph glyph-name="Iogonek" unicode="&#x12e;" horiz-adv-x="240" 
d="M74 700h92v-700h-92v700zM166 0q-34 -34 -51 -60t-17 -53q0 -21 13 -32.5t35 -11.5t43 9l15 -47q-28 -13 -66 -13q-42 0 -70 22t-28 61q0 35 19.5 64.5t53.5 60.5h53z" />
    <glyph glyph-name="iogonek" unicode="&#x12f;" horiz-adv-x="204" 
d="M58 700h87v-99h-87v99zM58 490h87v-490h-87v490zM146 0q-34 -34 -51 -60t-17 -53q0 -21 13 -32.5t35 -11.5t43 9l15 -47q-28 -13 -66 -13q-42 0 -70 22t-28 61q0 35 19.5 64.5t53.5 60.5h53z" />
    <glyph glyph-name="Idotaccent" unicode="&#x130;" horiz-adv-x="240" 
d="M74 700h92v-700h-92v700zM74 880h92v-89h-92v89z" />
    <glyph glyph-name="dotlessi" unicode="&#x131;" horiz-adv-x="206" 
d="M58 490h90v-490h-90v490z" />
    <glyph glyph-name="IJ" unicode="&#x132;" horiz-adv-x="597" 
d="M59 700h91v-377h-91v377zM188 117q32 -48 110 -48q62 0 94.5 30.5t43.5 80.5t11 123v397h91v-423q0 -140 -59 -215.5t-181 -75.5q-114 0 -172.5 67t-65.5 191l91 10q5 -89 37 -137z" />
    <glyph glyph-name="ij" unicode="&#x133;" horiz-adv-x="409" 
d="M58 700h87v-99h-87v99zM58 490h87v-490h-87v490zM263 700h87v-99h-87v99zM204 -174q27 3 39 11.5t16 28t4 61.5v563h87v-597q0 -65 -29 -93.5t-77 -36.5l-31 -5z" />
    <glyph glyph-name="Jcircumflex" unicode="&#x134;" horiz-adv-x="243" 
d="M-1 -91q46 0 62.5 18t16.5 70v703h91v-732q0 -69 -37 -104.5t-103 -35.5h-21zM6 816l117 83l117 -83v-61l-117 62l-117 -62v61z" />
    <glyph glyph-name="jcircumflex" unicode="&#x135;" horiz-adv-x="205" 
d="M0 -174q27 3 39 11.5t16 28t4 61.5v563h87v-597q0 -65 -29 -93.5t-77 -36.5l-31 -5zM-4 624l107 91l107 -91v-60l-107 67l-107 -67v60z" />
    <glyph glyph-name="Kcommaaccent" unicode="&#x136;" horiz-adv-x="527" 
d="M84 700h91v-700h-91v700zM180 371l225 329h101l-227 -329l227 -371h-101zM241 -284l36 107h-33v86h92v-76l-52 -117h-43z" />
    <glyph glyph-name="kcommaaccent" unicode="&#x137;" horiz-adv-x="418" 
d="M61 750h87v-482l147 222h104l-162 -226l165 -264h-105l-149 250v-250h-87v750zM174 -284l36 107h-33v86h92v-76l-52 -117h-43z" />
    <glyph glyph-name="kgreenlandic" unicode="&#x138;" horiz-adv-x="453" 
d="M50 490h87v-229l195 229h110l-211 -238l216 -252h-110l-200 243v-243h-87v490z" />
    <glyph glyph-name="Lacute" unicode="&#x139;" horiz-adv-x="430" 
d="M66 700h91v-617h267v-83h-358v700zM39 822l147 81v-93l-147 -46v58z" />
    <glyph glyph-name="lacute" unicode="&#x13a;" horiz-adv-x="228" 
d="M82 24q-27 34 -27 84v642h87v-590q0 -44 4.5 -64.5t17.5 -27.5t42 -7l-11 -71h-30q-56 0 -83 34zM26 872l147 81v-93l-147 -46v58z" />
    <glyph glyph-name="Lcommaaccent" unicode="&#x13b;" horiz-adv-x="430" 
d="M66 700h91v-617h267v-83h-358v700zM196 -284l36 107h-33v86h92v-76l-52 -117h-43z" />
    <glyph glyph-name="lcommaaccent" unicode="&#x13c;" horiz-adv-x="228" 
d="M82 24q-27 34 -27 84v642h87v-590q0 -44 4.5 -64.5t17.5 -27.5t42 -7l-11 -71h-30q-56 0 -83 34zM94 -284l36 107h-33v86h92v-76l-52 -117h-43z" />
    <glyph glyph-name="Lcaron" unicode="&#x13d;" horiz-adv-x="430" 
d="M66 700h91v-617h267v-83h-358v700zM332 700h92l-28 -167h-64v167z" />
    <glyph glyph-name="lcaron" unicode="&#x13e;" horiz-adv-x="254" 
d="M82 24q-27 34 -27 84v642h87v-590q0 -44 4.5 -64.5t17.5 -27.5t42 -7l-11 -71h-30q-56 0 -83 34zM182 750h92l-28 -167h-64v167z" />
    <glyph glyph-name="Ldot" unicode="&#x13f;" horiz-adv-x="430" 
d="M66 700h91v-617h267v-83h-358v700zM277 435h101v-102h-101v102z" />
    <glyph glyph-name="ldot" unicode="&#x140;" horiz-adv-x="280" 
d="M82 24q-27 34 -27 84v642h87v-590q0 -44 4.5 -64.5t17.5 -27.5t42 -7l-11 -71h-30q-56 0 -83 34zM194 460h90v-90h-90v90z" />
    <glyph glyph-name="Lslash" unicode="&#x141;" horiz-adv-x="436" 
d="M430 83v-83h-358v382l-60 -17v64l60 17v254h91v-229l164 45v-64l-164 -45v-324h267z" />
    <glyph glyph-name="lslash" unicode="&#x142;" horiz-adv-x="216" 
d="M122 436v-276q0 -44 4.5 -64.5t17.5 -27.5t41 -7l-11 -71h-29q-56 0 -83 34t-27 84v305l-65 -17v68l65 17v269h87v-246l74 19v-68z" />
    <glyph glyph-name="Nacute" unicode="&#x143;" horiz-adv-x="603" 
d="M66 700h103l277 -512v512h91v-700h-85l-295 541v-541h-91v700zM235 822l147 81v-93l-147 -46v58z" />
    <glyph glyph-name="nacute" unicode="&#x144;" horiz-adv-x="467" 
d="M381.5 440.5q40.5 -59.5 40.5 -160.5v-280h-87v269q0 78 -22.5 115.5t-67.5 37.5q-33 0 -61 -18.5t-47 -51.5v-352h-87v490h74l6 -61q21 33 56.5 52t78.5 19q76 0 116.5 -59.5zM164 645l147 94v-98l-147 -57v61z" />
    <glyph glyph-name="Ncommaaccent" unicode="&#x145;" horiz-adv-x="603" 
d="M66 700h103l277 -512v512h91v-700h-85l-295 541v-541h-91v700zM256 -284l36 107h-33v86h92v-76l-52 -117h-43z" />
    <glyph glyph-name="ncommaaccent" unicode="&#x146;" horiz-adv-x="467" 
d="M381.5 440.5q40.5 -59.5 40.5 -160.5v-280h-87v269q0 78 -22.5 115.5t-67.5 37.5q-33 0 -61 -18.5t-47 -51.5v-352h-87v490h74l6 -61q21 33 56.5 52t78.5 19q76 0 116.5 -59.5zM183 -284l36 107h-33v86h92v-76l-52 -117h-43z" />
    <glyph glyph-name="Ncaron" unicode="&#x147;" horiz-adv-x="603" 
d="M66 700h103l277 -512v512h91v-700h-85l-295 541v-541h-91v700zM308 865l117 62v-61l-117 -83l-117 83v61z" />
    <glyph glyph-name="ncaron" unicode="&#x148;" horiz-adv-x="467" 
d="M381.5 440.5q40.5 -59.5 40.5 -160.5v-280h-87v269q0 78 -22.5 115.5t-67.5 37.5q-33 0 -61 -18.5t-47 -51.5v-352h-87v490h74l6 -61q21 33 56.5 52t78.5 19q76 0 116.5 -59.5zM130 651v60l107 -68l107 68v-60l-107 -93z" />
    <glyph glyph-name="napostrophe" unicode="&#x149;" horiz-adv-x="607" 
d="M59 507l36 107h-33v86h92v-76l-52 -117h-43zM522.5 440.5q40.5 -59.5 40.5 -160.5v-280h-87v269q0 78 -22.5 115.5t-67.5 37.5q-33 0 -61 -18.5t-47 -51.5v-352h-87v490h74l6 -61q21 33 56.5 52t78.5 19q76 0 116.5 -59.5z" />
    <glyph glyph-name="Eng" unicode="&#x14a;" horiz-adv-x="649" 
d="M529 -124.5q-60 -59.5 -159 -59.5q-42 0 -81 11l13 81q33 -9 68 -9q59 0 93.5 36t34.5 105v412q0 86 -41.5 132.5t-121.5 46.5q-53 0 -95.5 -20.5t-73.5 -53.5v-557h-92v700h77l6 -67q38 38 90 59.5t109 21.5q114 0 173.5 -68t59.5 -185v-411q0 -115 -60 -174.5z" />
    <glyph glyph-name="eng" unicode="&#x14b;" horiz-adv-x="477" 
d="M382 -128q-50 -51 -133 -51q-23 0 -47 3t-34 8l13 75q32 -9 64 -9q46 0 73 29.5t27 84.5v257q0 80 -23.5 116.5t-77.5 36.5q-35 0 -64 -17t-43 -49v-356h-87v490h67l10 -53q32 35 65 49t69 14q171 0 171 -220v-260q0 -97 -50 -148z" />
    <glyph glyph-name="Omacron" unicode="&#x14c;" horiz-adv-x="653" 
d="M173.5 31q-67.5 45 -105.5 127.5t-38 191.5t38 191.5t105.5 127.5t153.5 45t153 -45t105 -127.5t38 -191.5t-38 -191.5t-105 -127.5t-153 -45t-153.5 45zM474.5 153.5q51.5 76.5 51.5 196.5t-51.5 196.5t-147.5 76.5t-148 -76.5t-52 -196.5t52 -196.5t148 -76.5
t147.5 76.5zM177 859h300v-66h-300v66z" />
    <glyph glyph-name="omacron" unicode="&#x14d;" horiz-adv-x="472" 
d="M123 23.5q-48 33.5 -73.5 91.5t-25.5 130t25.5 130t73.5 91.5t114 33.5q65 0 113 -33.5t73 -91.5t25 -130t-25 -130t-73 -91.5t-113 -33.5q-66 0 -114 33.5zM327 114q32 47 32 131t-32 130.5t-90 46.5q-60 0 -92 -46.5t-32 -130.5q0 -85 32 -131.5t92 -46.5q58 0 90 47z
M97 660h280v-68h-280v68z" />
    <glyph glyph-name="Obreve" unicode="&#x14e;" horiz-adv-x="653" 
d="M173.5 31q-67.5 45 -105.5 127.5t-38 191.5t38 191.5t105.5 127.5t153.5 45t153 -45t105 -127.5t38 -191.5t-38 -191.5t-105 -127.5t-153 -45t-153.5 45zM474.5 153.5q51.5 76.5 51.5 196.5t-51.5 196.5t-147.5 76.5t-148 -76.5t-52 -196.5t52 -196.5t148 -76.5
t147.5 76.5zM226 797.5q-35 33.5 -35 80.5h80q0 -26 15.5 -39.5t40.5 -13.5t40.5 13.5t15.5 39.5h80q0 -47 -35 -80.5t-101 -33.5t-101 33.5z" />
    <glyph glyph-name="obreve" unicode="&#x14f;" horiz-adv-x="472" 
d="M123 23.5q-48 33.5 -73.5 91.5t-25.5 130t25.5 130t73.5 91.5t114 33.5q65 0 113 -33.5t73 -91.5t25 -130t-25 -130t-73 -91.5t-113 -33.5q-66 0 -114 33.5zM327 114q32 47 32 131t-32 130.5t-90 46.5q-60 0 -92 -46.5t-32 -130.5q0 -85 32 -131.5t92 -46.5q58 0 90 47z
M136 611q-35 35 -35 86h78q0 -26 14.5 -41t43.5 -15t43.5 15t14.5 41h78q0 -51 -35 -86t-101 -35t-101 35z" />
    <glyph glyph-name="Ohungarumlaut" unicode="&#x150;" horiz-adv-x="653" 
d="M173.5 31q-67.5 45 -105.5 127.5t-38 191.5t38 191.5t105.5 127.5t153.5 45t153 -45t105 -127.5t38 -191.5t-38 -191.5t-105 -127.5t-153 -45t-153.5 45zM474.5 153.5q51.5 76.5 51.5 196.5t-51.5 196.5t-147.5 76.5t-148 -76.5t-52 -196.5t52 -196.5t148 -76.5
t147.5 76.5zM283 934h94l-88 -146h-62zM424 934h94l-93 -146h-62z" />
    <glyph glyph-name="ohungarumlaut" unicode="&#x151;" horiz-adv-x="472" 
d="M123 23.5q-48 33.5 -73.5 91.5t-25.5 130t25.5 130t73.5 91.5t114 33.5q65 0 113 -33.5t73 -91.5t25 -130t-25 -130t-73 -91.5t-113 -33.5q-66 0 -114 33.5zM327 114q32 47 32 131t-32 130.5t-90 46.5q-60 0 -92 -46.5t-32 -130.5q0 -85 32 -131.5t92 -46.5q58 0 90 47z
M195 744h95l-93 -166h-63zM333 744h94l-98 -166h-62z" />
    <glyph glyph-name="OE" unicode="&#x152;" horiz-adv-x="935" 
d="M906 85v-85h-382v91q-38 -50 -90.5 -77.5t-115.5 -27.5q-83 0 -148.5 45t-102.5 127.5t-37 191.5t37 191.5t102.5 127.5t148.5 45q63 0 115.5 -27.5t90.5 -77.5v91h374v-85h-280v-207h220v-84h-220v-239h288zM471.5 149.5q50.5 78.5 50.5 200.5t-50.5 200.5t-144.5 78.5
t-145 -78.5t-51 -200.5t51 -200.5t145 -78.5t144.5 78.5z" />
    <glyph glyph-name="oe" unicode="&#x153;" horiz-adv-x="768" 
d="M742 246h-289q5 -89 43 -133t98 -44q61 0 126 34l8 -70q-68 -43 -142 -43q-60 0 -106 25.5t-76 72.5q-28 -46 -70.5 -72t-96.5 -26q-66 0 -114 33.5t-73.5 91.5t-25.5 130t25.5 130t73.5 91.5t114 33.5q53 0 95 -26.5t69 -73.5q24 46 69.5 73t102.5 27q78 0 126 -53.5
t48 -148.5q0 -29 -5 -52zM326 115q31 46 31 130q0 83 -31.5 129t-88.5 46q-59 0 -90.5 -46t-31.5 -129q0 -84 31.5 -130t90.5 -46q58 0 89 46zM656 307q0 47 -22 80t-71 33q-45 0 -73 -28.5t-35 -84.5h201z" />
    <glyph glyph-name="Racute" unicode="&#x154;" horiz-adv-x="541" 
d="M73 700h180q110 0 171.5 -54.5t61.5 -159.5q0 -60 -28.5 -108.5t-79.5 -76.5l140 -301h-108l-125 274q-16 -2 -33 -2h-88v-272h-91v700zM245 356q76 0 111 33t35 97q0 65 -35 98t-111 33h-81v-261h81zM198 822l147 81v-93l-147 -46v58z" />
    <glyph glyph-name="racute" unicode="&#x155;" horiz-adv-x="295" 
d="M57 490h71l11 -82q33 48 62.5 70t62.5 22q13 0 23 -3l-9 -99q-13 3 -30 3q-33 0 -62 -16.5t-42 -38.5v-346h-87v490zM108 645l147 94v-98l-147 -57v61z" />
    <glyph glyph-name="Rcommaaccent" unicode="&#x156;" horiz-adv-x="541" 
d="M73 700h180q110 0 171.5 -54.5t61.5 -159.5q0 -60 -28.5 -108.5t-79.5 -76.5l140 -301h-108l-125 274q-16 -2 -33 -2h-88v-272h-91v700zM245 356q76 0 111 33t35 97q0 65 -35 98t-111 33h-81v-261h81zM239 -284l36 107h-33v86h92v-76l-52 -117h-43z" />
    <glyph glyph-name="rcommaaccent" unicode="&#x157;" horiz-adv-x="295" 
d="M57 490h71l11 -82q33 48 62.5 70t62.5 22q13 0 23 -3l-9 -99q-13 3 -30 3q-33 0 -62 -16.5t-42 -38.5v-346h-87v490zM52 -284l36 107h-33v86h92v-76l-52 -117h-43z" />
    <glyph glyph-name="Rcaron" unicode="&#x158;" horiz-adv-x="541" 
d="M73 700h180q110 0 171.5 -54.5t61.5 -159.5q0 -60 -28.5 -108.5t-79.5 -76.5l140 -301h-108l-125 274q-16 -2 -33 -2h-88v-272h-91v700zM245 356q76 0 111 33t35 97q0 65 -35 98t-111 33h-81v-261h81zM271 865l117 62v-61l-117 -83l-117 83v61z" />
    <glyph glyph-name="rcaron" unicode="&#x159;" horiz-adv-x="295" 
d="M57 490h71l11 -82q33 48 62.5 70t62.5 22q13 0 23 -3l-9 -99q-13 3 -30 3q-33 0 -62 -16.5t-42 -38.5v-346h-87v490zM74 651v60l107 -68l107 68v-60l-107 -93z" />
    <glyph glyph-name="Sacute" unicode="&#x15a;" horiz-adv-x="499" 
d="M129.5 -2.5q-53.5 11.5 -87.5 27.5l13 100q40 -25 89 -40.5t97 -15.5q62 0 97 25.5t35 74.5q0 35 -16.5 60t-47.5 44.5t-87 44.5q-66 30 -104.5 55t-61.5 62t-23 92q0 56 29 98.5t81.5 65.5t119.5 23q51 0 96.5 -11t77.5 -27l-10 -94q-83 49 -169 49q-58 0 -91 -24
t-33 -74q0 -34 17.5 -56.5t48.5 -40t94 -46.5q94 -42 137 -90.5t43 -121.5q0 -89 -65 -140.5t-177 -51.5q-49 0 -102.5 11.5zM188 822l147 81v-93l-147 -46v58z" />
    <glyph glyph-name="sacute" unicode="&#x15b;" horiz-adv-x="360" 
d="M33 30l11 88q64 -50 132 -50q36 0 56.5 15t20.5 44q0 22 -9.5 36t-31.5 27t-68 34q-54 25 -79 57t-25 83q0 60 42 98t113 38q72 0 126 -32l-11 -81q-27 18 -51 26.5t-57 8.5q-35 0 -55 -15t-20 -42t17.5 -41t68.5 -37q71 -32 100 -64.5t29 -85.5q0 -69 -43 -108t-117 -39
q-86 0 -149 40zM127 645l147 94v-98l-147 -57v61z" />
    <glyph glyph-name="Scircumflex" unicode="&#x15c;" horiz-adv-x="499" 
d="M129.5 -2.5q-53.5 11.5 -87.5 27.5l13 100q40 -25 89 -40.5t97 -15.5q62 0 97 25.5t35 74.5q0 35 -16.5 60t-47.5 44.5t-87 44.5q-66 30 -104.5 55t-61.5 62t-23 92q0 56 29 98.5t81.5 65.5t119.5 23q51 0 96.5 -11t77.5 -27l-10 -94q-83 49 -169 49q-58 0 -91 -24
t-33 -74q0 -34 17.5 -56.5t48.5 -40t94 -46.5q94 -42 137 -90.5t43 -121.5q0 -89 -65 -140.5t-177 -51.5q-49 0 -102.5 11.5zM144 816l117 83l117 -83v-61l-117 62l-117 -62v61z" />
    <glyph glyph-name="scircumflex" unicode="&#x15d;" horiz-adv-x="360" 
d="M33 30l11 88q64 -50 132 -50q36 0 56.5 15t20.5 44q0 22 -9.5 36t-31.5 27t-68 34q-54 25 -79 57t-25 83q0 60 42 98t113 38q72 0 126 -32l-11 -81q-27 18 -51 26.5t-57 8.5q-35 0 -55 -15t-20 -42t17.5 -41t68.5 -37q71 -32 100 -64.5t29 -85.5q0 -69 -43 -108t-117 -39
q-86 0 -149 40zM93 624l107 91l107 -91v-60l-107 67l-107 -67v60z" />
    <glyph glyph-name="Scedilla" unicode="&#x15e;" horiz-adv-x="499" 
d="M420.5 47q-53.5 -50 -148.5 -59l-13 -42q38 0 59.5 -22t21.5 -59q0 -43 -28.5 -67t-72.5 -24q-38 0 -66 13l15 47q25 -11 51 -11q22 0 34.5 10.5t12.5 31.5q0 19 -11 29.5t-32 10.5q-16 0 -37 -6l21 87q-48 1 -99.5 12.5t-85.5 26.5l13 100q40 -25 89 -40.5t97 -15.5
q62 0 97 25.5t35 74.5q0 35 -16.5 60t-47.5 44.5t-87 44.5q-66 30 -104.5 55t-61.5 62t-23 92q0 56 29 98.5t81.5 65.5t119.5 23q51 0 96.5 -11t77.5 -27l-10 -94q-83 49 -169 49q-58 0 -91 -24t-33 -74q0 -34 17.5 -56.5t48.5 -40t94 -46.5q94 -42 137 -90.5t43 -121.5
q0 -81 -53.5 -131z" />
    <glyph glyph-name="scedilla" unicode="&#x15f;" horiz-adv-x="360" 
d="M307 37q-35 -38 -97 -45l-14 -46q38 0 59.5 -22t21.5 -59q0 -43 -28.5 -67t-72.5 -24q-38 0 -66 13l15 47q25 -11 51 -11q22 0 34.5 10.5t12.5 31.5q0 19 -11 29.5t-32 10.5q-16 0 -37 -6l22 91q-75 4 -132 40l11 88q64 -50 132 -50q36 0 56.5 15t20.5 44q0 22 -9.5 36
t-31.5 27t-68 34q-54 25 -79 57t-25 83q0 60 42 98t113 38q72 0 126 -32l-11 -81q-27 18 -51 26.5t-57 8.5q-35 0 -55 -15t-20 -42t17.5 -41t68.5 -37q71 -32 100 -64.5t29 -85.5q0 -62 -35 -100z" />
    <glyph glyph-name="Scaron" unicode="&#x160;" horiz-adv-x="499" 
d="M129.5 -2.5q-53.5 11.5 -87.5 27.5l13 100q40 -25 89 -40.5t97 -15.5q62 0 97 25.5t35 74.5q0 35 -16.5 60t-47.5 44.5t-87 44.5q-66 30 -104.5 55t-61.5 62t-23 92q0 56 29 98.5t81.5 65.5t119.5 23q51 0 96.5 -11t77.5 -27l-10 -94q-83 49 -169 49q-58 0 -91 -24
t-33 -74q0 -34 17.5 -56.5t48.5 -40t94 -46.5q94 -42 137 -90.5t43 -121.5q0 -89 -65 -140.5t-177 -51.5q-49 0 -102.5 11.5zM261 865l117 62v-61l-117 -83l-117 83v61z" />
    <glyph glyph-name="scaron" unicode="&#x161;" horiz-adv-x="360" 
d="M33 30l11 88q64 -50 132 -50q36 0 56.5 15t20.5 44q0 22 -9.5 36t-31.5 27t-68 34q-54 25 -79 57t-25 83q0 60 42 98t113 38q72 0 126 -32l-11 -81q-27 18 -51 26.5t-57 8.5q-35 0 -55 -15t-20 -42t17.5 -41t68.5 -37q71 -32 100 -64.5t29 -85.5q0 -69 -43 -108t-117 -39
q-86 0 -149 40zM93 651v60l107 -68l107 68v-60l-107 -93z" />
    <glyph glyph-name="uni0162" unicode="&#x162;" horiz-adv-x="476" 
d="M192 617h-174v83h440v-83h-174v-617h-92v617zM312.5 -76q21.5 -22 21.5 -59q0 -43 -28.5 -67t-72.5 -24q-38 0 -66 13l15 47q25 -11 51 -11q22 0 34.5 10.5t12.5 31.5q0 19 -11 29.5t-32 10.5q-16 0 -37 -6l24 101h46l-17 -54q38 0 59.5 -22z" />
    <glyph glyph-name="uni0163" unicode="&#x163;" horiz-adv-x="298" 
d="M260.5 -76q21.5 -22 21.5 -59q0 -43 -28.5 -67t-72.5 -24q-38 0 -66 13l15 47q25 -11 51 -11q22 0 34.5 10.5t12.5 31.5q0 19 -11 29.5t-32 10.5q-16 0 -37 -6l22 93q-43 8 -64 40t-21 75v314h-68l8 69h60v121l87 9v-130h106v-69h-106v-279q0 -45 16.5 -63t57.5 -18h31
l-8 -71h-54l-14 -44q38 0 59.5 -22z" />
    <glyph glyph-name="Tcaron" unicode="&#x164;" horiz-adv-x="476" 
d="M192 617h-174v83h440v-83h-174v-617h-92v617zM131 861v60l107 -68l107 68v-60l-107 -93z" />
    <glyph glyph-name="tcaron" unicode="&#x165;" horiz-adv-x="298" 
d="M112.5 24q-27.5 34 -27.5 83v314h-68l8 69h60v121l87 9v-130h106v-69h-106v-279q0 -45 16.5 -63t57.5 -18h31l-8 -71h-72q-57 0 -84.5 34zM214 708h92l-28 -167h-64v167z" />
    <glyph glyph-name="Tbar" unicode="&#x166;" horiz-adv-x="476" 
d="M284 617v-227h119v-62h-119v-328h-92v328h-119v62h119v227h-174v83h440v-83h-174z" />
    <glyph glyph-name="tbar" unicode="&#x167;" horiz-adv-x="298" 
d="M172 421v-116h100v-62h-100v-101q0 -45 16.5 -63t57.5 -18h31l-8 -71h-72q-57 0 -84.5 34t-27.5 83v136h-68v62h68v116h-68l8 69h60v121l87 9v-130h106v-69h-106z" />
    <glyph glyph-name="Utilde" unicode="&#x168;" horiz-adv-x="617" 
d="M120 62q-61 76 -61 215v423h91v-397q0 -73 11.5 -123t46.5 -80.5t100 -30.5q66 0 101 30.5t46.5 80.5t11.5 123v397h91v-423q0 -140 -61 -215.5t-189 -75.5q-127 0 -188 76zM348 793.5q-16 5.5 -37 15.5q-3 1 -20.5 8.5t-30.5 7.5q-14 0 -22 -8.5t-8 -23.5h-65
q0 48 19 74t54 26q16 0 32 -5.5t37 -15.5q3 -1 20.5 -8.5t30.5 -7.5q14 0 22 8.5t8 23.5h65q0 -48 -19 -74t-54 -26q-16 0 -32 5.5z" />
    <glyph glyph-name="utilde" unicode="&#x169;" horiz-adv-x="475" 
d="M407 490v-490h-74l-6 60q-20 -33 -54 -51.5t-75 -18.5q-77 0 -114.5 51.5t-37.5 147.5v301h87v-290q0 -66 19.5 -98.5t65.5 -32.5q32 0 58 18t44 50v353h87zM259 587q-15 7 -36 20q-27 20 -46 20q-13 0 -20 -10.5t-7 -28.5h-72q5 111 76 111q20 0 35 -7t36 -20
q27 -20 46 -20q13 0 20 10.5t7 28.5h72q-5 -111 -76 -111q-20 0 -35 7z" />
    <glyph glyph-name="Umacron" unicode="&#x16a;" horiz-adv-x="617" 
d="M120 62q-61 76 -61 215v423h91v-397q0 -73 11.5 -123t46.5 -80.5t100 -30.5q66 0 101 30.5t46.5 80.5t11.5 123v397h91v-423q0 -140 -61 -215.5t-189 -75.5q-127 0 -188 76zM159 859h300v-66h-300v66z" />
    <glyph glyph-name="umacron" unicode="&#x16b;" horiz-adv-x="475" 
d="M407 490v-490h-74l-6 60q-20 -33 -54 -51.5t-75 -18.5q-77 0 -114.5 51.5t-37.5 147.5v301h87v-290q0 -66 19.5 -98.5t65.5 -32.5q32 0 58 18t44 50v353h87zM84 660h280v-68h-280v68z" />
    <glyph glyph-name="Ubreve" unicode="&#x16c;" horiz-adv-x="617" 
d="M120 62q-61 76 -61 215v423h91v-397q0 -73 11.5 -123t46.5 -80.5t100 -30.5q66 0 101 30.5t46.5 80.5t11.5 123v397h91v-423q0 -140 -61 -215.5t-189 -75.5q-127 0 -188 76zM208 797.5q-35 33.5 -35 80.5h80q0 -26 15.5 -39.5t40.5 -13.5t40.5 13.5t15.5 39.5h80
q0 -47 -35 -80.5t-101 -33.5t-101 33.5z" />
    <glyph glyph-name="ubreve" unicode="&#x16d;" horiz-adv-x="475" 
d="M407 490v-490h-74l-6 60q-20 -33 -54 -51.5t-75 -18.5q-77 0 -114.5 51.5t-37.5 147.5v301h87v-290q0 -66 19.5 -98.5t65.5 -32.5q32 0 58 18t44 50v353h87zM123 611q-35 35 -35 86h78q0 -26 14.5 -41t43.5 -15t43.5 15t14.5 41h78q0 -51 -35 -86t-101 -35t-101 35z" />
    <glyph glyph-name="Uring" unicode="&#x16e;" horiz-adv-x="617" 
d="M120 62q-61 76 -61 215v423h91v-397q0 -73 11.5 -123t46.5 -80.5t100 -30.5q66 0 101 30.5t46.5 80.5t11.5 123v397h91v-423q0 -140 -61 -215.5t-189 -75.5q-127 0 -188 76zM239.5 784.5q-24.5 28.5 -24.5 69.5q0 40 25 69t69 29t69 -29t25 -69q0 -41 -24.5 -69.5
t-69.5 -28.5t-69.5 28.5zM341 814.5q12 14.5 12 39.5q0 24 -12 39t-32 15t-32 -15t-12 -39q0 -25 12 -39.5t32 -14.5t32 14.5z" />
    <glyph glyph-name="uring" unicode="&#x16f;" horiz-adv-x="475" 
d="M407 490v-490h-74l-6 60q-20 -33 -54 -51.5t-75 -18.5q-77 0 -114.5 51.5t-37.5 147.5v301h87v-290q0 -66 19.5 -98.5t65.5 -32.5q32 0 58 18t44 50v353h87zM154.5 597q-24.5 29 -24.5 71q0 41 24.5 70.5t69.5 29.5q46 0 70 -29t24 -71t-24 -71t-70 -29q-45 0 -69.5 29z
M258 626.5q13 15.5 13 41.5q0 25 -13 41t-34 16t-34 -16t-13 -41q0 -26 13 -41.5t34 -15.5t34 15.5z" />
    <glyph glyph-name="Uhungarumlaut" unicode="&#x170;" horiz-adv-x="617" 
d="M120 62q-61 76 -61 215v423h91v-397q0 -73 11.5 -123t46.5 -80.5t100 -30.5q66 0 101 30.5t46.5 80.5t11.5 123v397h91v-423q0 -140 -61 -215.5t-189 -75.5q-127 0 -188 76zM265 934h94l-88 -146h-62zM406 934h94l-93 -146h-62z" />
    <glyph glyph-name="uhungarumlaut" unicode="&#x171;" horiz-adv-x="475" 
d="M407 490v-490h-74l-6 60q-20 -33 -54 -51.5t-75 -18.5q-77 0 -114.5 51.5t-37.5 147.5v301h87v-290q0 -66 19.5 -98.5t65.5 -32.5q32 0 58 18t44 50v353h87zM182 744h95l-93 -166h-63zM320 744h94l-98 -166h-62z" />
    <glyph glyph-name="Uogonek" unicode="&#x172;" horiz-adv-x="617" 
d="M558 700v-423q0 -113 -40 -185t-124 -95q-33 -34 -49 -59t-16 -51q0 -21 13 -32.5t35 -11.5t43 9l15 -47q-28 -13 -66 -13q-42 0 -70 22t-28 61q0 55 59 112q-7 -1 -22 -1q-127 0 -188 76t-61 215v423h91v-397q0 -73 11.5 -123t46.5 -80.5t100 -30.5q66 0 101 30.5
t46.5 80.5t11.5 123v397h91z" />
    <glyph glyph-name="uogonek" unicode="&#x173;" horiz-adv-x="475" 
d="M445 -195q-28 -13 -66 -13q-42 0 -70 22t-28 61q0 35 19.5 64.5t53.5 60.5h-21l-6 60q-20 -33 -54 -51.5t-75 -18.5q-77 0 -114.5 51.5t-37.5 147.5v301h87v-290q0 -66 19.5 -98.5t65.5 -32.5q32 0 58 18t44 50v353h87v-490q-34 -34 -51 -60t-17 -53q0 -21 13 -32.5
t35 -11.5t43 9z" />
    <glyph glyph-name="Wcircumflex" unicode="&#x174;" horiz-adv-x="831" 
d="M8 700h98l126 -573l132 559h103l131 -559l127 573h97l-172 -700h-103l-133 554l-130 -554h-103zM298 816l117 83l117 -83v-61l-117 62l-117 -62v61z" />
    <glyph glyph-name="wcircumflex" unicode="&#x175;" horiz-adv-x="613" 
d="M4 490h97l77 -393l86 378h83l87 -378l77 393h97l-125 -490h-88l-89 363l-89 -363h-87zM200 624l107 91l107 -91v-60l-107 67l-107 -67v60z" />
    <glyph glyph-name="Ycircumflex" unicode="&#x176;" horiz-adv-x="517" 
d="M504 700l-206 -397v-303h-91v303l-208 397h101l152 -301l151 301h101zM135 816l117 83l117 -83v-61l-117 62l-117 -62v61z" />
    <glyph glyph-name="ycircumflex" unicode="&#x177;" horiz-adv-x="445" 
d="M183 22l-179 468h93l131 -365l120 365h93l-263 -732h-93zM115 624l107 91l107 -91v-60l-107 67l-107 -67v60z" />
    <glyph glyph-name="Ydieresis" unicode="&#x178;" horiz-adv-x="517" 
d="M504 700l-206 -397v-303h-91v303l-208 397h101l152 -301l151 301h101zM133 869h84v-75h-84v75zM287 869h84v-75h-84v75z" />
    <glyph glyph-name="Zacute" unicode="&#x179;" horiz-adv-x="480" 
d="M469 85v-85h-462l317 615h-278v85h419l-317 -615h321zM183 822l147 81v-93l-147 -46v58z" />
    <glyph glyph-name="zacute" unicode="&#x17a;" horiz-adv-x="406" 
d="M159 78h220v-78h-361l225 411h-214v79h355zM134 645l147 94v-98l-147 -57v61z" />
    <glyph glyph-name="Zdotaccent" unicode="&#x17b;" horiz-adv-x="480" 
d="M469 85v-85h-462l317 615h-278v85h419l-317 -615h321zM210 880h92v-89h-92v89z" />
    <glyph glyph-name="zdotaccent" unicode="&#x17c;" horiz-adv-x="406" 
d="M159 78h220v-78h-361l225 411h-214v79h355zM163 680h88v-89h-88v89z" />
    <glyph glyph-name="Zcaron" unicode="&#x17d;" horiz-adv-x="480" 
d="M469 85v-85h-462l317 615h-278v85h419l-317 -615h321zM256 865l117 62v-61l-117 -83l-117 83v61z" />
    <glyph glyph-name="zcaron" unicode="&#x17e;" horiz-adv-x="406" 
d="M159 78h220v-78h-361l225 411h-214v79h355zM100 651v60l107 -68l107 68v-60l-107 -93z" />
    <glyph glyph-name="uni018F" unicode="&#x18f;" horiz-adv-x="588" 
d="M423 668.5q65 -45.5 100 -129.5t35 -199q0 -97 -32.5 -178t-93.5 -128.5t-144 -47.5q-76 0 -135.5 34t-93 99t-33.5 155q0 37 6 76h429q-2 133 -53 206t-151 73q-46 0 -89 -13.5t-93 -39.5l-18 79q105 59 213 59q88 0 153 -45.5zM400.5 122q43.5 51 55.5 145h-333
q0 -92 40 -144t122 -52q72 0 115.5 51z" />
    <glyph glyph-name="florin" unicode="&#x192;" horiz-adv-x="292" 
d="M208.5 603q-23.5 -28 -30.5 -90l-3 -23h121l-8 -69h-121l-46 -387q-21 -178 -172 -178q-42 0 -69 11l6 80q24 -8 52 -8q42 0 64.5 24t29.5 78l45 380h-71l8 69h71l4 30q12 96 57.5 145t116.5 49q43 0 70 -11l-7 -80q-20 8 -52 8q-42 0 -65.5 -28z" />
    <glyph glyph-name="Ohorn" unicode="&#x1a0;" horiz-adv-x="653" 
d="M589 532.5q34 -79.5 34 -182.5q0 -109 -38 -191.5t-105 -127.5t-153 -45t-153.5 45t-105.5 127.5t-38 191.5t38 191.5t105.5 127.5t153.5 45q46 0 88 -14q61 5 61 74h81q0 -38 -16.5 -68t-46.5 -47q61 -47 95 -126.5zM474.5 153.5q51.5 76.5 51.5 196.5t-51.5 196.5
t-147.5 76.5t-148 -76.5t-52 -196.5t52 -196.5t148 -76.5t147.5 76.5z" />
    <glyph glyph-name="ohorn" unicode="&#x1a1;" horiz-adv-x="472" 
d="M427.5 363q20.5 -54 20.5 -118q0 -72 -25 -130t-73 -91.5t-113 -33.5q-66 0 -114 33.5t-73.5 91.5t-25.5 130t25.5 130t73.5 91.5t114 33.5q30 0 60 -8q50 9 50 72h81q0 -37 -15.5 -65.5t-43.5 -47.5q38 -34 58.5 -88zM327 114q32 47 32 131t-32 130.5t-90 46.5
q-60 0 -92 -46.5t-32 -130.5q0 -85 32 -131.5t92 -46.5q58 0 90 47z" />
    <glyph glyph-name="Uhorn" unicode="&#x1af;" horiz-adv-x="617" 
d="M622.5 695q-23.5 -33 -64.5 -48v-370q0 -140 -61 -215.5t-189 -75.5q-127 0 -188 76t-61 215v423h91v-397q0 -73 11.5 -123t46.5 -80.5t100 -30.5q66 0 101 30.5t46.5 80.5t11.5 123v397h28q70 0 70 74h81q0 -46 -23.5 -79z" />
    <glyph glyph-name="uhorn" unicode="&#x1b0;" horiz-adv-x="475" 
d="M472 485q-24 -33 -65 -48v-437h-74l-6 60q-20 -33 -54 -51.5t-75 -18.5q-77 0 -114.5 51.5t-37.5 147.5v301h87v-290q0 -66 19.5 -98.5t65.5 -32.5q32 0 58 18t44 50v353h25q70 0 70 74h81q0 -46 -24 -79z" />
    <glyph glyph-name="uni01C4" unicode="&#x1c4;" horiz-adv-x="1085" 
d="M66 700h224q87 0 154.5 -42t105.5 -121t38 -187t-38 -187t-105.5 -121t-154.5 -42h-224v700zM273 83q105 0 159.5 70t54.5 197t-54.5 197t-159.5 70h-116v-534h116zM1074 85v-85h-462l317 615h-278v85h419l-317 -615h321zM861 865l117 62v-61l-117 -83l-117 83v61z" />
    <glyph glyph-name="uni01C5" unicode="&#x1c5;" horiz-adv-x="1020" 
d="M66 700h224q87 0 154.5 -42t105.5 -121t38 -187t-38 -187t-105.5 -121t-154.5 -42h-224v700zM273 83q105 0 159.5 70t54.5 197t-54.5 197t-159.5 70h-116v-534h116zM773 78h220v-78h-361l225 411h-214v79h355zM714 651v60l107 -68l107 68v-60l-107 -93z" />
    <glyph glyph-name="uni01C6" unicode="&#x1c6;" horiz-adv-x="898" 
d="M437 750v-750h-77l-7 45q-23 -27 -55 -41t-70 -14q-57 0 -102 33.5t-71 91.5t-26 129q0 69 24.5 127.5t70 93.5t104.5 35q73 0 122 -51v301h87zM325 110.5q33 43.5 33 133.5q0 87 -33 132.5t-88 45.5q-34 0 -61 -23t-42.5 -63.5t-15.5 -91.5q0 -48 15.5 -88.5t43 -64.5
t60.5 -24q55 0 88 43.5zM651 78h220v-78h-361l225 411h-214v79h355zM592 651v60l107 -68l107 68v-60l-107 -93z" />
    <glyph glyph-name="uni01C7" unicode="&#x1c7;" horiz-adv-x="673" 
d="M66 700h91v-617h267v-83h-358v700zM429 -91q46 0 62.5 18t16.5 70v703h91v-732q0 -69 -37 -104.5t-103 -35.5h-21z" />
    <glyph glyph-name="uni01C8" unicode="&#x1c8;" horiz-adv-x="635" 
d="M66 700h91v-617h267v-83h-358v700zM489 700h87v-99h-87v99zM430 -174q27 3 39 11.5t16 28t4 61.5v563h87v-597q0 -65 -29 -93.5t-77 -36.5l-31 -5z" />
    <glyph glyph-name="uni01C9" unicode="&#x1c9;" horiz-adv-x="433" 
d="M82 24q-27 34 -27 84v642h87v-590q0 -44 4.5 -64.5t17.5 -27.5t42 -7l-11 -71h-30q-56 0 -83 34zM287 700h87v-99h-87v99zM228 -174q27 3 39 11.5t16 28t4 61.5v563h87v-597q0 -65 -29 -93.5t-77 -36.5l-31 -5z" />
    <glyph glyph-name="uni01CA" unicode="&#x1ca;" horiz-adv-x="846" 
d="M66 700h103l277 -512v512h91v-700h-85l-295 541v-541h-91v700zM602 -91q46 0 62.5 18t16.5 70v703h91v-732q0 -69 -37 -104.5t-103 -35.5h-21z" />
    <glyph glyph-name="uni01CB" unicode="&#x1cb;" horiz-adv-x="800" 
d="M66 700h103l277 -512v512h91v-700h-85l-295 541v-541h-91v700zM654 700h87v-99h-87v99zM595 -174q27 3 39 11.5t16 28t4 61.5v563h87v-597q0 -65 -29 -93.5t-77 -36.5l-31 -5z" />
    <glyph glyph-name="uni01CC" unicode="&#x1cc;" horiz-adv-x="672" 
d="M381.5 440.5q40.5 -59.5 40.5 -160.5v-280h-87v269q0 78 -22.5 115.5t-67.5 37.5q-33 0 -61 -18.5t-47 -51.5v-352h-87v490h74l6 -61q21 33 56.5 52t78.5 19q76 0 116.5 -59.5zM526 700h87v-99h-87v99zM467 -174q27 3 39 11.5t16 28t4 61.5v563h87v-597q0 -65 -29 -93.5
t-77 -36.5l-31 -5z" />
    <glyph glyph-name="Gcaron" unicode="&#x1e6;" horiz-adv-x="571" 
d="M183 32.5q-74 46.5 -113.5 129t-39.5 188.5q0 109 42 191.5t115.5 127.5t167.5 45q86 0 156 -30l-10 -85q-33 16 -65.5 24t-71.5 8q-74 0 -126.5 -37t-79.5 -101t-27 -143q0 -126 59 -203.5t173 -77.5q44 0 77 14v185h-89v83h180v-319q-33 -21 -79 -33.5t-94 -12.5
q-101 0 -175 46.5zM350 865l117 62v-61l-117 -83l-117 83v61z" />
    <glyph glyph-name="gcaron" unicode="&#x1e7;" horiz-adv-x="424" 
d="M75.5 -214.5q-54.5 35.5 -54.5 97.5q0 71 78 124q-46 22 -46 67q0 23 14 40.5t40 27.5q-37 26 -57 70t-20 97q0 54 21 97.5t60.5 68.5t92.5 25q64 0 108 -36q39 36 83 36q13 0 25 -2l-9 -70q-10 2 -20 2q-21 0 -42 -9q29 -47 29 -112q0 -54 -21 -98.5t-60.5 -71
t-92.5 -26.5q-28 0 -50 7q-19 -8 -19 -23q0 -13 13 -20.5t46 -17.5l69 -21q62 -19 97.5 -37.5t52.5 -44t17 -63.5q0 -68 -59 -105.5t-154 -37.5q-87 0 -141.5 35.5zM271 216.5q24 34.5 24 91.5q0 54 -24 88t-67 34t-67 -33.5t-24 -88.5q0 -57 24 -91.5t67 -34.5t67 34.5z
M309.5 -162q32.5 17 32.5 50q0 27 -20 42.5t-73 31.5l-80 24q-68 -43 -68 -90q0 -37 32.5 -56t89.5 -19q54 0 86.5 17zM141 651v60l107 -68l107 68v-60l-107 -93z" />
    <glyph glyph-name="uni01EA" unicode="&#x1ea;" horiz-adv-x="653" 
d="M590.5 170.5q-32.5 -78.5 -91 -125.5t-134.5 -57q-28 -29 -42.5 -52.5t-14.5 -48.5q0 -21 13 -32.5t35 -11.5t43 9l15 -47q-28 -13 -66 -13q-42 0 -70 22t-28 61q0 55 59 112q-81 4 -144.5 50t-99 127t-35.5 186q0 109 38 191.5t105.5 127.5t153.5 45t153 -45t105 -127.5
t38 -191.5q0 -101 -32.5 -179.5zM179 153.5q52 -76.5 148 -76.5t147.5 76.5t51.5 196.5t-51.5 196.5t-147.5 76.5t-148 -76.5t-52 -196.5t52 -196.5z" />
    <glyph glyph-name="uni01EB" unicode="&#x1eb;" horiz-adv-x="472" 
d="M403 78q-45 -69 -125 -84q-31 -32 -46.5 -56.5t-15.5 -50.5q0 -21 13 -32.5t35 -11.5t43 9l15 -47q-28 -13 -66 -13q-42 0 -70 22t-28 61q0 32 17 60t46 56q-61 4 -105.5 38.5t-68 90.5t-23.5 125q0 72 25.5 130t73.5 91.5t114 33.5q65 0 113 -33.5t73 -91.5t25 -130
q0 -98 -45 -167zM145 113.5q32 -46.5 92 -46.5q58 0 90 47t32 131t-32 130.5t-90 46.5q-60 0 -92 -46.5t-32 -130.5q0 -85 32 -131.5z" />
    <glyph glyph-name="Aringacute" unicode="&#x1fa;" horiz-adv-x="540" 
d="M379 190h-217l-56 -190h-98l215 700h94l215 -700h-97zM354 275l-84 284l-83 -284h167zM201.5 784.5q-24.5 28.5 -24.5 69.5q0 40 25 69t69 29t69 -29t25 -69q0 -41 -24.5 -69.5t-69.5 -28.5t-69.5 28.5zM303 814.5q12 14.5 12 39.5q0 24 -12 39t-32 15t-32 -15t-12 -39
q0 -25 12 -39.5t32 -14.5t32 14.5zM198 1043l147 81v-93l-147 -46v58z" />
    <glyph glyph-name="aringacute" unicode="&#x1fb;" horiz-adv-x="434" 
d="M60 30q-36 40 -36 102q0 92 77 132.5t172 42.5q0 64 -19 89t-64 25q-58 0 -118 -45l-11 73q63 51 146 51q79 0 117 -45.5t38 -146.5v-143q0 -57 8 -80.5t35 -23.5h11l-11 -71h-19q-46 0 -68 17t-36 55q-23 -33 -57 -52.5t-73 -19.5q-56 0 -92 40zM229 79.5
q26 18.5 44 48.5v117q-77 -4 -117 -29.5t-40 -78.5q0 -76 63 -76q24 0 50 18.5zM147.5 597q-24.5 29 -24.5 71q0 41 24.5 70.5t69.5 29.5q46 0 70 -29t24 -71t-24 -71t-70 -29q-45 0 -69.5 29zM251 626.5q13 15.5 13 41.5q0 25 -13 41t-34 16t-34 -16t-13 -41
q0 -26 13 -41.5t34 -15.5t34 15.5zM144 865l147 81v-93l-147 -46v58z" />
    <glyph glyph-name="AEacute" unicode="&#x1fc;" horiz-adv-x="752" 
d="M723 83v-83h-382v185h-172l-78 -185h-96l296 700h424v-83h-283v-209h223v-84h-223v-241h291zM341 270v326l-137 -326h137zM431 822l147 81v-93l-147 -46v58z" />
    <glyph glyph-name="aeacute" unicode="&#x1fd;" horiz-adv-x="687" 
d="M662 246h-297q2 -86 42.5 -131.5t105.5 -45.5q31 0 65.5 7.5t60.5 21.5l8 -78q-55 -30 -139 -30q-60 0 -106.5 23.5t-76.5 65.5q-35 -44 -71.5 -66.5t-86.5 -22.5q-63 0 -103 39.5t-40 102.5q0 91 70.5 131.5t181.5 43.5v6q0 60 -20 84t-66 24q-58 0 -118 -45l-11 73
q63 51 146 51q49 0 81 -18.5t50 -57.5q60 76 158 76q75 0 122.5 -55t47.5 -152q0 -17 -4 -47zM577 307q0 50 -24 81.5t-70 31.5t-75.5 -28.5t-38.5 -84.5h208zM246 81q28 20 49 55q-19 52 -19 110q-74 -3 -117 -32t-43 -81q0 -32 19.5 -52t50.5 -20q32 0 60 20zM283 645
l147 94v-98l-147 -57v61z" />
    <glyph glyph-name="Oslashacute" unicode="&#x1fe;" horiz-adv-x="653" 
d="M600 504q23 -69 23 -154q0 -109 -38 -191.5t-105 -127.5t-153 -45q-85 0 -152 44l-45 -74h-85l74 123q-43 48 -66 117t-23 154q0 109 38 191.5t105.5 127.5t153.5 45t151 -44l45 74h85l-74 -122q43 -49 66 -118zM172 165l258 426q-43 32 -103 32q-96 0 -148 -76.5
t-52 -196.5q0 -113 45 -185zM474.5 153.5q51.5 76.5 51.5 196.5q0 112 -44 185l-259 -426q45 -32 104 -32q96 0 147.5 76.5zM254 822l147 81v-93l-147 -46v58z" />
    <glyph glyph-name="oslashacute" unicode="&#x1ff;" horiz-adv-x="472" 
d="M431 354q17 -50 17 -109q0 -72 -25 -130t-73 -91.5t-113 -33.5q-49 0 -93 21l-29 -51h-75l51 91q-33 35 -50 85t-17 109q0 72 25.5 130t73.5 91.5t114 33.5q50 0 92 -21l29 51h74l-51 -91q33 -35 50 -85zM135 131l156 278q-23 13 -54 13q-60 0 -92 -46.5t-32 -130.5
q0 -68 22 -114zM327 114q32 47 32 131q0 68 -22 114l-155 -279q26 -13 55 -13q58 0 90 47zM164 645l147 94v-98l-147 -57v61z" />
    <glyph glyph-name="uni0200" unicode="&#x200;" horiz-adv-x="540" 
d="M379 190h-217l-56 -190h-98l215 700h94l215 -700h-97zM354 275l-84 284l-83 -284h167zM173 788l-84 146h93l53 -146h-62zM309 788l-80 146h94l48 -146h-62z" />
    <glyph glyph-name="uni0201" unicode="&#x201;" horiz-adv-x="434" 
d="M60 30q-36 40 -36 102q0 92 77 132.5t172 42.5q0 64 -19 89t-64 25q-58 0 -118 -45l-11 73q63 51 146 51q79 0 117 -45.5t38 -146.5v-143q0 -57 8 -80.5t35 -23.5h11l-11 -71h-19q-46 0 -68 17t-36 55q-23 -33 -57 -52.5t-73 -19.5q-56 0 -92 40zM229 79.5
q26 18.5 44 48.5v117q-77 -4 -117 -29.5t-40 -78.5q0 -76 63 -76q24 0 50 18.5zM121 578l-91 166h98l59 -166h-66zM261 578l-86 166h91l55 -166h-60z" />
    <glyph glyph-name="uni0202" unicode="&#x202;" horiz-adv-x="540" 
d="M379 190h-217l-56 -190h-98l215 700h94l215 -700h-97zM354 275l-84 284l-83 -284h167zM372 859.5q35 -33.5 35 -80.5h-80q0 26 -15.5 39t-40.5 13t-40.5 -13t-15.5 -39h-80q0 47 35 80.5t101 33.5t101 -33.5z" />
    <glyph glyph-name="uni0203" unicode="&#x203;" horiz-adv-x="434" 
d="M60 30q-36 40 -36 102q0 92 77 132.5t172 42.5q0 64 -19 89t-64 25q-58 0 -118 -45l-11 73q63 51 146 51q79 0 117 -45.5t38 -146.5v-143q0 -57 8 -80.5t35 -23.5h11l-11 -71h-19q-46 0 -68 17t-36 55q-23 -33 -57 -52.5t-73 -19.5q-56 0 -92 40zM229 79.5
q26 18.5 44 48.5v117q-77 -4 -117 -29.5t-40 -78.5q0 -76 63 -76q24 0 50 18.5zM318 658.5q35 -33.5 35 -82.5h-78q0 24 -14.5 37.5t-43.5 13.5t-43.5 -13.5t-14.5 -37.5h-78q0 49 35 82.5t101 33.5t101 -33.5z" />
    <glyph glyph-name="uni0204" unicode="&#x204;" horiz-adv-x="477" 
d="M66 700h374v-83h-283v-209h224v-84h-224v-241h291v-83h-382v700zM156 788l-84 146h93l53 -146h-62zM292 788l-80 146h94l48 -146h-62z" />
    <glyph glyph-name="uni0205" unicode="&#x205;" horiz-adv-x="439" 
d="M132.5 24.5q-52.5 34.5 -79 93.5t-26.5 131q0 69 24.5 126.5t71 91t110.5 33.5q82 0 133.5 -55t51.5 -152q0 -17 -4 -47h-298q3 -87 43.5 -132t105.5 -45q31 0 65.5 7.5t60.5 21.5l8 -78q-55 -30 -140 -30q-74 0 -126.5 34.5zM329 307q0 50 -24.5 81.5t-70.5 31.5
q-45 0 -74.5 -28t-39.5 -85h209zM138 578l-91 166h98l59 -166h-66zM278 578l-86 166h91l55 -166h-60z" />
    <glyph glyph-name="uni0206" unicode="&#x206;" horiz-adv-x="477" 
d="M66 700h374v-83h-283v-209h224v-84h-224v-241h291v-83h-382v700zM355 859.5q35 -33.5 35 -80.5h-80q0 26 -15.5 39t-40.5 13t-40.5 -13t-15.5 -39h-80q0 47 35 80.5t101 33.5t101 -33.5z" />
    <glyph glyph-name="uni0207" unicode="&#x207;" horiz-adv-x="439" 
d="M132.5 24.5q-52.5 34.5 -79 93.5t-26.5 131q0 69 24.5 126.5t71 91t110.5 33.5q82 0 133.5 -55t51.5 -152q0 -17 -4 -47h-298q3 -87 43.5 -132t105.5 -45q31 0 65.5 7.5t60.5 21.5l8 -78q-55 -30 -140 -30q-74 0 -126.5 34.5zM329 307q0 50 -24.5 81.5t-70.5 31.5
q-45 0 -74.5 -28t-39.5 -85h209zM335 658.5q35 -33.5 35 -82.5h-78q0 24 -14.5 37.5t-43.5 13.5t-43.5 -13.5t-14.5 -37.5h-78q0 49 35 82.5t101 33.5t101 -33.5z" />
    <glyph glyph-name="uni0208" unicode="&#x208;" horiz-adv-x="240" 
d="M74 700h92v-700h-92v700zM22 788l-84 146h93l53 -146h-62zM158 788l-80 146h94l48 -146h-62z" />
    <glyph glyph-name="uni0209" unicode="&#x209;" horiz-adv-x="206" 
d="M58 490h90v-490h-90v490zM7 578l-91 166h98l59 -166h-66zM147 578l-86 166h91l55 -166h-60z" />
    <glyph glyph-name="uni020A" unicode="&#x20a;" horiz-adv-x="240" 
d="M74 700h92v-700h-92v700zM221 859.5q35 -33.5 35 -80.5h-80q0 26 -15.5 39t-40.5 13t-40.5 -13t-15.5 -39h-80q0 47 35 80.5t101 33.5t101 -33.5z" />
    <glyph glyph-name="uni020B" unicode="&#x20b;" horiz-adv-x="206" 
d="M58 490h90v-490h-90v490zM204 658.5q35 -33.5 35 -82.5h-78q0 24 -14.5 37.5t-43.5 13.5t-43.5 -13.5t-14.5 -37.5h-78q0 49 35 82.5t101 33.5t101 -33.5z" />
    <glyph glyph-name="uni020C" unicode="&#x20c;" horiz-adv-x="653" 
d="M173.5 31q-67.5 45 -105.5 127.5t-38 191.5t38 191.5t105.5 127.5t153.5 45t153 -45t105 -127.5t38 -191.5t-38 -191.5t-105 -127.5t-153 -45t-153.5 45zM474.5 153.5q51.5 76.5 51.5 196.5t-51.5 196.5t-147.5 76.5t-148 -76.5t-52 -196.5t52 -196.5t148 -76.5
t147.5 76.5zM229 788l-84 146h93l53 -146h-62zM365 788l-80 146h94l48 -146h-62z" />
    <glyph glyph-name="uni020D" unicode="&#x20d;" horiz-adv-x="472" 
d="M123 23.5q-48 33.5 -73.5 91.5t-25.5 130t25.5 130t73.5 91.5t114 33.5q65 0 113 -33.5t73 -91.5t25 -130t-25 -130t-73 -91.5t-113 -33.5q-66 0 -114 33.5zM327 114q32 47 32 131t-32 130.5t-90 46.5q-60 0 -92 -46.5t-32 -130.5q0 -85 32 -131.5t92 -46.5q58 0 90 47z
M141 578l-91 166h98l59 -166h-66zM281 578l-86 166h91l55 -166h-60z" />
    <glyph glyph-name="uni020E" unicode="&#x20e;" horiz-adv-x="653" 
d="M173.5 31q-67.5 45 -105.5 127.5t-38 191.5t38 191.5t105.5 127.5t153.5 45t153 -45t105 -127.5t38 -191.5t-38 -191.5t-105 -127.5t-153 -45t-153.5 45zM474.5 153.5q51.5 76.5 51.5 196.5t-51.5 196.5t-147.5 76.5t-148 -76.5t-52 -196.5t52 -196.5t148 -76.5
t147.5 76.5zM428 859.5q35 -33.5 35 -80.5h-80q0 26 -15.5 39t-40.5 13t-40.5 -13t-15.5 -39h-80q0 47 35 80.5t101 33.5t101 -33.5z" />
    <glyph glyph-name="uni020F" unicode="&#x20f;" horiz-adv-x="472" 
d="M123 23.5q-48 33.5 -73.5 91.5t-25.5 130t25.5 130t73.5 91.5t114 33.5q65 0 113 -33.5t73 -91.5t25 -130t-25 -130t-73 -91.5t-113 -33.5q-66 0 -114 33.5zM327 114q32 47 32 131t-32 130.5t-90 46.5q-60 0 -92 -46.5t-32 -130.5q0 -85 32 -131.5t92 -46.5q58 0 90 47z
M338 658.5q35 -33.5 35 -82.5h-78q0 24 -14.5 37.5t-43.5 13.5t-43.5 -13.5t-14.5 -37.5h-78q0 49 35 82.5t101 33.5t101 -33.5z" />
    <glyph glyph-name="uni0210" unicode="&#x210;" horiz-adv-x="541" 
d="M73 700h180q110 0 171.5 -54.5t61.5 -159.5q0 -60 -28.5 -108.5t-79.5 -76.5l140 -301h-108l-125 274q-16 -2 -33 -2h-88v-272h-91v700zM245 356q76 0 111 33t35 97q0 65 -35 98t-111 33h-81v-261h81zM173 788l-84 146h93l53 -146h-62zM309 788l-80 146h94l48 -146h-62z
" />
    <glyph glyph-name="uni0211" unicode="&#x211;" horiz-adv-x="295" 
d="M57 490h71l11 -82q33 48 62.5 70t62.5 22q13 0 23 -3l-9 -99q-13 3 -30 3q-33 0 -62 -16.5t-42 -38.5v-346h-87v490zM85 578l-91 166h98l59 -166h-66zM225 578l-86 166h91l55 -166h-60z" />
    <glyph glyph-name="uni0212" unicode="&#x212;" horiz-adv-x="541" 
d="M73 700h180q110 0 171.5 -54.5t61.5 -159.5q0 -60 -28.5 -108.5t-79.5 -76.5l140 -301h-108l-125 274q-16 -2 -33 -2h-88v-272h-91v700zM245 356q76 0 111 33t35 97q0 65 -35 98t-111 33h-81v-261h81zM372 859.5q35 -33.5 35 -80.5h-80q0 26 -15.5 39t-40.5 13t-40.5 -13
t-15.5 -39h-80q0 47 35 80.5t101 33.5t101 -33.5z" />
    <glyph glyph-name="uni0213" unicode="&#x213;" horiz-adv-x="295" 
d="M57 490h71l11 -82q33 48 62.5 70t62.5 22q13 0 23 -3l-9 -99q-13 3 -30 3q-33 0 -62 -16.5t-42 -38.5v-346h-87v490zM282 658.5q35 -33.5 35 -82.5h-78q0 24 -14.5 37.5t-43.5 13.5t-43.5 -13.5t-14.5 -37.5h-78q0 49 35 82.5t101 33.5t101 -33.5z" />
    <glyph glyph-name="uni0214" unicode="&#x214;" horiz-adv-x="617" 
d="M120 62q-61 76 -61 215v423h91v-397q0 -73 11.5 -123t46.5 -80.5t100 -30.5q66 0 101 30.5t46.5 80.5t11.5 123v397h91v-423q0 -140 -61 -215.5t-189 -75.5q-127 0 -188 76zM213 788l-91 166h98l59 -166h-66zM353 788l-86 166h91l55 -166h-60z" />
    <glyph glyph-name="uni0215" unicode="&#x215;" horiz-adv-x="475" 
d="M407 490v-490h-74l-6 60q-20 -33 -54 -51.5t-75 -18.5q-77 0 -114.5 51.5t-37.5 147.5v301h87v-290q0 -66 19.5 -98.5t65.5 -32.5q32 0 58 18t44 50v353h87zM128 578l-91 166h98l59 -166h-66zM268 578l-86 166h91l55 -166h-60z" />
    <glyph glyph-name="uni0216" unicode="&#x216;" horiz-adv-x="617" 
d="M120 62q-61 76 -61 215v423h91v-397q0 -73 11.5 -123t46.5 -80.5t100 -30.5q66 0 101 30.5t46.5 80.5t11.5 123v397h91v-423q0 -140 -61 -215.5t-189 -75.5q-127 0 -188 76zM410 859.5q35 -33.5 35 -80.5h-80q0 26 -15.5 39t-40.5 13t-40.5 -13t-15.5 -39h-80
q0 47 35 80.5t101 33.5t101 -33.5z" />
    <glyph glyph-name="uni0217" unicode="&#x217;" horiz-adv-x="475" 
d="M407 490v-490h-74l-6 60q-20 -33 -54 -51.5t-75 -18.5q-77 0 -114.5 51.5t-37.5 147.5v301h87v-290q0 -66 19.5 -98.5t65.5 -32.5q32 0 58 18t44 50v353h87zM325 658.5q35 -33.5 35 -82.5h-78q0 24 -14.5 37.5t-43.5 13.5t-43.5 -13.5t-14.5 -37.5h-78q0 49 35 82.5
t101 33.5t101 -33.5z" />
    <glyph glyph-name="Scommaaccent" unicode="&#x218;" horiz-adv-x="499" 
d="M129.5 -2.5q-53.5 11.5 -87.5 27.5l13 100q40 -25 89 -40.5t97 -15.5q62 0 97 25.5t35 74.5q0 35 -16.5 60t-47.5 44.5t-87 44.5q-66 30 -104.5 55t-61.5 62t-23 92q0 56 29 98.5t81.5 65.5t119.5 23q51 0 96.5 -11t77.5 -27l-10 -94q-83 49 -169 49q-58 0 -91 -24
t-33 -74q0 -34 17.5 -56.5t48.5 -40t94 -46.5q94 -42 137 -90.5t43 -121.5q0 -89 -65 -140.5t-177 -51.5q-49 0 -102.5 11.5zM195 -284l36 107h-33v86h92v-76l-52 -117h-43z" />
    <glyph glyph-name="scommaaccent" unicode="&#x219;" horiz-adv-x="360" 
d="M33 30l11 88q64 -50 132 -50q36 0 56.5 15t20.5 44q0 22 -9.5 36t-31.5 27t-68 34q-54 25 -79 57t-25 83q0 60 42 98t113 38q72 0 126 -32l-11 -81q-27 18 -51 26.5t-57 8.5q-35 0 -55 -15t-20 -42t17.5 -41t68.5 -37q71 -32 100 -64.5t29 -85.5q0 -69 -43 -108t-117 -39
q-86 0 -149 40zM132 -284l36 107h-33v86h92v-76l-52 -117h-43z" />
    <glyph glyph-name="uni021A" unicode="&#x21a;" horiz-adv-x="476" 
d="M192 617h-174v83h440v-83h-174v-617h-92v617zM189 -284l36 107h-33v86h92v-76l-52 -117h-43z" />
    <glyph glyph-name="uni021B" unicode="&#x21b;" horiz-adv-x="298" 
d="M112.5 24q-27.5 34 -27.5 83v314h-68l8 69h60v121l87 9v-130h106v-69h-106v-279q0 -45 16.5 -63t57.5 -18h31l-8 -71h-72q-57 0 -84.5 34zM137 -284l36 107h-33v86h92v-76l-52 -117h-43z" />
    <glyph glyph-name="uni022A" unicode="&#x22a;" horiz-adv-x="653" 
d="M173.5 31q-67.5 45 -105.5 127.5t-38 191.5t38 191.5t105.5 127.5t153.5 45t153 -45t105 -127.5t38 -191.5t-38 -191.5t-105 -127.5t-153 -45t-153.5 45zM474.5 153.5q51.5 76.5 51.5 196.5t-51.5 196.5t-147.5 76.5t-148 -76.5t-52 -196.5t52 -196.5t148 -76.5
t147.5 76.5zM208 869h84v-75h-84v75zM362 869h84v-75h-84v75zM177 1020h300v-66h-300v66z" />
    <glyph glyph-name="uni022B" unicode="&#x22b;" horiz-adv-x="472" 
d="M123 23.5q-48 33.5 -73.5 91.5t-25.5 130t25.5 130t73.5 91.5t114 33.5q65 0 113 -33.5t73 -91.5t25 -130t-25 -130t-73 -91.5t-113 -33.5q-66 0 -114 33.5zM327 114q32 47 32 131t-32 130.5t-90 46.5q-60 0 -92 -46.5t-32 -130.5q0 -85 32 -131.5t92 -46.5q58 0 90 47z
M118 659h84v-75h-84v75zM272 659h84v-75h-84v75zM87 810h300v-66h-300v66z" />
    <glyph glyph-name="uni022C" unicode="&#x22c;" horiz-adv-x="653" 
d="M173.5 31q-67.5 45 -105.5 127.5t-38 191.5t38 191.5t105.5 127.5t153.5 45t153 -45t105 -127.5t38 -191.5t-38 -191.5t-105 -127.5t-153 -45t-153.5 45zM474.5 153.5q51.5 76.5 51.5 196.5t-51.5 196.5t-147.5 76.5t-148 -76.5t-52 -196.5t52 -196.5t148 -76.5
t147.5 76.5zM366 793.5q-16 5.5 -37 15.5q-3 1 -20.5 8.5t-30.5 7.5q-14 0 -22 -8.5t-8 -23.5h-65q0 48 19 74t54 26q16 0 32 -5.5t37 -15.5q3 -1 20.5 -8.5t30.5 -7.5q14 0 22 8.5t8 23.5h65q0 -48 -19 -74t-54 -26q-16 0 -32 5.5zM177 1036h300v-66h-300v66z" />
    <glyph glyph-name="uni022D" unicode="&#x22d;" horiz-adv-x="472" 
d="M123 23.5q-48 33.5 -73.5 91.5t-25.5 130t25.5 130t73.5 91.5t114 33.5q65 0 113 -33.5t73 -91.5t25 -130t-25 -130t-73 -91.5t-113 -33.5q-66 0 -114 33.5zM327 114q32 47 32 131t-32 130.5t-90 46.5q-60 0 -92 -46.5t-32 -130.5q0 -85 32 -131.5t92 -46.5q58 0 90 47z
M276 583.5q-16 5.5 -37 15.5q-3 1 -20.5 8.5t-30.5 7.5q-14 0 -22 -8.5t-8 -23.5h-65q0 48 19 74t54 26q16 0 32 -5.5t37 -15.5q3 -1 20.5 -8.5t30.5 -7.5q14 0 22 8.5t8 23.5h65q0 -48 -19 -74t-54 -26q-16 0 -32 5.5zM87 826h300v-66h-300v66z" />
    <glyph glyph-name="uni0230" unicode="&#x230;" horiz-adv-x="653" 
d="M173.5 31q-67.5 45 -105.5 127.5t-38 191.5t38 191.5t105.5 127.5t153.5 45t153 -45t105 -127.5t38 -191.5t-38 -191.5t-105 -127.5t-153 -45t-153.5 45zM474.5 153.5q51.5 76.5 51.5 196.5t-51.5 196.5t-147.5 76.5t-148 -76.5t-52 -196.5t52 -196.5t148 -76.5
t147.5 76.5zM281 880h92v-89h-92v89zM177 1025h300v-66h-300v66z" />
    <glyph glyph-name="uni0231" unicode="&#x231;" horiz-adv-x="472" 
d="M123 23.5q-48 33.5 -73.5 91.5t-25.5 130t25.5 130t73.5 91.5t114 33.5q65 0 113 -33.5t73 -91.5t25 -130t-25 -130t-73 -91.5t-113 -33.5q-66 0 -114 33.5zM327 114q32 47 32 131t-32 130.5t-90 46.5q-60 0 -92 -46.5t-32 -130.5q0 -85 32 -131.5t92 -46.5q58 0 90 47z
M191 670h92v-89h-92v89zM87 815h300v-66h-300v66z" />
    <glyph glyph-name="uni0232" unicode="&#x232;" horiz-adv-x="517" 
d="M504 700l-206 -397v-303h-91v303l-208 397h101l152 -301l151 301h101zM102 859h300v-66h-300v66z" />
    <glyph glyph-name="uni0233" unicode="&#x233;" horiz-adv-x="445" 
d="M183 22l-179 468h93l131 -365l120 365h93l-263 -732h-93zM82 660h280v-68h-280v68z" />
    <glyph glyph-name="uni0237" unicode="&#x237;" horiz-adv-x="205" 
d="M0 -174q27 3 39 11.5t16 28t4 61.5v563h87v-597q0 -65 -29 -93.5t-77 -36.5l-31 -5z" />
    <glyph glyph-name="uni0259" unicode="&#x259;" horiz-adv-x="439" 
d="M306.5 465.5q52.5 -34.5 79 -93.5t26.5 -131q0 -69 -24.5 -126.5t-71 -91t-110.5 -33.5q-82 0 -133.5 55t-51.5 152q0 17 4 47h298q-3 87 -43.5 132t-105.5 45q-31 0 -65.5 -7.5t-60.5 -21.5l-8 78q55 30 140 30q74 0 126.5 -34.5zM110 183q0 -50 24.5 -81.5t70.5 -31.5
q45 0 74.5 28t39.5 85h-209z" />
    <glyph glyph-name="uni02BB" unicode="&#x2bb;" horiz-adv-x="315" 
d="M205 769l-36 -107h33v-86h-92v76l52 117h43z" />
    <glyph glyph-name="uni02BC" unicode="&#x2bc;" horiz-adv-x="214" 
d="M59 507l36 107h-33v86h92v-76l-52 -117h-43z" />
    <glyph glyph-name="uni02BE" unicode="&#x2be;" horiz-adv-x="186" 
d="M46 611q21 0 34.5 15.5t13.5 41.5q0 25 -13.5 41t-34.5 16v43q46 0 70 -29t24 -71t-24 -71t-70 -29v43z" />
    <glyph glyph-name="uni02BF" unicode="&#x2bf;" horiz-adv-x="186" 
d="M70.5 597q-24.5 29 -24.5 71q0 41 24.5 70.5t69.5 29.5v-43q-21 0 -34 -16t-13 -41q0 -26 13 -41.5t34 -15.5v-43q-45 0 -69.5 29z" />
    <glyph glyph-name="circumflex" unicode="&#x2c6;" horiz-adv-x="474" 
d="M130 624l107 91l107 -91v-60l-107 67l-107 -67v60z" />
    <glyph glyph-name="caron" unicode="&#x2c7;" horiz-adv-x="474" 
d="M130 651v60l107 -68l107 68v-60l-107 -93z" />
    <glyph glyph-name="uni02C8" unicode="&#x2c8;" horiz-adv-x="162" 
d="M116 768v-200h-70v200h70z" />
    <glyph glyph-name="uni02C9" unicode="&#x2c9;" horiz-adv-x="480" 
d="M100 660h280v-68h-280v68z" />
    <glyph glyph-name="uni02CA" unicode="&#x2ca;" horiz-adv-x="239" 
d="M46 645l147 94v-98l-147 -57v61z" />
    <glyph glyph-name="uni02CB" unicode="&#x2cb;" horiz-adv-x="239" 
d="M46 641v99l147 -93v-63z" />
    <glyph glyph-name="uni02CC" unicode="&#x2cc;" horiz-adv-x="170" 
d="M120 119v-200h-70v200h70z" />
    <glyph glyph-name="breve" unicode="&#x2d8;" horiz-adv-x="472" 
d="M135 611q-35 35 -35 86h78q0 -26 14.5 -41t43.5 -15t43.5 15t14.5 41h78q0 -51 -35 -86t-101 -35t-101 35z" />
    <glyph glyph-name="dotaccent" unicode="&#x2d9;" horiz-adv-x="368" 
d="M140 680h88v-89h-88v89z" />
    <glyph glyph-name="ring" unicode="&#x2da;" horiz-adv-x="388" 
d="M124.5 597q-24.5 29 -24.5 71q0 41 24.5 70.5t69.5 29.5q46 0 70 -29t24 -71t-24 -71t-70 -29q-45 0 -69.5 29zM228 626.5q13 15.5 13 41.5q0 25 -13 41t-34 16t-34 -16t-13 -41q0 -26 13 -41.5t34 -15.5t34 15.5z" />
    <glyph glyph-name="ogonek" unicode="&#x2db;" horiz-adv-x="364" 
d="M226 0q-34 -34 -51 -60t-17 -53q0 -21 13 -32.5t35 -11.5t43 9l15 -47q-28 -13 -66 -13q-42 0 -70 22t-28 61q0 35 19.5 64.5t53.5 60.5h53z" />
    <glyph glyph-name="tilde" unicode="&#x2dc;" horiz-adv-x="492" 
d="M281 587q-15 7 -36 20q-27 20 -46 20q-13 0 -20 -10.5t-7 -28.5h-72q5 111 76 111q20 0 35 -7t36 -20q27 -20 46 -20q13 0 20 10.5t7 28.5h72q-5 -111 -76 -111q-20 0 -35 7z" />
    <glyph glyph-name="hungarumlaut" unicode="&#x2dd;" horiz-adv-x="493" 
d="M161 744h95l-93 -166h-63zM299 744h94l-98 -166h-62z" />
    <glyph glyph-name="gravecomb" unicode="&#x300;" 
d="M-74 641v99l147 -93v-63z" />
    <glyph glyph-name="acutecomb" unicode="&#x301;" 
d="M-73 645l147 94v-98l-147 -57v61z" />
    <glyph glyph-name="uni0302" unicode="&#x302;" 
d="M-107 624l107 91l107 -91v-60l-107 67l-107 -67v60z" />
    <glyph glyph-name="tildecomb" unicode="&#x303;" 
d="M35 587q-15 7 -36 20q-27 20 -46 20q-13 0 -20 -10.5t-7 -28.5h-72q5 111 76 111q20 0 35 -7t36 -20q27 -20 46 -20q13 0 20 10.5t7 28.5h72q-5 -111 -76 -111q-20 0 -35 7z" />
    <glyph glyph-name="uni0304" unicode="&#x304;" 
d="M-140 660h280v-68h-280v68z" />
    <glyph glyph-name="uni0306" unicode="&#x306;" 
d="M-101 611q-35 35 -35 86h78q0 -26 14.5 -41t43.5 -15t43.5 15t14.5 41h78q0 -51 -35 -86t-101 -35t-101 35z" />
    <glyph glyph-name="uni0307" unicode="&#x307;" 
d="M-44 680h88v-89h-88v89z" />
    <glyph glyph-name="uni0308" unicode="&#x308;" 
d="M-119 671h82v-80h-82v80zM37 671h82v-80h-82v80z" />
    <glyph glyph-name="hookabovecomb" unicode="&#x309;" 
d="M-19 558q21 23 28.5 36.5t7.5 29.5t-9 24.5t-24 8.5q-22 0 -53 -17l-17 48q32 17 75 17q37 0 60.5 -21t23.5 -57q0 -30 -13.5 -52t-44.5 -50z" />
    <glyph glyph-name="uni030A" unicode="&#x30a;" 
d="M-69.5 597q-24.5 29 -24.5 71q0 41 24.5 70.5t69.5 29.5q46 0 70 -29t24 -71t-24 -71t-70 -29q-45 0 -69.5 29zM34 626.5q13 15.5 13 41.5q0 25 -13 41t-34 16t-34 -16t-13 -41q0 -26 13 -41.5t34 -15.5t34 15.5z" />
    <glyph glyph-name="uni030B" unicode="&#x30b;" 
d="M-43 744h95l-93 -166h-63zM95 744h94l-98 -166h-62z" />
    <glyph glyph-name="uni030C" unicode="&#x30c;" 
d="M-107 651v60l107 -68l107 68v-60l-107 -93z" />
    <glyph glyph-name="uni030F" unicode="&#x30f;" 
d="M-97 578l-91 166h98l59 -166h-66zM43 578l-86 166h91l55 -166h-60z" />
    <glyph glyph-name="uni0311" unicode="&#x311;" 
d="M101 658.5q35 -33.5 35 -82.5h-78q0 24 -14.5 37.5t-43.5 13.5t-43.5 -13.5t-14.5 -37.5h-78q0 49 35 82.5t101 33.5t101 -33.5z" />
    <glyph glyph-name="uni0312" unicode="&#x312;" 
d="M50 769l-36 -107h33v-86h-92v76l52 117h43z" />
    <glyph glyph-name="uni031B" unicode="&#x31b;" 
d="M0 490q70 0 70 74h81q0 -62 -42.5 -100t-108.5 -38v64z" />
    <glyph glyph-name="dotbelowcomb" unicode="&#x323;" 
d="M-44 -81h88v-89h-88v89z" />
    <glyph glyph-name="uni0324" unicode="&#x324;" 
d="M-119 -91h82v-80h-82v80zM37 -91h82v-80h-82v80z" />
    <glyph glyph-name="uni0326" unicode="&#x326;" 
d="M-49 -284l36 107h-33v86h92v-76l-52 -117h-43z" />
    <glyph glyph-name="uni0327" unicode="&#x327;" 
d="M74.5 -76q21.5 -22 21.5 -59q0 -43 -28.5 -67t-72.5 -24q-38 0 -66 13l15 47q25 -11 51 -11q22 0 34.5 10.5t12.5 31.5q0 19 -11 29.5t-32 10.5q-16 0 -37 -6l24 101h46l-17 -54q38 0 59.5 -22z" />
    <glyph glyph-name="uni0328" unicode="&#x328;" 
d="M28 0q-34 -34 -51 -60t-17 -53q0 -21 13 -32.5t35 -11.5t43 9l15 -47q-28 -13 -66 -13q-42 0 -70 22t-28 61q0 35 19.5 64.5t53.5 60.5h53z" />
    <glyph glyph-name="uni032E" unicode="&#x32e;" 
d="M-101 -182q-35 35 -35 86h78q0 -26 14.5 -41t43.5 -15t43.5 15t14.5 41h78q0 -51 -35 -86t-101 -35t-101 35z" />
    <glyph glyph-name="uni0331" unicode="&#x331;" 
d="M-140 -93h280v-68h-280v68z" />
    <glyph glyph-name="uni0335" unicode="&#x335;" 
d="M-148 289h296v-62h-296v62z" />
    <glyph glyph-name="pi" unicode="&#x3c0;" horiz-adv-x="483" 
d="M459 71v-69q-24 -12 -62 -12q-91 0 -91 115v316h-135v-421h-87v421h-68v69h447v-69h-70v-301q0 -53 42 -53q12 0 24 4z" />
    <glyph glyph-name="uni1E08" unicode="&#x1e08;" horiz-adv-x="524" 
d="M409 810l-147 -46v58l147 81v-93zM360 -14l-13 -40q38 0 59.5 -22t21.5 -59q0 -43 -28.5 -67t-72.5 -24q-38 0 -66 13l15 47q25 -11 51 -11q22 0 34.5 10.5t12.5 31.5q0 19 -11 29.5t-32 10.5q-16 0 -37 -6l21 89q-87 8 -151.5 54.5t-99 125.5t-34.5 182
q0 109 40.5 191.5t112.5 127.5t163 45q80 0 152 -30l-10 -85q-64 32 -124 32q-74 0 -126.5 -37t-79.5 -101t-27 -143t27 -143t79.5 -101t127.5 -37q65 0 123 30l10 -85q-62 -27 -138 -28z" />
    <glyph glyph-name="uni1E09" unicode="&#x1e09;" horiz-adv-x="385" 
d="M307 641l-147 -57v61l147 94v-98zM315.5 -2.5q-27.5 -6.5 -55.5 -7.5l-14 -44q38 0 59.5 -22t21.5 -59q0 -43 -28.5 -67t-72.5 -24q-38 0 -66 13l15 47q25 -11 51 -11q22 0 34.5 10.5t12.5 31.5q0 19 -11 29.5t-32 10.5q-16 0 -37 -6l22 93q-94 12 -142.5 80.5
t-48.5 169.5q0 115 58 186.5t172 71.5q61 0 109 -25l-14 -77q-45 24 -94 24q-67 0 -104.5 -46.5t-37.5 -129.5t38.5 -131t106.5 -48q52 0 92 24l12 -78q-19 -9 -46.5 -15.5z" />
    <glyph glyph-name="uni1E0C" unicode="&#x1e0c;" horiz-adv-x="619" 
d="M66 700h224q87 0 154.5 -42t105.5 -121t38 -187t-38 -187t-105.5 -121t-154.5 -42h-224v700zM273 83q105 0 159.5 70t54.5 197t-54.5 197t-159.5 70h-116v-534h116zM266 -81h88v-89h-88v89z" />
    <glyph glyph-name="uni1E0D" unicode="&#x1e0d;" horiz-adv-x="492" 
d="M437 750v-750h-77l-7 45q-23 -27 -55 -41t-70 -14q-57 0 -102 33.5t-71 91.5t-26 129q0 69 24.5 127.5t70 93.5t104.5 35q73 0 122 -51v301h87zM325 110.5q33 43.5 33 133.5q0 87 -33 132.5t-88 45.5q-34 0 -61 -23t-42.5 -63.5t-15.5 -91.5q0 -48 15.5 -88.5t43 -64.5
t60.5 -24q55 0 88 43.5zM202 -81h88v-89h-88v89z" />
    <glyph glyph-name="uni1E0E" unicode="&#x1e0e;" horiz-adv-x="619" 
d="M66 700h224q87 0 154.5 -42t105.5 -121t38 -187t-38 -187t-105.5 -121t-154.5 -42h-224v700zM273 83q105 0 159.5 70t54.5 197t-54.5 197t-159.5 70h-116v-534h116zM170 -93h280v-68h-280v68z" />
    <glyph glyph-name="uni1E0F" unicode="&#x1e0f;" horiz-adv-x="492" 
d="M437 750v-750h-77l-7 45q-23 -27 -55 -41t-70 -14q-57 0 -102 33.5t-71 91.5t-26 129q0 69 24.5 127.5t70 93.5t104.5 35q73 0 122 -51v301h87zM325 110.5q33 43.5 33 133.5q0 87 -33 132.5t-88 45.5q-34 0 -61 -23t-42.5 -63.5t-15.5 -91.5q0 -48 15.5 -88.5t43 -64.5
t60.5 -24q55 0 88 43.5zM106 -93h280v-68h-280v68z" />
    <glyph glyph-name="uni1E14" unicode="&#x1e14;" horiz-adv-x="477" 
d="M66 700h374v-83h-283v-209h224v-84h-224v-241h291v-83h-382v700zM104 859h300v-66h-300v66zM180 961v95l147 -81v-58z" />
    <glyph glyph-name="uni1E15" unicode="&#x1e15;" horiz-adv-x="439" 
d="M132.5 24.5q-52.5 34.5 -79 93.5t-26.5 131q0 69 24.5 126.5t71 91t110.5 33.5q82 0 133.5 -55t51.5 -152q0 -17 -4 -47h-298q3 -87 43.5 -132t105.5 -45q31 0 65.5 7.5t60.5 21.5l8 -78q-55 -30 -140 -30q-74 0 -126.5 34.5zM329 307q0 50 -24.5 81.5t-70.5 31.5
q-45 0 -74.5 -28t-39.5 -85h209zM84 649h300v-66h-300v66zM160 751v95l147 -81v-58z" />
    <glyph glyph-name="uni1E16" unicode="&#x1e16;" horiz-adv-x="477" 
d="M66 700h374v-83h-283v-209h224v-84h-224v-241h291v-83h-382v700zM104 859h300v-66h-300v66zM181 975l147 81v-93l-147 -46v58z" />
    <glyph glyph-name="uni1E17" unicode="&#x1e17;" horiz-adv-x="439" 
d="M132.5 24.5q-52.5 34.5 -79 93.5t-26.5 131q0 69 24.5 126.5t71 91t110.5 33.5q82 0 133.5 -55t51.5 -152q0 -17 -4 -47h-298q3 -87 43.5 -132t105.5 -45q31 0 65.5 7.5t60.5 21.5l8 -78q-55 -30 -140 -30q-74 0 -126.5 34.5zM329 307q0 50 -24.5 81.5t-70.5 31.5
q-45 0 -74.5 -28t-39.5 -85h209zM84 649h300v-66h-300v66zM161 765l147 81v-93l-147 -46v58z" />
    <glyph glyph-name="uni1E1C" unicode="&#x1e1c;" horiz-adv-x="477" 
d="M66 700h374v-83h-283v-209h224v-84h-224v-241h291v-83h-382v700zM332.5 -76q21.5 -22 21.5 -59q0 -43 -28.5 -67t-72.5 -24q-38 0 -66 13l15 47q25 -11 51 -11q22 0 34.5 10.5t12.5 31.5q0 19 -11 29.5t-32 10.5q-16 0 -37 -6l24 101h46l-17 -54q38 0 59.5 -22z
M153 797.5q-35 33.5 -35 80.5h80q0 -26 15.5 -39.5t40.5 -13.5t40.5 13.5t15.5 39.5h80q0 -47 -35 -80.5t-101 -33.5t-101 33.5z" />
    <glyph glyph-name="uni1E1D" unicode="&#x1e1d;" horiz-adv-x="439" 
d="M133 611q-35 35 -35 86h78q0 -26 14.5 -41t43.5 -15t43.5 15t14.5 41h78q0 -51 -35 -86t-101 -35t-101 35zM414 246h-298q3 -87 43.5 -132t105.5 -45q31 0 65.5 7.5t60.5 21.5l8 -78q-46 -25 -120 -30l-14 -44q38 0 59.5 -22t21.5 -59q0 -43 -28.5 -67t-72.5 -24
q-38 0 -66 13l15 47q25 -11 51 -11q22 0 34.5 10.5t12.5 31.5q0 19 -11 29.5t-32 10.5q-16 0 -37 -6l22 92q-66 6 -113 41.5t-70.5 92t-23.5 124.5q0 69 24.5 126.5t71 91t110.5 33.5q82 0 133.5 -55t51.5 -152q0 -17 -4 -47zM329 307q0 50 -24.5 81.5t-70.5 31.5
q-45 0 -74.5 -28t-39.5 -85h209z" />
    <glyph glyph-name="uni1E20" unicode="&#x1e20;" horiz-adv-x="571" 
d="M183 32.5q-74 46.5 -113.5 129t-39.5 188.5q0 109 42 191.5t115.5 127.5t167.5 45q86 0 156 -30l-10 -85q-33 16 -65.5 24t-71.5 8q-74 0 -126.5 -37t-79.5 -101t-27 -143q0 -126 59 -203.5t173 -77.5q44 0 77 14v185h-89v83h180v-319q-33 -21 -79 -33.5t-94 -12.5
q-101 0 -175 46.5zM200 859h300v-66h-300v66z" />
    <glyph glyph-name="uni1E21" unicode="&#x1e21;" horiz-adv-x="424" 
d="M75.5 -214.5q-54.5 35.5 -54.5 97.5q0 71 78 124q-46 22 -46 67q0 23 14 40.5t40 27.5q-37 26 -57 70t-20 97q0 54 21 97.5t60.5 68.5t92.5 25q64 0 108 -36q39 36 83 36q13 0 25 -2l-9 -70q-10 2 -20 2q-21 0 -42 -9q29 -47 29 -112q0 -54 -21 -98.5t-60.5 -71
t-92.5 -26.5q-28 0 -50 7q-19 -8 -19 -23q0 -13 13 -20.5t46 -17.5l69 -21q62 -19 97.5 -37.5t52.5 -44t17 -63.5q0 -68 -59 -105.5t-154 -37.5q-87 0 -141.5 35.5zM271 216.5q24 34.5 24 91.5q0 54 -24 88t-67 34t-67 -33.5t-24 -88.5q0 -57 24 -91.5t67 -34.5t67 34.5z
M309.5 -162q32.5 17 32.5 50q0 27 -20 42.5t-73 31.5l-80 24q-68 -43 -68 -90q0 -37 32.5 -56t89.5 -19q54 0 86.5 17zM108 660h280v-68h-280v68z" />
    <glyph glyph-name="uni1E24" unicode="&#x1e24;" horiz-adv-x="636" 
d="M66 700h91v-289h322v289h91v-700h-91v322h-322v-322h-91v700zM274 -81h88v-89h-88v89z" />
    <glyph glyph-name="uni1E25" unicode="&#x1e25;" horiz-adv-x="475" 
d="M388.5 440.5q40.5 -59.5 40.5 -160.5v-280h-87v269q0 78 -22 114.5t-68 36.5q-34 0 -61.5 -18.5t-46.5 -51.5v-350h-87v750h87v-312q21 29 55 45.5t73 16.5q76 0 116.5 -59.5zM199 -81h88v-89h-88v89z" />
    <glyph glyph-name="uni1E2A" unicode="&#x1e2a;" horiz-adv-x="636" 
d="M66 700h91v-289h322v289h91v-700h-91v322h-322v-322h-91v700zM217 -182q-35 35 -35 86h78q0 -26 14.5 -41t43.5 -15t43.5 15t14.5 41h78q0 -51 -35 -86t-101 -35t-101 35z" />
    <glyph glyph-name="uni1E2B" unicode="&#x1e2b;" horiz-adv-x="475" 
d="M388.5 440.5q40.5 -59.5 40.5 -160.5v-280h-87v269q0 78 -22 114.5t-68 36.5q-34 0 -61.5 -18.5t-46.5 -51.5v-350h-87v750h87v-312q21 29 55 45.5t73 16.5q76 0 116.5 -59.5zM142 -182q-35 35 -35 86h78q0 -26 14.5 -41t43.5 -15t43.5 15t14.5 41h78q0 -51 -35 -86
t-101 -35t-101 35z" />
    <glyph glyph-name="uni1E2E" unicode="&#x1e2e;" horiz-adv-x="240" 
d="M74 700h92v-700h-92v700zM1 869h84v-75h-84v75zM155 869h84v-75h-84v75zM47 982l147 81v-93l-147 -46v58z" />
    <glyph glyph-name="uni1E2F" unicode="&#x1e2f;" horiz-adv-x="206" 
d="M58 490h90v-490h-90v490zM-16 659h84v-75h-84v75zM138 659h84v-75h-84v75zM30 772l147 81v-93l-147 -46v58z" />
    <glyph glyph-name="uni1E36" unicode="&#x1e36;" horiz-adv-x="430" 
d="M66 700h91v-617h267v-83h-358v700zM201 -81h88v-89h-88v89z" />
    <glyph glyph-name="uni1E37" unicode="&#x1e37;" horiz-adv-x="228" 
d="M82 24q-27 34 -27 84v642h87v-590q0 -44 4.5 -64.5t17.5 -27.5t42 -7l-11 -71h-30q-56 0 -83 34zM99 -81h88v-89h-88v89z" />
    <glyph glyph-name="uni1E3A" unicode="&#x1e3a;" horiz-adv-x="430" 
d="M66 700h91v-617h267v-83h-358v700zM105 -93h280v-68h-280v68z" />
    <glyph glyph-name="uni1E3B" unicode="&#x1e3b;" horiz-adv-x="228" 
d="M82 24q-27 34 -27 84v642h87v-590q0 -44 4.5 -64.5t17.5 -27.5t42 -7l-11 -71h-30q-56 0 -83 34zM3 -93h280v-68h-280v68z" />
    <glyph glyph-name="uni1E42" unicode="&#x1e42;" horiz-adv-x="709" 
d="M575 0l-46 506l-169 -361l-169 361l-47 -506h-97l76 700h77l160 -361l160 361h77l76 -700h-98zM316 -81h88v-89h-88v89z" />
    <glyph glyph-name="uni1E43" unicode="&#x1e43;" horiz-adv-x="745" 
d="M702 280v-280h-87v269q0 80 -21.5 115.5t-72.5 35.5q-49 0 -75 -36t-26 -104v-280h-87v269q0 77 -21.5 114t-66.5 37q-33 0 -61 -18t-47 -50v-352h-87v490h72l7 -62q21 33 57 52.5t79 19.5q45 0 77.5 -21.5t51.5 -61.5q19 39 56.5 61t89.5 22q162 0 162 -220zM332 -81h88
v-89h-88v89z" />
    <glyph glyph-name="uni1E44" unicode="&#x1e44;" horiz-adv-x="603" 
d="M66 700h103l277 -512v512h91v-700h-85l-295 541v-541h-91v700zM262 880h92v-89h-92v89z" />
    <glyph glyph-name="uni1E45" unicode="&#x1e45;" horiz-adv-x="467" 
d="M381.5 440.5q40.5 -59.5 40.5 -160.5v-280h-87v269q0 78 -22.5 115.5t-67.5 37.5q-33 0 -61 -18.5t-47 -51.5v-352h-87v490h74l6 -61q21 33 56.5 52t78.5 19q76 0 116.5 -59.5zM193 680h88v-89h-88v89z" />
    <glyph glyph-name="uni1E46" unicode="&#x1e46;" horiz-adv-x="603" 
d="M66 700h103l277 -512v512h91v-700h-85l-295 541v-541h-91v700zM261 -81h88v-89h-88v89z" />
    <glyph glyph-name="uni1E47" unicode="&#x1e47;" horiz-adv-x="467" 
d="M381.5 440.5q40.5 -59.5 40.5 -160.5v-280h-87v269q0 78 -22.5 115.5t-67.5 37.5q-33 0 -61 -18.5t-47 -51.5v-352h-87v490h74l6 -61q21 33 56.5 52t78.5 19q76 0 116.5 -59.5zM188 -81h88v-89h-88v89z" />
    <glyph glyph-name="uni1E48" unicode="&#x1e48;" horiz-adv-x="603" 
d="M66 700h103l277 -512v512h91v-700h-85l-295 541v-541h-91v700zM165 -93h280v-68h-280v68z" />
    <glyph glyph-name="uni1E49" unicode="&#x1e49;" horiz-adv-x="467" 
d="M381.5 440.5q40.5 -59.5 40.5 -160.5v-280h-87v269q0 78 -22.5 115.5t-67.5 37.5q-33 0 -61 -18.5t-47 -51.5v-352h-87v490h74l6 -61q21 33 56.5 52t78.5 19q76 0 116.5 -59.5zM92 -93h280v-68h-280v68z" />
    <glyph glyph-name="uni1E4C" unicode="&#x1e4c;" horiz-adv-x="653" 
d="M173.5 31q-67.5 45 -105.5 127.5t-38 191.5t38 191.5t105.5 127.5t153.5 45t153 -45t105 -127.5t38 -191.5t-38 -191.5t-105 -127.5t-153 -45t-153.5 45zM474.5 153.5q51.5 76.5 51.5 196.5t-51.5 196.5t-147.5 76.5t-148 -76.5t-52 -196.5t52 -196.5t148 -76.5
t147.5 76.5zM366 793.5q-16 5.5 -37 15.5q-3 1 -20.5 8.5t-30.5 7.5q-14 0 -22 -8.5t-8 -23.5h-65q0 48 19 74t54 26q16 0 32 -5.5t37 -15.5q3 -1 20.5 -8.5t30.5 -7.5q14 0 22 8.5t8 23.5h65q0 -48 -19 -74t-54 -26q-16 0 -32 5.5zM254 998l147 81v-93l-147 -46v58z" />
    <glyph glyph-name="uni1E4D" unicode="&#x1e4d;" horiz-adv-x="472" 
d="M123 23.5q-48 33.5 -73.5 91.5t-25.5 130t25.5 130t73.5 91.5t114 33.5q65 0 113 -33.5t73 -91.5t25 -130t-25 -130t-73 -91.5t-113 -33.5q-66 0 -114 33.5zM327 114q32 47 32 131t-32 130.5t-90 46.5q-60 0 -92 -46.5t-32 -130.5q0 -85 32 -131.5t92 -46.5q58 0 90 47z
M276 583.5q-16 5.5 -37 15.5q-3 1 -20.5 8.5t-30.5 7.5q-14 0 -22 -8.5t-8 -23.5h-65q0 48 19 74t54 26q16 0 32 -5.5t37 -15.5q3 -1 20.5 -8.5t30.5 -7.5q14 0 22 8.5t8 23.5h65q0 -48 -19 -74t-54 -26q-16 0 -32 5.5zM164 788l147 81v-93l-147 -46v58z" />
    <glyph glyph-name="uni1E4E" unicode="&#x1e4e;" horiz-adv-x="653" 
d="M173.5 31q-67.5 45 -105.5 127.5t-38 191.5t38 191.5t105.5 127.5t153.5 45t153 -45t105 -127.5t38 -191.5t-38 -191.5t-105 -127.5t-153 -45t-153.5 45zM474.5 153.5q51.5 76.5 51.5 196.5t-51.5 196.5t-147.5 76.5t-148 -76.5t-52 -196.5t52 -196.5t148 -76.5
t147.5 76.5zM366 793.5q-16 5.5 -37 15.5q-3 1 -20.5 8.5t-30.5 7.5q-14 0 -22 -8.5t-8 -23.5h-65q0 48 19 74t54 26q16 0 32 -5.5t37 -15.5q3 -1 20.5 -8.5t30.5 -7.5q14 0 22 8.5t8 23.5h65q0 -48 -19 -74t-54 -26q-16 0 -32 5.5zM208 1046h84v-75h-84v75zM362 1046h84
v-75h-84v75z" />
    <glyph glyph-name="uni1E4F" unicode="&#x1e4f;" horiz-adv-x="472" 
d="M123 23.5q-48 33.5 -73.5 91.5t-25.5 130t25.5 130t73.5 91.5t114 33.5q65 0 113 -33.5t73 -91.5t25 -130t-25 -130t-73 -91.5t-113 -33.5q-66 0 -114 33.5zM327 114q32 47 32 131t-32 130.5t-90 46.5q-60 0 -92 -46.5t-32 -130.5q0 -85 32 -131.5t92 -46.5q58 0 90 47z
M276 583.5q-16 5.5 -37 15.5q-3 1 -20.5 8.5t-30.5 7.5q-14 0 -22 -8.5t-8 -23.5h-65q0 48 19 74t54 26q16 0 32 -5.5t37 -15.5q3 -1 20.5 -8.5t30.5 -7.5q14 0 22 8.5t8 23.5h65q0 -48 -19 -74t-54 -26q-16 0 -32 5.5zM118 836h84v-75h-84v75zM272 836h84v-75h-84v75z" />
    <glyph glyph-name="uni1E50" unicode="&#x1e50;" horiz-adv-x="653" 
d="M173.5 31q-67.5 45 -105.5 127.5t-38 191.5t38 191.5t105.5 127.5t153.5 45t153 -45t105 -127.5t38 -191.5t-38 -191.5t-105 -127.5t-153 -45t-153.5 45zM474.5 153.5q51.5 76.5 51.5 196.5t-51.5 196.5t-147.5 76.5t-148 -76.5t-52 -196.5t52 -196.5t148 -76.5
t147.5 76.5zM177 859h300v-66h-300v66zM253 961v95l147 -81v-58z" />
    <glyph glyph-name="uni1E51" unicode="&#x1e51;" horiz-adv-x="472" 
d="M123 23.5q-48 33.5 -73.5 91.5t-25.5 130t25.5 130t73.5 91.5t114 33.5q65 0 113 -33.5t73 -91.5t25 -130t-25 -130t-73 -91.5t-113 -33.5q-66 0 -114 33.5zM327 114q32 47 32 131t-32 130.5t-90 46.5q-60 0 -92 -46.5t-32 -130.5q0 -85 32 -131.5t92 -46.5q58 0 90 47z
M87 649h300v-66h-300v66zM163 751v95l147 -81v-58z" />
    <glyph glyph-name="uni1E52" unicode="&#x1e52;" horiz-adv-x="653" 
d="M173.5 31q-67.5 45 -105.5 127.5t-38 191.5t38 191.5t105.5 127.5t153.5 45t153 -45t105 -127.5t38 -191.5t-38 -191.5t-105 -127.5t-153 -45t-153.5 45zM474.5 153.5q51.5 76.5 51.5 196.5t-51.5 196.5t-147.5 76.5t-148 -76.5t-52 -196.5t52 -196.5t148 -76.5
t147.5 76.5zM177 859h300v-66h-300v66zM254 975l147 81v-93l-147 -46v58z" />
    <glyph glyph-name="uni1E53" unicode="&#x1e53;" horiz-adv-x="472" 
d="M123 23.5q-48 33.5 -73.5 91.5t-25.5 130t25.5 130t73.5 91.5t114 33.5q65 0 113 -33.5t73 -91.5t25 -130t-25 -130t-73 -91.5t-113 -33.5q-66 0 -114 33.5zM327 114q32 47 32 131t-32 130.5t-90 46.5q-60 0 -92 -46.5t-32 -130.5q0 -85 32 -131.5t92 -46.5q58 0 90 47z
M87 649h300v-66h-300v66zM164 765l147 81v-93l-147 -46v58z" />
    <glyph glyph-name="uni1E5A" unicode="&#x1e5a;" horiz-adv-x="541" 
d="M73 700h180q110 0 171.5 -54.5t61.5 -159.5q0 -60 -28.5 -108.5t-79.5 -76.5l140 -301h-108l-125 274q-16 -2 -33 -2h-88v-272h-91v700zM245 356q76 0 111 33t35 97q0 65 -35 98t-111 33h-81v-261h81zM244 -81h88v-89h-88v89z" />
    <glyph glyph-name="uni1E5B" unicode="&#x1e5b;" horiz-adv-x="295" 
d="M57 490h71l11 -82q33 48 62.5 70t62.5 22q13 0 23 -3l-9 -99q-13 3 -30 3q-33 0 -62 -16.5t-42 -38.5v-346h-87v490zM57 -81h88v-89h-88v89z" />
    <glyph glyph-name="uni1E5E" unicode="&#x1e5e;" horiz-adv-x="541" 
d="M73 700h180q110 0 171.5 -54.5t61.5 -159.5q0 -60 -28.5 -108.5t-79.5 -76.5l140 -301h-108l-125 274q-16 -2 -33 -2h-88v-272h-91v700zM245 356q76 0 111 33t35 97q0 65 -35 98t-111 33h-81v-261h81zM148 -93h280v-68h-280v68z" />
    <glyph glyph-name="uni1E5F" unicode="&#x1e5f;" horiz-adv-x="295" 
d="M57 490h71l11 -82q33 48 62.5 70t62.5 22q13 0 23 -3l-9 -99q-13 3 -30 3q-33 0 -62 -16.5t-42 -38.5v-346h-87v490zM-39 -93h280v-68h-280v68z" />
    <glyph glyph-name="uni1E60" unicode="&#x1e60;" horiz-adv-x="499" 
d="M129.5 -2.5q-53.5 11.5 -87.5 27.5l13 100q40 -25 89 -40.5t97 -15.5q62 0 97 25.5t35 74.5q0 35 -16.5 60t-47.5 44.5t-87 44.5q-66 30 -104.5 55t-61.5 62t-23 92q0 56 29 98.5t81.5 65.5t119.5 23q51 0 96.5 -11t77.5 -27l-10 -94q-83 49 -169 49q-58 0 -91 -24
t-33 -74q0 -34 17.5 -56.5t48.5 -40t94 -46.5q94 -42 137 -90.5t43 -121.5q0 -89 -65 -140.5t-177 -51.5q-49 0 -102.5 11.5zM215 880h92v-89h-92v89z" />
    <glyph glyph-name="uni1E61" unicode="&#x1e61;" horiz-adv-x="360" 
d="M33 30l11 88q64 -50 132 -50q36 0 56.5 15t20.5 44q0 22 -9.5 36t-31.5 27t-68 34q-54 25 -79 57t-25 83q0 60 42 98t113 38q72 0 126 -32l-11 -81q-27 18 -51 26.5t-57 8.5q-35 0 -55 -15t-20 -42t17.5 -41t68.5 -37q71 -32 100 -64.5t29 -85.5q0 -69 -43 -108t-117 -39
q-86 0 -149 40zM156 680h88v-89h-88v89z" />
    <glyph glyph-name="uni1E62" unicode="&#x1e62;" horiz-adv-x="499" 
d="M129.5 -2.5q-53.5 11.5 -87.5 27.5l13 100q40 -25 89 -40.5t97 -15.5q62 0 97 25.5t35 74.5q0 35 -16.5 60t-47.5 44.5t-87 44.5q-66 30 -104.5 55t-61.5 62t-23 92q0 56 29 98.5t81.5 65.5t119.5 23q51 0 96.5 -11t77.5 -27l-10 -94q-83 49 -169 49q-58 0 -91 -24
t-33 -74q0 -34 17.5 -56.5t48.5 -40t94 -46.5q94 -42 137 -90.5t43 -121.5q0 -89 -65 -140.5t-177 -51.5q-49 0 -102.5 11.5zM200 -81h88v-89h-88v89z" />
    <glyph glyph-name="uni1E63" unicode="&#x1e63;" horiz-adv-x="360" 
d="M33 30l11 88q64 -50 132 -50q36 0 56.5 15t20.5 44q0 22 -9.5 36t-31.5 27t-68 34q-54 25 -79 57t-25 83q0 60 42 98t113 38q72 0 126 -32l-11 -81q-27 18 -51 26.5t-57 8.5q-35 0 -55 -15t-20 -42t17.5 -41t68.5 -37q71 -32 100 -64.5t29 -85.5q0 -69 -43 -108t-117 -39
q-86 0 -149 40zM137 -81h88v-89h-88v89z" />
    <glyph glyph-name="uni1E64" unicode="&#x1e64;" horiz-adv-x="499" 
d="M129.5 -2.5q-53.5 11.5 -87.5 27.5l13 100q40 -25 89 -40.5t97 -15.5q62 0 97 25.5t35 74.5q0 35 -16.5 60t-47.5 44.5t-87 44.5q-66 30 -104.5 55t-61.5 62t-23 92q0 56 29 98.5t81.5 65.5t119.5 23q51 0 96.5 -11t77.5 -27l-10 -94q-83 49 -169 49q-58 0 -91 -24
t-33 -74q0 -34 17.5 -56.5t48.5 -40t94 -46.5q94 -42 137 -90.5t43 -121.5q0 -89 -65 -140.5t-177 -51.5q-49 0 -102.5 11.5zM188 822l147 81v-93l-147 -46v58zM215 1043h92v-89h-92v89z" />
    <glyph glyph-name="uni1E65" unicode="&#x1e65;" horiz-adv-x="360" 
d="M33 30l11 88q64 -50 132 -50q36 0 56.5 15t20.5 44q0 22 -9.5 36t-31.5 27t-68 34q-54 25 -79 57t-25 83q0 60 42 98t113 38q72 0 126 -32l-11 -81q-27 18 -51 26.5t-57 8.5q-35 0 -55 -15t-20 -42t17.5 -41t68.5 -37q71 -32 100 -64.5t29 -85.5q0 -69 -43 -108t-117 -39
q-86 0 -149 40zM127 612l147 81v-93l-147 -46v58zM154 833h92v-89h-92v89z" />
    <glyph glyph-name="uni1E66" unicode="&#x1e66;" horiz-adv-x="499" 
d="M129.5 -2.5q-53.5 11.5 -87.5 27.5l13 100q40 -25 89 -40.5t97 -15.5q62 0 97 25.5t35 74.5q0 35 -16.5 60t-47.5 44.5t-87 44.5q-66 30 -104.5 55t-61.5 62t-23 92q0 56 29 98.5t81.5 65.5t119.5 23q51 0 96.5 -11t77.5 -27l-10 -94q-83 49 -169 49q-58 0 -91 -24
t-33 -74q0 -34 17.5 -56.5t48.5 -40t94 -46.5q94 -42 137 -90.5t43 -121.5q0 -89 -65 -140.5t-177 -51.5q-49 0 -102.5 11.5zM261 865l117 62v-61l-117 -83l-117 83v61zM215 1065h92v-89h-92v89z" />
    <glyph glyph-name="uni1E67" unicode="&#x1e67;" horiz-adv-x="360" 
d="M33 30l11 88q64 -50 132 -50q36 0 56.5 15t20.5 44q0 22 -9.5 36t-31.5 27t-68 34q-54 25 -79 57t-25 83q0 60 42 98t113 38q72 0 126 -32l-11 -81q-27 18 -51 26.5t-57 8.5q-35 0 -55 -15t-20 -42t17.5 -41t68.5 -37q71 -32 100 -64.5t29 -85.5q0 -69 -43 -108t-117 -39
q-86 0 -149 40zM200 655l117 62v-61l-117 -83l-117 83v61zM154 855h92v-89h-92v89z" />
    <glyph glyph-name="uni1E68" unicode="&#x1e68;" horiz-adv-x="499" 
d="M129.5 -2.5q-53.5 11.5 -87.5 27.5l13 100q40 -25 89 -40.5t97 -15.5q62 0 97 25.5t35 74.5q0 35 -16.5 60t-47.5 44.5t-87 44.5q-66 30 -104.5 55t-61.5 62t-23 92q0 56 29 98.5t81.5 65.5t119.5 23q51 0 96.5 -11t77.5 -27l-10 -94q-83 49 -169 49q-58 0 -91 -24
t-33 -74q0 -34 17.5 -56.5t48.5 -40t94 -46.5q94 -42 137 -90.5t43 -121.5q0 -89 -65 -140.5t-177 -51.5q-49 0 -102.5 11.5zM215 880h92v-89h-92v89zM200 -81h88v-89h-88v89z" />
    <glyph glyph-name="uni1E69" unicode="&#x1e69;" horiz-adv-x="360" 
d="M33 30l11 88q64 -50 132 -50q36 0 56.5 15t20.5 44q0 22 -9.5 36t-31.5 27t-68 34q-54 25 -79 57t-25 83q0 60 42 98t113 38q72 0 126 -32l-11 -81q-27 18 -51 26.5t-57 8.5q-35 0 -55 -15t-20 -42t17.5 -41t68.5 -37q71 -32 100 -64.5t29 -85.5q0 -69 -43 -108t-117 -39
q-86 0 -149 40zM156 680h88v-89h-88v89zM137 -81h88v-89h-88v89z" />
    <glyph glyph-name="uni1E6C" unicode="&#x1e6c;" horiz-adv-x="476" 
d="M192 617h-174v83h440v-83h-174v-617h-92v617zM194 -81h88v-89h-88v89z" />
    <glyph glyph-name="uni1E6D" unicode="&#x1e6d;" horiz-adv-x="298" 
d="M112.5 24q-27.5 34 -27.5 83v314h-68l8 69h60v121l87 9v-130h106v-69h-106v-279q0 -45 16.5 -63t57.5 -18h31l-8 -71h-72q-57 0 -84.5 34zM142 -81h88v-89h-88v89z" />
    <glyph glyph-name="uni1E6E" unicode="&#x1e6e;" horiz-adv-x="476" 
d="M192 617h-174v83h440v-83h-174v-617h-92v617zM98 -93h280v-68h-280v68z" />
    <glyph glyph-name="uni1E6F" unicode="&#x1e6f;" horiz-adv-x="298" 
d="M112.5 24q-27.5 34 -27.5 83v314h-68l8 69h60v121l87 9v-130h106v-69h-106v-279q0 -45 16.5 -63t57.5 -18h31l-8 -71h-72q-57 0 -84.5 34zM46 -93h280v-68h-280v68z" />
    <glyph glyph-name="uni1E78" unicode="&#x1e78;" horiz-adv-x="617" 
d="M120 62q-61 76 -61 215v423h91v-397q0 -73 11.5 -123t46.5 -80.5t100 -30.5q66 0 101 30.5t46.5 80.5t11.5 123v397h91v-423q0 -140 -61 -215.5t-189 -75.5q-127 0 -188 76zM348 793.5q-16 5.5 -37 15.5q-3 1 -20.5 8.5t-30.5 7.5q-14 0 -22 -8.5t-8 -23.5h-65
q0 48 19 74t54 26q16 0 32 -5.5t37 -15.5q3 -1 20.5 -8.5t30.5 -7.5q14 0 22 8.5t8 23.5h65q0 -48 -19 -74t-54 -26q-16 0 -32 5.5zM236 998l147 81v-93l-147 -46v58z" />
    <glyph glyph-name="uni1E79" unicode="&#x1e79;" horiz-adv-x="475" 
d="M407 490v-490h-74l-6 60q-20 -33 -54 -51.5t-75 -18.5q-77 0 -114.5 51.5t-37.5 147.5v301h87v-290q0 -66 19.5 -98.5t65.5 -32.5q32 0 58 18t44 50v353h87zM263 583.5q-16 5.5 -37 15.5q-3 1 -20.5 8.5t-30.5 7.5q-14 0 -22 -8.5t-8 -23.5h-65q0 48 19 74t54 26
q16 0 32 -5.5t37 -15.5q3 -1 20.5 -8.5t30.5 -7.5q14 0 22 8.5t8 23.5h65q0 -48 -19 -74t-54 -26q-16 0 -32 5.5zM151 788l147 81v-93l-147 -46v58z" />
    <glyph glyph-name="uni1E7A" unicode="&#x1e7a;" horiz-adv-x="617" 
d="M120 62q-61 76 -61 215v423h91v-397q0 -73 11.5 -123t46.5 -80.5t100 -30.5q66 0 101 30.5t46.5 80.5t11.5 123v397h91v-423q0 -140 -61 -215.5t-189 -75.5q-127 0 -188 76zM159 859h300v-66h-300v66zM190 1023h84v-75h-84v75zM344 1023h84v-75h-84v75z" />
    <glyph glyph-name="uni1E7B" unicode="&#x1e7b;" horiz-adv-x="475" 
d="M407 490v-490h-74l-6 60q-20 -33 -54 -51.5t-75 -18.5q-77 0 -114.5 51.5t-37.5 147.5v301h87v-290q0 -66 19.5 -98.5t65.5 -32.5q32 0 58 18t44 50v353h87zM74 649h300v-66h-300v66zM105 813h84v-75h-84v75zM259 813h84v-75h-84v75z" />
    <glyph glyph-name="Wgrave" unicode="&#x1e80;" horiz-adv-x="831" 
d="M8 700h98l126 -573l132 559h103l131 -559l127 573h97l-172 -700h-103l-133 554l-130 -554h-103zM341 808v95l147 -81v-58z" />
    <glyph glyph-name="wgrave" unicode="&#x1e81;" horiz-adv-x="613" 
d="M4 490h97l77 -393l86 378h83l87 -378l77 393h97l-125 -490h-88l-89 363l-89 -363h-87zM233 641v99l147 -93v-63z" />
    <glyph glyph-name="Wacute" unicode="&#x1e82;" horiz-adv-x="831" 
d="M8 700h98l126 -573l132 559h103l131 -559l127 573h97l-172 -700h-103l-133 554l-130 -554h-103zM342 822l147 81v-93l-147 -46v58z" />
    <glyph glyph-name="wacute" unicode="&#x1e83;" horiz-adv-x="613" 
d="M4 490h97l77 -393l86 378h83l87 -378l77 393h97l-125 -490h-88l-89 363l-89 -363h-87zM234 645l147 94v-98l-147 -57v61z" />
    <glyph glyph-name="Wdieresis" unicode="&#x1e84;" horiz-adv-x="831" 
d="M8 700h98l126 -573l132 559h103l131 -559l127 573h97l-172 -700h-103l-133 554l-130 -554h-103zM296 869h84v-75h-84v75zM450 869h84v-75h-84v75z" />
    <glyph glyph-name="wdieresis" unicode="&#x1e85;" horiz-adv-x="613" 
d="M4 490h97l77 -393l86 378h83l87 -378l77 393h97l-125 -490h-88l-89 363l-89 -363h-87zM188 671h82v-80h-82v80zM344 671h82v-80h-82v80z" />
    <glyph glyph-name="uni1E8E" unicode="&#x1e8e;" horiz-adv-x="517" 
d="M504 700l-206 -397v-303h-91v303l-208 397h101l152 -301l151 301h101zM206 880h92v-89h-92v89z" />
    <glyph glyph-name="uni1E8F" unicode="&#x1e8f;" horiz-adv-x="445" 
d="M183 22l-179 468h93l131 -365l120 365h93l-263 -732h-93zM178 680h88v-89h-88v89z" />
    <glyph glyph-name="uni1E92" unicode="&#x1e92;" horiz-adv-x="480" 
d="M469 85v-85h-462l317 615h-278v85h419l-317 -615h321zM194 -81h88v-89h-88v89z" />
    <glyph glyph-name="uni1E93" unicode="&#x1e93;" horiz-adv-x="406" 
d="M159 78h220v-78h-361l225 411h-214v79h355zM155 -81h88v-89h-88v89z" />
    <glyph glyph-name="uni1E97" unicode="&#x1e97;" horiz-adv-x="298" 
d="M112.5 24q-27.5 34 -27.5 83v314h-68l8 69h60v121l87 9v-130h106v-69h-106v-279q0 -45 16.5 -63t57.5 -18h31l-8 -71h-72q-57 0 -84.5 34zM10 794h82v-80h-82v80zM166 794h82v-80h-82v80z" />
    <glyph glyph-name="uni1E9E" unicode="&#x1e9e;" horiz-adv-x="535" 
d="M462 329.5q41 -51.5 41 -137.5q0 -67 -28 -113.5t-73.5 -69.5t-99.5 -23q-43 0 -90 14v82q38 -13 81 -13q50 0 79.5 34.5t29.5 95.5q0 66 -35 101.5t-103 35.5h-14v72l134 205q-41 16 -94 16q-61 0 -97 -36t-36 -99v-494h-91v492q0 109 61 165.5t163 56.5
q53 0 98.5 -14.5t77.5 -38.5v-72l-122 -190q77 -18 118 -69.5z" />
    <glyph glyph-name="uni1EA0" unicode="&#x1ea0;" horiz-adv-x="540" 
d="M379 190h-217l-56 -190h-98l215 700h94l215 -700h-97zM354 275l-84 284l-83 -284h167zM227 -81h88v-89h-88v89z" />
    <glyph glyph-name="uni1EA1" unicode="&#x1ea1;" horiz-adv-x="434" 
d="M60 30q-36 40 -36 102q0 92 77 132.5t172 42.5q0 64 -19 89t-64 25q-58 0 -118 -45l-11 73q63 51 146 51q79 0 117 -45.5t38 -146.5v-143q0 -57 8 -80.5t35 -23.5h11l-11 -71h-19q-46 0 -68 17t-36 55q-23 -33 -57 -52.5t-73 -19.5q-56 0 -92 40zM229 79.5
q26 18.5 44 48.5v117q-77 -4 -117 -29.5t-40 -78.5q0 -76 63 -76q24 0 50 18.5zM173 -81h88v-89h-88v89z" />
    <glyph glyph-name="uni1EA2" unicode="&#x1ea2;" horiz-adv-x="540" 
d="M379 190h-217l-56 -190h-98l215 700h94l215 -700h-97zM354 275l-84 284l-83 -284h167zM261 798q13 8 19 17t6 22q0 16 -9 24t-26 8q-21 0 -49 -14l-17 49q35 15 73 15q37 0 61.5 -20.5t24.5 -54.5q0 -30 -17 -50t-51 -34z" />
    <glyph glyph-name="uni1EA3" unicode="&#x1ea3;" horiz-adv-x="434" 
d="M60 30q-36 40 -36 102q0 92 77 132.5t172 42.5q0 64 -19 89t-64 25q-58 0 -118 -45l-11 73q63 51 146 51q79 0 117 -45.5t38 -146.5v-143q0 -57 8 -80.5t35 -23.5h11l-11 -71h-19q-46 0 -68 17t-36 55q-23 -33 -57 -52.5t-73 -19.5q-56 0 -92 40zM229 79.5
q26 18.5 44 48.5v117q-77 -4 -117 -29.5t-40 -78.5q0 -76 63 -76q24 0 50 18.5zM198 558q21 23 28.5 36.5t7.5 29.5t-9 24.5t-24 8.5q-22 0 -53 -17l-17 48q32 17 75 17q37 0 60.5 -21t23.5 -57q0 -30 -13.5 -52t-44.5 -50z" />
    <glyph glyph-name="uni1EA4" unicode="&#x1ea4;" horiz-adv-x="540" 
d="M379 190h-217l-56 -190h-98l215 700h94l215 -700h-97zM354 275l-84 284l-83 -284h167zM398 1008h94l-88 -116h-62zM154 814l117 82l117 -82v-61l-117 62l-117 -62v61z" />
    <glyph glyph-name="uni1EA5" unicode="&#x1ea5;" horiz-adv-x="434" 
d="M60 30q-36 40 -36 102q0 92 77 132.5t172 42.5q0 64 -19 89t-64 25q-58 0 -118 -45l-11 73q63 51 146 51q79 0 117 -45.5t38 -146.5v-143q0 -57 8 -80.5t35 -23.5h11l-11 -71h-19q-46 0 -68 17t-36 55q-23 -33 -57 -52.5t-73 -19.5q-56 0 -92 40zM229 79.5
q26 18.5 44 48.5v117q-77 -4 -117 -29.5t-40 -78.5q0 -76 63 -76q24 0 50 18.5zM344 798h94l-88 -116h-62zM100 604l117 82l117 -82v-61l-117 62l-117 -62v61z" />
    <glyph glyph-name="uni1EA6" unicode="&#x1ea6;" horiz-adv-x="540" 
d="M379 190h-217l-56 -190h-98l215 700h94l215 -700h-97zM354 275l-84 284l-83 -284h167zM283 1008h90l46 -116h-59zM154 814l117 82l117 -82v-61l-117 62l-117 -62v61z" />
    <glyph glyph-name="uni1EA7" unicode="&#x1ea7;" horiz-adv-x="434" 
d="M60 30q-36 40 -36 102q0 92 77 132.5t172 42.5q0 64 -19 89t-64 25q-58 0 -118 -45l-11 73q63 51 146 51q79 0 117 -45.5t38 -146.5v-143q0 -57 8 -80.5t35 -23.5h11l-11 -71h-19q-46 0 -68 17t-36 55q-23 -33 -57 -52.5t-73 -19.5q-56 0 -92 40zM229 79.5
q26 18.5 44 48.5v117q-77 -4 -117 -29.5t-40 -78.5q0 -76 63 -76q24 0 50 18.5zM229 798h90l46 -116h-59zM100 604l117 82l117 -82v-61l-117 62l-117 -62v61z" />
    <glyph glyph-name="uni1EA8" unicode="&#x1ea8;" horiz-adv-x="540" 
d="M379 190h-217l-56 -190h-98l215 700h94l215 -700h-97zM354 275l-84 284l-83 -284h167zM358 902q13 8 19 17t6 22q0 16 -9 24t-26 8q-21 0 -49 -14l-17 50q35 15 73 15q37 0 61.5 -20.5t24.5 -55.5q0 -30 -17 -50t-51 -34zM154 814l117 82l117 -82v-61l-117 62l-117 -62
v61z" />
    <glyph glyph-name="uni1EA9" unicode="&#x1ea9;" horiz-adv-x="434" 
d="M60 30q-36 40 -36 102q0 92 77 132.5t172 42.5q0 64 -19 89t-64 25q-58 0 -118 -45l-11 73q63 51 146 51q79 0 117 -45.5t38 -146.5v-143q0 -57 8 -80.5t35 -23.5h11l-11 -71h-19q-46 0 -68 17t-36 55q-23 -33 -57 -52.5t-73 -19.5q-56 0 -92 40zM229 79.5
q26 18.5 44 48.5v117q-77 -4 -117 -29.5t-40 -78.5q0 -76 63 -76q24 0 50 18.5zM304 692q13 8 19 17t6 22q0 16 -9 24t-26 8q-21 0 -49 -14l-17 50q35 15 73 15q37 0 61.5 -20.5t24.5 -55.5q0 -30 -17 -50t-51 -34zM100 604l117 82l117 -82v-61l-117 62l-117 -62v61z" />
    <glyph glyph-name="uni1EAA" unicode="&#x1eaa;" horiz-adv-x="540" 
d="M379 190h-217l-56 -190h-98l215 700h94l215 -700h-97zM354 275l-84 284l-83 -284h167zM310 943.5q-16 5.5 -37 15.5q-3 1 -20.5 8.5t-30.5 7.5q-14 0 -22 -9t-8 -23h-65q0 48 19 73.5t54 25.5q16 0 32 -5.5t37 -15.5q3 -1 20.5 -8.5t30.5 -7.5q14 0 22 9t8 23h65
q0 -48 -19 -73.5t-54 -25.5q-16 0 -32 5.5zM154 814l117 82l117 -82v-61l-117 62l-117 -62v61z" />
    <glyph glyph-name="uni1EAB" unicode="&#x1eab;" horiz-adv-x="434" 
d="M60 30q-36 40 -36 102q0 92 77 132.5t172 42.5q0 64 -19 89t-64 25q-58 0 -118 -45l-11 73q63 51 146 51q79 0 117 -45.5t38 -146.5v-143q0 -57 8 -80.5t35 -23.5h11l-11 -71h-19q-46 0 -68 17t-36 55q-23 -33 -57 -52.5t-73 -19.5q-56 0 -92 40zM229 79.5
q26 18.5 44 48.5v117q-77 -4 -117 -29.5t-40 -78.5q0 -76 63 -76q24 0 50 18.5zM256 733.5q-16 5.5 -37 15.5q-3 1 -20.5 8.5t-30.5 7.5q-14 0 -22 -9t-8 -23h-65q0 48 19 73.5t54 25.5q16 0 32 -5.5t37 -15.5q3 -1 20.5 -8.5t30.5 -7.5q14 0 22 9t8 23h65q0 -48 -19 -73.5
t-54 -25.5q-16 0 -32 5.5zM100 604l117 82l117 -82v-61l-117 62l-117 -62v61z" />
    <glyph glyph-name="uni1EAC" unicode="&#x1eac;" horiz-adv-x="540" 
d="M379 190h-217l-56 -190h-98l215 700h94l215 -700h-97zM354 275l-84 284l-83 -284h167zM164 834l107 91l107 -91v-60l-107 67l-107 -67v60zM227 -81h88v-89h-88v89z" />
    <glyph glyph-name="uni1EAD" unicode="&#x1ead;" horiz-adv-x="434" 
d="M60 30q-36 40 -36 102q0 92 77 132.5t172 42.5q0 64 -19 89t-64 25q-58 0 -118 -45l-11 73q63 51 146 51q79 0 117 -45.5t38 -146.5v-143q0 -57 8 -80.5t35 -23.5h11l-11 -71h-19q-46 0 -68 17t-36 55q-23 -33 -57 -52.5t-73 -19.5q-56 0 -92 40zM229 79.5
q26 18.5 44 48.5v117q-77 -4 -117 -29.5t-40 -78.5q0 -76 63 -76q24 0 50 18.5zM110 624l107 91l107 -91v-60l-107 67l-107 -67v60zM173 -81h88v-89h-88v89z" />
    <glyph glyph-name="uni1EAE" unicode="&#x1eae;" horiz-adv-x="540" 
d="M379 190h-217l-56 -190h-98l215 700h94l215 -700h-97zM354 275l-84 284l-83 -284h167zM198 980l147 81v-93l-147 -46v58zM170 797.5q-35 33.5 -35 80.5h80q0 -26 15.5 -39.5t40.5 -13.5t40.5 13.5t15.5 39.5h80q0 -47 -35 -80.5t-101 -33.5t-101 33.5z" />
    <glyph glyph-name="uni1EAF" unicode="&#x1eaf;" horiz-adv-x="434" 
d="M60 30q-36 40 -36 102q0 92 77 132.5t172 42.5q0 64 -19 89t-64 25q-58 0 -118 -45l-11 73q63 51 146 51q79 0 117 -45.5t38 -146.5v-143q0 -57 8 -80.5t35 -23.5h11l-11 -71h-19q-46 0 -68 17t-36 55q-23 -33 -57 -52.5t-73 -19.5q-56 0 -92 40zM229 79.5
q26 18.5 44 48.5v117q-77 -4 -117 -29.5t-40 -78.5q0 -76 63 -76q24 0 50 18.5zM144 770l147 81v-93l-147 -46v58zM116 587.5q-35 33.5 -35 80.5h80q0 -26 15.5 -39.5t40.5 -13.5t40.5 13.5t15.5 39.5h80q0 -47 -35 -80.5t-101 -33.5t-101 33.5z" />
    <glyph glyph-name="uni1EB0" unicode="&#x1eb0;" horiz-adv-x="540" 
d="M379 190h-217l-56 -190h-98l215 700h94l215 -700h-97zM354 275l-84 284l-83 -284h167zM197 965v95l147 -81v-58zM170 796.5q-35 33.5 -35 80.5h80q0 -26 15.5 -39.5t40.5 -13.5t40.5 13.5t15.5 39.5h80q0 -47 -35 -80.5t-101 -33.5t-101 33.5z" />
    <glyph glyph-name="uni1EB1" unicode="&#x1eb1;" horiz-adv-x="434" 
d="M60 30q-36 40 -36 102q0 92 77 132.5t172 42.5q0 64 -19 89t-64 25q-58 0 -118 -45l-11 73q63 51 146 51q79 0 117 -45.5t38 -146.5v-143q0 -57 8 -80.5t35 -23.5h11l-11 -71h-19q-46 0 -68 17t-36 55q-23 -33 -57 -52.5t-73 -19.5q-56 0 -92 40zM229 79.5
q26 18.5 44 48.5v117q-77 -4 -117 -29.5t-40 -78.5q0 -76 63 -76q24 0 50 18.5zM143 755v95l147 -81v-58zM116 586.5q-35 33.5 -35 80.5h80q0 -26 15.5 -39.5t40.5 -13.5t40.5 13.5t15.5 39.5h80q0 -47 -35 -80.5t-101 -33.5t-101 33.5z" />
    <glyph glyph-name="uni1EB2" unicode="&#x1eb2;" horiz-adv-x="540" 
d="M379 190h-217l-56 -190h-98l215 700h94l215 -700h-97zM354 275l-84 284l-83 -284h167zM271 932q13 8 19 17t6 22q0 16 -9 24t-26 8q-21 0 -49 -14l-17 50q35 15 73 15q37 0 61.5 -20.5t24.5 -55.5q0 -30 -17 -50t-51 -34zM170 797.5q-35 33.5 -35 80.5h80
q0 -26 15.5 -39.5t40.5 -13.5t40.5 13.5t15.5 39.5h80q0 -47 -35 -80.5t-101 -33.5t-101 33.5z" />
    <glyph glyph-name="uni1EB3" unicode="&#x1eb3;" horiz-adv-x="434" 
d="M60 30q-36 40 -36 102q0 92 77 132.5t172 42.5q0 64 -19 89t-64 25q-58 0 -118 -45l-11 73q63 51 146 51q79 0 117 -45.5t38 -146.5v-143q0 -57 8 -80.5t35 -23.5h11l-11 -71h-19q-46 0 -68 17t-36 55q-23 -33 -57 -52.5t-73 -19.5q-56 0 -92 40zM229 79.5
q26 18.5 44 48.5v117q-77 -4 -117 -29.5t-40 -78.5q0 -76 63 -76q24 0 50 18.5zM217 722q13 8 19 17t6 22q0 16 -9 24t-26 8q-21 0 -49 -14l-17 50q35 15 73 15q37 0 61.5 -20.5t24.5 -55.5q0 -30 -17 -50t-51 -34zM116 587.5q-35 33.5 -35 80.5h80q0 -26 15.5 -39.5
t40.5 -13.5t40.5 13.5t15.5 39.5h80q0 -47 -35 -80.5t-101 -33.5t-101 33.5z" />
    <glyph glyph-name="uni1EB4" unicode="&#x1eb4;" horiz-adv-x="540" 
d="M379 190h-217l-56 -190h-98l215 700h94l215 -700h-97zM354 275l-84 284l-83 -284h167zM310 930.5q-16 5.5 -37 15.5q-3 1 -20.5 8.5t-30.5 7.5q-14 0 -22 -8.5t-8 -23.5h-65q0 48 19 74t54 26q16 0 32 -5.5t37 -15.5q3 -1 20.5 -8.5t30.5 -7.5q14 0 22 8.5t8 23.5h65
q0 -48 -19 -74t-54 -26q-16 0 -32 5.5zM170 797.5q-35 33.5 -35 80.5h80q0 -26 15.5 -39.5t40.5 -13.5t40.5 13.5t15.5 39.5h80q0 -47 -35 -80.5t-101 -33.5t-101 33.5z" />
    <glyph glyph-name="uni1EB5" unicode="&#x1eb5;" horiz-adv-x="434" 
d="M60 30q-36 40 -36 102q0 92 77 132.5t172 42.5q0 64 -19 89t-64 25q-58 0 -118 -45l-11 73q63 51 146 51q79 0 117 -45.5t38 -146.5v-143q0 -57 8 -80.5t35 -23.5h11l-11 -71h-19q-46 0 -68 17t-36 55q-23 -33 -57 -52.5t-73 -19.5q-56 0 -92 40zM229 79.5
q26 18.5 44 48.5v117q-77 -4 -117 -29.5t-40 -78.5q0 -76 63 -76q24 0 50 18.5zM256 720.5q-16 5.5 -37 15.5q-3 1 -20.5 8.5t-30.5 7.5q-14 0 -22 -8.5t-8 -23.5h-65q0 48 19 74t54 26q16 0 32 -5.5t37 -15.5q3 -1 20.5 -8.5t30.5 -7.5q14 0 22 8.5t8 23.5h65
q0 -48 -19 -74t-54 -26q-16 0 -32 5.5zM116 587.5q-35 33.5 -35 80.5h80q0 -26 15.5 -39.5t40.5 -13.5t40.5 13.5t15.5 39.5h80q0 -47 -35 -80.5t-101 -33.5t-101 33.5z" />
    <glyph glyph-name="uni1EB6" unicode="&#x1eb6;" horiz-adv-x="540" 
d="M379 190h-217l-56 -190h-98l215 700h94l215 -700h-97zM354 275l-84 284l-83 -284h167zM170 821q-35 35 -35 86h78q0 -26 14.5 -41t43.5 -15t43.5 15t14.5 41h78q0 -51 -35 -86t-101 -35t-101 35zM227 -81h88v-89h-88v89z" />
    <glyph glyph-name="uni1EB7" unicode="&#x1eb7;" horiz-adv-x="434" 
d="M60 30q-36 40 -36 102q0 92 77 132.5t172 42.5q0 64 -19 89t-64 25q-58 0 -118 -45l-11 73q63 51 146 51q79 0 117 -45.5t38 -146.5v-143q0 -57 8 -80.5t35 -23.5h11l-11 -71h-19q-46 0 -68 17t-36 55q-23 -33 -57 -52.5t-73 -19.5q-56 0 -92 40zM229 79.5
q26 18.5 44 48.5v117q-77 -4 -117 -29.5t-40 -78.5q0 -76 63 -76q24 0 50 18.5zM116 611q-35 35 -35 86h78q0 -26 14.5 -41t43.5 -15t43.5 15t14.5 41h78q0 -51 -35 -86t-101 -35t-101 35zM173 -81h88v-89h-88v89z" />
    <glyph glyph-name="uni1EB8" unicode="&#x1eb8;" horiz-adv-x="477" 
d="M66 700h374v-83h-283v-209h224v-84h-224v-241h291v-83h-382v700zM214 -81h88v-89h-88v89z" />
    <glyph glyph-name="uni1EB9" unicode="&#x1eb9;" horiz-adv-x="439" 
d="M132.5 24.5q-52.5 34.5 -79 93.5t-26.5 131q0 69 24.5 126.5t71 91t110.5 33.5q82 0 133.5 -55t51.5 -152q0 -17 -4 -47h-298q3 -87 43.5 -132t105.5 -45q31 0 65.5 7.5t60.5 21.5l8 -78q-55 -30 -140 -30q-74 0 -126.5 34.5zM329 307q0 50 -24.5 81.5t-70.5 31.5
q-45 0 -74.5 -28t-39.5 -85h209zM206 -81h88v-89h-88v89z" />
    <glyph glyph-name="uni1EBA" unicode="&#x1eba;" horiz-adv-x="477" 
d="M66 700h374v-83h-283v-209h224v-84h-224v-241h291v-83h-382v700zM244 798q13 8 19 17t6 22q0 16 -9 24t-26 8q-21 0 -49 -14l-17 49q35 15 73 15q37 0 61.5 -20.5t24.5 -54.5q0 -30 -17 -50t-51 -34z" />
    <glyph glyph-name="uni1EBB" unicode="&#x1ebb;" horiz-adv-x="439" 
d="M132.5 24.5q-52.5 34.5 -79 93.5t-26.5 131q0 69 24.5 126.5t71 91t110.5 33.5q82 0 133.5 -55t51.5 -152q0 -17 -4 -47h-298q3 -87 43.5 -132t105.5 -45q31 0 65.5 7.5t60.5 21.5l8 -78q-55 -30 -140 -30q-74 0 -126.5 34.5zM329 307q0 50 -24.5 81.5t-70.5 31.5
q-45 0 -74.5 -28t-39.5 -85h209zM215 558q21 23 28.5 36.5t7.5 29.5t-9 24.5t-24 8.5q-22 0 -53 -17l-17 48q32 17 75 17q37 0 60.5 -21t23.5 -57q0 -30 -13.5 -52t-44.5 -50z" />
    <glyph glyph-name="uni1EBC" unicode="&#x1ebc;" horiz-adv-x="477" 
d="M66 700h374v-83h-283v-209h224v-84h-224v-241h291v-83h-382v700zM293 793.5q-16 5.5 -37 15.5q-3 1 -20.5 8.5t-30.5 7.5q-14 0 -22 -8.5t-8 -23.5h-65q0 48 19 74t54 26q16 0 32 -5.5t37 -15.5q3 -1 20.5 -8.5t30.5 -7.5q14 0 22 8.5t8 23.5h65q0 -48 -19 -74t-54 -26
q-16 0 -32 5.5z" />
    <glyph glyph-name="uni1EBD" unicode="&#x1ebd;" horiz-adv-x="439" 
d="M132.5 24.5q-52.5 34.5 -79 93.5t-26.5 131q0 69 24.5 126.5t71 91t110.5 33.5q82 0 133.5 -55t51.5 -152q0 -17 -4 -47h-298q3 -87 43.5 -132t105.5 -45q31 0 65.5 7.5t60.5 21.5l8 -78q-55 -30 -140 -30q-74 0 -126.5 34.5zM329 307q0 50 -24.5 81.5t-70.5 31.5
q-45 0 -74.5 -28t-39.5 -85h209zM269 587q-15 7 -36 20q-27 20 -46 20q-13 0 -20 -10.5t-7 -28.5h-72q5 111 76 111q20 0 35 -7t36 -20q27 -20 46 -20q13 0 20 10.5t7 28.5h72q-5 -111 -76 -111q-20 0 -35 7z" />
    <glyph glyph-name="uni1EBE" unicode="&#x1ebe;" horiz-adv-x="477" 
d="M66 700h374v-83h-283v-209h224v-84h-224v-241h291v-83h-382v700zM381 1008h94l-88 -116h-62zM137 814l117 82l117 -82v-61l-117 62l-117 -62v61z" />
    <glyph glyph-name="uni1EBF" unicode="&#x1ebf;" horiz-adv-x="439" 
d="M132.5 24.5q-52.5 34.5 -79 93.5t-26.5 131q0 69 24.5 126.5t71 91t110.5 33.5q82 0 133.5 -55t51.5 -152q0 -17 -4 -47h-298q3 -87 43.5 -132t105.5 -45q31 0 65.5 7.5t60.5 21.5l8 -78q-55 -30 -140 -30q-74 0 -126.5 34.5zM329 307q0 50 -24.5 81.5t-70.5 31.5
q-45 0 -74.5 -28t-39.5 -85h209zM361 798h94l-88 -116h-62zM117 604l117 82l117 -82v-61l-117 62l-117 -62v61z" />
    <glyph glyph-name="uni1EC0" unicode="&#x1ec0;" horiz-adv-x="477" 
d="M66 700h374v-83h-283v-209h224v-84h-224v-241h291v-83h-382v700zM266 1008h90l46 -116h-59zM137 814l117 82l117 -82v-61l-117 62l-117 -62v61z" />
    <glyph glyph-name="uni1EC1" unicode="&#x1ec1;" horiz-adv-x="439" 
d="M132.5 24.5q-52.5 34.5 -79 93.5t-26.5 131q0 69 24.5 126.5t71 91t110.5 33.5q82 0 133.5 -55t51.5 -152q0 -17 -4 -47h-298q3 -87 43.5 -132t105.5 -45q31 0 65.5 7.5t60.5 21.5l8 -78q-55 -30 -140 -30q-74 0 -126.5 34.5zM329 307q0 50 -24.5 81.5t-70.5 31.5
q-45 0 -74.5 -28t-39.5 -85h209zM246 798h90l46 -116h-59zM117 604l117 82l117 -82v-61l-117 62l-117 -62v61z" />
    <glyph glyph-name="uni1EC2" unicode="&#x1ec2;" horiz-adv-x="477" 
d="M66 700h374v-83h-283v-209h224v-84h-224v-241h291v-83h-382v700zM341 902q13 8 19 17t6 22q0 16 -9 24t-26 8q-21 0 -49 -14l-17 50q35 15 73 15q37 0 61.5 -20.5t24.5 -55.5q0 -30 -17 -50t-51 -34zM137 814l117 82l117 -82v-61l-117 62l-117 -62v61z" />
    <glyph glyph-name="uni1EC3" unicode="&#x1ec3;" horiz-adv-x="439" 
d="M132.5 24.5q-52.5 34.5 -79 93.5t-26.5 131q0 69 24.5 126.5t71 91t110.5 33.5q82 0 133.5 -55t51.5 -152q0 -17 -4 -47h-298q3 -87 43.5 -132t105.5 -45q31 0 65.5 7.5t60.5 21.5l8 -78q-55 -30 -140 -30q-74 0 -126.5 34.5zM329 307q0 50 -24.5 81.5t-70.5 31.5
q-45 0 -74.5 -28t-39.5 -85h209zM321 692q13 8 19 17t6 22q0 16 -9 24t-26 8q-21 0 -49 -14l-17 50q35 15 73 15q37 0 61.5 -20.5t24.5 -55.5q0 -30 -17 -50t-51 -34zM117 604l117 82l117 -82v-61l-117 62l-117 -62v61z" />
    <glyph glyph-name="uni1EC4" unicode="&#x1ec4;" horiz-adv-x="477" 
d="M66 700h374v-83h-283v-209h224v-84h-224v-241h291v-83h-382v700zM293 943.5q-16 5.5 -37 15.5q-3 1 -20.5 8.5t-30.5 7.5q-14 0 -22 -9t-8 -23h-65q0 48 19 73.5t54 25.5q16 0 32 -5.5t37 -15.5q3 -1 20.5 -8.5t30.5 -7.5q14 0 22 9t8 23h65q0 -48 -19 -73.5t-54 -25.5
q-16 0 -32 5.5zM137 814l117 82l117 -82v-61l-117 62l-117 -62v61z" />
    <glyph glyph-name="uni1EC5" unicode="&#x1ec5;" horiz-adv-x="439" 
d="M132.5 24.5q-52.5 34.5 -79 93.5t-26.5 131q0 69 24.5 126.5t71 91t110.5 33.5q82 0 133.5 -55t51.5 -152q0 -17 -4 -47h-298q3 -87 43.5 -132t105.5 -45q31 0 65.5 7.5t60.5 21.5l8 -78q-55 -30 -140 -30q-74 0 -126.5 34.5zM329 307q0 50 -24.5 81.5t-70.5 31.5
q-45 0 -74.5 -28t-39.5 -85h209zM273 733.5q-16 5.5 -37 15.5q-3 1 -20.5 8.5t-30.5 7.5q-14 0 -22 -9t-8 -23h-65q0 48 19 73.5t54 25.5q16 0 32 -5.5t37 -15.5q3 -1 20.5 -8.5t30.5 -7.5q14 0 22 9t8 23h65q0 -48 -19 -73.5t-54 -25.5q-16 0 -32 5.5zM117 604l117 82
l117 -82v-61l-117 62l-117 -62v61z" />
    <glyph glyph-name="uni1EC6" unicode="&#x1ec6;" horiz-adv-x="477" 
d="M66 700h374v-83h-283v-209h224v-84h-224v-241h291v-83h-382v700zM137 816l117 83l117 -83v-61l-117 62l-117 -62v61zM214 -81h88v-89h-88v89z" />
    <glyph glyph-name="uni1EC7" unicode="&#x1ec7;" horiz-adv-x="439" 
d="M132.5 24.5q-52.5 34.5 -79 93.5t-26.5 131q0 69 24.5 126.5t71 91t110.5 33.5q82 0 133.5 -55t51.5 -152q0 -17 -4 -47h-298q3 -87 43.5 -132t105.5 -45q31 0 65.5 7.5t60.5 21.5l8 -78q-55 -30 -140 -30q-74 0 -126.5 34.5zM329 307q0 50 -24.5 81.5t-70.5 31.5
q-45 0 -74.5 -28t-39.5 -85h209zM127 624l107 91l107 -91v-60l-107 67l-107 -67v60zM206 -81h88v-89h-88v89z" />
    <glyph glyph-name="uni1EC8" unicode="&#x1ec8;" horiz-adv-x="240" 
d="M74 700h92v-700h-92v700zM110 798q13 8 19 17t6 22q0 16 -9 24t-26 8q-21 0 -49 -14l-17 49q35 15 73 15q37 0 61.5 -20.5t24.5 -54.5q0 -30 -17 -50t-51 -34z" />
    <glyph glyph-name="uni1EC9" unicode="&#x1ec9;" horiz-adv-x="206" 
d="M58 490h90v-490h-90v490zM84 558q21 23 28.5 36.5t7.5 29.5t-9 24.5t-24 8.5q-22 0 -53 -17l-17 48q32 17 75 17q37 0 60.5 -21t23.5 -57q0 -30 -13.5 -52t-44.5 -50z" />
    <glyph glyph-name="uni1ECA" unicode="&#x1eca;" horiz-adv-x="240" 
d="M74 700h92v-700h-92v700zM76 -81h88v-89h-88v89z" />
    <glyph glyph-name="uni1ECB" unicode="&#x1ecb;" horiz-adv-x="204" 
d="M58 700h87v-99h-87v99zM58 490h87v-490h-87v490zM58 -81h88v-89h-88v89z" />
    <glyph glyph-name="uni1ECC" unicode="&#x1ecc;" horiz-adv-x="653" 
d="M173.5 31q-67.5 45 -105.5 127.5t-38 191.5t38 191.5t105.5 127.5t153.5 45t153 -45t105 -127.5t38 -191.5t-38 -191.5t-105 -127.5t-153 -45t-153.5 45zM474.5 153.5q51.5 76.5 51.5 196.5t-51.5 196.5t-147.5 76.5t-148 -76.5t-52 -196.5t52 -196.5t148 -76.5
t147.5 76.5zM283 -81h88v-89h-88v89z" />
    <glyph glyph-name="uni1ECD" unicode="&#x1ecd;" horiz-adv-x="472" 
d="M123 23.5q-48 33.5 -73.5 91.5t-25.5 130t25.5 130t73.5 91.5t114 33.5q65 0 113 -33.5t73 -91.5t25 -130t-25 -130t-73 -91.5t-113 -33.5q-66 0 -114 33.5zM327 114q32 47 32 131t-32 130.5t-90 46.5q-60 0 -92 -46.5t-32 -130.5q0 -85 32 -131.5t92 -46.5q58 0 90 47z
M193 -81h88v-89h-88v89z" />
    <glyph glyph-name="uni1ECE" unicode="&#x1ece;" horiz-adv-x="653" 
d="M173.5 31q-67.5 45 -105.5 127.5t-38 191.5t38 191.5t105.5 127.5t153.5 45t153 -45t105 -127.5t38 -191.5t-38 -191.5t-105 -127.5t-153 -45t-153.5 45zM474.5 153.5q51.5 76.5 51.5 196.5t-51.5 196.5t-147.5 76.5t-148 -76.5t-52 -196.5t52 -196.5t148 -76.5
t147.5 76.5zM317 798q13 8 19 17t6 22q0 16 -9 24t-26 8q-21 0 -49 -14l-17 49q35 15 73 15q37 0 61.5 -20.5t24.5 -54.5q0 -30 -17 -50t-51 -34z" />
    <glyph glyph-name="uni1ECF" unicode="&#x1ecf;" horiz-adv-x="472" 
d="M123 23.5q-48 33.5 -73.5 91.5t-25.5 130t25.5 130t73.5 91.5t114 33.5q65 0 113 -33.5t73 -91.5t25 -130t-25 -130t-73 -91.5t-113 -33.5q-66 0 -114 33.5zM327 114q32 47 32 131t-32 130.5t-90 46.5q-60 0 -92 -46.5t-32 -130.5q0 -85 32 -131.5t92 -46.5q58 0 90 47z
M218 558q21 23 28.5 36.5t7.5 29.5t-9 24.5t-24 8.5q-22 0 -53 -17l-17 48q32 17 75 17q37 0 60.5 -21t23.5 -57q0 -30 -13.5 -52t-44.5 -50z" />
    <glyph glyph-name="uni1ED0" unicode="&#x1ed0;" horiz-adv-x="653" 
d="M173.5 31q-67.5 45 -105.5 127.5t-38 191.5t38 191.5t105.5 127.5t153.5 45t153 -45t105 -127.5t38 -191.5t-38 -191.5t-105 -127.5t-153 -45t-153.5 45zM474.5 153.5q51.5 76.5 51.5 196.5t-51.5 196.5t-147.5 76.5t-148 -76.5t-52 -196.5t52 -196.5t148 -76.5
t147.5 76.5zM454 1008h94l-88 -116h-62zM210 814l117 82l117 -82v-61l-117 62l-117 -62v61z" />
    <glyph glyph-name="uni1ED1" unicode="&#x1ed1;" horiz-adv-x="472" 
d="M123 23.5q-48 33.5 -73.5 91.5t-25.5 130t25.5 130t73.5 91.5t114 33.5q65 0 113 -33.5t73 -91.5t25 -130t-25 -130t-73 -91.5t-113 -33.5q-66 0 -114 33.5zM327 114q32 47 32 131t-32 130.5t-90 46.5q-60 0 -92 -46.5t-32 -130.5q0 -85 32 -131.5t92 -46.5q58 0 90 47z
M364 798h94l-88 -116h-62zM120 604l117 82l117 -82v-61l-117 62l-117 -62v61z" />
    <glyph glyph-name="uni1ED2" unicode="&#x1ed2;" horiz-adv-x="653" 
d="M173.5 31q-67.5 45 -105.5 127.5t-38 191.5t38 191.5t105.5 127.5t153.5 45t153 -45t105 -127.5t38 -191.5t-38 -191.5t-105 -127.5t-153 -45t-153.5 45zM474.5 153.5q51.5 76.5 51.5 196.5t-51.5 196.5t-147.5 76.5t-148 -76.5t-52 -196.5t52 -196.5t148 -76.5
t147.5 76.5zM339 1008h90l46 -116h-59zM210 814l117 82l117 -82v-61l-117 62l-117 -62v61z" />
    <glyph glyph-name="uni1ED3" unicode="&#x1ed3;" horiz-adv-x="472" 
d="M123 23.5q-48 33.5 -73.5 91.5t-25.5 130t25.5 130t73.5 91.5t114 33.5q65 0 113 -33.5t73 -91.5t25 -130t-25 -130t-73 -91.5t-113 -33.5q-66 0 -114 33.5zM327 114q32 47 32 131t-32 130.5t-90 46.5q-60 0 -92 -46.5t-32 -130.5q0 -85 32 -131.5t92 -46.5q58 0 90 47z
M249 798h90l46 -116h-59zM120 604l117 82l117 -82v-61l-117 62l-117 -62v61z" />
    <glyph glyph-name="uni1ED4" unicode="&#x1ed4;" horiz-adv-x="653" 
d="M173.5 31q-67.5 45 -105.5 127.5t-38 191.5t38 191.5t105.5 127.5t153.5 45t153 -45t105 -127.5t38 -191.5t-38 -191.5t-105 -127.5t-153 -45t-153.5 45zM474.5 153.5q51.5 76.5 51.5 196.5t-51.5 196.5t-147.5 76.5t-148 -76.5t-52 -196.5t52 -196.5t148 -76.5
t147.5 76.5zM414 902q13 8 19 17t6 22q0 16 -9 24t-26 8q-21 0 -49 -14l-17 50q35 15 73 15q37 0 61.5 -20.5t24.5 -55.5q0 -30 -17 -50t-51 -34zM210 814l117 82l117 -82v-61l-117 62l-117 -62v61z" />
    <glyph glyph-name="uni1ED5" unicode="&#x1ed5;" horiz-adv-x="472" 
d="M123 23.5q-48 33.5 -73.5 91.5t-25.5 130t25.5 130t73.5 91.5t114 33.5q65 0 113 -33.5t73 -91.5t25 -130t-25 -130t-73 -91.5t-113 -33.5q-66 0 -114 33.5zM327 114q32 47 32 131t-32 130.5t-90 46.5q-60 0 -92 -46.5t-32 -130.5q0 -85 32 -131.5t92 -46.5q58 0 90 47z
M324 692q13 8 19 17t6 22q0 16 -9 24t-26 8q-21 0 -49 -14l-17 50q35 15 73 15q37 0 61.5 -20.5t24.5 -55.5q0 -30 -17 -50t-51 -34zM120 604l117 82l117 -82v-61l-117 62l-117 -62v61z" />
    <glyph glyph-name="uni1ED6" unicode="&#x1ed6;" horiz-adv-x="653" 
d="M173.5 31q-67.5 45 -105.5 127.5t-38 191.5t38 191.5t105.5 127.5t153.5 45t153 -45t105 -127.5t38 -191.5t-38 -191.5t-105 -127.5t-153 -45t-153.5 45zM474.5 153.5q51.5 76.5 51.5 196.5t-51.5 196.5t-147.5 76.5t-148 -76.5t-52 -196.5t52 -196.5t148 -76.5
t147.5 76.5zM366 943.5q-16 5.5 -37 15.5q-3 1 -20.5 8.5t-30.5 7.5q-14 0 -22 -9t-8 -23h-65q0 48 19 73.5t54 25.5q16 0 32 -5.5t37 -15.5q3 -1 20.5 -8.5t30.5 -7.5q14 0 22 9t8 23h65q0 -48 -19 -73.5t-54 -25.5q-16 0 -32 5.5zM210 814l117 82l117 -82v-61l-117 62
l-117 -62v61z" />
    <glyph glyph-name="uni1ED7" unicode="&#x1ed7;" horiz-adv-x="472" 
d="M123 23.5q-48 33.5 -73.5 91.5t-25.5 130t25.5 130t73.5 91.5t114 33.5q65 0 113 -33.5t73 -91.5t25 -130t-25 -130t-73 -91.5t-113 -33.5q-66 0 -114 33.5zM327 114q32 47 32 131t-32 130.5t-90 46.5q-60 0 -92 -46.5t-32 -130.5q0 -85 32 -131.5t92 -46.5q58 0 90 47z
M276 733.5q-16 5.5 -37 15.5q-3 1 -20.5 8.5t-30.5 7.5q-14 0 -22 -9t-8 -23h-65q0 48 19 73.5t54 25.5q16 0 32 -5.5t37 -15.5q3 -1 20.5 -8.5t30.5 -7.5q14 0 22 9t8 23h65q0 -48 -19 -73.5t-54 -25.5q-16 0 -32 5.5zM120 604l117 82l117 -82v-61l-117 62l-117 -62v61z
" />
    <glyph glyph-name="uni1ED8" unicode="&#x1ed8;" horiz-adv-x="653" 
d="M173.5 31q-67.5 45 -105.5 127.5t-38 191.5t38 191.5t105.5 127.5t153.5 45t153 -45t105 -127.5t38 -191.5t-38 -191.5t-105 -127.5t-153 -45t-153.5 45zM474.5 153.5q51.5 76.5 51.5 196.5t-51.5 196.5t-147.5 76.5t-148 -76.5t-52 -196.5t52 -196.5t148 -76.5
t147.5 76.5zM220 834l107 91l107 -91v-60l-107 67l-107 -67v60zM283 -81h88v-89h-88v89z" />
    <glyph glyph-name="uni1ED9" unicode="&#x1ed9;" horiz-adv-x="472" 
d="M123 23.5q-48 33.5 -73.5 91.5t-25.5 130t25.5 130t73.5 91.5t114 33.5q65 0 113 -33.5t73 -91.5t25 -130t-25 -130t-73 -91.5t-113 -33.5q-66 0 -114 33.5zM327 114q32 47 32 131t-32 130.5t-90 46.5q-60 0 -92 -46.5t-32 -130.5q0 -85 32 -131.5t92 -46.5q58 0 90 47z
M130 624l107 91l107 -91v-60l-107 67l-107 -67v60zM193 -81h88v-89h-88v89z" />
    <glyph glyph-name="uni1EDA" unicode="&#x1eda;" horiz-adv-x="653" 
d="M589 532.5q34 -79.5 34 -182.5q0 -109 -38 -191.5t-105 -127.5t-153 -45t-153.5 45t-105.5 127.5t-38 191.5t38 191.5t105.5 127.5t153.5 45q46 0 88 -14q61 5 61 74h81q0 -38 -16.5 -68t-46.5 -47q61 -47 95 -126.5zM474.5 153.5q51.5 76.5 51.5 196.5t-51.5 196.5
t-147.5 76.5t-148 -76.5t-52 -196.5t52 -196.5t148 -76.5t147.5 76.5zM254 822l147 81v-93l-147 -46v58z" />
    <glyph glyph-name="uni1EDB" unicode="&#x1edb;" horiz-adv-x="472" 
d="M427.5 363q20.5 -54 20.5 -118q0 -72 -25 -130t-73 -91.5t-113 -33.5q-66 0 -114 33.5t-73.5 91.5t-25.5 130t25.5 130t73.5 91.5t114 33.5q30 0 60 -8q50 9 50 72h81q0 -37 -15.5 -65.5t-43.5 -47.5q38 -34 58.5 -88zM327 114q32 47 32 131t-32 130.5t-90 46.5
q-60 0 -92 -46.5t-32 -130.5q0 -85 32 -131.5t92 -46.5q58 0 90 47zM164 645l147 94v-98l-147 -57v61z" />
    <glyph glyph-name="uni1EDC" unicode="&#x1edc;" horiz-adv-x="653" 
d="M589 532.5q34 -79.5 34 -182.5q0 -109 -38 -191.5t-105 -127.5t-153 -45t-153.5 45t-105.5 127.5t-38 191.5t38 191.5t105.5 127.5t153.5 45q46 0 88 -14q61 5 61 74h81q0 -38 -16.5 -68t-46.5 -47q61 -47 95 -126.5zM474.5 153.5q51.5 76.5 51.5 196.5t-51.5 196.5
t-147.5 76.5t-148 -76.5t-52 -196.5t52 -196.5t148 -76.5t147.5 76.5zM253 808v95l147 -81v-58z" />
    <glyph glyph-name="uni1EDD" unicode="&#x1edd;" horiz-adv-x="472" 
d="M427.5 363q20.5 -54 20.5 -118q0 -72 -25 -130t-73 -91.5t-113 -33.5q-66 0 -114 33.5t-73.5 91.5t-25.5 130t25.5 130t73.5 91.5t114 33.5q30 0 60 -8q50 9 50 72h81q0 -37 -15.5 -65.5t-43.5 -47.5q38 -34 58.5 -88zM327 114q32 47 32 131t-32 130.5t-90 46.5
q-60 0 -92 -46.5t-32 -130.5q0 -85 32 -131.5t92 -46.5q58 0 90 47zM163 641v99l147 -93v-63z" />
    <glyph glyph-name="uni1EDE" unicode="&#x1ede;" horiz-adv-x="653" 
d="M589 532.5q34 -79.5 34 -182.5q0 -109 -38 -191.5t-105 -127.5t-153 -45t-153.5 45t-105.5 127.5t-38 191.5t38 191.5t105.5 127.5t153.5 45q46 0 88 -14q61 5 61 74h81q0 -38 -16.5 -68t-46.5 -47q61 -47 95 -126.5zM474.5 153.5q51.5 76.5 51.5 196.5t-51.5 196.5
t-147.5 76.5t-148 -76.5t-52 -196.5t52 -196.5t148 -76.5t147.5 76.5zM317 798q13 8 19 17t6 22q0 16 -9 24t-26 8q-21 0 -49 -14l-17 49q35 15 73 15q37 0 61.5 -20.5t24.5 -54.5q0 -30 -17 -50t-51 -34z" />
    <glyph glyph-name="uni1EDF" unicode="&#x1edf;" horiz-adv-x="472" 
d="M427.5 363q20.5 -54 20.5 -118q0 -72 -25 -130t-73 -91.5t-113 -33.5q-66 0 -114 33.5t-73.5 91.5t-25.5 130t25.5 130t73.5 91.5t114 33.5q30 0 60 -8q50 9 50 72h81q0 -37 -15.5 -65.5t-43.5 -47.5q38 -34 58.5 -88zM327 114q32 47 32 131t-32 130.5t-90 46.5
q-60 0 -92 -46.5t-32 -130.5q0 -85 32 -131.5t92 -46.5q58 0 90 47zM218 558q21 23 28.5 36.5t7.5 29.5t-9 24.5t-24 8.5q-22 0 -53 -17l-17 48q32 17 75 17q37 0 60.5 -21t23.5 -57q0 -30 -13.5 -52t-44.5 -50z" />
    <glyph glyph-name="uni1EE0" unicode="&#x1ee0;" horiz-adv-x="653" 
d="M589 532.5q34 -79.5 34 -182.5q0 -109 -38 -191.5t-105 -127.5t-153 -45t-153.5 45t-105.5 127.5t-38 191.5t38 191.5t105.5 127.5t153.5 45q46 0 88 -14q61 5 61 74h81q0 -38 -16.5 -68t-46.5 -47q61 -47 95 -126.5zM474.5 153.5q51.5 76.5 51.5 196.5t-51.5 196.5
t-147.5 76.5t-148 -76.5t-52 -196.5t52 -196.5t148 -76.5t147.5 76.5zM366 793.5q-16 5.5 -37 15.5q-3 1 -20.5 8.5t-30.5 7.5q-14 0 -22 -8.5t-8 -23.5h-65q0 48 19 74t54 26q16 0 32 -5.5t37 -15.5q3 -1 20.5 -8.5t30.5 -7.5q14 0 22 8.5t8 23.5h65q0 -48 -19 -74t-54 -26
q-16 0 -32 5.5z" />
    <glyph glyph-name="uni1EE1" unicode="&#x1ee1;" horiz-adv-x="472" 
d="M427.5 363q20.5 -54 20.5 -118q0 -72 -25 -130t-73 -91.5t-113 -33.5q-66 0 -114 33.5t-73.5 91.5t-25.5 130t25.5 130t73.5 91.5t114 33.5q30 0 60 -8q50 9 50 72h81q0 -37 -15.5 -65.5t-43.5 -47.5q38 -34 58.5 -88zM327 114q32 47 32 131t-32 130.5t-90 46.5
q-60 0 -92 -46.5t-32 -130.5q0 -85 32 -131.5t92 -46.5q58 0 90 47zM272 587q-15 7 -36 20q-27 20 -46 20q-13 0 -20 -10.5t-7 -28.5h-72q5 111 76 111q20 0 35 -7t36 -20q27 -20 46 -20q13 0 20 10.5t7 28.5h72q-5 -111 -76 -111q-20 0 -35 7z" />
    <glyph glyph-name="uni1EE2" unicode="&#x1ee2;" horiz-adv-x="653" 
d="M589 532.5q34 -79.5 34 -182.5q0 -109 -38 -191.5t-105 -127.5t-153 -45t-153.5 45t-105.5 127.5t-38 191.5t38 191.5t105.5 127.5t153.5 45q46 0 88 -14q61 5 61 74h81q0 -38 -16.5 -68t-46.5 -47q61 -47 95 -126.5zM474.5 153.5q51.5 76.5 51.5 196.5t-51.5 196.5
t-147.5 76.5t-148 -76.5t-52 -196.5t52 -196.5t148 -76.5t147.5 76.5zM283 -81h88v-89h-88v89z" />
    <glyph glyph-name="uni1EE3" unicode="&#x1ee3;" horiz-adv-x="472" 
d="M427.5 363q20.5 -54 20.5 -118q0 -72 -25 -130t-73 -91.5t-113 -33.5q-66 0 -114 33.5t-73.5 91.5t-25.5 130t25.5 130t73.5 91.5t114 33.5q30 0 60 -8q50 9 50 72h81q0 -37 -15.5 -65.5t-43.5 -47.5q38 -34 58.5 -88zM327 114q32 47 32 131t-32 130.5t-90 46.5
q-60 0 -92 -46.5t-32 -130.5q0 -85 32 -131.5t92 -46.5q58 0 90 47zM193 -81h88v-89h-88v89z" />
    <glyph glyph-name="uni1EE4" unicode="&#x1ee4;" horiz-adv-x="617" 
d="M120 62q-61 76 -61 215v423h91v-397q0 -73 11.5 -123t46.5 -80.5t100 -30.5q66 0 101 30.5t46.5 80.5t11.5 123v397h91v-423q0 -140 -61 -215.5t-189 -75.5q-127 0 -188 76zM265 -81h88v-89h-88v89z" />
    <glyph glyph-name="uni1EE5" unicode="&#x1ee5;" horiz-adv-x="475" 
d="M407 490v-490h-74l-6 60q-20 -33 -54 -51.5t-75 -18.5q-77 0 -114.5 51.5t-37.5 147.5v301h87v-290q0 -66 19.5 -98.5t65.5 -32.5q32 0 58 18t44 50v353h87zM165 -81h88v-89h-88v89z" />
    <glyph glyph-name="uni1EE6" unicode="&#x1ee6;" horiz-adv-x="617" 
d="M120 62q-61 76 -61 215v423h91v-397q0 -73 11.5 -123t46.5 -80.5t100 -30.5q66 0 101 30.5t46.5 80.5t11.5 123v397h91v-423q0 -140 -61 -215.5t-189 -75.5q-127 0 -188 76zM299 798q13 8 19 17t6 22q0 16 -9 24t-26 8q-21 0 -49 -14l-17 49q35 15 73 15q37 0 61.5 -20.5
t24.5 -54.5q0 -30 -17 -50t-51 -34z" />
    <glyph glyph-name="uni1EE7" unicode="&#x1ee7;" horiz-adv-x="475" 
d="M407 490v-490h-74l-6 60q-20 -33 -54 -51.5t-75 -18.5q-77 0 -114.5 51.5t-37.5 147.5v301h87v-290q0 -66 19.5 -98.5t65.5 -32.5q32 0 58 18t44 50v353h87zM205 558q21 23 28.5 36.5t7.5 29.5t-9 24.5t-24 8.5q-22 0 -53 -17l-17 48q32 17 75 17q37 0 60.5 -21t23.5 -57
q0 -30 -13.5 -52t-44.5 -50z" />
    <glyph glyph-name="uni1EE8" unicode="&#x1ee8;" horiz-adv-x="617" 
d="M622.5 695q-23.5 -33 -64.5 -48v-370q0 -140 -61 -215.5t-189 -75.5q-127 0 -188 76t-61 215v423h91v-397q0 -73 11.5 -123t46.5 -80.5t100 -30.5q66 0 101 30.5t46.5 80.5t11.5 123v397h28q70 0 70 74h81q0 -46 -23.5 -79zM236 822l147 81v-93l-147 -46v58z" />
    <glyph glyph-name="uni1EE9" unicode="&#x1ee9;" horiz-adv-x="475" 
d="M472 485q-24 -33 -65 -48v-437h-74l-6 60q-20 -33 -54 -51.5t-75 -18.5q-77 0 -114.5 51.5t-37.5 147.5v301h87v-290q0 -66 19.5 -98.5t65.5 -32.5q32 0 58 18t44 50v353h25q70 0 70 74h81q0 -46 -24 -79zM151 645l147 94v-98l-147 -57v61z" />
    <glyph glyph-name="uni1EEA" unicode="&#x1eea;" horiz-adv-x="617" 
d="M622.5 695q-23.5 -33 -64.5 -48v-370q0 -140 -61 -215.5t-189 -75.5q-127 0 -188 76t-61 215v423h91v-397q0 -73 11.5 -123t46.5 -80.5t100 -30.5q66 0 101 30.5t46.5 80.5t11.5 123v397h28q70 0 70 74h81q0 -46 -23.5 -79zM235 808v95l147 -81v-58z" />
    <glyph glyph-name="uni1EEB" unicode="&#x1eeb;" horiz-adv-x="475" 
d="M472 485q-24 -33 -65 -48v-437h-74l-6 60q-20 -33 -54 -51.5t-75 -18.5q-77 0 -114.5 51.5t-37.5 147.5v301h87v-290q0 -66 19.5 -98.5t65.5 -32.5q32 0 58 18t44 50v353h25q70 0 70 74h81q0 -46 -24 -79zM150 641v99l147 -93v-63z" />
    <glyph glyph-name="uni1EEC" unicode="&#x1eec;" horiz-adv-x="617" 
d="M622.5 695q-23.5 -33 -64.5 -48v-370q0 -140 -61 -215.5t-189 -75.5q-127 0 -188 76t-61 215v423h91v-397q0 -73 11.5 -123t46.5 -80.5t100 -30.5q66 0 101 30.5t46.5 80.5t11.5 123v397h28q70 0 70 74h81q0 -46 -23.5 -79zM299 798q13 8 19 17t6 22q0 16 -9 24t-26 8
q-21 0 -49 -14l-17 49q35 15 73 15q37 0 61.5 -20.5t24.5 -54.5q0 -30 -17 -50t-51 -34z" />
    <glyph glyph-name="uni1EED" unicode="&#x1eed;" horiz-adv-x="475" 
d="M472 485q-24 -33 -65 -48v-437h-74l-6 60q-20 -33 -54 -51.5t-75 -18.5q-77 0 -114.5 51.5t-37.5 147.5v301h87v-290q0 -66 19.5 -98.5t65.5 -32.5q32 0 58 18t44 50v353h25q70 0 70 74h81q0 -46 -24 -79zM205 558q21 23 28.5 36.5t7.5 29.5t-9 24.5t-24 8.5
q-22 0 -53 -17l-17 48q32 17 75 17q37 0 60.5 -21t23.5 -57q0 -30 -13.5 -52t-44.5 -50z" />
    <glyph glyph-name="uni1EEE" unicode="&#x1eee;" horiz-adv-x="617" 
d="M622.5 695q-23.5 -33 -64.5 -48v-370q0 -140 -61 -215.5t-189 -75.5q-127 0 -188 76t-61 215v423h91v-397q0 -73 11.5 -123t46.5 -80.5t100 -30.5q66 0 101 30.5t46.5 80.5t11.5 123v397h28q70 0 70 74h81q0 -46 -23.5 -79zM348 793.5q-16 5.5 -37 15.5q-3 1 -20.5 8.5
t-30.5 7.5q-14 0 -22 -8.5t-8 -23.5h-65q0 48 19 74t54 26q16 0 32 -5.5t37 -15.5q3 -1 20.5 -8.5t30.5 -7.5q14 0 22 8.5t8 23.5h65q0 -48 -19 -74t-54 -26q-16 0 -32 5.5z" />
    <glyph glyph-name="uni1EEF" unicode="&#x1eef;" horiz-adv-x="475" 
d="M472 485q-24 -33 -65 -48v-437h-74l-6 60q-20 -33 -54 -51.5t-75 -18.5q-77 0 -114.5 51.5t-37.5 147.5v301h87v-290q0 -66 19.5 -98.5t65.5 -32.5q32 0 58 18t44 50v353h25q70 0 70 74h81q0 -46 -24 -79zM259 587q-15 7 -36 20q-27 20 -46 20q-13 0 -20 -10.5t-7 -28.5
h-72q5 111 76 111q20 0 35 -7t36 -20q27 -20 46 -20q13 0 20 10.5t7 28.5h72q-5 -111 -76 -111q-20 0 -35 7z" />
    <glyph glyph-name="uni1EF0" unicode="&#x1ef0;" horiz-adv-x="617" 
d="M622.5 695q-23.5 -33 -64.5 -48v-370q0 -140 -61 -215.5t-189 -75.5q-127 0 -188 76t-61 215v423h91v-397q0 -73 11.5 -123t46.5 -80.5t100 -30.5q66 0 101 30.5t46.5 80.5t11.5 123v397h28q70 0 70 74h81q0 -46 -23.5 -79zM265 -81h88v-89h-88v89z" />
    <glyph glyph-name="uni1EF1" unicode="&#x1ef1;" horiz-adv-x="475" 
d="M472 485q-24 -33 -65 -48v-437h-74l-6 60q-20 -33 -54 -51.5t-75 -18.5q-77 0 -114.5 51.5t-37.5 147.5v301h87v-290q0 -66 19.5 -98.5t65.5 -32.5q32 0 58 18t44 50v353h25q70 0 70 74h81q0 -46 -24 -79zM165 -81h88v-89h-88v89z" />
    <glyph glyph-name="Ygrave" unicode="&#x1ef2;" horiz-adv-x="517" 
d="M504 700l-206 -397v-303h-91v303l-208 397h101l152 -301l151 301h101zM178 808v95l147 -81v-58z" />
    <glyph glyph-name="ygrave" unicode="&#x1ef3;" horiz-adv-x="445" 
d="M183 22l-179 468h93l131 -365l120 365h93l-263 -732h-93zM148 641v99l147 -93v-63z" />
    <glyph glyph-name="uni1EF4" unicode="&#x1ef4;" horiz-adv-x="517" 
d="M504 700l-206 -397v-303h-91v303l-208 397h101l152 -301l151 301h101zM209 -81h88v-89h-88v89z" />
    <glyph glyph-name="uni1EF5" unicode="&#x1ef5;" horiz-adv-x="445" 
d="M183 22l-179 468h93l131 -365l120 365h93l-263 -732h-93zM280 -81h88v-89h-88v89z" />
    <glyph glyph-name="uni1EF6" unicode="&#x1ef6;" horiz-adv-x="517" 
d="M504 700l-206 -397v-303h-91v303l-208 397h101l152 -301l151 301h101zM242 798q13 8 19 17t6 22q0 16 -9 24t-26 8q-21 0 -49 -14l-17 49q35 15 73 15q37 0 61.5 -20.5t24.5 -54.5q0 -30 -17 -50t-51 -34z" />
    <glyph glyph-name="uni1EF7" unicode="&#x1ef7;" horiz-adv-x="445" 
d="M183 22l-179 468h93l131 -365l120 365h93l-263 -732h-93zM203 558q21 23 28.5 36.5t7.5 29.5t-9 24.5t-24 8.5q-22 0 -53 -17l-17 48q32 17 75 17q37 0 60.5 -21t23.5 -57q0 -30 -13.5 -52t-44.5 -50z" />
    <glyph glyph-name="uni1EF8" unicode="&#x1ef8;" horiz-adv-x="517" 
d="M504 700l-206 -397v-303h-91v303l-208 397h101l152 -301l151 301h101zM291 793.5q-16 5.5 -37 15.5q-3 1 -20.5 8.5t-30.5 7.5q-14 0 -22 -8.5t-8 -23.5h-65q0 48 19 74t54 26q16 0 32 -5.5t37 -15.5q3 -1 20.5 -8.5t30.5 -7.5q14 0 22 8.5t8 23.5h65q0 -48 -19 -74
t-54 -26q-16 0 -32 5.5z" />
    <glyph glyph-name="uni1EF9" unicode="&#x1ef9;" horiz-adv-x="445" 
d="M183 22l-179 468h93l131 -365l120 365h93l-263 -732h-93zM257 587q-15 7 -36 20q-27 20 -46 20q-13 0 -20 -10.5t-7 -28.5h-72q5 111 76 111q20 0 35 -7t36 -20q27 -20 46 -20q13 0 20 10.5t7 28.5h72q-5 -111 -76 -111q-20 0 -35 7z" />
    <glyph glyph-name="uni2007" unicode="&#x2007;" horiz-adv-x="606" 
 />
    <glyph glyph-name="uni2008" unicode="&#x2008;" horiz-adv-x="180" 
 />
    <glyph glyph-name="uni2009" unicode="&#x2009;" horiz-adv-x="200" 
 />
    <glyph glyph-name="uni200A" unicode="&#x200a;" horiz-adv-x="100" 
 />
    <glyph glyph-name="uni200B" unicode="&#x200b;" 
 />
    <glyph glyph-name="uni2010" unicode="&#x2010;" horiz-adv-x="351" 
d="M42 354h267v-86h-267v86z" />
    <glyph glyph-name="figuredash" unicode="&#x2012;" horiz-adv-x="606" 
d="M0 354h606v-86h-606v86z" />
    <glyph glyph-name="endash" unicode="&#x2013;" horiz-adv-x="471" 
d="M0 354h471v-86h-471v86z" />
    <glyph glyph-name="emdash" unicode="&#x2014;" horiz-adv-x="625" 
d="M0 354h625v-86h-625v86z" />
    <glyph glyph-name="uni2015" unicode="&#x2015;" horiz-adv-x="625" 
d="M0 354h625v-86h-625v86z" />
    <glyph glyph-name="quoteleft" unicode="&#x2018;" horiz-adv-x="177" 
d="M150 700l-36 -107h33v-105h-100v95l52 117h51z" />
    <glyph glyph-name="quoteright" unicode="&#x2019;" horiz-adv-x="170" 
d="M27 488l36 107h-33v105h100v-95l-52 -117h-51z" />
    <glyph glyph-name="quotesinglbase" unicode="&#x201a;" horiz-adv-x="170" 
d="M27 -107l36 107h-33v105h100v-95l-52 -117h-51z" />
    <glyph glyph-name="quotedblleft" unicode="&#x201c;" horiz-adv-x="320" 
d="M150 700l-36 -107h33v-105h-100v95l52 117h51zM293 700l-36 -107h33v-105h-100v95l52 117h51z" />
    <glyph glyph-name="quotedblright" unicode="&#x201d;" horiz-adv-x="313" 
d="M27 488l36 107h-33v105h100v-95l-52 -117h-51zM171 488l36 107h-33v105h100v-95l-52 -117h-51z" />
    <glyph glyph-name="quotedblbase" unicode="&#x201e;" horiz-adv-x="313" 
d="M27 -107l36 107h-33v105h100v-95l-52 -117h-51zM171 -107l36 107h-33v105h100v-95l-52 -117h-51z" />
    <glyph glyph-name="dagger" unicode="&#x2020;" horiz-adv-x="366" 
d="M126 252l32 152l-127 -30v83l126 -31l-27 181h107l-28 -181l126 31v-83l-127 30l32 -152l-26 -252h-61z" />
    <glyph glyph-name="daggerdbl" unicode="&#x2021;" horiz-adv-x="386" 
d="M167 119l-126 -30v82l128 -30l-33 133l33 134l-128 -30v82l126 -30l-27 177h107l-28 -177l126 30v-82l-128 30l33 -134l-33 -133l128 30v-82l-126 30l28 -178h-107z" />
    <glyph glyph-name="bullet" unicode="&#x2022;" horiz-adv-x="286" 
d="M72 200.5q-28 31.5 -28 77.5t28 77.5t71 31.5t71 -31.5t28 -77.5t-28 -77.5t-71 -31.5t-71 31.5z" />
    <glyph glyph-name="ellipsis" unicode="&#x2026;" horiz-adv-x="545" 
d="M40 105h99v-105h-99v105zM223 105h99v-105h-99v105zM406 105h99v-105h-99v105z" />
    <glyph glyph-name="perthousand" unicode="&#x2030;" horiz-adv-x="1097" 
d="M68 370q-38 56 -38 147t37.5 144t108.5 53q70 0 107.5 -53t37.5 -144q0 -92 -37.5 -147.5t-107.5 -55.5t-108 56zM244 517q0 127 -68 127q-69 0 -69 -127q0 -66 16.5 -99.5t52.5 -33.5q68 0 68 133zM512 700h80l-345 -700h-81zM477 42q-38 56 -38 147t37.5 144t108.5 53
q70 0 107.5 -53t37.5 -144q0 -92 -37.5 -147.5t-107.5 -55.5t-108 56zM653 189q0 127 -68 127q-69 0 -69 -127q0 -66 16.5 -99.5t52.5 -33.5q68 0 68 133zM814 42q-38 56 -38 147t37.5 144t108.5 53q70 0 107.5 -53t37.5 -144q0 -92 -37.5 -147.5t-107.5 -55.5t-108 56z
M990 189q0 127 -68 127q-69 0 -69 -127q0 -66 16.5 -99.5t52.5 -33.5q68 0 68 133z" />
    <glyph glyph-name="minute" unicode="&#x2032;" horiz-adv-x="178" 
d="M34 700h88l-28 -187h-60v187z" />
    <glyph glyph-name="second" unicode="&#x2033;" horiz-adv-x="309" 
d="M165 700h88l-28 -187h-60v187zM34 700h88l-28 -187h-60v187z" />
    <glyph glyph-name="guilsinglleft" unicode="&#x2039;" horiz-adv-x="299" 
d="M9 284l134 206h107l-135 -206l135 -206h-107z" />
    <glyph glyph-name="guilsinglright" unicode="&#x203a;" horiz-adv-x="299" 
d="M183 284l-134 206h106l135 -206l-135 -206h-106z" />
    <glyph glyph-name="fraction" unicode="&#x2044;" horiz-adv-x="56" 
d="M161 700h80l-345 -700h-81z" />
    <glyph glyph-name="uni2070" unicode="&#x2070;" horiz-adv-x="343" 
d="M64 428q-38 56 -38 147t37.5 144t108.5 53q70 0 107.5 -53t37.5 -144q0 -92 -37.5 -147.5t-107.5 -55.5t-108 56zM240 575q0 127 -68 127q-69 0 -69 -127q0 -66 16.5 -99.5t52.5 -33.5q68 0 68 133z" />
    <glyph glyph-name="uni2074" unicode="&#x2074;" horiz-adv-x="291" 
d="M255 519v-54h-36v-79h-69v79h-158l168 293h59v-239h36zM150 567l4 75l-40 -76l-28 -47h64v48z" />
    <glyph glyph-name="uni2075" unicode="&#x2075;" horiz-adv-x="289" 
d="M224.5 589.5q31.5 -33.5 31.5 -88.5q0 -61 -37 -95t-96 -34q-44 0 -87 16l19 67q32 -19 63 -19q28 0 45 16.5t17 44.5q0 30 -17 47t-48 17q-29 0 -58 -12l23 209h163l-5 -65h-104l-7 -70h9q57 0 88.5 -33.5z" />
    <glyph glyph-name="uni2076" unicode="&#x2076;" horiz-adv-x="298" 
d="M243.5 580.5q27.5 -34.5 27.5 -86.5q0 -54 -31 -88t-81 -34q-56 0 -88.5 38t-32.5 102q0 82 45.5 151t114.5 109l44 -48q-38 -20 -70.5 -52t-50.5 -70q24 13 52 13q43 0 70.5 -34.5zM189 453q12 16 12 41t-12 40.5t-33 15.5t-33.5 -15.5t-12.5 -40.5t12.5 -41t33.5 -16
t33 16z" />
    <glyph glyph-name="uni2077" unicode="&#x2077;" horiz-adv-x="274" 
d="M255 764l-130 -378h-69l104 313h-132v65h227z" />
    <glyph glyph-name="uni2078" unicode="&#x2078;" horiz-adv-x="265" 
d="M235.5 548.5q13.5 -26.5 13.5 -60.5q0 -52 -31.5 -84t-84.5 -32q-54 0 -85.5 32t-31.5 84q0 34 13.5 60.5t37.5 41.5q-33 28 -33 79q0 43 26.5 73t74.5 30q46 0 71 -30t25 -73q0 -51 -33 -79q24 -15 37.5 -41.5zM110.5 697q-7.5 -12 -7.5 -32q0 -19 8 -31.5t22 -12.5
t21.5 12.5t7.5 31.5q0 20 -7.5 32t-21.5 12q-15 0 -22.5 -12zM165.5 451.5q11.5 16.5 11.5 44.5q0 27 -11.5 43.5t-32.5 16.5t-33 -16.5t-12 -43.5q0 -28 12 -44.5t33 -16.5t32.5 16.5z" />
    <glyph glyph-name="uni2079" unicode="&#x2079;" horiz-adv-x="298" 
d="M228 734q32 -38 32 -102q0 -82 -45 -151t-114 -109l-45 48q39 20 71.5 52t50.5 71q-23 -14 -52 -14q-43 0 -71 34.5t-28 86.5q0 53 31.5 87.5t81.5 34.5q56 0 88 -38zM176 609.5q12 15.5 12 40.5t-12 41t-33 16t-33 -16t-12 -41t12 -40.5t33 -15.5t33 15.5z" />
    <glyph glyph-name="uni2080" unicode="&#x2080;" horiz-adv-x="343" 
d="M64 -16q-38 56 -38 147t37.5 144t108.5 53q70 0 107.5 -53t37.5 -144q0 -92 -37.5 -147.5t-107.5 -55.5t-108 56zM240 131q0 127 -68 127q-69 0 -69 -127q0 -66 16.5 -99.5t52.5 -33.5q68 0 68 133z" />
    <glyph glyph-name="uni2081" unicode="&#x2081;" horiz-adv-x="206" 
d="M74 221q-17 -23 -39 -31l-7 66q19 8 37 24.5t29 33.5h51v-372h-71v279z" />
    <glyph glyph-name="uni2082" unicode="&#x2082;" horiz-adv-x="264" 
d="M236 7v-65h-203l87 158q18 33 25.5 56t7.5 46q0 26 -13 41.5t-38 15.5q-30 0 -63 -26l-7 71q16 10 39 17t46 7q51 0 81.5 -32.5t30.5 -83.5q0 -34 -11 -65.5t-42 -85.5l-31 -54h91z" />
    <glyph glyph-name="uni2083" unicode="&#x2083;" horiz-adv-x="310" 
d="M240.5 101.5q17.5 -24.5 17.5 -59.5q0 -52 -36 -83t-91 -31q-48 0 -95 19l19 67q35 -22 69 -22q28 0 43.5 13.5t15.5 40.5q0 56 -71 56h-11v63h12q28 0 44.5 13.5t16.5 36.5t-13 36t-37 13q-30 0 -59 -18l-7 68q34 14 78 14q51 0 80.5 -27t29.5 -72q0 -63 -55 -92
q32 -11 49.5 -35.5z" />
    <glyph glyph-name="uni2084" unicode="&#x2084;" horiz-adv-x="291" 
d="M255 75v-54h-36v-79h-69v79h-158l168 293h59v-239h36zM150 123l4 75l-40 -76l-28 -47h64v48z" />
    <glyph glyph-name="uni2085" unicode="&#x2085;" horiz-adv-x="289" 
d="M224.5 145.5q31.5 -33.5 31.5 -88.5q0 -61 -37 -95t-96 -34q-44 0 -87 16l19 67q32 -19 63 -19q28 0 45 16.5t17 44.5q0 30 -17 47t-48 17q-29 0 -58 -12l23 209h163l-5 -65h-104l-7 -70h9q57 0 88.5 -33.5z" />
    <glyph glyph-name="uni2086" unicode="&#x2086;" horiz-adv-x="298" 
d="M243.5 136.5q27.5 -34.5 27.5 -86.5q0 -54 -31 -88t-81 -34q-56 0 -88.5 38t-32.5 102q0 82 45.5 151t114.5 109l44 -48q-38 -20 -70.5 -52t-50.5 -70q24 13 52 13q43 0 70.5 -34.5zM189 9q12 16 12 41t-12 40.5t-33 15.5t-33.5 -15.5t-12.5 -40.5t12.5 -41t33.5 -16
t33 16z" />
    <glyph glyph-name="uni2087" unicode="&#x2087;" horiz-adv-x="274" 
d="M255 320l-130 -378h-69l104 313h-132v65h227z" />
    <glyph glyph-name="uni2088" unicode="&#x2088;" horiz-adv-x="265" 
d="M235.5 104.5q13.5 -26.5 13.5 -60.5q0 -52 -31.5 -84t-84.5 -32q-54 0 -85.5 32t-31.5 84q0 34 13.5 60.5t37.5 41.5q-33 28 -33 79q0 43 26.5 73t74.5 30q46 0 71 -30t25 -73q0 -51 -33 -79q24 -15 37.5 -41.5zM110.5 253q-7.5 -12 -7.5 -32q0 -19 8 -31.5t22 -12.5
t21.5 12.5t7.5 31.5q0 20 -7.5 32t-21.5 12q-15 0 -22.5 -12zM165.5 7.5q11.5 16.5 11.5 44.5q0 27 -11.5 43.5t-32.5 16.5t-33 -16.5t-12 -43.5q0 -28 12 -44.5t33 -16.5t32.5 16.5z" />
    <glyph glyph-name="uni2089" unicode="&#x2089;" horiz-adv-x="298" 
d="M228 290q32 -38 32 -102q0 -82 -45 -151t-114 -109l-45 48q39 20 71.5 52t50.5 71q-23 -14 -52 -14q-43 0 -71 34.5t-28 86.5q0 53 31.5 87.5t81.5 34.5q56 0 88 -38zM176 165.5q12 15.5 12 40.5t-12 41t-33 16t-33 -16t-12 -41t12 -40.5t33 -15.5t33 15.5z" />
    <glyph glyph-name="colonmonetary" unicode="&#x20a1;" horiz-adv-x="524" 
d="M498 14q-46 -20 -97 -25l-8 -103h-66l8 100q-41 1 -79 12l-8 -112h-66l10 138q-77 42 -119.5 126.5t-42.5 199.5q0 131 57.5 222.5t155.5 125.5l9 116h66l-8 -102q24 2 36 2q17 0 43 -2l8 102h66l-9 -115q22 -5 44 -15l-10 -85q-15 8 -40 17l-41 -544q44 8 81 27zM341 70
l42 560q-6 1 -19 1q-35 0 -60 -7l-41 -533q35 -16 78 -21zM149 231q18 -55 52 -93l34 455q-51 -36 -77.5 -99.5t-26.5 -143.5q0 -64 18 -119z" />
    <glyph glyph-name="franc" unicode="&#x20a3;" horiz-adv-x="471" 
d="M178 617v-208h214v-84h-214v-113h162v-74h-162v-138h-91v138h-67v74h67v488h369v-83h-278z" />
    <glyph glyph-name="lira" unicode="&#x20a4;" horiz-adv-x="448" 
d="M428 83v-83h-388q27 67 43 121t26 116h-55v71h64l1 10l7 71h-72v71h80l4 41q9 102 53 157.5t125 55.5q53 0 107 -27l-10 -98q-25 21 -46.5 31.5t-46.5 10.5q-79 0 -92 -122l-5 -49h147v-71h-154l-7 -63l-2 -18h163v-71h-172q-13 -88 -40 -154h270z" />
    <glyph glyph-name="uni20A6" unicode="&#x20a6;" horiz-adv-x="655" 
d="M629 336h-66v-336h-84l-184 336h-112v-336h-91v336h-66v74h66v290h104l156 -290h120v290h91v-290h66v-74zM255 410l-72 131v-131h72zM472 336h-80l80 -148v148z" />
    <glyph glyph-name="peseta" unicode="&#x20a7;" horiz-adv-x="1120" 
d="M74 700h180q110 0 171.5 -58t61.5 -169t-61.5 -169.5t-171.5 -58.5h-88v-245h-92v700zM607.5 24q-27.5 34 -27.5 83v314h-68l8 69h60v121l87 9v-130h106v-69h-106v-279q0 -45 16.5 -63t57.5 -18h31l-8 -71h-72q-57 0 -84.5 34zM246 329q146 0 146 144t-146 144h-80v-288
h80zM794 30l11 88q64 -50 132 -50q36 0 56 15t20 44q0 22 -9.5 36.5t-31.5 27t-68 33.5q-54 25 -78.5 57t-24.5 83q0 60 42 98t112 38q72 0 126 -32l-11 -81q-27 18 -51 26.5t-57 8.5q-35 0 -54.5 -15t-19.5 -42t17.5 -41t68.5 -37q71 -32 99.5 -64.5t28.5 -85.5
q0 -69 -42.5 -108t-116.5 -39q-87 0 -149 40z" />
    <glyph glyph-name="uni20A9" unicode="&#x20a9;" horiz-adv-x="831" 
d="M750 406h55v-74h-73l-82 -332h-103l-80 332h-105l-78 -332h-103l-82 332h-74v74h56l-73 294h98l65 -294h127l66 280h103l66 -280h127l65 294h97zM450 406l-36 148l-35 -148h71zM280 332h-93l45 -204zM643 332h-93l48 -204z" />
    <glyph glyph-name="dong" unicode="&#x20ab;" horiz-adv-x="503" 
d="M501 587h-64v-587h-77l-7 45q-23 -27 -55 -41t-70 -14q-57 0 -102 33.5t-71 91.5t-26 129q0 69 24.5 127.5t70 93.5t104.5 35q73 0 122 -51v138h-140v70h140v93h87v-93h64v-70zM325 110.5q33 43.5 33 133.5q0 87 -33 132.5t-88 45.5q-34 0 -61 -23t-42.5 -63.5
t-15.5 -91.5q0 -48 15.5 -88.5t43 -64.5t60.5 -24q55 0 88 43.5zM79 -58h358v-73h-358v73z" />
    <glyph glyph-name="Euro" unicode="&#x20ac;" horiz-adv-x="560" 
d="M526 99l10 -85q-64 -28 -147 -28q-118 0 -198.5 64.5t-108.5 179.5h-90v74h78q-2 30 -2 46q0 27 3 52h-79v74h92q31 111 111 174.5t190 63.5q79 0 151 -30l-10 -85q-62 32 -123 32q-79 0 -133.5 -41.5t-80.5 -113.5h232v-74h-249q-3 -25 -3 -52q0 -16 2 -46h250v-74h-234
q25 -74 80.5 -117.5t136.5 -43.5q65 0 122 30z" />
    <glyph glyph-name="uni20AD" unicode="&#x20ad;" horiz-adv-x="600" 
d="M322 333l205 -333h-101l-202 333h-28v-333h-92v333h-66v72h66v295h92v-295h28l202 295h101l-204 -295h166v-72h-167z" />
    <glyph glyph-name="uni20B1" unicode="&#x20b1;" horiz-adv-x="559" 
d="M549 481h-62q1 -11 1 -33q0 -23 -1 -34h62v-70h-75q-23 -73 -79 -111t-139 -38h-89v-195h-91v344h-66v70h66v67h-66v70h66v149h180q84 0 140 -37.5t78 -111.5h75v-70zM167 551h205q-35 66 -124 66h-81v-66zM391 481h-224v-67h224q2 22 2 34q0 13 -2 33zM372 344h-205v-66
h81q89 0 124 66z" />
    <glyph glyph-name="uni20B2" unicode="&#x20b2;" horiz-adv-x="571" 
d="M531 32q-29 -18 -68 -30t-80 -15l7 -131h-77l7 132q-90 8 -155.5 56t-100 127.5t-34.5 178.5q0 102 37 181.5t103 126t151 54.5l-8 132h77l-8 -131q69 -4 129 -29l-10 -85q-33 16 -65.5 24t-71.5 8q-74 0 -126.5 -37t-79.5 -101t-27 -143q0 -126 59 -203.5t173 -77.5
q44 0 77 14v185h-89v83h180v-319z" />
    <glyph glyph-name="uni20B5" unicode="&#x20b5;" horiz-adv-x="524" 
d="M498 14q-55 -24 -125 -27l7 -131h-77l7 132q-86 9 -149 55.5t-97 125t-34 181.5q0 102 35.5 181t99.5 126t146 55l-8 132h77l-8 -131q68 -4 126 -29l-10 -85q-64 32 -124 32q-74 0 -126.5 -37t-79.5 -101t-27 -143t27 -143t79.5 -101t127.5 -37q65 0 123 30z" />
    <glyph glyph-name="uni20B9" unicode="&#x20b9;" horiz-adv-x="451" 
d="M336 0l-145 249q-23 -4 -53 -4h-106v75h92q63 0 100.5 28.5t45.5 85.5h-238v75h238q-9 57 -46.5 86.5t-99.5 29.5h-92v75h398v-75h-117q45 -47 54 -116h63v-75h-62q-12 -110 -96 -157l163 -277h-99z" />
    <glyph glyph-name="uni20BA" unicode="&#x20ba;" horiz-adv-x="495" 
d="M467 345v-28q0 -159 -75 -238t-208 -79h-98v319l-66 -23v79l66 23v71l-66 -23v79l66 23v152h91v-120l240 85v-79l-240 -85v-71l240 85v-79l-240 -85v-268h14q91 0 138 58.5t47 175.5v28h91z" />
    <glyph glyph-name="uni20BC" unicode="&#x20bc;" horiz-adv-x="596" 
d="M508.5 489.5q51.5 -77.5 51.5 -206.5v-283h-92v267q0 90 -24 150.5t-88 76.5v-494h-92v494q-65 -16 -89 -76t-24 -151v-267h-91v283q0 129 51.5 206.5t152.5 91.5v119h92v-119q101 -14 152.5 -91.5z" />
    <glyph glyph-name="uni20BD" unicode="&#x20bd;" horiz-adv-x="506" 
d="M167 246v-64h172v-74h-172v-108h-91v108h-66v74h66v64h-66v83h66v371h180q110 0 171 -57.5t61 -168.5t-61 -169.5t-171 -58.5h-89zM167 329h81q74 0 109.5 37.5t35.5 107.5q0 143 -145 143h-81v-288z" />
    <glyph glyph-name="uni2113" unicode="&#x2113;" horiz-adv-x="497" 
d="M423 168q-4 -86 -38 -131t-113 -45q-69 0 -104 47.5t-35 130.5v102q-40 -14 -93 -27v64q62 19 93 31v217q0 81 34.5 123.5t102.5 42.5q64 0 97.5 -41t33.5 -119q0 -88 -46 -149.5t-133 -104.5v-137q0 -61 16 -88.5t48 -27.5t47 28.5t17 83.5h73zM222 381q49 30 73 73.5
t24 111.5q0 47 -12.5 71.5t-36.5 24.5q-48 0 -48 -92v-189z" />
    <glyph glyph-name="uni2116" unicode="&#x2116;" horiz-adv-x="1042" 
d="M701 265.5q-46 31.5 -70.5 86t-24.5 122.5t24.5 122.5t70.5 86t108 31.5t108 -31.5t70.5 -86.5t24.5 -122t-24.5 -122t-70.5 -86.5t-108 -31.5t-108 31.5zM66 700h103l277 -512v512h91v-700h-85l-295 541v-541h-91v700zM891 355q29 42 29 119t-29 119t-82 42t-82 -42
t-29 -119t29 -119t82 -42t82 42zM684 159h250v-79h-250v79z" />
    <glyph glyph-name="trademark" unicode="&#x2122;" horiz-adv-x="639" 
d="M33 700h231l-7 -49h-84v-314h-54v314h-86v49zM530 337l-24 255l-75 -159h-7l-75 158l-25 -254h-55l41 363h33l85 -180l84 180h33l42 -363h-57z" />
    <glyph glyph-name="uni2126" unicode="&#x2126;" horiz-adv-x="704" 
d="M54 85h159q-65 48 -104 126t-39 180q0 95 34 168t97.5 114t150.5 41t150.5 -41t97.5 -114t34 -168q0 -103 -38.5 -180t-104.5 -126h159v-85h-267v91q78 53 116 122.5t38 175.5q0 109 -49.5 171.5t-135.5 62.5q-85 0 -135 -64t-50 -171q0 -103 40 -172.5t113 -124.5v-91
h-266v85z" />
    <glyph glyph-name="estimated" unicode="&#x212e;" horiz-adv-x="600" 
d="M169 21q-59 38 -89 101t-30 137q0 91 37.5 153.5t97 92.5t124.5 30q74 0 132.5 -34t92.5 -96.5t34 -145.5h-404v-174q23 -25 62.5 -42.5t82.5 -17.5q69 0 113 28t80 86l35 -20q-42 -66 -92.5 -101t-135.5 -35q-81 0 -140 38zM455 436q-22 23 -61 40.5t-86 17.5
q-85 0 -144 -57v-136h291v135z" />
    <glyph glyph-name="partialdiff" unicode="&#x2202;" horiz-adv-x="508" 
d="M418 653q44 -71 44 -199q0 -121 -28.5 -226.5t-87.5 -171.5t-147 -66q-83 0 -125 53.5t-42 143.5q0 77 26 149t77.5 118t123.5 46q64 0 112 -36v1q0 180 -104 180q-50 0 -104 -31v83q26 13 56.5 20t59.5 7q95 0 139 -71zM280 110q34 41 56.5 111t30.5 156q-38 43 -93 43
q-48 0 -82 -34t-51.5 -86.5t-17.5 -104.5q0 -63 19.5 -94.5t61.5 -31.5t76 41z" />
    <glyph glyph-name="emptyset" unicode="&#x2205;" horiz-adv-x="480" 
d="M398 427q25 -30 38.5 -67.5t13.5 -77.5q0 -60 -28 -110.5t-76.5 -80t-105.5 -29.5q-62 0 -113 35l-51 -62l-46 38l52 64q-25 29 -38.5 66.5t-13.5 78.5q0 60 28.5 110.5t76.5 80t105 29.5q62 0 113 -35l51 62l46 -38zM134 200l170 207q-28 18 -64 18q-55 0 -91.5 -41
t-36.5 -102q0 -46 22 -82zM346 365l-170 -207q28 -18 64 -18q55 0 92 40.5t37 101.5q0 48 -23 83z" />
    <glyph glyph-name="uni2206" unicode="&#x2206;" horiz-adv-x="584" 
d="M556 42v-42h-527v43l213 657h100zM138 84h308l-154 487z" />
    <glyph glyph-name="product" unicode="&#x220f;" horiz-adv-x="576" 
d="M90 611h-80v89h556v-89h-80v-811h-91v811h-214v-811h-91v811z" />
    <glyph glyph-name="summation" unicode="&#x2211;" horiz-adv-x="513" 
d="M505 -113v-87h-489v39l245 408l-245 408v45h479v-87h-349l224 -363l-222 -363h357z" />
    <glyph glyph-name="minus" unicode="&#x2212;" horiz-adv-x="387" 
d="M35 319h317v-76h-317v76z" />
    <glyph glyph-name="uni2215" unicode="&#x2215;" horiz-adv-x="308" 
d="M248 700h91l-259 -785h-90z" />
    <glyph glyph-name="uni2219" unicode="&#x2219;" horiz-adv-x="221" 
d="M57 343h107v-130h-107v130z" />
    <glyph glyph-name="radical" unicode="&#x221a;" horiz-adv-x="660" 
d="M648 611h-124l-229 -811h-95l-112 411h-76v89h142l94 -363l213 763h187v-89z" />
    <glyph glyph-name="infinity" unicode="&#x221e;" horiz-adv-x="669" 
d="M549.5 505q37.5 -23 59 -63t21.5 -90t-21.5 -90t-59 -63t-83.5 -23q-41 0 -75.5 19.5t-55.5 53.5q-22 -34 -56.5 -53.5t-75.5 -19.5q-46 0 -83.5 23t-59 63t-21.5 90t21.5 90t59 63t83.5 23q41 0 75.5 -19.5t56.5 -53.5q21 34 55.5 53.5t75.5 19.5q46 0 83.5 -23z
M266 287q22 25 22 65t-22 65t-56 25t-56 -25t-22 -65t22 -65t56 -25t56 25zM515 287q22 25 22 65t-22 65t-56 25t-56 -25t-22 -65t22 -65t56 -25t56 25z" />
    <glyph glyph-name="integral" unicode="&#x222b;" horiz-adv-x="399" 
d="M8 -200l7 82q23 -7 45 -7q80 0 83 91l24 595q2 73 41 113t104 40q43 0 79 -14l-7 -82q-23 7 -45 7q-79 0 -82 -91l-24 -595q-3 -73 -42 -113t-104 -40q-43 0 -79 14z" />
    <glyph glyph-name="approxequal" unicode="&#x2248;" horiz-adv-x="401" 
d="M236.5 306q-17.5 6 -37.5 18q-22 11 -34 15.5t-27 4.5t-23.5 -11.5t-8.5 -31.5h-71q2 59 25 90.5t65 31.5q23 0 41 -6.5t40 -18.5q18 -9 31 -14t27 -5q15 0 23.5 11.5t8.5 31.5h70q-2 -59 -25 -90.5t-65 -31.5q-22 0 -39.5 6zM236.5 152q-17.5 6 -37.5 18
q-22 11 -34 15.5t-27 4.5t-23.5 -11.5t-8.5 -31.5h-71q2 59 25 90.5t65 31.5q23 0 41 -6.5t40 -18.5q18 -9 31 -14t27 -5q15 0 23.5 11.5t8.5 31.5h70q-2 -59 -25 -90.5t-65 -31.5q-22 0 -39.5 6z" />
    <glyph glyph-name="notequal" unicode="&#x2260;" horiz-adv-x="387" 
d="M254 318l-44 -82h142v-76h-184l-33 -60h-76l33 60h-57v76h99l44 82h-143v76h185l33 60h76l-33 -60h56v-76h-98z" />
    <glyph glyph-name="lessequal" unicode="&#x2264;" horiz-adv-x="355" 
d="M30 301v85l305 134v-80l-231 -96l231 -97v-79zM30 130h305v-70h-305v70z" />
    <glyph glyph-name="greaterequal" unicode="&#x2265;" horiz-adv-x="355" 
d="M20 247l231 97l-231 96v80l305 -134v-85l-305 -133v79zM20 60v70h305v-70h-305z" />
    <glyph glyph-name="lozenge" unicode="&#x25ca;" horiz-adv-x="487" 
d="M477 350l-204 -350h-59l-204 350l204 350h59zM373 350l-129 223l-130 -223l130 -223z" />
    <glyph glyph-name="NULL" 
 />
    <glyph glyph-name="Iacute_J.loclNLD" horiz-adv-x="600" 
d="M59 700h91v-377h-91v377zM188 117q32 -48 110 -48q62 0 94.5 30.5t43.5 80.5t11 123v397h91v-423q0 -140 -59 -215.5t-181 -75.5q-114 0 -172.5 67t-65.5 191l91 10q5 -89 37 -137zM47 822l147 81v-93l-147 -46v58zM412 822l147 81v-93l-147 -46v58z" />
    <glyph glyph-name="i.loclTRK" horiz-adv-x="206" 
d="M58 490h90v-490h-90v490zM59 680h88v-89h-88v89z" />
    <glyph glyph-name="iacute_j.loclNLD" horiz-adv-x="417" 
d="M40 637l127 100v-98l-127 -63v61zM251 637l127 100v-98l-127 -63v61zM54 490h90v-490h-90v490zM208 -174q27 3 39 11.5t16 28t4 61.5v563h87v-597q0 -65 -29 -93.5t-77 -36.5l-31 -5z" />
    <glyph glyph-name="zero.dnom" horiz-adv-x="343" 
d="M64 42q-38 56 -38 147t37.5 144t108.5 53q70 0 107.5 -53t37.5 -144q0 -92 -37.5 -147.5t-107.5 -55.5t-108 56zM240 189q0 127 -68 127q-69 0 -69 -127q0 -66 16.5 -99.5t52.5 -33.5q68 0 68 133z" />
    <glyph glyph-name="one.dnom" horiz-adv-x="206" 
d="M74 279q-17 -23 -39 -31l-7 66q19 8 37 24.5t29 33.5h51v-372h-71v279z" />
    <glyph glyph-name="two.dnom" horiz-adv-x="264" 
d="M236 65v-65h-203l87 158q18 33 25.5 56t7.5 46q0 26 -13 41.5t-38 15.5q-30 0 -63 -26l-7 71q16 10 39 17t46 7q51 0 81.5 -32.5t30.5 -83.5q0 -34 -11 -65.5t-42 -85.5l-31 -54h91z" />
    <glyph glyph-name="three.dnom" horiz-adv-x="310" 
d="M240.5 159.5q17.5 -24.5 17.5 -59.5q0 -52 -36 -83t-91 -31q-48 0 -95 19l19 67q35 -22 69 -22q28 0 43.5 13.5t15.5 40.5q0 56 -71 56h-11v63h12q28 0 44.5 13.5t16.5 36.5t-13 36t-37 13q-30 0 -59 -18l-7 68q34 14 78 14q51 0 80.5 -27t29.5 -72q0 -63 -55 -92
q32 -11 49.5 -35.5z" />
    <glyph glyph-name="four.dnom" horiz-adv-x="291" 
d="M255 133v-54h-36v-79h-69v79h-158l168 293h59v-239h36zM150 181l4 75l-40 -76l-28 -47h64v48z" />
    <glyph glyph-name="five.dnom" horiz-adv-x="289" 
d="M224.5 203.5q31.5 -33.5 31.5 -88.5q0 -61 -37 -95t-96 -34q-44 0 -87 16l19 67q32 -19 63 -19q28 0 45 16.5t17 44.5q0 30 -17 47t-48 17q-29 0 -58 -12l23 209h163l-5 -65h-104l-7 -70h9q57 0 88.5 -33.5z" />
    <glyph glyph-name="six.dnom" horiz-adv-x="298" 
d="M243.5 194.5q27.5 -34.5 27.5 -86.5q0 -54 -31 -88t-81 -34q-56 0 -88.5 38t-32.5 102q0 82 45.5 151t114.5 109l44 -48q-38 -20 -70.5 -52t-50.5 -70q24 13 52 13q43 0 70.5 -34.5zM189 67q12 16 12 41t-12 40.5t-33 15.5t-33.5 -15.5t-12.5 -40.5t12.5 -41t33.5 -16
t33 16z" />
    <glyph glyph-name="seven.dnom" horiz-adv-x="274" 
d="M255 378l-130 -378h-69l104 313h-132v65h227z" />
    <glyph glyph-name="eight.dnom" horiz-adv-x="265" 
d="M235.5 162.5q13.5 -26.5 13.5 -60.5q0 -52 -31.5 -84t-84.5 -32q-54 0 -85.5 32t-31.5 84q0 34 13.5 60.5t37.5 41.5q-33 28 -33 79q0 43 26.5 73t74.5 30q46 0 71 -30t25 -73q0 -51 -33 -79q24 -15 37.5 -41.5zM110.5 311q-7.5 -12 -7.5 -32q0 -19 8 -31.5t22 -12.5
t21.5 12.5t7.5 31.5q0 20 -7.5 32t-21.5 12q-15 0 -22.5 -12zM165.5 65.5q11.5 16.5 11.5 44.5q0 27 -11.5 43.5t-32.5 16.5t-33 -16.5t-12 -43.5q0 -28 12 -44.5t33 -16.5t32.5 16.5z" />
    <glyph glyph-name="nine.dnom" horiz-adv-x="298" 
d="M228 348q32 -38 32 -102q0 -82 -45 -151t-114 -109l-45 48q39 20 71.5 52t50.5 71q-23 -14 -52 -14q-43 0 -71 34.5t-28 86.5q0 53 31.5 87.5t81.5 34.5q56 0 88 -38zM176 223.5q12 15.5 12 40.5t-12 41t-33 16t-33 -16t-12 -41t12 -40.5t33 -15.5t33 15.5z" />
    <glyph glyph-name="zero.numr" horiz-adv-x="343" 
d="M64 370q-38 56 -38 147t37.5 144t108.5 53q70 0 107.5 -53t37.5 -144q0 -92 -37.5 -147.5t-107.5 -55.5t-108 56zM240 517q0 127 -68 127q-69 0 -69 -127q0 -66 16.5 -99.5t52.5 -33.5q68 0 68 133z" />
    <glyph glyph-name="one.numr" horiz-adv-x="206" 
d="M74 607q-17 -23 -39 -31l-7 66q19 8 37 24.5t29 33.5h51v-372h-71v279z" />
    <glyph glyph-name="two.numr" horiz-adv-x="264" 
d="M236 393v-65h-203l87 158q18 33 25.5 56t7.5 46q0 26 -13 41.5t-38 15.5q-30 0 -63 -26l-7 71q16 10 39 17t46 7q51 0 81.5 -32.5t30.5 -83.5q0 -34 -11 -65.5t-42 -85.5l-31 -54h91z" />
    <glyph glyph-name="three.numr" horiz-adv-x="310" 
d="M240.5 487.5q17.5 -24.5 17.5 -59.5q0 -52 -36 -83t-91 -31q-48 0 -95 19l19 67q35 -22 69 -22q28 0 43.5 13.5t15.5 40.5q0 56 -71 56h-11v63h12q28 0 44.5 13.5t16.5 36.5t-13 36t-37 13q-30 0 -59 -18l-7 68q34 14 78 14q51 0 80.5 -27t29.5 -72q0 -63 -55 -92
q32 -11 49.5 -35.5z" />
    <glyph glyph-name="four.numr" horiz-adv-x="291" 
d="M255 461v-54h-36v-79h-69v79h-158l168 293h59v-239h36zM150 509l4 75l-40 -76l-28 -47h64v48z" />
    <glyph glyph-name="five.numr" horiz-adv-x="289" 
d="M224.5 531.5q31.5 -33.5 31.5 -88.5q0 -61 -37 -95t-96 -34q-44 0 -87 16l19 67q32 -19 63 -19q28 0 45 16.5t17 44.5q0 30 -17 47t-48 17q-29 0 -58 -12l23 209h163l-5 -65h-104l-7 -70h9q57 0 88.5 -33.5z" />
    <glyph glyph-name="six.numr" horiz-adv-x="298" 
d="M243.5 522.5q27.5 -34.5 27.5 -86.5q0 -54 -31 -88t-81 -34q-56 0 -88.5 38t-32.5 102q0 82 45.5 151t114.5 109l44 -48q-38 -20 -70.5 -52t-50.5 -70q24 13 52 13q43 0 70.5 -34.5zM189 395q12 16 12 41t-12 40.5t-33 15.5t-33.5 -15.5t-12.5 -40.5t12.5 -41t33.5 -16
t33 16z" />
    <glyph glyph-name="seven.numr" horiz-adv-x="274" 
d="M255 700l-130 -378h-69l104 313h-132v65h227z" />
    <glyph glyph-name="eight.numr" horiz-adv-x="265" 
d="M235.5 490.5q13.5 -26.5 13.5 -60.5q0 -52 -31.5 -84t-84.5 -32q-54 0 -85.5 32t-31.5 84q0 34 13.5 60.5t37.5 41.5q-33 28 -33 79q0 43 26.5 73t74.5 30q46 0 71 -30t25 -73q0 -51 -33 -79q24 -15 37.5 -41.5zM110.5 639q-7.5 -12 -7.5 -32q0 -19 8 -31.5t22 -12.5
t21.5 12.5t7.5 31.5q0 20 -7.5 32t-21.5 12q-15 0 -22.5 -12zM165.5 393.5q11.5 16.5 11.5 44.5q0 27 -11.5 43.5t-32.5 16.5t-33 -16.5t-12 -43.5q0 -28 12 -44.5t33 -16.5t32.5 16.5z" />
    <glyph glyph-name="nine.numr" horiz-adv-x="298" 
d="M228 676q32 -38 32 -102q0 -82 -45 -151t-114 -109l-45 48q39 20 71.5 52t50.5 71q-23 -14 -52 -14q-43 0 -71 34.5t-28 86.5q0 53 31.5 87.5t81.5 34.5q56 0 88 -38zM176 551.5q12 15.5 12 40.5t-12 41t-33 16t-33 -16t-12 -41t12 -40.5t33 -15.5t33 15.5z" />
    <glyph glyph-name="periodcentered.loclCAT.case" horiz-adv-x="230" 
d="M65 329h101v-102h-101v102z" />
    <glyph glyph-name="periodcentered.loclCAT" horiz-adv-x="230" 
d="M70 323h90v-90h-90v90z" />
    <glyph glyph-name="at.ss01" horiz-adv-x="1004" 
d="M287.5 -161.5q-95.5 57.5 -151.5 157t-56 219.5q0 139 60 249.5t165.5 172.5t236.5 62q111 0 198 -49.5t135.5 -134.5t48.5 -186q0 -90 -30 -169.5t-85.5 -128.5t-128.5 -49q-83 0 -112 75q-24 -33 -56.5 -50t-67.5 -17q-46 0 -80.5 27t-53.5 75t-19 107q0 81 28 150
t77 110t109 41q39 0 67 -18.5t40 -49.5l19 58h79l-59 -348q-4 -21 -4 -39q0 -42 48 -42q40 0 73 35t52 95.5t19 133.5q0 90 -36 157.5t-105 104.5t-165 37q-103 0 -187 -50.5t-132.5 -142.5t-48.5 -209q0 -105 43.5 -188t120 -130t173.5 -47q76 0 150 23l-2 -78
q-69 -21 -154 -21q-113 0 -208.5 57.5zM524.5 93.5q29.5 24.5 48 71.5t18.5 111q0 72 -23 108t-60 36q-35 0 -63.5 -29t-44.5 -78t-16 -107q0 -61 19.5 -99t59.5 -38q32 0 61.5 24.5z" />
    <glyph glyph-name="caroncomb.alt" 
d="M0 695h92l-28 -167h-64v167z" />
    <glyph glyph-name="uni0308.case" 
d="M-119 659h84v-75h-84v75zM35 659h84v-75h-84v75z" />
    <glyph glyph-name="uni0307.case" 
d="M-46 670h92v-89h-92v89z" />
    <glyph glyph-name="gravecomb.case" 
d="M-74 598v95l147 -81v-58z" />
    <glyph glyph-name="acutecomb.case" 
d="M-73 612l147 81v-93l-147 -46v58z" />
    <glyph glyph-name="uni030B.case" 
d="M-45 724h94l-88 -146h-62zM96 724h94l-93 -146h-62z" />
    <glyph glyph-name="uni0302.case" 
d="M-117 606l117 83l117 -83v-61l-117 62l-117 -62v61z" />
    <glyph glyph-name="uni030C.case" 
d="M0 655l117 62v-61l-117 -83l-117 83v61z" />
    <glyph glyph-name="uni0306.case" 
d="M-101 587.5q-35 33.5 -35 80.5h80q0 -26 15.5 -39.5t40.5 -13.5t40.5 13.5t15.5 39.5h80q0 -47 -35 -80.5t-101 -33.5t-101 33.5z" />
    <glyph glyph-name="uni030A.case" 
d="M-69.5 574.5q-24.5 28.5 -24.5 69.5q0 40 25 69t69 29t69 -29t25 -69q0 -41 -24.5 -69.5t-69.5 -28.5t-69.5 28.5zM32 604.5q12 14.5 12 39.5q0 24 -12 39t-32 15t-32 -15t-12 -39q0 -25 12 -39.5t32 -14.5t32 14.5z" />
    <glyph glyph-name="tildecomb.case" 
d="M39 583.5q-16 5.5 -37 15.5q-3 1 -20.5 8.5t-30.5 7.5q-14 0 -22 -8.5t-8 -23.5h-65q0 48 19 74t54 26q16 0 32 -5.5t37 -15.5q3 -1 20.5 -8.5t30.5 -7.5q14 0 22 8.5t8 23.5h65q0 -48 -19 -74t-54 -26q-16 0 -32 5.5z" />
    <glyph glyph-name="uni0304.case" 
d="M-150 649h300v-66h-300v66z" />
    </font>
</defs>
</svg>
