<?xml version="1.0" standalone="no"?>
<!DOCTYPE svg PUBLIC "-//W3C//DTD SVG 1.1//EN" "http://www.w3.org/Graphics/SVG/1.1/DTD/svg11.dtd" >
<svg xmlns="http://www.w3.org/2000/svg" xmlns:xlink="http://www.w3.org/1999/xlink" version="1.1">
<metadata>
Created by FontForge 20170731 at Fri Feb 19 09:52:39 2016
 By Aleksey,,,
Copyright 2015 The Arima Project Authors (info@ndiscovered.com)
</metadata>
<defs>
<font id="ArimaMadurai-Black" horiz-adv-x="0" >
  <font-face 
    font-family="Arima Madurai Black"
    font-weight="900"
    font-stretch="normal"
    units-per-em="1000"
    panose-1="0 0 10 0 0 0 0 0 0 0"
    ascent="800"
    descent="-200"
    x-height="526"
    cap-height="710"
    bbox="-487 -427 2668 1073"
    underline-thickness="50"
    underline-position="-150"
    unicode-range="U+0020-FB02"
  />
<missing-glyph horiz-adv-x="600" 
d="M492 -400h-380v1200h380v-1200zM202 720v-40h78v-44h-80v-40h200v40h-80v44h80v40h-198zM200 565v-125h200v41h-80v84h-120zM280 481h-40v43h40v-43zM200 408v-40h80v-44h-80v-40h120v84h80v40h-200zM360 336v-80h-160v-40h200v120h-40zM280 189v-67h40v28h40v-57h-120
v96h-40v-135h200v135h-120zM200 -18v-136h200v136h-200zM360 -114h-120v56h120v-56zM200 -182v-39h84l-84 -57v-39h200v39h-123l84 57h39v39h-200z" />
    <glyph glyph-name="fi" unicode="fi" horiz-adv-x="588" 
d="M230 515q16 0 49 1.5t39 2.5l-1 -31q-1 -15 -10.5 -23.5t-23.5 -8.5h-72v-315q0 -76 19 -126q-33 -29 -74 -29q-32 0 -53 18t-21 49v403h-9q-40 0 -60 -3l1 31q1 15 10.5 23t23.5 8h34v11q0 217 233 217q96 0 149.5 -24t53.5 -67q0 -28 -23.5 -46.5t-57.5 -18.5
q-41 0 -58 20q18 18 18 50q0 22 -24 33.5t-59 11.5q-49 0 -71 -23.5t-27 -60t-5 -103.5h19zM526 74q4 -31 15 -59q-32 -29 -75 -29q-31 0 -51.5 18t-20.5 49v322q0 76 -19 127q12 10 30.5 19t41.5 9q33 0 53.5 -17.5t20.5 -49.5l1 -322q0 -36 4 -67z" />
    <glyph glyph-name="fl" unicode="fl" horiz-adv-x="630" 
d="M615 59q0 -30 -26 -49.5t-63 -19.5q-57 0 -88 36.5t-31 101.5v461q0 60 -25 86.5t-74 26.5q-47 0 -68 -24t-25 -59t-4 -104h19q14 0 43.5 1.5t36.5 2.5l-1 -31q-1 -15 -10.5 -23.5t-23.5 -8.5h-64v-315q0 -76 19 -126q-33 -29 -74 -29q-32 0 -53 18t-21 49v403h-9
q-40 0 -60 -3l1 31q1 15 10.5 23t23.5 8h34v20q0 208 225 208q111 0 170 -39t59 -109v-456q0 -53 35 -53q9 0 17.5 3.5t12.5 10.5q14 -18 14 -41z" />
    <glyph glyph-name=".notdef" horiz-adv-x="600" 
d="M492 -400h-380v1200h380v-1200zM202 720v-40h78v-44h-80v-40h200v40h-80v44h80v40h-198zM200 565v-125h200v41h-80v84h-120zM280 481h-40v43h40v-43zM200 408v-40h80v-44h-80v-40h120v84h80v40h-200zM360 336v-80h-160v-40h200v120h-40zM280 189v-67h40v28h40v-57h-120
v96h-40v-135h200v135h-120zM200 -18v-136h200v136h-200zM360 -114h-120v56h120v-56zM200 -182v-39h84l-84 -57v-39h200v39h-123l84 57h39v39h-200z" />
    <glyph glyph-name=".null" 
 />
    <glyph glyph-name="nonmarkingreturn" horiz-adv-x="333" 
 />
    <glyph glyph-name="space" unicode=" " horiz-adv-x="214" 
 />
    <glyph glyph-name="exclam" unicode="!" horiz-adv-x="327" 
d="M123 199h88l28 519q-37 12 -77 12q-37 0 -74 -12zM110 7.5q-22 21.5 -22 52.5t21.5 52.5t53.5 21.5q31 0 52 -21.5t21 -52.5t-21 -52.5t-52 -21.5t-53 21.5z" />
    <glyph glyph-name="quotedbl" unicode="&#x22;" horiz-adv-x="350" 
d="M223 538h54l34 187q-21 8 -56 8q-36 0 -60 -8zM68 538h54l34 187q-21 8 -56 8q-36 0 -60 -8z" />
    <glyph glyph-name="numbersign" unicode="#" horiz-adv-x="619" 
d="M463 406l-22 -126h152l-11 -74h-155l-37 -206h-86l37 206h-114l-37 -206h-86l37 206h-142l11 74h145l22 126h-146l11 74h149l39 217h86l-39 -217h114l39 217h86l-39 -217h148l-11 -74h-151zM377 406h-114l-22 -126h114z" />
    <glyph glyph-name="dollar" unicode="$" horiz-adv-x="566" 
d="M476 50q-56 -54 -164 -63q0 -53 6 -74q-10 -8 -24 -8q-22 0 -22 22v58q-116 0 -176 39.5t-60 102.5q0 32 19 52.5t62 20.5q18 0 29 -2q-3 -13 -3 -27q0 -10 2 -24q6 -44 38 -75.5t89 -37.5l-1 256l-6 3q-73 42 -115 73.5t-65.5 72t-23.5 95.5q0 84 58 127t151 49
q-2 45 -6 64q12 8 23 8q23 0 23 -22v-49q91 -2 145 -32t54 -85q0 -27 -15.5 -43.5t-51.5 -17.5q-4 -1 -14 -1q-9 0 -23 2q2 33 -8 58q-7 28 -28.5 47t-58.5 25l1 -235l27 -15q60 -33 100 -62.5t67 -71.5t27 -98q0 -78 -56 -132zM202.5 514q19.5 -28 68.5 -60l-1 212
q-36 -4 -61.5 -24t-25.5 -62q0 -38 19.5 -66zM379.5 66q25.5 26 25.5 71q0 40 -22.5 69t-71.5 60l1 -232q42 6 67.5 32z" />
    <glyph glyph-name="percent" unicode="%" horiz-adv-x="1096" 
d="M688 712q43 0 61 -28l-329 -698q-5 -1 -16 -1q-34 0 -58 23l327 703q5 1 15 1zM92.5 364.5q-49.5 50.5 -49.5 149.5q0 98 50 147.5t147 49.5q98 0 147.5 -49.5t49.5 -147.5q0 -99 -49.5 -149.5t-147.5 -50.5t-147.5 50.5zM300.5 389.5q18.5 38.5 18.5 124.5
q0 84 -18.5 122t-59.5 38q-42 0 -60.5 -37.5t-18.5 -122.5q0 -86 18.5 -124.5t60.5 -38.5q41 0 59.5 38.5zM709 40.5q-50 50.5 -50 148.5t50 148t148 50t147.5 -50t49.5 -148t-49.5 -148.5t-147.5 -50.5t-148 50.5zM917 65q18 38 18 124q0 85 -18 123t-59 38
q-42 0 -60.5 -38t-18.5 -123q0 -86 18.5 -124t60.5 -38q41 0 59 38z" />
    <glyph glyph-name="ampersand" unicode="&#x26;" horiz-adv-x="903" 
d="M864 660.5q21 -16.5 21 -46.5q0 -35 -31 -77q-38 -53 -99 -109q12 -49 12 -101q0 -100 -46 -178t-127.5 -121t-185.5 -43q-106 0 -186.5 38.5t-124 108.5t-43.5 160q0 66 30.5 121.5t88 88t136.5 32.5q87 0 133.5 -38.5t46.5 -101.5q0 -77 -75 -146q45 34 107.5 91
t123.5 121q-39 79 -114.5 124.5t-170.5 42.5q0 41 22 64t76 23q82 0 148.5 -49t108.5 -129q68 77 108 141q20 0 41 -16.5zM675 363q-90 -67 -193 -120t-195 -81l-10 40q51 44 78 86.5t27 92.5q0 44 -18.5 70.5t-54.5 26.5q-47 0 -78.5 -46.5t-31.5 -129.5q0 -72 26 -131.5
t76 -94t119 -34.5q68 0 127.5 34t95 97t35.5 144q0 24 -3 46z" />
    <glyph glyph-name="quotesingle" unicode="'" horiz-adv-x="196" 
d="M68 538h54l34 187q-21 8 -56 8q-36 0 -60 -8z" />
    <glyph glyph-name="parenleft" unicode="(" horiz-adv-x="449" 
d="M257.5 -122.5q-62.5 50.5 -107.5 154t-45 253.5q0 151 45.5 255t108 155t110.5 51q21 0 31 -9t10 -16q-91 -79 -130 -182.5t-39 -252.5q2 -146 42.5 -253.5t126.5 -179.5q0 -9 -9.5 -17.5t-31.5 -8.5q-49 0 -111.5 50.5z" />
    <glyph glyph-name="parenright" unicode=")" horiz-adv-x="449" 
d="M48.5 -164.5q-9.5 8.5 -9.5 17.5q87 73 128 182.5t41 256.5q0 146 -39 248t-130 181q0 7 10 16t31 9q48 0 110.5 -51t108 -155t45.5 -255q0 -150 -45 -253.5t-107.5 -154t-111.5 -50.5q-22 0 -31.5 8.5z" />
    <glyph glyph-name="asterisk" unicode="*" horiz-adv-x="500" 
d="M331 482q-11 -20 -17 -42q42 -15 68 -44t26 -59q0 -24 -16.5 -39t-40.5 -15q-39 0 -62.5 36.5t-23.5 81.5v8q-5 1 -16 1q-9 0 -14 -1q-1 -50 -29.5 -89.5t-72.5 -39.5q-23 0 -39.5 12.5t-16.5 37.5q0 37 31.5 68.5t80.5 45.5q-4 17 -13 39q-33 -10 -60 -10
q-39 0 -66 17.5t-27 49.5q0 24 16 40.5t47 16.5t59.5 -17.5t49.5 -47.5q19 12 30 23q-19 22 -30 47.5t-11 49.5q0 30 16.5 46.5t49.5 16.5q65 0 65 -63q0 -48 -35 -94q14 -12 34 -26q22 29 49 46.5t54 17.5q26 0 40.5 -14.5t14.5 -41.5q0 -33 -23 -50.5t-61 -17.5
q-25 0 -57 10zM235 653q0 -32 21 -64q21 31 21 60q0 13 -6 20t-16 7q-20 0 -20 -23zM156 516q-14 19 -30.5 29.5t-32.5 10.5q-9 0 -14 -4.5t-5 -12.5q0 -14 12.5 -21.5t32.5 -7.5q19 0 37 6zM352 515q18 -6 37 -6q45 0 45 28q0 8 -5.5 12.5t-14.5 4.5q-30 0 -62 -39z
M293 499q-22 12 -41 29q-15 -14 -38 -28q11 -24 17 -49q5 1 16 1q9 0 25 -2q8 27 21 49zM175.5 342.5q13.5 25.5 15.5 57.5q-29 -11 -47 -29t-18 -37q0 -7 5 -12t12 -5q19 0 32.5 25.5zM352.5 371q-17.5 17 -44.5 28q1 -28 11.5 -53t31.5 -25q8 0 13.5 5t5.5 12
q0 16 -17.5 33z" />
    <glyph glyph-name="plus" unicode="+" horiz-adv-x="550" 
d="M481 347q0 -18 -7 -35h-165v-165q-16 -6 -34 -6q-17 0 -35 6v165h-164q-7 21 -7 35q0 15 7 34h164v165q17 7 35 7q19 0 34 -7v-165h165q7 -15 7 -34z" />
    <glyph glyph-name="comma" unicode="," horiz-adv-x="311" 
d="M109 -85q36 43 36 77q0 33 -18 46t-47 22q0 30 21.5 52t54.5 22q32 0 53.5 -22t21.5 -69q0 -79 -80 -151q-23 3 -42 23z" />
    <glyph glyph-name="hyphen" unicode="-" horiz-adv-x="399" 
d="M361 296v-75h-324v75h324z" />
    <glyph glyph-name="period" unicode="." horiz-adv-x="308" 
d="M102 7.5q-22 21.5 -22 52.5t21.5 52.5t53.5 21.5q31 0 52 -21.5t21 -52.5t-21 -52.5t-52 -21.5t-53 21.5z" />
    <glyph glyph-name="slash" unicode="/" horiz-adv-x="496" 
d="M2 -142l325 875h130l-326 -875h-129z" />
    <glyph glyph-name="zero" unicode="0" horiz-adv-x="638" 
d="M122.5 77q-66.5 91 -66.5 272q0 180 66.5 271t196.5 91t196.5 -91t66.5 -271q0 -181 -66.5 -272t-196.5 -91t-196.5 91zM408.5 107.5q28.5 75.5 28.5 241.5q0 165 -28.5 241t-89.5 76q-62 0 -90.5 -76t-28.5 -241q0 -166 28.5 -241.5t90.5 -75.5q61 0 89.5 75.5z" />
    <glyph glyph-name="one" unicode="1" horiz-adv-x="456" 
d="M367 15q-10 -11 -29.5 -20t-43.5 -9q-32 0 -52.5 18t-20.5 49v496q0 25 -3 46q-31 -41 -71.5 -78t-63.5 -37q-28 0 -40 16.5t-13.5 30.5t-1.5 34q4 1 65.5 43t87.5 59l43 29q22 13 51 13q32 0 52.5 -18t20.5 -48v-498q0 -76 19 -126z" />
    <glyph glyph-name="two" unicode="2" horiz-adv-x="561" 
d="M42.5 20q-5.5 13 -5.5 28q0 12 3 22q16 18 61 54q76 65 129.5 119.5t96 128.5t42.5 153q0 60 -26 101.5t-78 41.5q-62 0 -86.5 -54.5t-24.5 -125.5q-59 0 -83 25.5t-24 58.5q0 37 28 69t79.5 51t119.5 19q104 0 168.5 -49.5t64.5 -145.5q0 -111 -70 -203t-149.5 -148
t-158.5 -100q79 2 206 25t174 47q12 -9 18 -29t6 -44q0 -27 -8 -45t-23 -19h-445q-9 7 -14.5 20z" />
    <glyph glyph-name="three" unicode="3" horiz-adv-x="564" 
d="M115.5 8.5q-52.5 20.5 -71.5 47.5t-19 51q0 27 20 49t73 22q3 -37 12 -67.5t38 -55.5t85 -25q60 0 96.5 41t36.5 108q0 86 -66 125.5t-166 40.5l1 46q104 5 153.5 52t49.5 111q0 114 -95 114q-61 0 -86 -43t-26 -102q-56 -1 -75.5 18t-19.5 42q0 34 25 63.5t74 47
t118 17.5q90 0 159.5 -37.5t69.5 -127.5q0 -63 -47.5 -110t-123.5 -68q199 -33 199 -177q0 -63 -33.5 -108.5t-94.5 -70t-141 -24.5q-93 0 -145.5 20.5z" />
    <glyph glyph-name="four" unicode="4" horiz-adv-x="619" 
d="M592 221q0 -28 -15 -52h-87v-28q0 -79 19 -126q-11 -11 -30 -20t-43 -9q-32 0 -52.5 18t-20.5 49v116h-295q-18 1 -29 15.5t-11 31.5q0 16 8 25l309 434q8 12 29.5 21.5t41.5 9.5q32 0 52.5 -18.5t20.5 -48.5l1 -396q50 3 94 16q8 -19 8 -38zM363 240l-1 352l-248 -352
h249z" />
    <glyph glyph-name="five" unicode="5" horiz-adv-x="570" 
d="M155 11.5q-50 23.5 -75.5 59t-25.5 70.5q0 33 20.5 52.5t56.5 19.5q9 0 14 -1q0 -64 28.5 -117t92.5 -53q62 0 91.5 45.5t29.5 121.5q0 68 -36.5 113t-104.5 45q-37 0 -71 -5.5t-40 -6.5q-20 -4 -23 -4q-12 0 -19 7t-7 18l12 268q1 23 17 37.5t39 14.5q134 0 202.5 2
t127.5 10q7 -13 7 -32q0 -27 -12.5 -52t-31.5 -33q-173 0 -255 8l-9 -187q69 12 114 12q110 0 172 -55t62 -152q0 -80 -36.5 -131.5t-94 -74.5t-124.5 -23q-71 0 -121 23.5z" />
    <glyph glyph-name="six" unicode="6" horiz-adv-x="592" 
d="M448 407q47 -24 75 -72.5t28 -117.5q0 -104 -63 -166.5t-185 -62.5q-114 0 -180.5 71.5t-66.5 258.5q0 195 69 293.5t219 98.5q65 0 115.5 -21.5t50.5 -62.5q0 -16 -8.5 -31.5t-20 -26t-18.5 -12.5q-32 54 -62.5 77t-63.5 23q-76 0 -105 -75.5t-32 -213.5q54 64 144 64
q57 0 104 -24zM387 86q23 53 23 137q0 74 -21.5 111.5t-71.5 37.5q-39 0 -69.5 -22t-48.5 -66q2 -117 26 -184t84 -67q55 0 78 53z" />
    <glyph glyph-name="seven" unicode="7" horiz-adv-x="512" 
d="M214 -7q-34 0 -67 9q7 83 37.5 203.5t77 230.5t99.5 166q-51 -9 -103 -11.5t-124 -2.5h-83q-9 9 -14.5 30t-5.5 44q0 30 8 43q89 -8 195 -8h237q7 -16 7 -36q0 -34 -19 -57q-52 -72 -93.5 -185.5t-65.5 -228.5t-24 -190q-35 -7 -62 -7z" />
    <glyph glyph-name="eight" unicode="8" horiz-adv-x="622" 
d="M518 285.5q57 -52.5 57 -122.5q0 -44 -26 -84.5t-84.5 -66.5t-151.5 -26q-94 0 -152 26t-82.5 66t-24.5 84q0 43 21.5 82.5t61.5 68t92 37.5q-65 39 -104.5 84.5t-39.5 109.5q0 42 22.5 80t73 62.5t128.5 24.5q77 0 129.5 -23.5t78 -60.5t25.5 -79q0 -38 -20 -74
t-58 -61.5t-88 -32.5q85 -42 142 -94.5zM246 635.5q-26 -30.5 -26 -80.5q0 -62 31.5 -97t86.5 -60q41 27 55 65.5t14 84.5q-1 55 -26.5 86.5t-67.5 31.5q-41 0 -67 -30.5zM401 64q32 34 32 85q0 40 -20.5 71t-54 54.5t-89.5 53.5q-73 -60 -73 -157q0 -73 34.5 -107t85.5 -34
q53 0 85 34z" />
    <glyph glyph-name="nine" unicode="9" horiz-adv-x="604" 
d="M482.5 636q64.5 -75 64.5 -255q0 -199 -68 -297t-218 -98q-75 0 -130.5 23t-55.5 68q0 16 8.5 31.5t19.5 26t18 12.5q38 -58 73.5 -83t73.5 -25q76 0 104 75t31 217q-52 -63 -142 -63q-56 0 -101.5 24.5t-73 73t-27.5 118.5q0 103 61.5 165t181.5 62q116 0 180.5 -75z
M356.5 349.5q30.5 21.5 47.5 65.5q-2 119 -24.5 185t-83.5 66q-55 0 -78 -52.5t-23 -134.5q0 -75 21.5 -113t71.5 -38q38 0 68.5 21.5z" />
    <glyph glyph-name="colon" unicode=":" horiz-adv-x="278" 
d="M87 374.5q-22 21.5 -22 52.5t21.5 52.5t53.5 21.5q31 0 52 -21.5t21 -52.5t-21 -52.5t-52 -21.5t-53 21.5zM87 7.5q-22 21.5 -22 52.5t21.5 52.5t53.5 21.5q31 0 52 -21.5t21 -52.5t-21 -52.5t-52 -21.5t-53 21.5z" />
    <glyph glyph-name="semicolon" unicode=";" horiz-adv-x="280" 
d="M89 374.5q-22 21.5 -22 52.5t21.5 52.5t53.5 21.5q31 0 52 -21.5t21 -52.5t-21 -52.5t-52 -21.5t-53 21.5zM94 -85q36 43 36 77q0 33 -18 46t-47 22q0 30 21.5 52t54.5 22q32 0 53.5 -22t21.5 -69q0 -79 -80 -151q-23 3 -42 23z" />
    <glyph glyph-name="less" unicode="&#x3c;" horiz-adv-x="496" 
d="M41 351q0 5 4 11l358 177q6 3 12 3q11 0 19 -10t8 -29q0 -13 -4 -28l-288 -124l288 -124q5 -14 5 -30q0 -17 -7 -27.5t-19 -10.5q-4 0 -14 4l-358 177q-4 8 -4 11z" />
    <glyph glyph-name="equal" unicode="=" horiz-adv-x="542" 
d="M470 475q7 -15 7 -34q0 -18 -7 -35h-398q-7 21 -7 35q0 15 7 34h398zM470 278q7 -15 7 -34q0 -18 -7 -35h-398q-7 21 -7 35q0 15 7 34h398z" />
    <glyph glyph-name="greater" unicode="&#x3e;" horiz-adv-x="497" 
d="M93 163q-7 -3 -14 -3q-11 0 -18.5 10t-7.5 27q0 12 5 30l288 124l-288 124q-3 15 -3 26q0 19 8 30t19 11q5 0 11 -3l359 -177q4 -4 4 -11q0 -6 -4 -11z" />
    <glyph glyph-name="question" unicode="?" horiz-adv-x="522" 
d="M170 357q79 3 131 49t52 131q0 64 -30.5 106.5t-92.5 42.5q-61 0 -85 -45t-25 -110q-60 0 -83 18.5t-23 48.5q0 38 27.5 68.5t78.5 48.5t120 18q113 0 182 -48.5t69 -153.5q0 -72 -35 -121.5t-87 -74t-104 -27.5v-110h-95v159zM156 7.5q-22 21.5 -22 52.5t21.5 52.5
t53.5 21.5q31 0 52.5 -21.5t21.5 -52.5t-21.5 -52.5t-52.5 -21.5t-53 21.5z" />
    <glyph glyph-name="at" unicode="@" horiz-adv-x="886" 
d="M681.5 604q82.5 -58 119 -144.5t36.5 -175.5q0 -83 -23.5 -139t-63 -82.5t-88.5 -26.5q-40 0 -74.5 25.5t-43.5 62.5q-19 -35 -48 -54.5t-67 -19.5q-94 0 -124.5 57t-30.5 136q0 114 49 178.5t143 64.5q99 0 139.5 -53.5t39.5 -130.5l-1 -109q-1 -42 10.5 -70t37.5 -28
q34 0 55.5 48.5t21.5 144.5q0 75 -29 147t-95.5 120t-171.5 48t-175.5 -47.5t-104 -124.5t-33.5 -169q0 -94 34.5 -164.5t91 -108t122.5 -37.5q17 0 25 1q9 -12 9 -24q0 -18 -18.5 -28t-51.5 -10q-68 0 -145 39.5t-131 122.5t-54 205q0 105 46 197t142.5 149.5t240.5 57.5
q128 0 210.5 -58zM503.5 152q30.5 59 30.5 151q0 68 -19 103t-67 35q-59 0 -90.5 -49.5t-31.5 -147.5q0 -64 19 -107.5t78 -43.5q50 0 80.5 59z" />
    <glyph glyph-name="A" unicode="A" horiz-adv-x="623" 
d="M619 16q-26 -30 -77 -30q-31 0 -52.5 13t-26.5 38l-45 168h-226l-33 -129q-7 -26 -7 -44q0 -21 11 -32q-19 -7 -34.5 -10.5t-37.5 -3.5q-38 0 -55.5 13t-17.5 42q0 24 13 68l197 585q55 18 110 18q60 0 71 -43l178 -591q12 -41 32 -62zM399 276l-96 358l-93 -358h189z
" />
    <glyph glyph-name="B" unicode="B" horiz-adv-x="600" 
d="M512.5 319q43.5 -46 43.5 -122q0 -99 -73.5 -148t-211.5 -49h-111q-33 0 -54 18t-21 49v488q0 76 -19 126q62 30 181 30q135 0 205 -40t70 -128q0 -62 -33.5 -106.5t-93.5 -60.5q74 -11 117.5 -57zM216 665v-272h52q58 -1 86.5 36t28.5 103q0 64 -31 98.5t-103 34.5h-33z
M377.5 86q35.5 40 35.5 109q0 85 -37.5 118.5t-107.5 33.5h-52v-301h50q76 0 111.5 40z" />
    <glyph glyph-name="C" unicode="C" horiz-adv-x="616" 
d="M122.5 81q-73.5 95 -73.5 268t76 267.5t213 94.5q56 0 107 -14t83.5 -41t32.5 -63q0 -31 -28 -53.5t-77 -21.5q-15 148 -116 148q-75 0 -111 -78.5t-36 -238.5t35 -238.5t109 -78.5q54 0 88 40t44 120q14 2 21 2q36 0 62.5 -18t26.5 -49q0 -44 -36 -76t-93.5 -48.5
t-120.5 -16.5q-133 0 -206.5 95z" />
    <glyph glyph-name="D" unicode="D" horiz-adv-x="652" 
d="M100.5 18q-20.5 18 -20.5 48l-1 489v36q0 74 -13 108q63 8 222 8q152 0 233.5 -88.5t81.5 -260.5q0 -358 -308 -358h-139q-35 0 -55.5 18zM288 46q60 0 97.5 30t55.5 96.5t18 176.5q0 162 -41.5 237t-129.5 75h-77v-615h77z" />
    <glyph glyph-name="E" unicode="E" horiz-adv-x="552" 
d="M503.5 92q6.5 -18 6.5 -38q0 -23 -8 -38.5t-24 -15.5h-318q-33 0 -54 18t-21 49v471q0 76 -19 126q24 20 48.5 26.5t70.5 6.5h290q11 0 16 -10t5 -26q0 -23 -10 -47t-25 -31q-118 48 -246 51v-237h217q5 -18 5 -34q0 -19 -5 -37h-216v-263q66 2 146 18.5t123 35.5
q12 -7 18.5 -25z" />
    <glyph glyph-name="F" unicode="F" horiz-adv-x="532" 
d="M491 687q5 -10 5 -26q0 -23 -10 -47t-25 -31q-118 48 -246 51v-239h217q4 -15 4 -33q0 -16 -4 -38h-216v-183q0 -79 19 -126q-11 -11 -30.5 -20t-44.5 -9q-33 0 -54 18t-21 49v485q0 76 -19 126q24 20 48.5 26.5t70.5 6.5h290q11 0 16 -10z" />
    <glyph glyph-name="G" unicode="G" horiz-adv-x="652" 
d="M126.5 80.5q-77.5 94.5 -77.5 268.5q0 173 80 267.5t224 94.5q54 0 104 -14t82 -41t32 -62q0 -32 -28 -54.5t-78 -21.5q-15 148 -110 148q-83 0 -122.5 -78.5t-39.5 -238.5t38.5 -238.5t120.5 -78.5q67 0 93 57t26 133q0 49 -13 84t-48 51q8 19 30 29.5t48 10.5
q52 0 84 -36.5t32 -106.5q0 -86 -34.5 -146.5t-93.5 -91t-131 -30.5q-141 0 -218.5 94.5z" />
    <glyph glyph-name="H" unicode="H" horiz-adv-x="698" 
d="M632 15q-11 -11 -30.5 -20t-44.5 -9q-33 0 -54 18t-21 49v276h-266v-188q0 -79 19 -126q-11 -11 -30.5 -20t-44.5 -9q-33 0 -54 18t-21 49v502q0 76 -19 126q11 11 30.5 20t44.5 9q33 0 54 -18t21 -49v-244h266v156q0 76 -19 126q11 11 30.5 20t44.5 9q32 0 53.5 -18
t21.5 -49v-502q0 -79 19 -126z" />
    <glyph glyph-name="I" unicode="I" horiz-adv-x="301" 
d="M106 4q-21 18 -21 49v502q0 76 -19 126q11 11 30.5 20t44.5 9q33 0 54 -18t21 -49v-502q0 -79 19 -126q-11 -11 -30.5 -20t-44.5 -9q-33 0 -54 18z" />
    <glyph glyph-name="J" unicode="J" horiz-adv-x="493" 
d="M80 19.5q-42 33.5 -42 82.5q0 35 19 60t56 25q39 0 55 -28q-15 -30 -15 -60q0 -28 16.5 -47.5t41.5 -19.5q41 0 55.5 39.5t14.5 109.5v413q0 25 1.5 39.5t6.5 23.5l-83 3q-20 1 -35 -8.5t-15 -31.5q0 -39 32 -59q-19 -15 -53 -15q-32 0 -55.5 21.5t-23.5 59.5
q0 39 29.5 61.5t84.5 22.5q16 0 62 -2q27 -2 84 -4q48 0 102 6q-6 -32 -6 -78v-437q0 -210 -201 -210q-89 0 -131 33.5z" />
    <glyph glyph-name="K" unicode="K" horiz-adv-x="616" 
d="M600 53q0 -31 -24 -51.5t-62 -20.5q-54 0 -83 39t-51 105l-30 90q-15 44 -40.5 72t-76.5 28h-17v-174q0 -79 19 -126q-11 -11 -30.5 -20t-44.5 -9q-33 0 -54 18t-21 49v502q0 76 -19 126q11 11 30.5 20t44.5 9q33 0 53.5 -18t20.5 -49l1 -280l23 6q55 16 93.5 57t58 92
t19.5 96q0 27 -5.5 47.5t-12.5 31.5q29 12 54 12q91 0 91 -99q0 -75 -52.5 -145t-156.5 -110q57 -6 88.5 -29t49.5 -67l45 -106q18 -38 29 -52t27 -15h4q10 0 21 8q8 -22 8 -37z" />
    <glyph glyph-name="L" unicode="L" horiz-adv-x="504" 
d="M216 70q65 1 135.5 17t111.5 38q12 -8 18.5 -27t6.5 -40q0 -24 -8.5 -41t-24.5 -17h-295q-33 0 -54 18t-21 49v488q0 76 -19 126q11 11 30.5 20t44.5 9q33 0 53.5 -18t20.5 -49z" />
    <glyph glyph-name="M" unicode="M" horiz-adv-x="851" 
d="M785 15q-11 -11 -31 -20t-44 -9q-31 0 -51 18t-20 49l-1 497l-173 -468q-40 -14 -70 -14q-27 0 -50 10q-49 101 -100 228t-92 249l1 -414q0 -88 19 -139q-16 -16 -46 -16q-44 0 -44 52v520q0 90 -7 135q17 17 91 17q24 0 40 -6t28 -18q128 -336 190 -494q122 339 176 505
q35 13 83 13q29 0 53.5 -8.5t28.5 -19.5v-541q0 -76 19 -126z" />
    <glyph glyph-name="N" unicode="N" horiz-adv-x="700" 
d="M66 3q19 51 19 138v414q0 83 -7 138q6 8 23.5 12t36.5 4q25 0 31 -6q25 -36 143 -193q107 -143 160.5 -218t75.5 -123l-33 449l-1 14q0 33 15.5 53t45.5 23q32 2 54 -13q-13 -39 -13 -123l-1 -433q0 -89 6 -136q-7 -7 -23.5 -11.5t-34.5 -4.5q-21 0 -30 5
q-269 315 -376 515l28 -446q3 -32 -18 -53.5t-47 -21.5q-31 0 -54 17z" />
    <glyph glyph-name="O" unicode="O" horiz-adv-x="664" 
d="M120.5 77q-71.5 91 -71.5 272q0 180 71.5 271t211.5 91t211.5 -91t71.5 -271q0 -181 -71.5 -272t-211.5 -91t-211.5 91zM437 107.5q33 75.5 33 241.5t-33 241.5t-105 75.5t-105.5 -76t-33.5 -241t33.5 -241t105.5 -76t105 75.5z" />
    <glyph glyph-name="P" unicode="P" horiz-adv-x="582" 
d="M471.5 661.5q76.5 -49.5 76.5 -156.5q0 -113 -79.5 -173.5t-228.5 -60.5h-24v-137q0 -75 19 -119q-11 -11 -30.5 -20t-44.5 -9q-33 0 -54 18t-21 49v502q0 76 -19 126q62 30 179 30q150 0 226.5 -49.5zM364.5 363q39.5 47 39.5 132q0 170 -156 170q-23 0 -32 -1v-348h18
q91 0 130.5 47z" />
    <glyph glyph-name="Q" unicode="Q" horiz-adv-x="673" 
d="M398.5 -128.5q-82.5 35.5 -153.5 87.5q-95 67 -145.5 157.5t-50.5 231.5q0 179 75 271t212 92q138 0 212 -91.5t74 -270.5q0 -114 -35.5 -195.5t-100 -124.5t-151.5 -43q-34 0 -57 7q33 -27 78.5 -42t90.5 -15q53 0 92.5 15.5t48.5 44.5q32 -5 50.5 -23.5t18.5 -48.5
q0 -37 -31 -62.5t-83 -25.5q-62 0 -144.5 35.5zM437.5 107.5q33.5 75.5 33.5 242.5q0 164 -33 240t-103 76q-74 0 -104.5 -82.5t-30.5 -257.5q0 -142 29 -218t104 -76q71 0 104.5 75.5z" />
    <glyph glyph-name="R" unicode="R" horiz-adv-x="626" 
d="M613 59q0 -35 -26 -54t-53 -19q-39 0 -63.5 16.5t-40 45t-37.5 83.5l-31 82q-13 33 -24 51.5t-31 31t-53 12.5l-38 1v-175q0 -75 19 -119q-11 -11 -30.5 -20t-44.5 -9q-33 0 -54 18t-21 49v502q0 76 -19 126q62 30 185 30q146 0 219.5 -43t73.5 -139q0 -73 -42 -123.5
t-116 -69.5q34 -10 56.5 -31t40.5 -54l42 -97q15 -35 28 -51t28 -17q14 0 24 9q8 -19 8 -36zM260 355q68 2 104 48t36 117q0 68 -33 107t-106 39q-33 0 -45 -2v-308q28 -2 44 -1z" />
    <glyph glyph-name="S" unicode="S" horiz-adv-x="566" 
d="M96 24.5q-60 39.5 -60 102.5q0 32 19 52.5t62 20.5q18 0 29 -2q-3 -13 -3 -27q0 -10 2 -24q7 -48 44 -81t103 -33q49 0 81 26.5t32 77.5q0 48 -31.5 80.5t-108.5 75.5q-73 42 -115 73.5t-65.5 72t-23.5 95.5q0 90 66.5 133.5t169.5 43.5q96 0 154 -30t58 -87
q0 -27 -15.5 -43.5t-51.5 -17.5q-4 -1 -14 -1q-9 0 -23 2q2 33 -8 58q-8 33 -37 53.5t-78 20.5q-40 0 -69.5 -20t-29.5 -66q0 -32 14 -57t47 -50t94 -59q60 -33 100 -62.5t67 -71.5t27 -98q0 -55 -28.5 -99.5t-87 -71t-143.5 -26.5q-117 0 -177 39.5z" />
    <glyph glyph-name="T" unicode="T" horiz-adv-x="553" 
d="M535.5 687q5.5 -10 5.5 -26q0 -23 -10 -47t-26 -31q-94 46 -163 61l1 -503q0 -79 19 -126q-12 -11 -31.5 -20t-44.5 -9q-33 0 -54 18t-21 49v591q-65 -14 -163 -61q-15 7 -25 31t-10 47q0 16 5 26t16 10h486q10 0 15.5 -10z" />
    <glyph glyph-name="U" unicode="U" horiz-adv-x="673" 
d="M599 307q0 -160 -66 -240.5t-196 -80.5q-128 0 -191.5 78t-63.5 243v248q0 76 -19 126q11 11 30.5 20t44.5 9q32 0 53 -18t21 -49v-343q0 -141 30 -204.5t95 -63.5q68 0 100 67t32 201v255q0 76 -19 126q12 11 31 20t43 9q32 0 53.5 -18t21.5 -49v-336z" />
    <glyph glyph-name="V" unicode="V" horiz-adv-x="607" 
d="M572.5 698q17.5 -13 17.5 -41q0 -27 -14 -67l-192 -586q-45 -18 -88 -18q-35 0 -55 8.5t-26 27.5l-179 598q-12 42 -32 63q26 28 78 28q71 0 84 -50l148 -580l134 541q7 26 7 44q0 19 -9 32q31 13 70 13t56.5 -13z" />
    <glyph glyph-name="W" unicode="W" horiz-adv-x="956" 
d="M913.5 696q17.5 -12 17.5 -40q0 -23 -14 -69l-161 -583q-44 -18 -87 -18q-67 0 -75 36l-113 451l-120 -469q-45 -18 -85 -18q-74 0 -81 36l-148 598q-3 15 -12 33t-20 30q26 28 78 28q74 0 84 -50l117 -569l112 452q4 16 4 32q0 23 -9 43q19 9 44.5 14.5t47.5 5.5
q27 0 45 -9t22 -26l128 -511l102 526q1 8 3.5 21t2.5 23q0 19 -9 32q18 7 33 10t37 3q39 0 56.5 -12z" />
    <glyph glyph-name="X" unicode="X" horiz-adv-x="635" 
d="M607 106q11 -16 11 -36q0 -33 -29 -58t-75 -25q-48 0 -76 27t-60 88l-80 152l-141 -229q-13 -19 -27.5 -28.5t-37.5 -9.5q-33 0 -49 19t-19 60q31 8 53.5 27.5t46.5 53.5l132 187l-119 223q-10 18 -19 26t-20 8q-12 0 -21 -8t-11 -19q-17 8 -27 23.5t-10 37.5
q0 34 24 57.5t75 23.5q50 0 80 -27t61 -88l73 -143l127 220q9 18 24 28t40 10q32 0 48.5 -18.5t20.5 -60.5q-32 -9 -55 -29t-45 -51l-122 -171l129 -240q9 -17 20 -26t22 -9q9 0 18 9t10 19q17 -7 28 -23z" />
    <glyph glyph-name="Y" unicode="Y" horiz-adv-x="593" 
d="M362 262v-121q0 -76 19 -126q-11 -11 -31 -20t-44 -9q-33 0 -54 18t-21 49v209q-11 14 -22 37l-155 301q-22 41 -49 67q15 15 39 27.5t54 12.5q36 0 55 -18t36 -55l133 -286l121 268q11 23 11 43q0 10 -3.5 19.5t-9.5 15.5q31 13 74 13q30 0 45 -15.5t16 -40.5
q0 -15 -8.5 -36.5t-22.5 -43.5z" />
    <glyph glyph-name="Z" unicode="Z" horiz-adv-x="594" 
d="M552.5 168q17.5 -26 17.5 -60q0 -51 -39 -81t-116 -29l-259 7q-31 1 -49.5 -1t-44.5 -11l-17 32q0 35 6.5 57.5t25.5 46.5l348 469l-201 -14q-28 -2 -49 -11t-30 -26q-9 -19 -9 -34q0 -13 6 -25q-37 7 -60 24q-18 10 -29.5 31t-11.5 45q0 52 43 83.5t129 28.5l200 -6
q78 -2 116 10l17 -38q0 -34 -6.5 -56t-26.5 -47l-353 -463l221 15q34 1 56 13t30 29q10 17 10 34q0 9 -4 23q14 -2 22 -5t10 -4q30 -11 47.5 -37z" />
    <glyph glyph-name="bracketleft" unicode="[" horiz-adv-x="369" 
d="M285 737v-59h-78v-789h78v-59h-200v907h200z" />
    <glyph glyph-name="backslash" unicode="\" horiz-adv-x="550" 
d="M64 733h130l325 -875h-129z" />
    <glyph glyph-name="bracketright" unicode="]" horiz-adv-x="369" 
d="M277 -170h-200v59h79v789h-79v59h200v-907z" />
    <glyph glyph-name="asciicircum" unicode="^" horiz-adv-x="544" 
d="M80.5 254.5q-14.5 5.5 -15.5 9.5l174 166q8 4 35 4q24 0 32 -4l174 -166q-1 -4 -16.5 -10t-23.5 -6l-167 102l-170 -102q-8 1 -22.5 6.5z" />
    <glyph glyph-name="underscore" unicode="_" horiz-adv-x="388" 
d="M418 -69v-65l-448 2v65z" />
    <glyph glyph-name="grave" unicode="`" horiz-adv-x="600" 
d="M210 728.5q35 9.5 60 9.5q8 0 11 -1l90 -158q-9 -7 -46 -9l-158 142q8 7 43 16.5z" />
    <glyph glyph-name="a" unicode="a" horiz-adv-x="565" 
d="M559 59q0 -29 -25 -49t-67 -20q-48 0 -75 31.5t-31 102.5q-28 -61 -78 -97.5t-116 -36.5q-59 0 -95 31t-36 87q0 64 49 105t124 63q65 18 143 20v25q0 85 -20 125t-69 40q-32 0 -52 -18.5t-20 -56.5q0 -53 36 -74q-11 -11 -29.5 -17t-39.5 -6q-46 0 -72.5 26t-26.5 66
q0 59 57 91.5t155 32.5q111 0 162.5 -51t51.5 -166v-174q0 -53 33 -53q7 0 15 3.5t13 10.5q13 -19 13 -41zM286 98q30 24 50 65.5t20 90.5q-79 0 -118 -22q-28 -14 -44.5 -38t-16.5 -55q0 -27 12.5 -46t37.5 -19q29 0 59 24z" />
    <glyph glyph-name="b" unicode="b" horiz-adv-x="554" 
d="M153 3.5q-58 17.5 -93 48.5v613q0 31 19.5 49.5t49.5 18.5q26 0 46.5 -9t33.5 -20q-21 -84 -21 -207v-71q18 48 57.5 76t95.5 28q84 0 130.5 -61.5t46.5 -191.5q0 -139 -58.5 -215t-183.5 -76q-65 0 -123 17.5zM356.5 102q23.5 63 23.5 175q0 97 -16 141t-53 44
q-59 0 -90.5 -62.5t-31.5 -153.5v-184q14 -11 35.5 -17.5t42.5 -6.5q66 1 89.5 64z" />
    <glyph glyph-name="c" unicode="c" horiz-adv-x="512" 
d="M100.5 57q-65.5 71 -65.5 202q0 127 66.5 199t188.5 72q89 0 136 -36.5t47 -91.5q0 -40 -25 -64t-65 -24q-20 0 -38.5 6t-29.5 18q29 23 29 75q0 72 -65 72q-49 0 -77 -54t-28 -152q0 -212 151 -212q52 0 88.5 25.5t47.5 66.5q17 -7 17 -33q0 -13 -4 -28
q-15 -53 -65 -82.5t-123 -29.5q-120 0 -185.5 71z" />
    <glyph glyph-name="d" unicode="d" horiz-adv-x="588" 
d="M571 58q0 -29 -24.5 -48t-60.5 -19q-47 0 -73 34t-32 97q-45 -136 -168 -136q-92 0 -135 69t-43 184q0 139 55.5 215t158.5 76q46 0 77.5 -16t45.5 -46v54q0 109 -21 182q32 29 74 29q32 0 53 -18.5t21 -49.5l-1 -526q0 -52 34 -52q19 0 26 12q13 -20 13 -41zM339 134.5
q30 77.5 30 186.5q0 66 -18 105t-70 39q-56 0 -81.5 -56.5t-25.5 -166.5q0 -95 17 -140t60 -45q58 0 88 77.5z" />
    <glyph glyph-name="e" unicode="e" horiz-adv-x="525" 
d="M484 117q0 -13 -7 -30q-19 -48 -69 -74.5t-121 -26.5q-116 0 -184 71.5t-68 201.5q0 127 66 199t188 72q89 0 146 -39.5t57 -111.5q0 -73 -59 -113t-158 -40q-64 0 -99 4q7 -87 44.5 -125t103.5 -38q53 0 90 21t54 56q16 -7 16 -27zM203 429.5q-29 -55.5 -29 -153.5v-1
l34 -1q62 0 103.5 26t41.5 100q0 85 -69 85q-52 0 -81 -55.5z" />
    <glyph glyph-name="f" unicode="f" horiz-adv-x="403" 
d="M386 720q40 -23 40 -65q0 -29 -21.5 -47.5t-52.5 -18.5q-40 0 -58 20q19 26 19 51q0 22 -10 32t-31 10q-29 0 -42 -24.5t-16 -60.5t-3 -102h19q20 0 62 1.5t48 2.5l-1 -31q-1 -15 -10 -23.5t-23 -8.5h-95v-315q0 -76 19 -126q-33 -29 -74 -29q-32 0 -53 18t-21 49v403h-9
q-40 0 -60 -3l1 31q1 15 10.5 23t23.5 8h34v20q0 208 192 208q72 0 112 -23z" />
    <glyph glyph-name="g" unicode="g" horiz-adv-x="546" 
d="M92.5 -196.5q-53.5 28.5 -53.5 86.5q0 38 25 60.5t65 22.5q41 0 60 -22q-30 -26 -30 -68q0 -31 18 -49.5t54 -18.5q65 0 98.5 57t33.5 156q0 50 1 74q-17 -49 -55.5 -75t-95.5 -26q-84 0 -131 59t-47 189q0 129 58 205t186 76q63 0 119 -17.5t93 -48.5v-420
q0 -142 -70.5 -205.5t-193.5 -63.5q-81 0 -134.5 28.5zM333.5 111q27.5 50 28.5 138l1 213q-14 11 -34.5 17t-42.5 6q-65 0 -89 -62t-24 -187q0 -66 7.5 -103.5t24.5 -54.5t47 -17q54 0 81.5 50z" />
    <glyph glyph-name="h" unicode="h" horiz-adv-x="570" 
d="M526 15q-33 -29 -73 -29q-32 0 -53 18t-21 49v255q0 83 -16.5 122t-59.5 39q-49 0 -79 -60t-30 -173q0 -110 3 -147.5t19 -74.5q-10 -10 -29.5 -19t-43.5 -9q-33 0 -54 20t-21 53l-1 606q0 33 19 50t50 17q24 0 46 -9t34 -19q-13 -42 -17 -94t-5 -138v-44q42 102 152 102
q82 0 121.5 -50.5t39.5 -151.5v-187q0 -76 19 -126z" />
    <glyph glyph-name="i" unicode="i" horiz-adv-x="272" 
d="M82 600.5q-22 21.5 -22 52.5q0 32 22 53.5t53 21.5t52 -21.5t21 -53.5q0 -31 -21 -52.5t-52 -21.5t-53 21.5zM223 15q-32 -29 -75 -29q-31 0 -51.5 18t-20.5 49v322q0 76 -19 127q31 28 72 28q33 0 53.5 -17.5t20.5 -49.5l1 -322q0 -79 19 -126z" />
    <glyph glyph-name="j" unicode="j" horiz-adv-x="267" 
d="M83 611.5q-21 20.5 -21 51.5q0 30 21 50.5t51 20.5t51 -20.5t21 -50.5q0 -31 -21 -51.5t-51 -20.5t-51 20.5zM-74 -204q-32 24 -32 63q0 27 17.5 46t50.5 19q17 0 27.5 -6.5t18.5 -21.5q-15 -25 -15 -45q0 -18 9.5 -28t23.5 -10q23 0 33.5 25t13 62t2.5 101l1 373
q0 79 -18 127q14 13 32.5 21t39.5 8q32 0 52.5 -18.5t20.5 -49.5v-484q0 -92 -43.5 -149t-138.5 -57q-63 0 -95 24z" />
    <glyph glyph-name="k" unicode="k" horiz-adv-x="551" 
d="M534 61q0 -32 -27 -53.5t-67 -21.5q-34 0 -61.5 19t-42.5 58l-65 153q-47 -13 -76 -18q0 -86 3.5 -117.5t18.5 -66.5q-16 -13 -33.5 -20.5t-44.5 -7.5q-41 0 -56 19t-15 54l-1 606q0 32 20.5 50t53.5 18q25 0 43.5 -9t29.5 -20q-11 -57 -14 -93.5t-4 -85.5l-2 -55l-1 -66
q23 59 68.5 92.5t111.5 33.5q64 0 95.5 -31.5t31.5 -80.5q0 -57 -40.5 -101t-102.5 -73q16 -4 29.5 -17.5t28.5 -38.5l31 -52q14 -25 21.5 -33.5t21.5 -8.5q15 0 28 9q17 -17 17 -42zM317 308q51 42 51 102q0 55 -46 55q-35 0 -64 -29.5t-46 -80t-17 -110.5q71 21 122 63z
" />
    <glyph glyph-name="l" unicode="l" horiz-adv-x="290" 
d="M97 26.5q-31 36.5 -31 101.5v537q0 32 21 50t54 18q24 0 43 -9t30 -20q-11 -43 -15 -85t-4 -110v-370q0 -53 36 -53q8 0 17 3.5t13 10.5q13 -19 13 -41q0 -30 -25.5 -49.5t-62.5 -19.5q-58 0 -89 36.5z" />
    <glyph glyph-name="m" unicode="m" horiz-adv-x="871" 
d="M827 15q-33 -29 -74 -29q-33 0 -54 18t-21 49v255q0 79 -12 120t-52 41q-28 0 -51.5 -25.5t-38.5 -77.5t-16 -126l1 -99q0 -79 18 -126q-31 -29 -72 -29q-31 0 -51 18t-20 49l-1 255q0 84 -14.5 122.5t-55.5 38.5q-44 0 -71.5 -60t-27.5 -176q0 -108 3 -145.5t18 -73.5
q-28 -28 -74 -28q-32 0 -53 20t-21 53l-1 321q0 53 -29 53q-8 0 -16 -3.5t-12 -11.5q-12 19 -12 41q0 31 21.5 50.5t58.5 19.5q45 0 71 -30.5t30 -90.5q19 58 58 90t100 32q60 0 94.5 -29.5t48.5 -88.5q19 55 59 86.5t98 31.5q152 0 152 -202v-187q0 -76 19 -126z" />
    <glyph glyph-name="n" unicode="n" horiz-adv-x="586" 
d="M543 15q-33 -29 -75 -29q-32 0 -53 18t-21 49v255q-1 81 -17 119t-59 38q-48 0 -78 -58.5t-30 -170.5q0 -110 3 -147.5t18 -74.5q-10 -10 -29.5 -19t-43.5 -9q-34 0 -55 20t-21 53v321q-1 28 -7 40.5t-20 12.5q-19 0 -26 -12q-12 20 -12 41q0 30 20.5 48.5t57.5 18.5
q46 0 72.5 -29.5t27.5 -88.5q43 119 167 119q82 0 121.5 -50.5t39.5 -151.5v-187q3 -83 20 -126z" />
    <glyph glyph-name="o" unicode="o" horiz-adv-x="560" 
d="M100 57.5q-65 71.5 -65 199.5q0 129 64.5 201t180.5 72q115 0 179.5 -72t64.5 -201q0 -128 -64.5 -199.5t-179.5 -71.5t-180 71.5zM385 257q0 228 -105 228q-54 0 -80 -57t-26 -171q0 -113 26 -169.5t80 -56.5q105 0 105 226z" />
    <glyph glyph-name="p" unicode="p" horiz-adv-x="582" 
d="M503.5 459.5q42.5 -70.5 42.5 -182.5q0 -140 -57.5 -215.5t-158.5 -75.5q-44 0 -75.5 15.5t-45.5 45.5v-51q0 -112 20 -185q-12 -11 -31 -19.5t-43 -8.5q-32 0 -53 18t-21 48l1 528q0 27 -6.5 39t-20.5 12q-19 0 -26 -11q-12 20 -12 41q0 29 22 48t57 19q46 0 71.5 -34
t31.5 -97q45 136 168 136q94 0 136.5 -70.5zM381.5 110q26.5 57 26.5 168q0 90 -17 136t-62 46q-57 0 -87.5 -75.5t-30.5 -176.5q0 -79 20 -117t67 -38q57 0 83.5 57z" />
    <glyph glyph-name="q" unicode="q" horiz-adv-x="549" 
d="M342 -196q13 37 17 81t4 98v50v57q-17 -49 -57 -77t-96 -28q-82 0 -128.5 62.5t-46.5 194.5t58 210t182 78q66 0 125 -18.5t93 -48.5v-621q0 -31 -21 -49t-58 -18q-39 0 -72 29zM310 85.5q27 31.5 40.5 81t13.5 101.5v185q-15 10 -37 17t-46 7q-61 0 -84 -58t-23 -170
q0 -99 16 -147t56 -48q37 0 64 31.5z" />
    <glyph glyph-name="r" unicode="r" horiz-adv-x="468" 
d="M418.5 499.5q35.5 -30.5 35.5 -83.5q0 -38 -23 -63t-58 -26q-40 0 -59 21q11 18 15 33t4 35q0 26 -11 39.5t-33 13.5q-37 0 -58 -58.5t-21 -174.5q0 -107 3 -144.5t18 -73.5q-11 -11 -30 -19.5t-44 -9.5q-31 0 -53 20t-22 54v317q0 28 -6.5 40.5t-20.5 12.5
q-19 0 -26 -12q-12 20 -12 41q0 30 20.5 48.5t57.5 18.5q44 0 70 -27t30 -81q34 109 131 109q57 0 92.5 -30.5z" />
    <glyph glyph-name="s" unicode="s" horiz-adv-x="476" 
d="M78.5 18q-48.5 32 -48.5 85q0 28 17.5 49t55.5 21q7 0 23 -2q-2 -8 -2 -23q0 -17 4 -30q5 -35 33 -59.5t78 -24.5q41 0 66 15.5t25 46.5q0 25 -15.5 42.5t-36 29t-67.5 33.5q-54 26 -86 46t-55 54t-23 84q0 73 56 109.5t142 36.5q83 0 132.5 -25.5t49.5 -72.5
q0 -25 -14.5 -42t-46.5 -18q-5 -1 -15 -1q-6 0 -20 2q1 5 1 17q0 25 -8 41q-8 25 -30 39t-54 14q-33 0 -55 -14t-22 -42q0 -26 16 -45.5t39.5 -33t66.5 -34.5q54 -26 86.5 -45.5t56 -50.5t23.5 -74q0 -42 -23.5 -78.5t-75 -59t-131.5 -22.5q-94 0 -142.5 32z" />
    <glyph glyph-name="t" unicode="t" horiz-adv-x="353" 
d="M280.5 516.5q45.5 1.5 51.5 2.5l-1 -31q-1 -15 -10 -23.5t-23 -8.5h-89v-30v-287q0 -53 46 -53q12 0 24.5 3.5t15.5 10.5q13 -17 13 -41q0 -31 -29 -50t-77 -19q-58 0 -90 37t-32 101v328h-14q-41 0 -60 -3l1 31q1 15 10.5 23t23.5 8h39v67q0 31 21 49t54 18q24 0 43 -9
t30 -20q-13 -51 -17 -105h3q21 0 66.5 1.5z" />
    <glyph glyph-name="u" unicode="u" horiz-adv-x="581" 
d="M567 54q0 -31 -20.5 -49t-58.5 -18q-45 0 -71.5 29t-28.5 87q-42 -118 -163 -118q-82 0 -120 47t-38 156v186q0 76 -19 127q35 29 74 29q33 0 53.5 -18t20.5 -50l1 -254q0 -86 15 -124t56 -38q48 0 77 60t29 174q0 110 -3 147.5t-19 74.5q11 10 30.5 19t43.5 9
q32 0 53.5 -20t21.5 -54l1 -321q0 -28 6 -40t20 -12q17 0 26 11q13 -19 13 -40z" />
    <glyph glyph-name="v" unicode="v" horiz-adv-x="510" 
d="M479 515q17 -13 17 -42q0 -36 -14 -68l-151 -400q-42 -19 -87 -19q-55 0 -68 42l-137 408q-7 22 -13.5 36.5t-16.5 25.5q24 30 73 30q31 0 51 -13t25 -38l109 -413l94 374q6 30 6 44q0 22 -9 32q18 7 32 10.5t35 3.5q37 0 54 -13z" />
    <glyph glyph-name="w" unicode="w" horiz-adv-x="828" 
d="M166 28l-123 408q-7 22 -13.5 36.5t-16.5 25.5q24 30 73 30q31 0 51 -13t25 -38l94 -404l79 365q5 23 5 44q0 22 -9 32q28 12 84 14q33 0 57 -10.5t30 -36.5l92 -408l81 365q6 30 6 44q0 19 -9 32q18 7 32 10.5t35 3.5q37 0 54 -13t17 -42q0 -33 -14 -68l-136 -400
q-44 -19 -88 -19q-25 0 -43.5 10t-24.5 32l-89 372l-88 -395q-45 -19 -93 -19q-55 0 -68 42z" />
    <glyph glyph-name="x" unicode="x" horiz-adv-x="519" 
d="M500 104q12 -16 12 -38q0 -32 -26.5 -56.5t-70.5 -24.5q-30 0 -51.5 13t-37.5 36.5t-39 67.5l-41 74l-87 -152q-22 -38 -65 -38q-29 0 -48.5 18.5t-23.5 59.5q35 9 60 29t45 52l75 110l-72 124q-20 36 -39 36q-11 0 -20 -8.5t-12 -19.5q-18 9 -29 24.5t-11 36.5
q0 33 26 57.5t75 24.5q30 0 49 -11t34.5 -34t41.5 -72l33 -64l81 141q22 40 67 40q33 0 52 -19.5t23 -60.5q-35 -9 -58.5 -29t-47.5 -53l-72 -100l78 -133q9 -17 20.5 -26t20.5 -9q8 0 17.5 8.5t11.5 18.5q17 -7 29 -23z" />
    <glyph glyph-name="y" unicode="y" horiz-adv-x="557" 
d="M502 52q0 -146 -69 -211.5t-189 -65.5q-189 0 -189 105q0 32 24.5 52.5t64.5 20.5q42 0 59 -22q-14 -10 -21 -23.5t-7 -26.5q0 -30 19 -48t53 -18q65 0 99.5 58.5t34.5 160.5q0 20 8 82q-41 -123 -166 -123q-80 0 -118 47t-38 155v179q0 76 -19 127q35 29 74 29
q33 0 53.5 -18t20.5 -50l1 -247q0 -84 14.5 -122.5t54.5 -38.5q49 0 78.5 58.5t29.5 169.5q0 109 -3 146t-19 74q11 10 30.5 19t43.5 9q32 0 53.5 -20t21.5 -54z" />
    <glyph glyph-name="z" unicode="z" horiz-adv-x="504" 
d="M477 136.5q15 -25.5 15 -48.5q0 -42 -37.5 -68.5t-103.5 -25.5l-212 6q-59 2 -93 -10l-15 27q0 30 5.5 48.5t23.5 36.5l288 326l-158 -14q-38 -4 -60 -28q-16 -16 -16 -36q0 -6 1 -9q-23 4 -32 10q-28 12 -43 36t-15 44q0 43 36.5 69t112.5 23l184 -6q59 -2 91 9l13 -33
q0 -29 -5 -47.5t-23 -38.5l-263 -305l153 7q46 3 67 33q11 14 11 32q0 7 -1 10q22 -5 32 -9q29 -13 44 -38.5z" />
    <glyph glyph-name="braceleft" unicode="{" horiz-adv-x="422" 
d="M108 -30q0 30 7 88q9 81 9 114q0 41 -15.5 61.5t-51.5 35.5v38q36 15 51.5 37.5t15.5 63.5q0 36 -9 115q-7 49 -7 75q0 75 45.5 111.5t131.5 36.5q35 0 61.5 -6t40.5 -13q5 -3 5 -15q0 -8 -3 -16t-8 -9q-30 10 -56 10q-44 0 -65.5 -20.5t-21.5 -68.5q0 -25 7 -78
q10 -70 10 -114q0 -108 -51 -125v-6q23 -7 37 -38t14 -85q0 -29 -9 -110q-8 -66 -8 -88q0 -93 87 -93q28 0 56 11q5 -1 8 -9t3 -17q0 -12 -5 -15q-13 -7 -40 -12.5t-62 -5.5q-177 0 -177 147z" />
    <glyph glyph-name="bar" unicode="|" horiz-adv-x="351" 
d="M115 730h120v-867h-120v867z" />
    <glyph glyph-name="braceright" unicode="}" horiz-adv-x="421" 
d="M74 -171.5q-27 5.5 -39 12.5q-5 2 -5 16q0 9 2.5 16.5t7.5 8.5q28 -11 56 -11q87 0 87 93q0 22 -8 88q-9 81 -9 110q0 54 14 85t37 38v6q-51 17 -51 125q0 44 10 114q7 53 7 78q0 48 -21.5 68.5t-65.5 20.5q-26 0 -56 -10q-5 1 -7.5 8.5t-2.5 16.5q0 13 5 15
q13 7 39.5 13t61.5 6q86 0 131.5 -36.5t45.5 -111.5q0 -26 -7 -75q-9 -79 -9 -115q0 -41 15.5 -63.5t51.5 -37.5v-38q-36 -15 -51.5 -35.5t-15.5 -61.5q0 -33 9 -114q7 -58 7 -88q0 -147 -177 -147q-35 0 -62 5.5z" />
    <glyph glyph-name="asciitilde" unicode="~" horiz-adv-x="503" 
d="M407 306q-27 -30 -70 -30q-22 0 -41 7.5t-47 23.5q-26 14 -44.5 21.5t-37.5 7.5q-50 0 -72 -47q-7 -1 -17.5 1.5t-16.5 7.5q5 57 37 83t76 26q23 0 42 -7.5t46 -22.5t46 -22.5t40 -7.5q26 0 38 12t23 36q21 0 33 -9q-8 -50 -35 -80z" />
    <glyph glyph-name="uni00A0" unicode="&#xa0;" horiz-adv-x="285" 
 />
    <glyph glyph-name="exclamdown" unicode="&#xa1;" horiz-adv-x="312" 
d="M208 508.5q21 -21.5 21 -52.5t-21 -52.5t-52 -21.5q-32 0 -53.5 21.5t-21.5 52.5t22 52.5t53 21.5t52 -21.5zM156 -214q39 0 75 12l-28 519h-88l-34 -519q38 -12 75 -12z" />
    <glyph glyph-name="cent" unicode="&#xa2;" horiz-adv-x="517" 
d="M479 222q0 -13 -4 -28q-18 -64 -88 -94l22 -67q15 -48 31 -82q-3 -4 -7 -7.5t-12 -6.5q-8 -2 -10 -2q-14 0 -17 15l-45 138q-28 -6 -62 -6q-120 0 -185 70.5t-65 201.5q0 94 37 159t107 93l-16 48q-21 61 -32 82q1 1 5.5 6t13.5 8q8 2 10 2q13 0 19 -15l39 -119
q39 7 71 7q89 0 136 -36t47 -92q0 -40 -25 -63.5t-65 -23.5q-21 0 -39 6t-29 17q29 25 29 75q0 72 -64 72q-25 0 -45 -14l130 -400q37 9 62.5 32.5t33.5 55.5q17 -7 17 -32zM325 162l-120 368q-30 -55 -30 -155q0 -213 150 -213z" />
    <glyph glyph-name="sterling" unicode="&#xa3;" horiz-adv-x="511" 
d="M485 72q0 -29 -12 -50.5t-34 -21.5h-406v37q47 67 64.5 108t17.5 91q0 14 -2 42h-29q-21 0 -60 -3l1 31q1 15 10.5 23t23.5 8h48q-12 90 -12 129q0 133 65.5 183.5t158.5 50.5q71 0 110.5 -26.5t39.5 -64.5q0 -66 -63 -66q-16 0 -26 3q0 54 -20.5 82.5t-53.5 28.5
q-38 0 -60.5 -29.5t-22.5 -110.5q0 -45 8 -115q3 -24 7 -65h20q22 0 62.5 1t62.5 2l-1 -31q-1 -15 -10.5 -23t-23.5 -8h-107q0 -89 -34 -146t-107 -84q102 0 193 23.5t179 71.5q13 -25 13 -71z" />
    <glyph glyph-name="currency" unicode="&#xa4;" horiz-adv-x="614" 
d="M553 146q-4 -13 -16 -26q-13 -13 -23 -13q-7 0 -13 7l-57 54q-60 -44 -138 -44q-41 0 -78 13t-67 36l-2 -2q-48 -48 -57 -66q-2 1 -10.5 4t-16.5 13q-13 10 -13 21q0 7 7 14l53 54q-47 62 -47 141q0 86 52 147h-1l-20 18q-34 33 -46 38q5 15 17 28q12 12 22 12q8 0 14 -7
l54 -51q61 44 141 44q85 0 146 -50q48 53 56 66q15 -3 27 -16q13 -12 13 -22q0 -6 -7 -15l-51 -51q46 -60 46 -140q0 -43 -14 -80.5t-39 -66.5l2 -2q44 -44 66 -58zM377.5 213.5q32.5 20.5 51.5 56.5t19 82t-19 82.5t-51.5 57t-71.5 20.5q-38 0 -71 -20.5t-52 -56.5t-19 -82
t19.5 -82.5t52.5 -57t71 -20.5t70.5 20.5z" />
    <glyph glyph-name="yen" unicode="&#xa5;" horiz-adv-x="592" 
d="M567.5 614.5q-8.5 -21.5 -22.5 -43.5l-148 -251q20 0 31 1q70 0 80 2l-1 -31q-1 -15 -10.5 -23t-23.5 -8h-111v-5l44 1q97 2 102 3l-1 -31q-1 -15 -10.5 -23.5t-23.5 -8.5h-111v-56q0 -76 19 -126q-11 -11 -31 -20t-44 -9q-33 0 -54 18t-21 49v144h-91q-21 0 -60 -3l1 30
q1 15 10.5 23.5t23.5 8.5h116v5h-91q-21 0 -60 -3l1 31q1 15 10.5 23t23.5 8h83l-144 280q-22 41 -49 67q15 15 39 27.5t54 12.5q36 0 55 -18t36 -55l133 -286l121 268q11 23 11 43q0 10 -3.5 19.5t-9.5 15.5q31 13 74 13q30 0 45 -15.5t16 -40.5q0 -15 -8.5 -36.5z" />
    <glyph glyph-name="brokenbar" unicode="&#xa6;" horiz-adv-x="351" 
d="M115 730h120v-368h-120v368zM115 231h120v-368h-120v368z" />
    <glyph glyph-name="section" unicode="&#xa7;" horiz-adv-x="474" 
d="M78.5 -85.5q-48.5 32.5 -48.5 86.5q0 27 17 47.5t54 20.5q7 0 23 -2q-3 -13 -3 -26q0 -12 3 -26q6 -36 35 -61t78 -25q42 0 68 16.5t26 47.5q0 25 -16 43.5t-39 31t-66 31.5q-53 26 -85 46t-55 54t-23 84q0 51 27 84t75 48q-48 29 -75 64t-27 89q0 73 55 108t142 35
q82 0 131.5 -25t49.5 -72q0 -25 -14 -42t-45 -18h-10q-8 0 -24 2l1 13q0 24 -9 43q-8 25 -30 39.5t-56 14.5q-33 0 -56 -14t-23 -43q0 -37 30.5 -60.5t92.5 -52.5q55 -26 87.5 -45.5t56 -50t23.5 -73.5q0 -46 -28 -85t-87 -57q54 -28 84.5 -61t30.5 -82q0 -42 -23.5 -78.5
t-74.5 -59t-130 -22.5q-94 0 -142.5 32.5zM314 236q17 16 17 43q0 33 -28 54.5t-86 48.5q-58 -7 -58 -58q0 -34 28 -57.5t82 -48.5q28 2 45 18z" />
    <glyph glyph-name="dieresis" unicode="&#xa8;" horiz-adv-x="600" 
d="M150 602.5q-18 17.5 -18 42.5t18 42.5t43 17.5t42.5 -17.5t17.5 -42.5t-17.5 -42.5t-42.5 -17.5t-43 17.5zM338.5 602.5q-17.5 17.5 -17.5 42.5t17.5 42.5t42.5 17.5t43 -17.5t18 -42.5t-18 -42.5t-43 -17.5t-42.5 17.5z" />
    <glyph glyph-name="copyright" unicode="&#xa9;" horiz-adv-x="807" 
d="M223.5 36.5q-82.5 48.5 -130.5 132t-48 182.5q0 98 48 180.5t130.5 131t180.5 48.5q97 0 179.5 -48.5t130.5 -131.5t48 -180q0 -99 -48 -182.5t-130.5 -132t-179.5 -48.5q-98 0 -180.5 48.5zM557.5 79q70.5 42 112 114t41.5 158q0 85 -41.5 156.5t-112 113.5t-154.5 42
t-154.5 -42t-112 -113.5t-41.5 -156.5q0 -86 41 -158t112 -114t155 -42t154.5 42zM269.5 188q-48.5 58 -48.5 163q0 103 50.5 160.5t139.5 57.5q57 0 101.5 -19.5t44.5 -54.5q0 -20 -18.5 -36t-50.5 -15q-9 96 -76 96q-97 0 -97 -189q0 -95 23 -142t70 -47q74 0 89 101
q4 1 13 1q24 0 40.5 -12t16.5 -34q0 -42 -48.5 -65t-114.5 -23q-86 0 -134.5 58z" />
    <glyph glyph-name="ordfeminine" unicode="&#xaa;" horiz-adv-x="405" 
d="M401 416q0 -22 -18 -37t-49 -15t-57.5 21.5t-25.5 54.5q-21 -35 -54 -56t-77 -21q-42 0 -68 20t-26 57q0 82 124 114q47 11 100 13v17q0 52 -14 77t-46 25q-21 0 -34 -11.5t-13 -34.5q0 -34 24 -49q-9 -7 -23 -11.5t-28 -4.5q-34 0 -53.5 17t-19.5 44q0 39 41 61t111 22
q82 0 118 -32.5t36 -109.5v-102q0 -34 24 -34q14 0 18 6q10 -12 10 -31zM203.5 444.5q20.5 13.5 34.5 37.5t14 54q-28 -1 -46.5 -3.5t-33.5 -10.5q-18 -8 -29 -22.5t-11 -32.5q0 -16 8 -26t24 -10q19 0 39.5 13.5z" />
    <glyph glyph-name="guillemotleft" unicode="&#xab;" horiz-adv-x="734" 
d="M425 243v-5l266 -188l-33 -45l-360 196q-3 8 -3 35q0 32 3 39l361 214l32 -48zM149 243v-5l266 -188l-33 -45l-360 196q-3 8 -3 35q0 32 3 39l361 214l32 -48z" />
    <glyph glyph-name="logicalnot" unicode="&#xac;" horiz-adv-x="533" 
d="M459 398v-168q-17 -7 -32 -7q-13 0 -32 7v99h-335q-7 21 -7 35q0 15 7 34h399z" />
    <glyph glyph-name="uni00AD" unicode="&#xad;" horiz-adv-x="399" 
d="M361 296v-75h-324v75h324z" />
    <glyph glyph-name="registered" unicode="&#xae;" horiz-adv-x="807" 
d="M583.5 662.5q82.5 -48.5 130.5 -131.5t48 -180q0 -99 -48 -182.5t-130.5 -132t-179.5 -48.5q-98 0 -180.5 48.5t-130.5 132t-48 182.5q0 98 48 180.5t130.5 131t180.5 48.5q97 0 179.5 -48.5zM557.5 79q70.5 42 112 114t41.5 158q0 84 -41.5 156t-112 114t-154.5 42
t-154.5 -42t-112 -113.5t-41.5 -156.5q0 -86 41 -158t112 -114t155 -42t154.5 42zM586 195q6 0 13 3q5 -13 5 -23q0 -21 -16 -34.5t-40 -13.5q-33 0 -51 23t-39 72l-19 44q-14 31 -30 44t-43 13l-26 1v-102q0 -49 12 -76q-7 -7 -20 -13.5t-30 -6.5q-21 0 -35 12t-14 32v300
q0 50 -12 81q43 20 122 20q99 0 146.5 -26.5t47.5 -86.5q0 -43 -27 -73.5t-73 -42.5q21 -6 35 -18t24 -32l28 -54q13 -24 20.5 -33t17.5 -10h4zM353.5 353.5q9.5 -0.5 16.5 0.5q44 2 69.5 29.5t25.5 68.5q0 85 -96 88h-29v-186q4 0 13.5 -0.5z" />
    <glyph glyph-name="macron" unicode="&#xaf;" horiz-adv-x="600" 
d="M408 659q4 -13 4 -29t-4 -29h-280q-5 17 -5 29t5 29h280z" />
    <glyph glyph-name="degree" unicode="&#xb0;" horiz-adv-x="377" 
d="M121 469.5q-31 17.5 -49 47.5t-18 66q0 34 18 63.5t49 47t68 17.5q36 0 67 -17.5t49.5 -47t18.5 -63.5q0 -36 -18 -66t-49.5 -47.5t-67.5 -17.5q-37 0 -68 17.5zM233.5 533.5q19.5 20.5 19.5 49.5q0 28 -19.5 47.5t-45.5 19.5t-45 -19.5t-19 -47.5q0 -29 19 -49.5
t45 -20.5t45.5 20.5z" />
    <glyph glyph-name="plusminus" unicode="&#xb1;" horiz-adv-x="577" 
d="M89 353q-6 18 -6 35q0 18 6 34h165v114q17 7 34 7q19 0 34 -7v-114h166q6 -16 6 -34q0 -17 -6 -35h-166v-115q-19 -7 -34 -7q-13 0 -34 7v115h-165zM488 186q6 -16 6 -34q0 -17 -6 -35h-399q-6 18 -6 35q0 18 6 34h399z" />
    <glyph glyph-name="uni00B2" unicode="&#xb2;" horiz-adv-x="423" 
d="M29 270q0 12 2 18q36 20 89 61.5t100.5 107.5t47.5 142q0 32 -17 55t-52 23q-75 0 -77 -137q-48 0 -67.5 23t-19.5 50q0 44 47 71t126 27q78 0 125.5 -31t47.5 -92q0 -78 -55 -146.5t-124.5 -112.5t-99.5 -45q59 3 154.5 25t123.5 45q9 -7 14 -26t5 -40q0 -24 -6.5 -41
t-19.5 -18h-329q-15 17 -15 41z" />
    <glyph glyph-name="uni00B3" unicode="&#xb3;" horiz-adv-x="430" 
d="M63 245.5q-38 24.5 -38 53.5q0 23 16.5 42t59.5 19q3 -28 8.5 -49t25.5 -39t60 -18t65.5 26.5t25.5 70.5q0 56 -48 82t-120 25v37q52 3 85.5 20.5t48 42t14.5 48.5q0 35 -15 53t-48 18q-76 0 -76 -103q-46 -1 -62 15.5t-16 34.5q0 41 41.5 64t119.5 23q69 0 121 -25
t52 -88q0 -41 -35.5 -73.5t-90.5 -46.5q147 -23 147 -116q0 -64 -55.5 -102.5t-147.5 -38.5q-100 0 -138 24.5z" />
    <glyph glyph-name="uni00B5" unicode="&#xb5;" horiz-adv-x="588" 
d="M572 54q0 -31 -20.5 -49t-57.5 -18q-46 0 -72 29t-28 87q-42 -118 -164 -118q-26 0 -45 4v-17q4 -99 36 -161q-12 -11 -31 -19.5t-43 -8.5q-32 0 -53 18t-21 48v525q0 76 -19 127q35 29 74 29q32 0 53 -18.5t21 -49.5v-254q0 -86 15 -124t57 -38q48 0 76.5 59.5
t28.5 174.5q0 110 -3 147.5t-18 74.5q12 11 31 19.5t43 8.5q32 0 53 -20t21 -54l1 -321q0 -28 6.5 -40t20.5 -12q17 0 26 11q12 -17 12 -40z" />
    <glyph glyph-name="paragraph" unicode="&#xb6;" horiz-adv-x="792" 
d="M705.5 -116.5q11.5 -44.5 29.5 -48.5q-8 -14 -33 -22t-54 -8q-19 0 -38 12t-31.5 34t-12.5 51v509q0 114 -52 182t-148 68q-98 0 -143 -57.5t-45 -136.5q0 -83 39.5 -126.5t101.5 -39.5v101q0 77 -19 128q34 28 72 28q29 0 47.5 -18t18.5 -49v-350q0 -76 19 -126
q-9 -11 -26.5 -20t-39.5 -9q-31 0 -51.5 18t-20.5 49v196q-10 -1 -30 -1q-64 0 -118.5 25t-87.5 74.5t-33 118.5q0 96 66.5 170.5t249.5 74.5q156 0 242 -75t86 -218v-436q0 -54 11.5 -98.5z" />
    <glyph glyph-name="periodcentered" unicode="&#xb7;" horiz-adv-x="308" 
d="M102 242q-22 22 -22 53t22 52.5t53 21.5t52 -21.5t21 -52.5q0 -32 -21 -53.5t-52 -21.5t-53 22z" />
    <glyph glyph-name="cedilla" unicode="&#xb8;" horiz-adv-x="600" 
d="M294 -56q51 1 81 -18.5t30 -55.5q0 -43 -32.5 -68.5t-90.5 -25.5q-69 0 -98 34q-2 9 2.5 24t9.5 18q1 -1 13.5 -12.5t44.5 -11.5q20 0 31 11t11 30t-13 31.5t-37 12.5l-12 -1l20 104h53z" />
    <glyph glyph-name="uni00B9" unicode="&#xb9;" horiz-adv-x="355" 
d="M190.5 238.5q-15.5 15.5 -15.5 41.5v310q0 17 -2 27q-25 -29 -53 -53t-47 -24q-31 0 -37.5 23t-6.5 48l145 92q24 8 41 8q27 0 44 -15.5t17 -42.5v-308q0 -55 15 -97q-8 -9 -24 -17t-36 -8q-25 0 -40.5 15.5z" />
    <glyph glyph-name="ordmasculine" unicode="&#xba;" horiz-adv-x="401" 
d="M71 407.5q-46 47.5 -46 131.5q0 85 46 132.5t129 47.5t129.5 -47.5t46.5 -132.5q0 -84 -46.5 -131.5t-129.5 -47.5t-129 47.5zM271 539q0 146 -70 146q-37 0 -54 -36t-17 -110t17 -110t54 -36q70 0 70 146z" />
    <glyph glyph-name="guillemotright" unicode="&#xbb;" horiz-adv-x="734" 
d="M351 489l361 -214q3 -7 3 -39q0 -27 -3 -35l-360 -196l-33 45l266 188v5l-266 198zM75 489l361 -214q3 -7 3 -39q0 -27 -3 -35l-360 -196l-33 45l266 188v5l-266 198z" />
    <glyph glyph-name="onequarter" unicode="&#xbc;" horiz-adv-x="984" 
d="M190.5 238.5q-15.5 15.5 -15.5 41.5v310q0 17 -2 27q-25 -29 -53 -53t-47 -24q-31 0 -37.5 23t-6.5 48l145 92q24 8 41 8q27 0 44 -15.5t17 -42.5v-308q0 -55 15 -97q-8 -9 -24 -17t-36 -8q-25 0 -40.5 15.5zM599 712q41 0 61 -28l-330 -698q-5 -1 -15 -1q-35 0 -58 23
l326 703q5 1 16 1zM967 151q0 -24 -13 -46h-61q0 -49 14 -91q-7 -9 -23 -17t-36 -8q-25 0 -41 15.5t-16 42.5v58h-212q-15 1 -24.5 12.5t-9.5 25.5q0 12 7 22l221 287q8 10 25.5 17.5t33.5 7.5q27 0 44 -15t17 -42v-250q35 3 68 13q6 -15 6 -32zM791 167v222l-176 -222h176z
" />
    <glyph glyph-name="onehalf" unicode="&#xbd;" horiz-adv-x="1016" 
d="M190.5 238.5q-15.5 15.5 -15.5 41.5v310q0 17 -2 27q-25 -29 -53 -53t-47 -24q-31 0 -37.5 23t-6.5 48l145 92q24 8 41 8q27 0 44 -15.5t17 -42.5v-308q0 -55 15 -97q-8 -9 -24 -17t-36 -8q-25 0 -40.5 15.5zM609 712q41 0 61 -28l-330 -698q-5 -1 -15 -1q-35 0 -58 23
l326 703q5 1 16 1zM619 41q0 12 2 18q36 20 89 61t100.5 107.5t47.5 142.5q0 32 -17 55t-52 23q-75 0 -77 -137q-48 0 -67.5 22.5t-19.5 50.5q0 44 47 71t126 27q78 0 125.5 -31.5t47.5 -92.5q0 -77 -55 -145.5t-124.5 -112.5t-99.5 -45q59 3 154.5 25t123.5 45q9 -7 14 -26
t5 -40q0 -24 -6.5 -41t-19.5 -18h-329q-15 15 -15 41z" />
    <glyph glyph-name="threequarters" unicode="&#xbe;" horiz-adv-x="1058" 
d="M63 245.5q-38 24.5 -38 53.5q0 23 16.5 42t59.5 19q3 -28 8.5 -49t25.5 -39t60 -18t65.5 26.5t25.5 70.5q0 56 -48 82t-120 25v37q52 3 85.5 20.5t48 42t14.5 48.5q0 35 -15 53t-48 18q-76 0 -76 -103q-46 -1 -62 15.5t-16 34.5q0 41 41.5 64t119.5 23q69 0 121 -25
t52 -88q0 -41 -35.5 -73.5t-90.5 -46.5q147 -23 147 -116q0 -64 -55.5 -102.5t-147.5 -38.5q-100 0 -138 24.5zM677 712q41 0 61 -28l-330 -698q-5 -1 -15 -1q-35 0 -58 23l326 703q5 1 16 1zM1045 151q0 -24 -13 -46h-61q0 -49 14 -91q-7 -9 -23 -17t-36 -8q-25 0 -41 15.5
t-16 42.5v58h-212q-15 1 -24.5 12.5t-9.5 25.5q0 12 7 22l221 287q8 10 25.5 17.5t33.5 7.5q27 0 44 -15t17 -42v-250q35 3 68 13q6 -15 6 -32zM869 167v222l-176 -222h176z" />
    <glyph glyph-name="questiondown" unicode="&#xbf;" horiz-adv-x="505" 
d="M370 512.5q22 -21.5 22 -52.5t-21.5 -52.5t-53.5 -21.5q-31 0 -52.5 21.5t-21.5 52.5t21.5 52.5t52.5 21.5t53 -21.5zM355 163q-78 -2 -130 -48.5t-52 -131.5q0 -64 31 -106.5t92 -42.5q106 0 110 155q106 0 106 -67q0 -38 -27.5 -68.5t-78.5 -48t-120 -17.5
q-112 0 -181.5 48.5t-69.5 152.5q0 72 35 121.5t87 74.5t104 28v109h94v-159z" />
    <glyph glyph-name="Agrave" unicode="&#xc0;" horiz-adv-x="623" 
d="M619 16q-26 -30 -77 -30q-31 0 -52.5 13t-26.5 38l-45 168h-226l-33 -129q-7 -26 -7 -44q0 -21 11 -32q-19 -7 -34.5 -10.5t-37.5 -3.5q-38 0 -55.5 13t-17.5 42q0 24 13 68l197 585q55 18 110 18q60 0 71 -43l178 -591q12 -41 32 -62zM399 276l-96 358l-93 -358h189z
M192.5 872q23.5 25 41.5 33l144 -131q1 -4 -6.5 -15t-13.5 -14l-197 80q8 22 31.5 47z" />
    <glyph glyph-name="Aacute" unicode="&#xc1;" horiz-adv-x="623" 
d="M619 16q-26 -30 -77 -30q-31 0 -52.5 13t-26.5 38l-45 168h-226l-33 -129q-7 -26 -7 -44q0 -21 11 -32q-19 -7 -34.5 -10.5t-37.5 -3.5q-38 0 -55.5 13t-17.5 42q0 24 13 68l197 585q55 18 110 18q60 0 71 -43l178 -591q12 -41 32 -62zM399 276l-96 358l-93 -358h189z
M275 745q-6 3 -13.5 14t-7.5 15l144 131q18 -8 41.5 -33t31.5 -47z" />
    <glyph glyph-name="Acircumflex" unicode="&#xc2;" horiz-adv-x="623" 
d="M619 16q-26 -30 -77 -30q-31 0 -52.5 13t-26.5 38l-45 168h-226l-33 -129q-7 -26 -7 -44q0 -21 11 -32q-19 -7 -34.5 -10.5t-37.5 -3.5q-38 0 -55.5 13t-17.5 42q0 24 13 68l197 585q55 18 110 18q60 0 71 -43l178 -591q12 -41 32 -62zM399 276l-96 358l-93 -358h189z
M483 765q0 -5 -8.5 -15t-15.5 -13l-146 79l-147 -79q-6 3 -14.5 13t-9.5 15l137 131q10 5 33 5q24 0 34 -5z" />
    <glyph glyph-name="Atilde" unicode="&#xc3;" horiz-adv-x="623" 
d="M619 16q-26 -30 -77 -30q-31 0 -52.5 13t-26.5 38l-45 168h-226l-33 -129q-7 -26 -7 -44q0 -21 11 -32q-19 -7 -34.5 -10.5t-37.5 -3.5q-38 0 -55.5 13t-17.5 42q0 24 13 68l197 585q55 18 110 18q60 0 71 -43l178 -591q12 -41 32 -62zM399 276l-96 358l-93 -358h189z
M444.5 786.5q-23.5 -28.5 -61.5 -28.5q-17 0 -33 5.5t-37 16.5q-21 10 -36 15.5t-30 5.5q-26 0 -40 -10.5t-23 -28.5l-5 -1q-12 0 -24 10q5 56 32.5 80.5t65.5 24.5q17 0 33.5 -5.5t37.5 -16.5q22 -11 37 -16.5t32 -5.5q23 0 33.5 9.5t20.5 29.5q11 0 17 -1.5t12 -6.5
q-8 -48 -31.5 -76.5z" />
    <glyph glyph-name="Adieresis" unicode="&#xc4;" horiz-adv-x="623" 
d="M619 16q-26 -30 -77 -30q-31 0 -52.5 13t-26.5 38l-45 168h-226l-33 -129q-7 -26 -7 -44q0 -21 11 -32q-19 -7 -34.5 -10.5t-37.5 -3.5q-38 0 -55.5 13t-17.5 42q0 24 13 68l197 585q55 18 110 18q60 0 71 -43l178 -591q12 -41 32 -62zM399 276l-96 358l-93 -358h189z
M163.5 776q-19.5 20 -19.5 48t20 48t48 20t48 -20t20 -48t-20 -48t-48 -20q-29 0 -48.5 20zM374.5 776q-19.5 20 -19.5 48t20 48t48 20t48 -20t20 -48t-20 -48t-48 -20q-29 0 -48.5 20z" />
    <glyph glyph-name="Aring" unicode="&#xc5;" horiz-adv-x="623" 
d="M619 16q-26 -30 -77 -30q-31 0 -52.5 13t-26.5 38l-45 168h-226l-33 -129q-7 -26 -7 -44q0 -21 11 -32q-19 -7 -34.5 -10.5t-37.5 -3.5q-38 0 -55.5 13t-17.5 42q0 24 13 68l197 585q55 18 110 18q60 0 71 -43l178 -591q12 -41 32 -62zM399 276l-96 358l-93 -358h189z
M392 894.5q27 -23.5 27 -62.5q-1 -40 -29 -64.5t-73 -24.5q-44 0 -71 23.5t-27 61.5q0 41 28.5 65.5t73.5 24.5q44 0 71 -23.5zM291 869q-10 -14 -10 -39t10 -38.5t28 -13.5q38 0 38 52q0 26 -9.5 39.5t-28.5 13.5q-18 0 -28 -14z" />
    <glyph glyph-name="AE" unicode="&#xc6;" horiz-adv-x="869" 
d="M821.5 92q6.5 -18 6.5 -38q0 -23 -8 -38.5t-24 -15.5h-318q-32 0 -53 18t-21 49v138h-183l-57 -129q-7 -15 -7 -44q0 -21 9 -32q-19 -7 -34 -10.5t-36 -3.5q-38 0 -58 17t-20 47q0 26 18 59l297 567q30 9 85 15t94 6h281q10 0 15.5 -10t5.5 -26q0 -24 -10 -47.5
t-25 -30.5q-54 22 -118 36t-127 15v-237h216q5 -18 5 -34q0 -19 -5 -37h-216v-263q66 2 146 18.5t123 35.5q12 -7 18.5 -25zM404 276l-1 262q0 43 -5 67l-146 -329h152z" />
    <glyph glyph-name="Ccedilla" unicode="&#xc7;" horiz-adv-x="616" 
d="M544.5 52.5q-34.5 -31.5 -90 -48.5t-117.5 -18l-8 -42q51 1 81 -18.5t30 -55.5q0 -43 -32.5 -68.5t-90.5 -25.5q-69 0 -98 34q-2 9 2.5 24t9.5 18q1 -1 13.5 -12.5t44.5 -11.5q20 0 31 11t11 30t-13 31.5t-37 12.5l-12 -1l15 77q-112 16 -173.5 109t-61.5 251
q0 173 76 267.5t213 94.5q56 0 107 -14t83.5 -41t32.5 -63q0 -31 -28 -53.5t-77 -21.5q-15 148 -116 148q-75 0 -111 -78.5t-36 -238.5t35 -238.5t109 -78.5q54 0 88 40t44 120q14 2 21 2q36 0 62.5 -18t26.5 -49q0 -43 -34.5 -74.5z" />
    <glyph glyph-name="Egrave" unicode="&#xc8;" horiz-adv-x="552" 
d="M503.5 92q6.5 -18 6.5 -38q0 -23 -8 -38.5t-24 -15.5h-318q-33 0 -54 18t-21 49v471q0 76 -19 126q24 20 48.5 26.5t70.5 6.5h290q11 0 16 -10t5 -26q0 -23 -10 -47t-25 -31q-118 48 -246 51v-237h217q5 -18 5 -34q0 -19 -5 -37h-216v-263q66 2 146 18.5t123 35.5
q12 -7 18.5 -25zM154.5 872q23.5 25 41.5 33l144 -131q1 -4 -6.5 -15t-13.5 -14l-197 80q8 22 31.5 47z" />
    <glyph glyph-name="Eacute" unicode="&#xc9;" horiz-adv-x="552" 
d="M503.5 92q6.5 -18 6.5 -38q0 -23 -8 -38.5t-24 -15.5h-318q-33 0 -54 18t-21 49v471q0 76 -19 126q24 20 48.5 26.5t70.5 6.5h290q11 0 16 -10t5 -26q0 -23 -10 -47t-25 -31q-118 48 -246 51v-237h217q5 -18 5 -34q0 -19 -5 -37h-216v-263q66 2 146 18.5t123 35.5
q12 -7 18.5 -25zM238 745q-6 3 -13.5 14t-7.5 15l144 131q18 -8 41.5 -33t31.5 -47z" />
    <glyph glyph-name="Ecircumflex" unicode="&#xca;" horiz-adv-x="552" 
d="M503.5 92q6.5 -18 6.5 -38q0 -23 -8 -38.5t-24 -15.5h-318q-33 0 -54 18t-21 49v471q0 76 -19 126q24 20 48.5 26.5t70.5 6.5h290q11 0 16 -10t5 -26q0 -23 -10 -47t-25 -31q-118 48 -246 51v-237h217q5 -18 5 -34q0 -19 -5 -37h-216v-263q66 2 146 18.5t123 35.5
q12 -7 18.5 -25zM446 765q0 -5 -8.5 -15t-15.5 -13l-146 79l-147 -79q-6 3 -14.5 13t-9.5 15l137 131q10 5 33 5q24 0 34 -5z" />
    <glyph glyph-name="Edieresis" unicode="&#xcb;" horiz-adv-x="552" 
d="M503.5 92q6.5 -18 6.5 -38q0 -23 -8 -38.5t-24 -15.5h-318q-33 0 -54 18t-21 49v471q0 76 -19 126q24 20 48.5 26.5t70.5 6.5h290q11 0 16 -10t5 -26q0 -23 -10 -47t-25 -31q-118 48 -246 51v-237h217q5 -18 5 -34q0 -19 -5 -37h-216v-263q66 2 146 18.5t123 35.5
q12 -7 18.5 -25zM126.5 776q-19.5 20 -19.5 48t20 48t48 20t48 -20t20 -48t-20 -48t-48 -20q-29 0 -48.5 20zM337.5 776q-19.5 20 -19.5 48t20 48t48 20t48 -20t20 -48t-20 -48t-48 -20q-29 0 -48.5 20z" />
    <glyph glyph-name="Igrave" unicode="&#xcc;" horiz-adv-x="301" 
d="M106 4q-21 18 -21 49v502q0 76 -19 126q11 11 30.5 20t44.5 9q33 0 54 -18t21 -49v-502q0 -79 19 -126q-11 -11 -30.5 -20t-44.5 -9q-33 0 -54 18zM12.5 872q23.5 25 41.5 33l144 -131q1 -4 -6.5 -15t-13.5 -14l-197 80q8 22 31.5 47z" />
    <glyph glyph-name="Iacute" unicode="&#xcd;" horiz-adv-x="301" 
d="M106 4q-21 18 -21 49v502q0 76 -19 126q11 11 30.5 20t44.5 9q33 0 54 -18t21 -49v-502q0 -79 19 -126q-11 -11 -30.5 -20t-44.5 -9q-33 0 -54 18zM95 745q-6 3 -13.5 14t-7.5 15l144 131q18 -8 41.5 -33t31.5 -47z" />
    <glyph glyph-name="Icircumflex" unicode="&#xce;" horiz-adv-x="301" 
d="M106 4q-21 18 -21 49v502q0 76 -19 126q11 11 30.5 20t44.5 9q33 0 54 -18t21 -49v-502q0 -79 19 -126q-11 -11 -30.5 -20t-44.5 -9q-33 0 -54 18zM304 765q0 -5 -8.5 -15t-15.5 -13l-146 79l-147 -79q-6 3 -14.5 13t-9.5 15l137 131q10 5 33 5q24 0 34 -5z" />
    <glyph glyph-name="Idieresis" unicode="&#xcf;" horiz-adv-x="301" 
d="M106 4q-21 18 -21 49v502q0 76 -19 126q11 11 30.5 20t44.5 9q33 0 54 -18t21 -49v-502q0 -79 19 -126q-11 -11 -30.5 -20t-44.5 -9q-33 0 -54 18zM-15.5 776q-19.5 20 -19.5 48t20 48t48 20t48 -20t20 -48t-20 -48t-48 -20q-29 0 -48.5 20zM195.5 776q-19.5 20 -19.5 48
t20 48t48 20t48 -20t20 -48t-20 -48t-48 -20q-29 0 -48.5 20z" />
    <glyph glyph-name="Eth" unicode="&#xd0;" horiz-adv-x="655" 
d="M521.5 618.5q81.5 -88.5 81.5 -260.5q0 -358 -308 -358h-139q-35 0 -55.5 18t-20.5 48l-1 259h-58q-4 18 -4 25q0 8 4 24h58v181v36q0 74 -13 108q63 8 222 8q152 0 233.5 -88.5zM385.5 76q37.5 30 55.5 96.5t18 176.5q0 162 -41.5 237t-129.5 75h-77v-287h128
q4 -11 4 -24t-4 -25h-128v-279h77q60 0 97.5 30z" />
    <glyph glyph-name="Ntilde" unicode="&#xd1;" horiz-adv-x="700" 
d="M66 3q19 51 19 138v414q0 83 -7 138q6 8 23.5 12t36.5 4q25 0 31 -6q25 -36 143 -193q107 -143 160.5 -218t75.5 -123l-33 449l-1 14q0 33 15.5 53t45.5 23q32 2 54 -13q-13 -39 -13 -123l-1 -433q0 -89 6 -136q-7 -7 -23.5 -11.5t-34.5 -4.5q-21 0 -30 5
q-269 315 -376 515l28 -446q3 -32 -18 -53.5t-47 -21.5q-31 0 -54 17zM477.5 786.5q-23.5 -28.5 -61.5 -28.5q-17 0 -33 5.5t-37 16.5q-21 10 -36 15.5t-30 5.5q-26 0 -40 -10.5t-23 -28.5l-5 -1q-12 0 -24 10q5 56 32.5 80.5t65.5 24.5q17 0 33.5 -5.5t37.5 -16.5
q22 -11 37 -16.5t32 -5.5q23 0 33.5 9.5t20.5 29.5q11 0 17 -1.5t12 -6.5q-8 -48 -31.5 -76.5z" />
    <glyph glyph-name="Ograve" unicode="&#xd2;" horiz-adv-x="664" 
d="M120.5 77q-71.5 91 -71.5 272q0 180 71.5 271t211.5 91t211.5 -91t71.5 -271q0 -181 -71.5 -272t-211.5 -91t-211.5 91zM437 107.5q33 75.5 33 241.5t-33 241.5t-105 75.5t-105.5 -76t-33.5 -241t33.5 -241t105.5 -76t105 75.5zM207.5 872q23.5 25 41.5 33l144 -131
q1 -4 -6.5 -15t-13.5 -14l-197 80q8 22 31.5 47z" />
    <glyph glyph-name="Oacute" unicode="&#xd3;" horiz-adv-x="664" 
d="M120.5 77q-71.5 91 -71.5 272q0 180 71.5 271t211.5 91t211.5 -91t71.5 -271q0 -181 -71.5 -272t-211.5 -91t-211.5 91zM437 107.5q33 75.5 33 241.5t-33 241.5t-105 75.5t-105.5 -76t-33.5 -241t33.5 -241t105.5 -76t105 75.5zM290 745q-6 3 -13.5 14t-7.5 15l144 131
q18 -8 41.5 -33t31.5 -47z" />
    <glyph glyph-name="Ocircumflex" unicode="&#xd4;" horiz-adv-x="664" 
d="M120.5 77q-71.5 91 -71.5 272q0 180 71.5 271t211.5 91t211.5 -91t71.5 -271q0 -181 -71.5 -272t-211.5 -91t-211.5 91zM437 107.5q33 75.5 33 241.5t-33 241.5t-105 75.5t-105.5 -76t-33.5 -241t33.5 -241t105.5 -76t105 75.5zM498 765q0 -5 -8.5 -15t-15.5 -13l-146 79
l-147 -79q-6 3 -14.5 13t-9.5 15l137 131q10 5 33 5q24 0 34 -5z" />
    <glyph glyph-name="Otilde" unicode="&#xd5;" horiz-adv-x="664" 
d="M120.5 77q-71.5 91 -71.5 272q0 180 71.5 271t211.5 91t211.5 -91t71.5 -271q0 -181 -71.5 -272t-211.5 -91t-211.5 91zM437 107.5q33 75.5 33 241.5t-33 241.5t-105 75.5t-105.5 -76t-33.5 -241t33.5 -241t105.5 -76t105 75.5zM459.5 786.5q-23.5 -28.5 -61.5 -28.5
q-17 0 -33 5.5t-37 16.5q-21 10 -36 15.5t-30 5.5q-26 0 -40 -10.5t-23 -28.5l-5 -1q-12 0 -24 10q5 56 32.5 80.5t65.5 24.5q17 0 33.5 -5.5t37.5 -16.5q22 -11 37 -16.5t32 -5.5q23 0 33.5 9.5t20.5 29.5q11 0 17 -1.5t12 -6.5q-8 -48 -31.5 -76.5z" />
    <glyph glyph-name="Odieresis" unicode="&#xd6;" horiz-adv-x="664" 
d="M120.5 77q-71.5 91 -71.5 272q0 180 71.5 271t211.5 91t211.5 -91t71.5 -271q0 -181 -71.5 -272t-211.5 -91t-211.5 91zM437 107.5q33 75.5 33 241.5t-33 241.5t-105 75.5t-105.5 -76t-33.5 -241t33.5 -241t105.5 -76t105 75.5zM178.5 776q-19.5 20 -19.5 48t20 48t48 20
t48 -20t20 -48t-20 -48t-48 -20q-29 0 -48.5 20zM389.5 776q-19.5 20 -19.5 48t20 48t48 20t48 -20t20 -48t-20 -48t-48 -20q-29 0 -48.5 20z" />
    <glyph glyph-name="multiply" unicode="&#xd7;" horiz-adv-x="502" 
d="M299 347l131 -131q-16 -34 -48 -49l-131 132l-132 -132q-33 16 -47 49l131 131l-131 130q16 34 48 49l131 -131l131 131q33 -15 48 -48z" />
    <glyph glyph-name="Oslash" unicode="&#xd8;" horiz-adv-x="659" 
d="M615 349q0 -181 -71.5 -272t-211.5 -91q-107 0 -175 54l-33 -55q-27 0 -42 24l40 66q-73 93 -73 274q0 180 71.5 271t211.5 91q89 0 149 -36l33 54q27 1 41 -24l-35 -59q95 -89 95 -297zM201 208l233 388q-32 70 -102 70q-72 0 -105.5 -76t-33.5 -241q0 -79 8 -141z
M437 107.5q33 75.5 33 241.5q0 117 -16 187l-238 -398q16 -54 45 -80t71 -26q72 0 105 75.5z" />
    <glyph glyph-name="Ugrave" unicode="&#xd9;" horiz-adv-x="673" 
d="M599 307q0 -160 -66 -240.5t-196 -80.5q-128 0 -191.5 78t-63.5 243v248q0 76 -19 126q11 11 30.5 20t44.5 9q32 0 53 -18t21 -49v-343q0 -141 30 -204.5t95 -63.5q68 0 100 67t32 201v255q0 76 -19 126q12 11 31 20t43 9q32 0 53.5 -18t21.5 -49v-336zM211.5 872
q23.5 25 41.5 33l144 -131q1 -4 -6.5 -15t-13.5 -14l-197 80q8 22 31.5 47z" />
    <glyph glyph-name="Uacute" unicode="&#xda;" horiz-adv-x="673" 
d="M599 307q0 -160 -66 -240.5t-196 -80.5q-128 0 -191.5 78t-63.5 243v248q0 76 -19 126q11 11 30.5 20t44.5 9q32 0 53 -18t21 -49v-343q0 -141 30 -204.5t95 -63.5q68 0 100 67t32 201v255q0 76 -19 126q12 11 31 20t43 9q32 0 53.5 -18t21.5 -49v-336zM295 745
q-6 3 -13.5 14t-7.5 15l144 131q18 -8 41.5 -33t31.5 -47z" />
    <glyph glyph-name="Ucircumflex" unicode="&#xdb;" horiz-adv-x="673" 
d="M599 307q0 -160 -66 -240.5t-196 -80.5q-128 0 -191.5 78t-63.5 243v248q0 76 -19 126q11 11 30.5 20t44.5 9q32 0 53 -18t21 -49v-343q0 -141 30 -204.5t95 -63.5q68 0 100 67t32 201v255q0 76 -19 126q12 11 31 20t43 9q32 0 53.5 -18t21.5 -49v-336zM503 765
q0 -5 -8.5 -15t-15.5 -13l-146 79l-147 -79q-6 3 -14.5 13t-9.5 15l137 131q10 5 33 5q24 0 34 -5z" />
    <glyph glyph-name="Udieresis" unicode="&#xdc;" horiz-adv-x="673" 
d="M599 307q0 -160 -66 -240.5t-196 -80.5q-128 0 -191.5 78t-63.5 243v248q0 76 -19 126q11 11 30.5 20t44.5 9q32 0 53 -18t21 -49v-343q0 -141 30 -204.5t95 -63.5q68 0 100 67t32 201v255q0 76 -19 126q12 11 31 20t43 9q32 0 53.5 -18t21.5 -49v-336zM183.5 776
q-19.5 20 -19.5 48t20 48t48 20t48 -20t20 -48t-20 -48t-48 -20q-29 0 -48.5 20zM394.5 776q-19.5 20 -19.5 48t20 48t48 20t48 -20t20 -48t-20 -48t-48 -20q-29 0 -48.5 20z" />
    <glyph glyph-name="Yacute" unicode="&#xdd;" horiz-adv-x="593" 
d="M362 262v-121q0 -76 19 -126q-11 -11 -31 -20t-44 -9q-33 0 -54 18t-21 49v209q-11 14 -22 37l-155 301q-22 41 -49 67q15 15 39 27.5t54 12.5q36 0 55 -18t36 -55l133 -286l121 268q11 23 11 43q0 10 -3.5 19.5t-9.5 15.5q31 13 74 13q30 0 45 -15.5t16 -40.5
q0 -15 -8.5 -36.5t-22.5 -43.5zM275 745q-6 3 -13.5 14t-7.5 15l144 131q18 -8 41.5 -33t31.5 -47z" />
    <glyph glyph-name="Thorn" unicode="&#xde;" horiz-adv-x="582" 
d="M470.5 531.5q76.5 -49.5 76.5 -156.5q0 -113 -79.5 -173.5t-227.5 -60.5h-24v0q0 -79 19 -126q-11 -11 -30.5 -20t-44.5 -9q-33 0 -54 18t-21 49v502q0 76 -19 126q11 11 30.5 20t44.5 9q33 0 53.5 -18t20.5 -49v-62h30q149 0 225.5 -49.5zM364 233q39 47 39 132
q0 170 -155 170l-33 1l1 -350h18q91 0 130 47z" />
    <glyph glyph-name="germandbls" unicode="&#xdf;" horiz-adv-x="615" 
d="M90 9q-22 20 -22 54l-1 340q-1 167 65 248.5t191 81.5q94 0 142 -41t48 -107q0 -43 -17.5 -73t-48.5 -63q-22 -25 -31 -38.5t-9 -30.5q0 -22 17 -38t53 -39l18 -12q45 -29 70 -61t25 -83q0 -68 -47.5 -113.5t-143.5 -45.5q-74 0 -111.5 28.5t-37.5 77.5q0 23 10.5 43
t39.5 21h7q9 0 13 -1q-3 -16 -3 -35q0 -35 18.5 -56t50.5 -21q33 0 52 20.5t19 52.5q0 34 -18.5 54.5t-53.5 40.5q-36 21 -56.5 36.5t-34 39t-13.5 57.5q0 45 21.5 75.5t63.5 65.5q36 31 53 53t17 53q0 39 -29 67.5t-82 28.5q-59 0 -87.5 -36t-35.5 -88.5t-7 -134.5v-125
q0 -122 1 -169t5.5 -69t16.5 -49q-12 -10 -33 -19.5t-44 -9.5q-29 0 -51 20z" />
    <glyph glyph-name="agrave" unicode="&#xe0;" horiz-adv-x="565" 
d="M559 59q0 -29 -25 -49t-67 -20q-48 0 -75 31.5t-31 102.5q-28 -61 -78 -97.5t-116 -36.5q-59 0 -95 31t-36 87q0 64 49 105t124 63q65 18 143 20v25q0 85 -20 125t-69 40q-32 0 -52 -18.5t-20 -56.5q0 -53 36 -74q-11 -11 -29.5 -17t-39.5 -6q-46 0 -72.5 26t-26.5 66
q0 59 57 91.5t155 32.5q111 0 162.5 -51t51.5 -166v-174q0 -53 33 -53q7 0 15 3.5t13 10.5q13 -19 13 -41zM286 98q30 24 50 65.5t20 90.5q-79 0 -118 -22q-28 -14 -44.5 -38t-16.5 -55q0 -27 12.5 -46t37.5 -19q29 0 59 24zM156 728.5q35 9.5 60 9.5q8 0 11 -1l90 -158
q-9 -7 -46 -9l-158 142q8 7 43 16.5z" />
    <glyph glyph-name="aacute" unicode="&#xe1;" horiz-adv-x="565" 
d="M559 59q0 -29 -25 -49t-67 -20q-48 0 -75 31.5t-31 102.5q-28 -61 -78 -97.5t-116 -36.5q-59 0 -95 31t-36 87q0 64 49 105t124 63q65 18 143 20v25q0 85 -20 125t-69 40q-32 0 -52 -18.5t-20 -56.5q0 -53 36 -74q-11 -11 -29.5 -17t-39.5 -6q-46 0 -72.5 26t-26.5 66
q0 59 57 91.5t155 32.5q111 0 162.5 -51t51.5 -166v-174q0 -53 33 -53q7 0 15 3.5t13 10.5q13 -19 13 -41zM286 98q30 24 50 65.5t20 90.5q-79 0 -118 -22q-28 -14 -44.5 -38t-16.5 -55q0 -27 12.5 -46t37.5 -19q29 0 59 24zM280 570q-36 2 -47 9l90 158q3 1 11 1
q25 0 60 -9.5t44 -16.5z" />
    <glyph glyph-name="acircumflex" unicode="&#xe2;" horiz-adv-x="565" 
d="M559 59q0 -29 -25 -49t-67 -20q-48 0 -75 31.5t-31 102.5q-28 -61 -78 -97.5t-116 -36.5q-59 0 -95 31t-36 87q0 64 49 105t124 63q65 18 143 20v25q0 85 -20 125t-69 40q-32 0 -52 -18.5t-20 -56.5q0 -53 36 -74q-11 -11 -29.5 -17t-39.5 -6q-46 0 -72.5 26t-26.5 66
q0 59 57 91.5t155 32.5q111 0 162.5 -51t51.5 -166v-174q0 -53 33 -53q7 0 15 3.5t13 10.5q13 -19 13 -41zM286 98q30 24 50 65.5t20 90.5q-79 0 -118 -22q-28 -14 -44.5 -38t-16.5 -55q0 -27 12.5 -46t37.5 -19q29 0 59 24zM121 572.5q-14 5.5 -15 9.5l129 156q8 4 35 4
q24 0 32 -4l129 -156q-1 -4 -16 -9.5t-24 -5.5l-122 83l-125 -83q-9 0 -23 5.5z" />
    <glyph glyph-name="atilde" unicode="&#xe3;" horiz-adv-x="565" 
d="M559 59q0 -29 -25 -49t-67 -20q-48 0 -75 31.5t-31 102.5q-28 -61 -78 -97.5t-116 -36.5q-59 0 -95 31t-36 87q0 64 49 105t124 63q65 18 143 20v25q0 85 -20 125t-69 40q-32 0 -52 -18.5t-20 -56.5q0 -53 36 -74q-11 -11 -29.5 -17t-39.5 -6q-46 0 -72.5 26t-26.5 66
q0 59 57 91.5t155 32.5q111 0 162.5 -51t51.5 -166v-174q0 -53 33 -53q7 0 15 3.5t13 10.5q13 -19 13 -41zM286 98q30 24 50 65.5t20 90.5q-79 0 -118 -22q-28 -14 -44.5 -38t-16.5 -55q0 -27 12.5 -46t37.5 -19q29 0 59 24zM392 607q-22 -28 -58 -28q-16 0 -31.5 6
t-33.5 17q-3 2 -15.5 8t-24 9.5t-21.5 3.5q-42 0 -61 -39h-2q-5 0 -12.5 2.5t-11.5 6.5q4 53 30 77.5t62 24.5q17 0 31.5 -5.5t34.5 -17.5q20 -11 34 -16.5t29 -5.5q22 0 33 10t19 30q10 0 15.5 -1.5t10.5 -6.5q-6 -47 -28 -75z" />
    <glyph glyph-name="adieresis" unicode="&#xe4;" horiz-adv-x="565" 
d="M559 59q0 -29 -25 -49t-67 -20q-48 0 -75 31.5t-31 102.5q-28 -61 -78 -97.5t-116 -36.5q-59 0 -95 31t-36 87q0 64 49 105t124 63q65 18 143 20v25q0 85 -20 125t-69 40q-32 0 -52 -18.5t-20 -56.5q0 -53 36 -74q-11 -11 -29.5 -17t-39.5 -6q-46 0 -72.5 26t-26.5 66
q0 59 57 91.5t155 32.5q111 0 162.5 -51t51.5 -166v-174q0 -53 33 -53q7 0 15 3.5t13 10.5q13 -19 13 -41zM286 98q30 24 50 65.5t20 90.5q-79 0 -118 -22q-28 -14 -44.5 -38t-16.5 -55q0 -27 12.5 -46t37.5 -19q29 0 59 24zM136 602.5q-18 17.5 -18 42.5t18 42.5t43 17.5
t42.5 -17.5t17.5 -42.5t-17.5 -42.5t-42.5 -17.5t-43 17.5zM324.5 602.5q-17.5 17.5 -17.5 42.5t17.5 42.5t42.5 17.5t43 -17.5t18 -42.5t-18 -42.5t-43 -17.5t-42.5 17.5z" />
    <glyph glyph-name="aring" unicode="&#xe5;" horiz-adv-x="565" 
d="M559 59q0 -29 -25 -49t-67 -20q-48 0 -75 31.5t-31 102.5q-28 -61 -78 -97.5t-116 -36.5q-59 0 -95 31t-36 87q0 64 49 105t124 63q65 18 143 20v25q0 85 -20 125t-69 40q-32 0 -52 -18.5t-20 -56.5q0 -53 36 -74q-11 -11 -29.5 -17t-39.5 -6q-46 0 -72.5 26t-26.5 66
q0 59 57 91.5t155 32.5q111 0 162.5 -51t51.5 -166v-174q0 -53 33 -53q7 0 15 3.5t13 10.5q13 -19 13 -41zM286 98q30 24 50 65.5t20 90.5q-79 0 -118 -22q-28 -14 -44.5 -38t-16.5 -55q0 -27 12.5 -46t37.5 -19q29 0 59 24zM347 712.5q27 -23.5 27 -62.5q-1 -40 -29 -64.5
t-73 -24.5q-44 0 -71 23.5t-27 61.5q0 41 28.5 65.5t73.5 24.5q44 0 71 -23.5zM246 687q-10 -14 -10 -39t10 -38.5t28 -13.5q38 0 38 52q0 26 -9.5 39.5t-28.5 13.5q-18 0 -28 -14z" />
    <glyph glyph-name="ae" unicode="&#xe6;" horiz-adv-x="850" 
d="M808 118q0 -13 -7 -31q-19 -48 -69 -74.5t-120 -26.5q-90 0 -151 42.5t-86 122.5q-27 -73 -80.5 -117t-127.5 -44q-59 0 -95 31t-36 87q0 64 49 105t124 63q65 18 147 20v25q0 85 -20 125t-69 40q-35 0 -55.5 -18t-20.5 -57q0 -53 36 -74q-11 -11 -29.5 -17t-39.5 -6
q-46 0 -72.5 26t-26.5 66q0 59 57.5 91.5t158.5 32.5q105 0 156 -67q65 67 182 67q89 0 146 -39.5t57 -111.5q0 -73 -59 -113t-158 -40q-64 0 -99 4q7 -87 44.5 -125t103.5 -38q53 0 90 21t54 56q16 -7 16 -26zM527 429.5q-29 -55.5 -29 -153.5v-1l34 -1q62 0 103.5 26
t41.5 100q0 85 -69 85q-52 0 -81 -55.5zM286.5 98q31.5 24 52.5 65.5t21 90.5q-83 0 -122 -22q-28 -14 -44.5 -38t-16.5 -55q0 -27 12.5 -46t37.5 -19q28 0 59.5 24z" />
    <glyph glyph-name="ccedilla" unicode="&#xe7;" horiz-adv-x="512" 
d="M478 126q0 -13 -4 -28q-14 -50 -59.5 -79t-112.5 -33l-8 -42q51 1 81 -18.5t30 -55.5q0 -43 -32.5 -68.5t-90.5 -25.5q-69 0 -98 34q-2 9 2.5 24t9.5 18q1 -1 13.5 -12.5t44.5 -11.5q20 0 31 11t11 30t-13 31.5t-37 12.5l-12 -1l15 76q-103 11 -158.5 81t-55.5 190
q0 127 66.5 199t188.5 72q89 0 136 -36.5t47 -91.5q0 -40 -25 -64t-65 -24q-20 0 -38.5 6t-29.5 18q29 23 29 75q0 72 -65 72q-49 0 -77 -54t-28 -152q0 -212 151 -212q52 0 88.5 25.5t47.5 66.5q17 -7 17 -33z" />
    <glyph glyph-name="egrave" unicode="&#xe8;" horiz-adv-x="525" 
d="M484 117q0 -13 -7 -30q-19 -48 -69 -74.5t-121 -26.5q-116 0 -184 71.5t-68 201.5q0 127 66 199t188 72q89 0 146 -39.5t57 -111.5q0 -73 -59 -113t-158 -40q-64 0 -99 4q7 -87 44.5 -125t103.5 -38q53 0 90 21t54 56q16 -7 16 -27zM203 429.5q-29 -55.5 -29 -153.5v-1
l34 -1q62 0 103.5 26t41.5 100q0 85 -69 85q-52 0 -81 -55.5zM156 728.5q35 9.5 60 9.5q8 0 11 -1l90 -158q-9 -7 -46 -9l-158 142q8 7 43 16.5z" />
    <glyph glyph-name="eacute" unicode="&#xe9;" horiz-adv-x="525" 
d="M484 117q0 -13 -7 -30q-19 -48 -69 -74.5t-121 -26.5q-116 0 -184 71.5t-68 201.5q0 127 66 199t188 72q89 0 146 -39.5t57 -111.5q0 -73 -59 -113t-158 -40q-64 0 -99 4q7 -87 44.5 -125t103.5 -38q53 0 90 21t54 56q16 -7 16 -27zM203 429.5q-29 -55.5 -29 -153.5v-1
l34 -1q62 0 103.5 26t41.5 100q0 85 -69 85q-52 0 -81 -55.5zM280 570q-36 2 -47 9l90 158q3 1 11 1q25 0 60 -9.5t44 -16.5z" />
    <glyph glyph-name="ecircumflex" unicode="&#xea;" horiz-adv-x="525" 
d="M484 117q0 -13 -7 -30q-19 -48 -69 -74.5t-121 -26.5q-116 0 -184 71.5t-68 201.5q0 127 66 199t188 72q89 0 146 -39.5t57 -111.5q0 -73 -59 -113t-158 -40q-64 0 -99 4q7 -87 44.5 -125t103.5 -38q53 0 90 21t54 56q16 -7 16 -27zM203 429.5q-29 -55.5 -29 -153.5v-1
l34 -1q62 0 103.5 26t41.5 100q0 85 -69 85q-52 0 -81 -55.5zM120 572.5q-14 5.5 -15 9.5l129 156q8 4 35 4q24 0 32 -4l129 -156q-1 -4 -16 -9.5t-24 -5.5l-122 83l-125 -83q-9 0 -23 5.5z" />
    <glyph glyph-name="edieresis" unicode="&#xeb;" horiz-adv-x="525" 
d="M484 117q0 -13 -7 -30q-19 -48 -69 -74.5t-121 -26.5q-116 0 -184 71.5t-68 201.5q0 127 66 199t188 72q89 0 146 -39.5t57 -111.5q0 -73 -59 -113t-158 -40q-64 0 -99 4q7 -87 44.5 -125t103.5 -38q53 0 90 21t54 56q16 -7 16 -27zM203 429.5q-29 -55.5 -29 -153.5v-1
l34 -1q62 0 103.5 26t41.5 100q0 85 -69 85q-52 0 -81 -55.5zM136 602.5q-18 17.5 -18 42.5t18 42.5t43 17.5t42.5 -17.5t17.5 -42.5t-17.5 -42.5t-42.5 -17.5t-43 17.5zM324.5 602.5q-17.5 17.5 -17.5 42.5t17.5 42.5t42.5 17.5t43 -17.5t18 -42.5t-18 -42.5t-43 -17.5
t-42.5 17.5z" />
    <glyph glyph-name="igrave" unicode="&#xec;" horiz-adv-x="266" 
d="M219 15q-11 -11 -30 -20t-44 -9q-31 0 -51.5 18t-20.5 49v322q0 76 -19 127q31 28 72 28q33 0 53 -17.5t20 -49.5l2 -322q0 -79 18 -126zM9 728.5q35 9.5 60 9.5q8 0 11 -1l90 -158q-9 -7 -46 -9l-158 142q8 7 43 16.5z" />
    <glyph glyph-name="iacute" unicode="&#xed;" horiz-adv-x="266" 
d="M219 15q-11 -11 -30 -20t-44 -9q-31 0 -51.5 18t-20.5 49v322q0 76 -19 127q31 28 72 28q33 0 53 -17.5t20 -49.5l2 -322q0 -79 18 -126zM133 570q-36 2 -47 9l90 158q3 1 11 1q25 0 60 -9.5t44 -16.5z" />
    <glyph glyph-name="icircumflex" unicode="&#xee;" horiz-adv-x="266" 
d="M219 15q-11 -11 -30 -20t-44 -9q-31 0 -51.5 18t-20.5 49v322q0 76 -19 127q31 28 72 28q33 0 53 -17.5t20 -49.5l2 -322q0 -79 18 -126zM-26 572.5q-14 5.5 -15 9.5l129 156q8 4 35 4q24 0 32 -4l129 -156q-1 -4 -16 -9.5t-24 -5.5l-122 83l-125 -83q-9 0 -23 5.5z" />
    <glyph glyph-name="idieresis" unicode="&#xef;" horiz-adv-x="266" 
d="M219 15q-11 -11 -30 -20t-44 -9q-31 0 -51.5 18t-20.5 49v322q0 76 -19 127q31 28 72 28q33 0 53 -17.5t20 -49.5l2 -322q0 -79 18 -126zM-11 602.5q-18 17.5 -18 42.5t18 42.5t43 17.5t42.5 -17.5t17.5 -42.5t-17.5 -42.5t-42.5 -17.5t-43 17.5zM177.5 602.5
q-17.5 17.5 -17.5 42.5t17.5 42.5t42.5 17.5t43 -17.5t18 -42.5t-18 -42.5t-43 -17.5t-42.5 17.5z" />
    <glyph glyph-name="eth" unicode="&#xf0;" horiz-adv-x="545" 
d="M483.5 493.5q26.5 -92.5 26.5 -200.5q0 -137 -63.5 -222t-185.5 -85q-124 0 -175 68t-51 187q0 120 56.5 192t156.5 72q81 0 125 -47q-5 35 -23 67.5t-45 58.5l-68 -40q-23 14 -26 42l53 31q-54 35 -100 35q-13 0 -23 -2q5 37 23 60.5t63 23.5q80 0 145 -52l71 42
q25 -12 26 -42l-62 -37q50 -59 76.5 -151.5zM345.5 108.5q23.5 51.5 23.5 167.5q0 78 -19.5 121t-69.5 43q-55 0 -80.5 -51.5t-25.5 -141.5q0 -99 20.5 -144.5t73.5 -45.5q54 0 77.5 51.5z" />
    <glyph glyph-name="ntilde" unicode="&#xf1;" horiz-adv-x="586" 
d="M543 15q-33 -29 -75 -29q-32 0 -53 18t-21 49v255q-1 81 -17 119t-59 38q-48 0 -78 -58.5t-30 -170.5q0 -110 3 -147.5t18 -74.5q-10 -10 -29.5 -19t-43.5 -9q-34 0 -55 20t-21 53v321q-1 28 -7 40.5t-20 12.5q-19 0 -26 -12q-12 20 -12 41q0 30 20.5 48.5t57.5 18.5
q46 0 72.5 -29.5t27.5 -88.5q43 119 167 119q82 0 121.5 -50.5t39.5 -151.5v-187q3 -83 20 -126zM429 607q-22 -28 -58 -28q-16 0 -31.5 6t-33.5 17q-3 2 -15.5 8t-24 9.5t-21.5 3.5q-42 0 -61 -39h-2q-5 0 -12.5 2.5t-11.5 6.5q4 53 30 77.5t62 24.5q17 0 31.5 -5.5
t34.5 -17.5q20 -11 34 -16.5t29 -5.5q22 0 33 10t19 30q10 0 15.5 -1.5t10.5 -6.5q-6 -47 -28 -75z" />
    <glyph glyph-name="ograve" unicode="&#xf2;" horiz-adv-x="560" 
d="M100 57.5q-65 71.5 -65 199.5q0 129 64.5 201t180.5 72q115 0 179.5 -72t64.5 -201q0 -128 -64.5 -199.5t-179.5 -71.5t-180 71.5zM385 257q0 228 -105 228q-54 0 -80 -57t-26 -171q0 -113 26 -169.5t80 -56.5q105 0 105 226zM164 728.5q35 9.5 60 9.5q8 0 11 -1l90 -158
q-9 -7 -46 -9l-158 142q8 7 43 16.5z" />
    <glyph glyph-name="oacute" unicode="&#xf3;" horiz-adv-x="560" 
d="M100 57.5q-65 71.5 -65 199.5q0 129 64.5 201t180.5 72q115 0 179.5 -72t64.5 -201q0 -128 -64.5 -199.5t-179.5 -71.5t-180 71.5zM385 257q0 228 -105 228q-54 0 -80 -57t-26 -171q0 -113 26 -169.5t80 -56.5q105 0 105 226zM288 570q-36 2 -47 9l90 158q3 1 11 1
q25 0 60 -9.5t44 -16.5z" />
    <glyph glyph-name="ocircumflex" unicode="&#xf4;" horiz-adv-x="560" 
d="M100 57.5q-65 71.5 -65 199.5q0 129 64.5 201t180.5 72q115 0 179.5 -72t64.5 -201q0 -128 -64.5 -199.5t-179.5 -71.5t-180 71.5zM385 257q0 228 -105 228q-54 0 -80 -57t-26 -171q0 -113 26 -169.5t80 -56.5q105 0 105 226zM128 572.5q-14 5.5 -15 9.5l129 156
q8 4 35 4q24 0 32 -4l129 -156q-1 -4 -16 -9.5t-24 -5.5l-122 83l-125 -83q-9 0 -23 5.5z" />
    <glyph glyph-name="otilde" unicode="&#xf5;" horiz-adv-x="560" 
d="M100 57.5q-65 71.5 -65 199.5q0 129 64.5 201t180.5 72q115 0 179.5 -72t64.5 -201q0 -128 -64.5 -199.5t-179.5 -71.5t-180 71.5zM385 257q0 228 -105 228q-54 0 -80 -57t-26 -171q0 -113 26 -169.5t80 -56.5q105 0 105 226zM399 607q-22 -28 -58 -28q-16 0 -31.5 6
t-33.5 17q-3 2 -15.5 8t-24 9.5t-21.5 3.5q-42 0 -61 -39h-2q-5 0 -12.5 2.5t-11.5 6.5q4 53 30 77.5t62 24.5q17 0 31.5 -5.5t34.5 -17.5q20 -11 34 -16.5t29 -5.5q22 0 33 10t19 30q10 0 15.5 -1.5t10.5 -6.5q-6 -47 -28 -75z" />
    <glyph glyph-name="odieresis" unicode="&#xf6;" horiz-adv-x="560" 
d="M100 57.5q-65 71.5 -65 199.5q0 129 64.5 201t180.5 72q115 0 179.5 -72t64.5 -201q0 -128 -64.5 -199.5t-179.5 -71.5t-180 71.5zM385 257q0 228 -105 228q-54 0 -80 -57t-26 -171q0 -113 26 -169.5t80 -56.5q105 0 105 226zM144 602.5q-18 17.5 -18 42.5t18 42.5
t43 17.5t42.5 -17.5t17.5 -42.5t-17.5 -42.5t-42.5 -17.5t-43 17.5zM332.5 602.5q-17.5 17.5 -17.5 42.5t17.5 42.5t42.5 17.5t43 -17.5t18 -42.5t-18 -42.5t-43 -17.5t-42.5 17.5z" />
    <glyph glyph-name="divide" unicode="&#xf7;" horiz-adv-x="542" 
d="M235.5 479q-14.5 15 -14.5 36q0 22 14.5 36t36.5 14t36 -14t14 -36q0 -21 -14.5 -36t-35.5 -15q-22 0 -36.5 15zM470 381q7 -15 7 -34q0 -18 -7 -35h-398q-7 21 -7 35q0 15 7 34h398zM235.5 142q-14.5 14 -14.5 36q0 21 14.5 36t36.5 15q21 0 35.5 -15t14.5 -36
q0 -22 -14 -36t-36 -14t-36.5 14z" />
    <glyph glyph-name="oslash" unicode="&#xf8;" horiz-adv-x="560" 
d="M524 257q0 -128 -64.5 -199.5t-179.5 -71.5q-71 0 -122 27l-24 -37q-30 2 -42 25l25 40q-40 35 -61 89.5t-21 126.5q0 129 64.5 201t180.5 72q74 0 128 -31l18 28q26 0 42 -24l-21 -32q77 -72 77 -214zM183 144l178 280q-27 61 -81 61t-80 -57t-26 -171q0 -66 9 -113z
M385 257q0 62 -7 104l-176 -278q26 -52 78 -52q105 0 105 226z" />
    <glyph glyph-name="ugrave" unicode="&#xf9;" horiz-adv-x="581" 
d="M567 54q0 -31 -20.5 -49t-58.5 -18q-45 0 -71.5 29t-28.5 87q-42 -118 -163 -118q-82 0 -120 47t-38 156v186q0 76 -19 127q35 29 74 29q33 0 53.5 -18t20.5 -50l1 -254q0 -86 15 -124t56 -38q48 0 77 60t29 174q0 110 -3 147.5t-19 74.5q11 10 30.5 19t43.5 9
q32 0 53.5 -20t21.5 -54l1 -321q0 -28 6 -40t20 -12q17 0 26 11q13 -19 13 -40zM156 728.5q35 9.5 60 9.5q8 0 11 -1l90 -158q-9 -7 -46 -9l-158 142q8 7 43 16.5z" />
    <glyph glyph-name="uacute" unicode="&#xfa;" horiz-adv-x="581" 
d="M567 54q0 -31 -20.5 -49t-58.5 -18q-45 0 -71.5 29t-28.5 87q-42 -118 -163 -118q-82 0 -120 47t-38 156v186q0 76 -19 127q35 29 74 29q33 0 53.5 -18t20.5 -50l1 -254q0 -86 15 -124t56 -38q48 0 77 60t29 174q0 110 -3 147.5t-19 74.5q11 10 30.5 19t43.5 9
q32 0 53.5 -20t21.5 -54l1 -321q0 -28 6 -40t20 -12q17 0 26 11q13 -19 13 -40zM280 570q-36 2 -47 9l90 158q3 1 11 1q25 0 60 -9.5t44 -16.5z" />
    <glyph glyph-name="ucircumflex" unicode="&#xfb;" horiz-adv-x="581" 
d="M567 54q0 -31 -20.5 -49t-58.5 -18q-45 0 -71.5 29t-28.5 87q-42 -118 -163 -118q-82 0 -120 47t-38 156v186q0 76 -19 127q35 29 74 29q33 0 53.5 -18t20.5 -50l1 -254q0 -86 15 -124t56 -38q48 0 77 60t29 174q0 110 -3 147.5t-19 74.5q11 10 30.5 19t43.5 9
q32 0 53.5 -20t21.5 -54l1 -321q0 -28 6 -40t20 -12q17 0 26 11q13 -19 13 -40zM121 572.5q-14 5.5 -15 9.5l129 156q8 4 35 4q24 0 32 -4l129 -156q-1 -4 -16 -9.5t-24 -5.5l-122 83l-125 -83q-9 0 -23 5.5z" />
    <glyph glyph-name="udieresis" unicode="&#xfc;" horiz-adv-x="581" 
d="M567 54q0 -31 -20.5 -49t-58.5 -18q-45 0 -71.5 29t-28.5 87q-42 -118 -163 -118q-82 0 -120 47t-38 156v186q0 76 -19 127q35 29 74 29q33 0 53.5 -18t20.5 -50l1 -254q0 -86 15 -124t56 -38q48 0 77 60t29 174q0 110 -3 147.5t-19 74.5q11 10 30.5 19t43.5 9
q32 0 53.5 -20t21.5 -54l1 -321q0 -28 6 -40t20 -12q17 0 26 11q13 -19 13 -40zM136 602.5q-18 17.5 -18 42.5t18 42.5t43 17.5t42.5 -17.5t17.5 -42.5t-17.5 -42.5t-42.5 -17.5t-43 17.5zM324.5 602.5q-17.5 17.5 -17.5 42.5t17.5 42.5t42.5 17.5t43 -17.5t18 -42.5
t-18 -42.5t-43 -17.5t-42.5 17.5z" />
    <glyph glyph-name="yacute" unicode="&#xfd;" horiz-adv-x="557" 
d="M502 52q0 -146 -69 -211.5t-189 -65.5q-189 0 -189 105q0 32 24.5 52.5t64.5 20.5q42 0 59 -22q-14 -10 -21 -23.5t-7 -26.5q0 -30 19 -48t53 -18q65 0 99.5 58.5t34.5 160.5q0 20 8 82q-41 -123 -166 -123q-80 0 -118 47t-38 155v179q0 76 -19 127q35 29 74 29
q33 0 53.5 -18t20.5 -50l1 -247q0 -84 14.5 -122.5t54.5 -38.5q49 0 78.5 58.5t29.5 169.5q0 109 -3 146t-19 74q11 10 30.5 19t43.5 9q32 0 53.5 -20t21.5 -54zM289 570q-36 2 -47 9l90 158q3 1 11 1q25 0 60 -9.5t44 -16.5z" />
    <glyph glyph-name="thorn" unicode="&#xfe;" horiz-adv-x="568" 
d="M489.5 459.5q42.5 -70.5 42.5 -182.5q0 -140 -57 -215.5t-158 -75.5q-44 0 -75.5 16t-46.5 45v-51q0 -113 21 -185q-12 -11 -31 -19.5t-43 -8.5q-33 0 -54 18t-21 48v816q0 34 17.5 50.5t48.5 16.5q24 0 46 -9t34 -19q-12 -42 -16.5 -95.5t-5.5 -136.5v-64
q47 122 162 122q94 0 136.5 -70.5zM367.5 110q26.5 57 26.5 168q0 90 -17 136t-63 46q-57 0 -87.5 -76t-30.5 -176q0 -79 20 -117t67 -38q58 0 84.5 57z" />
    <glyph glyph-name="ydieresis" unicode="&#xff;" horiz-adv-x="557" 
d="M502 52q0 -146 -69 -211.5t-189 -65.5q-189 0 -189 105q0 32 24.5 52.5t64.5 20.5q42 0 59 -22q-14 -10 -21 -23.5t-7 -26.5q0 -30 19 -48t53 -18q65 0 99.5 58.5t34.5 160.5q0 20 8 82q-41 -123 -166 -123q-80 0 -118 47t-38 155v179q0 76 -19 127q35 29 74 29
q33 0 53.5 -18t20.5 -50l1 -247q0 -84 14.5 -122.5t54.5 -38.5q49 0 78.5 58.5t29.5 169.5q0 109 -3 146t-19 74q11 10 30.5 19t43.5 9q32 0 53.5 -20t21.5 -54zM145 602.5q-18 17.5 -18 42.5t18 42.5t43 17.5t42.5 -17.5t17.5 -42.5t-17.5 -42.5t-42.5 -17.5t-43 17.5z
M333.5 602.5q-17.5 17.5 -17.5 42.5t17.5 42.5t42.5 17.5t43 -17.5t18 -42.5t-18 -42.5t-43 -17.5t-42.5 17.5z" />
    <glyph glyph-name="Amacron" unicode="&#x100;" horiz-adv-x="623" 
d="M619 16q-26 -30 -77 -30q-31 0 -52.5 13t-26.5 38l-45 168h-226l-33 -129q-7 -26 -7 -44q0 -21 11 -32q-19 -7 -34.5 -10.5t-37.5 -3.5q-38 0 -55.5 13t-17.5 42q0 24 13 68l197 585q55 18 110 18q60 0 71 -43l178 -591q12 -41 32 -62zM399 276l-96 358l-93 -358h189z
M458 836q4 -12 4 -29q0 -16 -4 -29h-280q-5 17 -5 29q0 14 5 29h280z" />
    <glyph glyph-name="amacron" unicode="&#x101;" horiz-adv-x="565" 
d="M559 59q0 -29 -25 -49t-67 -20q-48 0 -75 31.5t-31 102.5q-28 -61 -78 -97.5t-116 -36.5q-59 0 -95 31t-36 87q0 64 49 105t124 63q65 18 143 20v25q0 85 -20 125t-69 40q-32 0 -52 -18.5t-20 -56.5q0 -53 36 -74q-11 -11 -29.5 -17t-39.5 -6q-46 0 -72.5 26t-26.5 66
q0 59 57 91.5t155 32.5q111 0 162.5 -51t51.5 -166v-174q0 -53 33 -53q7 0 15 3.5t13 10.5q13 -19 13 -41zM286 98q30 24 50 65.5t20 90.5q-79 0 -118 -22q-28 -14 -44.5 -38t-16.5 -55q0 -27 12.5 -46t37.5 -19q29 0 59 24zM414 659q4 -13 4 -29t-4 -29h-280q-5 17 -5 29
t5 29h280z" />
    <glyph glyph-name="Abreve" unicode="&#x102;" horiz-adv-x="623" 
d="M619 16q-26 -30 -77 -30q-31 0 -52.5 13t-26.5 38l-45 168h-226l-33 -129q-7 -26 -7 -44q0 -21 11 -32q-19 -7 -34.5 -10.5t-37.5 -3.5q-38 0 -55.5 13t-17.5 42q0 24 13 68l197 585q55 18 110 18q60 0 71 -43l178 -591q12 -41 32 -62zM399 276l-96 358l-93 -358h189z
M410.5 782.5q-34.5 -36.5 -95.5 -36.5t-96 37.5t-44 93.5l40 10q11 -38 38.5 -55t66.5 -17q37 0 64 18t39 54q26 -6 35 -8q-13 -60 -47.5 -96.5z" />
    <glyph glyph-name="abreve" unicode="&#x103;" horiz-adv-x="565" 
d="M559 59q0 -29 -25 -49t-67 -20q-48 0 -75 31.5t-31 102.5q-28 -61 -78 -97.5t-116 -36.5q-59 0 -95 31t-36 87q0 64 49 105t124 63q65 18 143 20v25q0 85 -20 125t-69 40q-32 0 -52 -18.5t-20 -56.5q0 -53 36 -74q-11 -11 -29.5 -17t-39.5 -6q-46 0 -72.5 26t-26.5 66
q0 59 57 91.5t155 32.5q111 0 162.5 -51t51.5 -166v-174q0 -53 33 -53q7 0 15 3.5t13 10.5q13 -19 13 -41zM286 98q30 24 50 65.5t20 90.5q-79 0 -118 -22q-28 -14 -44.5 -38t-16.5 -55q0 -27 12.5 -46t37.5 -19q29 0 59 24zM389 735q19 -5 36 -15q-18 -67 -54.5 -106
t-98.5 -39q-67 0 -103.5 40.5t-49.5 104.5q15 11 40 15q15 -38 45 -57.5t70 -19.5q77 0 115 77z" />
    <glyph glyph-name="Aogonek" unicode="&#x104;" horiz-adv-x="623" 
d="M669 -97q0 -7 -2 -11q-13 -32 -47 -54t-82 -22q-38 0 -69 19t-31 61q0 59 68 95q-36 13 -43 46l-45 168h-226l-33 -129q-7 -26 -7 -44q0 -21 11 -32q-19 -7 -34.5 -10.5t-37.5 -3.5q-38 0 -55.5 13t-17.5 42q0 24 13 68l197 585q55 18 110 18q60 0 71 -43l178 -591
q12 -41 32 -62q-12 -16 -37 -24q-29 -17 -44 -36.5t-15 -44.5q0 -44 46 -44q53 0 85 58q15 -8 15 -22zM399 276l-96 358l-93 -358h189z" />
    <glyph glyph-name="aogonek" unicode="&#x105;" horiz-adv-x="565" 
d="M592 -94q0 -7 -2 -11q-13 -32 -47 -54t-82 -22q-38 0 -69 19t-31 61q0 31 18.5 55t50.5 41q-62 20 -69 129q-28 -61 -78 -97.5t-116 -36.5q-59 0 -95 31t-36 87q0 64 49 105t124 63q65 18 143 20v25q0 85 -20 125t-69 40q-32 0 -52 -18.5t-20 -56.5q0 -53 36 -74
q-11 -11 -29.5 -17t-39.5 -6q-46 0 -72.5 26t-26.5 66q0 59 57 91.5t155 32.5q111 0 162.5 -51t51.5 -166v-174q0 -53 33 -53q7 0 15 3.5t13 10.5q13 -19 13 -41q0 -21 -13.5 -38t-38.5 -25q-61 -35 -61 -82q0 -44 46 -44q53 0 85 58q15 -8 15 -22zM286 98q30 24 50 65.5
t20 90.5q-79 0 -118 -22q-28 -14 -44.5 -38t-16.5 -55q0 -27 12.5 -46t37.5 -19q29 0 59 24z" />
    <glyph glyph-name="Cacute" unicode="&#x106;" horiz-adv-x="616" 
d="M122.5 81q-73.5 95 -73.5 268t76 267.5t213 94.5q56 0 107 -14t83.5 -41t32.5 -63q0 -31 -28 -53.5t-77 -21.5q-15 148 -116 148q-75 0 -111 -78.5t-36 -238.5t35 -238.5t109 -78.5q54 0 88 40t44 120q14 2 21 2q36 0 62.5 -18t26.5 -49q0 -44 -36 -76t-93.5 -48.5
t-120.5 -16.5q-133 0 -206.5 95zM294 745q-6 3 -13.5 14t-7.5 15l144 131q18 -8 41.5 -33t31.5 -47z" />
    <glyph glyph-name="cacute" unicode="&#x107;" horiz-adv-x="512" 
d="M100.5 57q-65.5 71 -65.5 202q0 127 66.5 199t188.5 72q89 0 136 -36.5t47 -91.5q0 -40 -25 -64t-65 -24q-20 0 -38.5 6t-29.5 18q29 23 29 75q0 72 -65 72q-49 0 -77 -54t-28 -152q0 -212 151 -212q52 0 88.5 25.5t47.5 66.5q17 -7 17 -33q0 -13 -4 -28
q-15 -53 -65 -82.5t-123 -29.5q-120 0 -185.5 71zM285 570q-36 2 -47 9l90 158q3 1 11 1q25 0 60 -9.5t44 -16.5z" />
    <glyph glyph-name="Ccircumflex" unicode="&#x108;" horiz-adv-x="616" 
d="M122.5 81q-73.5 95 -73.5 268t76 267.5t213 94.5q56 0 107 -14t83.5 -41t32.5 -63q0 -31 -28 -53.5t-77 -21.5q-15 148 -116 148q-75 0 -111 -78.5t-36 -238.5t35 -238.5t109 -78.5q54 0 88 40t44 120q14 2 21 2q36 0 62.5 -18t26.5 -49q0 -44 -36 -76t-93.5 -48.5
t-120.5 -16.5q-133 0 -206.5 95zM502 765q0 -5 -8.5 -15t-15.5 -13l-146 79l-147 -79q-6 3 -14.5 13t-9.5 15l137 131q10 5 33 5q24 0 34 -5z" />
    <glyph glyph-name="ccircumflex" unicode="&#x109;" horiz-adv-x="512" 
d="M100.5 57q-65.5 71 -65.5 202q0 127 66.5 199t188.5 72q89 0 136 -36.5t47 -91.5q0 -40 -25 -64t-65 -24q-20 0 -38.5 6t-29.5 18q29 23 29 75q0 72 -65 72q-49 0 -77 -54t-28 -152q0 -212 151 -212q52 0 88.5 25.5t47.5 66.5q17 -7 17 -33q0 -13 -4 -28
q-15 -53 -65 -82.5t-123 -29.5q-120 0 -185.5 71zM126 572.5q-14 5.5 -15 9.5l129 156q8 4 35 4q24 0 32 -4l129 -156q-1 -4 -16 -9.5t-24 -5.5l-122 83l-125 -83q-9 0 -23 5.5z" />
    <glyph glyph-name="Cdotaccent" unicode="&#x10a;" horiz-adv-x="616" 
d="M122.5 81q-73.5 95 -73.5 268t76 267.5t213 94.5q56 0 107 -14t83.5 -41t32.5 -63q0 -31 -28 -53.5t-77 -21.5q-15 148 -116 148q-75 0 -111 -78.5t-36 -238.5t35 -238.5t109 -78.5q54 0 88 40t44 120q14 2 21 2q36 0 62.5 -18t26.5 -49q0 -44 -36 -76t-93.5 -48.5
t-120.5 -16.5q-133 0 -206.5 95zM288 773.5q-20 20.5 -20 48.5t20 48t48 20t48 -20t20 -48t-20 -48.5t-48 -20.5t-48 20.5z" />
    <glyph glyph-name="cdotaccent" unicode="&#x10b;" horiz-adv-x="512" 
d="M100.5 57q-65.5 71 -65.5 202q0 127 66.5 199t188.5 72q89 0 136 -36.5t47 -91.5q0 -40 -25 -64t-65 -24q-20 0 -38.5 6t-29.5 18q29 23 29 75q0 72 -65 72q-49 0 -77 -54t-28 -152q0 -212 151 -212q52 0 88.5 25.5t47.5 66.5q17 -7 17 -33q0 -13 -4 -28
q-15 -53 -65 -82.5t-123 -29.5q-120 0 -185.5 71zM228.5 594q-19.5 20 -19.5 48t20 48t48 20t48 -20t20 -48t-20 -48t-48 -20q-29 0 -48.5 20z" />
    <glyph glyph-name="Ccaron" unicode="&#x10c;" horiz-adv-x="616" 
d="M122.5 81q-73.5 95 -73.5 268t76 267.5t213 94.5q56 0 107 -14t83.5 -41t32.5 -63q0 -31 -28 -53.5t-77 -21.5q-15 148 -116 148q-75 0 -111 -78.5t-36 -238.5t35 -238.5t109 -78.5q54 0 88 40t44 120q14 2 21 2q36 0 62.5 -18t26.5 -49q0 -44 -36 -76t-93.5 -48.5
t-120.5 -16.5q-133 0 -206.5 95zM338 746q-25 0 -35 5l-137 131q1 5 9 15t14 13l148 -79l146 79q6 -3 14.5 -13t9.5 -15l-138 -131q-10 -5 -31 -5z" />
    <glyph glyph-name="ccaron" unicode="&#x10d;" horiz-adv-x="512" 
d="M100.5 57q-65.5 71 -65.5 202q0 127 66.5 199t188.5 72q89 0 136 -36.5t47 -91.5q0 -40 -25 -64t-65 -24q-20 0 -38.5 6t-29.5 18q29 23 29 75q0 72 -65 72q-49 0 -77 -54t-28 -152q0 -212 151 -212q52 0 88.5 25.5t47.5 66.5q17 -7 17 -33q0 -13 -4 -28
q-15 -53 -65 -82.5t-123 -29.5q-120 0 -185.5 71zM277 664l122 83q9 0 24 -5t16 -9l-129 -157q-8 -4 -32 -4q-27 0 -35 4l-129 157q1 4 15.5 9t22.5 5z" />
    <glyph glyph-name="Dcaron" unicode="&#x10e;" horiz-adv-x="652" 
d="M100.5 18q-20.5 18 -20.5 48l-1 489v36q0 74 -13 108q63 8 222 8q152 0 233.5 -88.5t81.5 -260.5q0 -358 -308 -358h-139q-35 0 -55.5 18zM288 46q60 0 97.5 30t55.5 96.5t18 176.5q0 162 -41.5 237t-129.5 75h-77v-615h77zM317 746q-25 0 -35 5l-137 131q1 5 9 15t14 13
l148 -79l146 79q6 -3 14.5 -13t9.5 -15l-138 -131q-10 -5 -31 -5z" />
    <glyph glyph-name="dcaron" unicode="&#x10f;" horiz-adv-x="671" 
d="M607 764q32 0 56 -9q0 -46 -12.5 -95t-31.5 -88h-55q3 24 3 53q0 78 -20 130q27 9 60 9zM558 99q13 -20 13 -41q0 -29 -24.5 -48t-60.5 -19q-47 0 -73 34t-32 97q-45 -136 -168 -136q-92 0 -135 69t-43 184q0 139 55.5 215t158.5 76q46 0 77.5 -16t45.5 -46v54
q0 109 -21 182q32 29 74 29q32 0 53 -18.5t21 -49.5l-1 -526q0 -52 34 -52q19 0 26 12zM339 134.5q30 77.5 30 186.5q0 66 -18 105t-70 39q-56 0 -81.5 -56.5t-25.5 -166.5q0 -95 17 -140t60 -45q58 0 88 77.5z" />
    <glyph glyph-name="Dcroat" unicode="&#x110;" horiz-adv-x="655" 
d="M521.5 618.5q81.5 -88.5 81.5 -260.5q0 -358 -308 -358h-139q-35 0 -55.5 18t-20.5 48l-1 259h-58q-4 18 -4 25q0 8 4 24h58v181v36q0 74 -13 108q63 8 222 8q152 0 233.5 -88.5zM385.5 76q37.5 30 55.5 96.5t18 176.5q0 162 -41.5 237t-129.5 75h-77v-287h128
q4 -11 4 -24t-4 -25h-128v-279h77q60 0 97.5 30z" />
    <glyph glyph-name="dcroat" unicode="&#x111;" horiz-adv-x="589" 
d="M571 58q0 -29 -24.5 -48t-60.5 -19q-47 0 -73 34t-32 97q-45 -136 -168 -136q-92 0 -135 69t-43 184q0 139 55.5 215t158.5 76q46 0 77.5 -16t45.5 -46v54q0 35 -2 55h-99q-4 18 -4 25q0 8 4 24h95q-5 42 -15 78q32 29 74 29q32 0 53 -18.5t21 -49.5v-39h67q4 -11 4 -24
t-4 -25h-67l-1 -438q0 -52 34 -52q19 0 26 12q13 -20 13 -41zM339 134.5q30 77.5 30 186.5q0 66 -18 105t-70 39q-56 0 -81.5 -56.5t-25.5 -166.5q0 -95 17 -140t60 -45q58 0 88 77.5z" />
    <glyph glyph-name="Emacron" unicode="&#x112;" horiz-adv-x="552" 
d="M503.5 92q6.5 -18 6.5 -38q0 -23 -8 -38.5t-24 -15.5h-318q-33 0 -54 18t-21 49v471q0 76 -19 126q24 20 48.5 26.5t70.5 6.5h290q11 0 16 -10t5 -26q0 -23 -10 -47t-25 -31q-118 48 -246 51v-237h217q5 -18 5 -34q0 -19 -5 -37h-216v-263q66 2 146 18.5t123 35.5
q12 -7 18.5 -25zM421 836q4 -12 4 -29q0 -16 -4 -29h-280q-5 17 -5 29q0 14 5 29h280z" />
    <glyph glyph-name="emacron" unicode="&#x113;" horiz-adv-x="525" 
d="M484 117q0 -13 -7 -30q-19 -48 -69 -74.5t-121 -26.5q-116 0 -184 71.5t-68 201.5q0 127 66 199t188 72q89 0 146 -39.5t57 -111.5q0 -73 -59 -113t-158 -40q-64 0 -99 4q7 -87 44.5 -125t103.5 -38q53 0 90 21t54 56q16 -7 16 -27zM203 429.5q-29 -55.5 -29 -153.5v-1
l34 -1q62 0 103.5 26t41.5 100q0 85 -69 85q-52 0 -81 -55.5zM413 659q4 -13 4 -29t-4 -29h-280q-5 17 -5 29t5 29h280z" />
    <glyph glyph-name="Ebreve" unicode="&#x114;" horiz-adv-x="552" 
d="M503.5 92q6.5 -18 6.5 -38q0 -23 -8 -38.5t-24 -15.5h-318q-33 0 -54 18t-21 49v471q0 76 -19 126q24 20 48.5 26.5t70.5 6.5h290q11 0 16 -10t5 -26q0 -23 -10 -47t-25 -31q-118 48 -246 51v-237h217q5 -18 5 -34q0 -19 -5 -37h-216v-263q66 2 146 18.5t123 35.5
q12 -7 18.5 -25zM373.5 782.5q-34.5 -36.5 -95.5 -36.5t-96 37.5t-44 93.5l40 10q11 -38 38.5 -55t66.5 -17q37 0 64 18t39 54q26 -6 35 -8q-13 -60 -47.5 -96.5z" />
    <glyph glyph-name="ebreve" unicode="&#x115;" horiz-adv-x="525" 
d="M484 117q0 -13 -7 -30q-19 -48 -69 -74.5t-121 -26.5q-116 0 -184 71.5t-68 201.5q0 127 66 199t188 72q89 0 146 -39.5t57 -111.5q0 -73 -59 -113t-158 -40q-64 0 -99 4q7 -87 44.5 -125t103.5 -38q53 0 90 21t54 56q16 -7 16 -27zM203 429.5q-29 -55.5 -29 -153.5v-1
l34 -1q62 0 103.5 26t41.5 100q0 85 -69 85q-52 0 -81 -55.5zM388 735q19 -5 36 -15q-18 -67 -54.5 -106t-98.5 -39q-67 0 -103.5 40.5t-49.5 104.5q15 11 40 15q15 -38 45 -57.5t70 -19.5q77 0 115 77z" />
    <glyph glyph-name="Edotaccent" unicode="&#x116;" horiz-adv-x="552" 
d="M503.5 92q6.5 -18 6.5 -38q0 -23 -8 -38.5t-24 -15.5h-318q-33 0 -54 18t-21 49v471q0 76 -19 126q24 20 48.5 26.5t70.5 6.5h290q11 0 16 -10t5 -26q0 -23 -10 -47t-25 -31q-118 48 -246 51v-237h217q5 -18 5 -34q0 -19 -5 -37h-216v-263q66 2 146 18.5t123 35.5
q12 -7 18.5 -25zM232 773.5q-20 20.5 -20 48.5t20 48t48 20t48 -20t20 -48t-20 -48.5t-48 -20.5t-48 20.5z" />
    <glyph glyph-name="edotaccent" unicode="&#x117;" horiz-adv-x="525" 
d="M484 117q0 -13 -7 -30q-19 -48 -69 -74.5t-121 -26.5q-116 0 -184 71.5t-68 201.5q0 127 66 199t188 72q89 0 146 -39.5t57 -111.5q0 -73 -59 -113t-158 -40q-64 0 -99 4q7 -87 44.5 -125t103.5 -38q53 0 90 21t54 56q16 -7 16 -27zM203 429.5q-29 -55.5 -29 -153.5v-1
l34 -1q62 0 103.5 26t41.5 100q0 85 -69 85q-52 0 -81 -55.5zM222.5 594q-19.5 20 -19.5 48t20 48t48 20t48 -20t20 -48t-20 -48t-48 -20q-29 0 -48.5 20z" />
    <glyph glyph-name="Eogonek" unicode="&#x118;" horiz-adv-x="552" 
d="M540 -94q0 -7 -2 -11q-13 -32 -47 -54t-82 -22q-38 0 -69 19t-31 61q0 63 79 101h-228q-33 0 -54 18t-21 49v471q0 76 -19 126q24 20 48.5 26.5t70.5 6.5h290q11 0 16 -10t5 -26q0 -23 -10 -47t-25 -31q-118 48 -246 51v-237h217q5 -18 5 -34q0 -19 -5 -37h-216v-263
q66 2 146 18.5t123 35.5q12 -7 18.5 -25t6.5 -38q0 -23 -8 -38.5t-24 -15.5h-16q-68 -37 -68 -86q0 -44 46 -44q53 0 85 58q15 -8 15 -22z" />
    <glyph glyph-name="eogonek" unicode="&#x119;" horiz-adv-x="525" 
d="M485 -81q0 -7 -2 -11q-13 -32 -47 -54t-82 -22q-38 0 -69 19t-31 61q0 43 36 74h-3q-116 0 -184 71.5t-68 201.5q0 127 66 199t188 72q89 0 146 -39.5t57 -111.5q0 -73 -59 -113t-158 -40q-64 0 -99 4q7 -87 44.5 -125t103.5 -38q53 0 90 21t54 56q16 -7 16 -27
q0 -13 -7 -30q-21 -54 -80 -80q-58 -34 -58 -80q0 -44 46 -44q53 0 85 58q15 -8 15 -22zM203 429.5q-29 -55.5 -29 -153.5v-1l34 -1q62 0 103.5 26t41.5 100q0 85 -69 85q-52 0 -81 -55.5z" />
    <glyph glyph-name="Ecaron" unicode="&#x11a;" horiz-adv-x="552" 
d="M503.5 92q6.5 -18 6.5 -38q0 -23 -8 -38.5t-24 -15.5h-318q-33 0 -54 18t-21 49v471q0 76 -19 126q24 20 48.5 26.5t70.5 6.5h290q11 0 16 -10t5 -26q0 -23 -10 -47t-25 -31q-118 48 -246 51v-237h217q5 -18 5 -34q0 -19 -5 -37h-216v-263q66 2 146 18.5t123 35.5
q12 -7 18.5 -25zM282 746q-25 0 -35 5l-137 131q1 5 9 15t14 13l148 -79l146 79q6 -3 14.5 -13t9.5 -15l-138 -131q-10 -5 -31 -5z" />
    <glyph glyph-name="ecaron" unicode="&#x11b;" horiz-adv-x="525" 
d="M484 117q0 -13 -7 -30q-19 -48 -69 -74.5t-121 -26.5q-116 0 -184 71.5t-68 201.5q0 127 66 199t188 72q89 0 146 -39.5t57 -111.5q0 -73 -59 -113t-158 -40q-64 0 -99 4q7 -87 44.5 -125t103.5 -38q53 0 90 21t54 56q16 -7 16 -27zM203 429.5q-29 -55.5 -29 -153.5v-1
l34 -1q62 0 103.5 26t41.5 100q0 85 -69 85q-52 0 -81 -55.5zM271 664l122 83q9 0 24 -5t16 -9l-129 -157q-8 -4 -32 -4q-27 0 -35 4l-129 157q1 4 15.5 9t22.5 5z" />
    <glyph glyph-name="Gcircumflex" unicode="&#x11c;" horiz-adv-x="652" 
d="M126.5 80.5q-77.5 94.5 -77.5 268.5q0 173 80 267.5t224 94.5q54 0 104 -14t82 -41t32 -62q0 -32 -28 -54.5t-78 -21.5q-15 148 -110 148q-83 0 -122.5 -78.5t-39.5 -238.5t38.5 -238.5t120.5 -78.5q67 0 93 57t26 133q0 49 -13 84t-48 51q8 19 30 29.5t48 10.5
q52 0 84 -36.5t32 -106.5q0 -86 -34.5 -146.5t-93.5 -91t-131 -30.5q-141 0 -218.5 94.5zM509 765q0 -5 -8.5 -15t-15.5 -13l-146 79l-147 -79q-6 3 -14.5 13t-9.5 15l137 131q10 5 33 5q24 0 34 -5z" />
    <glyph glyph-name="gcircumflex" unicode="&#x11d;" horiz-adv-x="546" 
d="M92.5 -196.5q-53.5 28.5 -53.5 86.5q0 38 25 60.5t65 22.5q41 0 60 -22q-30 -26 -30 -68q0 -31 18 -49.5t54 -18.5q65 0 98.5 57t33.5 156q0 50 1 74q-17 -49 -55.5 -75t-95.5 -26q-84 0 -131 59t-47 189q0 129 58 205t186 76q63 0 119 -17.5t93 -48.5v-420
q0 -142 -70.5 -205.5t-193.5 -63.5q-81 0 -134.5 28.5zM333.5 111q27.5 50 28.5 138l1 213q-14 11 -34.5 17t-42.5 6q-65 0 -89 -62t-24 -187q0 -66 7.5 -103.5t24.5 -54.5t47 -17q54 0 81.5 50zM133 578.5q-14 5.5 -15 9.5l129 156q8 4 35 4q24 0 32 -4l129 -156
q-1 -4 -16 -9.5t-24 -5.5l-122 83l-125 -83q-9 0 -23 5.5z" />
    <glyph glyph-name="Gbreve" unicode="&#x11e;" horiz-adv-x="652" 
d="M126.5 80.5q-77.5 94.5 -77.5 268.5q0 173 80 267.5t224 94.5q54 0 104 -14t82 -41t32 -62q0 -32 -28 -54.5t-78 -21.5q-15 148 -110 148q-83 0 -122.5 -78.5t-39.5 -238.5t38.5 -238.5t120.5 -78.5q67 0 93 57t26 133q0 49 -13 84t-48 51q8 19 30 29.5t48 10.5
q52 0 84 -36.5t32 -106.5q0 -86 -34.5 -146.5t-93.5 -91t-131 -30.5q-141 0 -218.5 94.5zM436.5 782.5q-34.5 -36.5 -95.5 -36.5t-96 37.5t-44 93.5l40 10q11 -38 38.5 -55t66.5 -17q37 0 64 18t39 54q26 -6 35 -8q-13 -60 -47.5 -96.5z" />
    <glyph glyph-name="gbreve" unicode="&#x11f;" horiz-adv-x="546" 
d="M92.5 -196.5q-53.5 28.5 -53.5 86.5q0 38 25 60.5t65 22.5q41 0 60 -22q-30 -26 -30 -68q0 -31 18 -49.5t54 -18.5q65 0 98.5 57t33.5 156q0 50 1 74q-17 -49 -55.5 -75t-95.5 -26q-84 0 -131 59t-47 189q0 129 58 205t186 76q63 0 119 -17.5t93 -48.5v-420
q0 -142 -70.5 -205.5t-193.5 -63.5q-81 0 -134.5 28.5zM333.5 111q27.5 50 28.5 138l1 213q-14 11 -34.5 17t-42.5 6q-65 0 -89 -62t-24 -187q0 -66 7.5 -103.5t24.5 -54.5t47 -17q54 0 81.5 50zM401 741q19 -5 36 -15q-18 -67 -54.5 -106t-98.5 -39q-67 0 -103.5 40.5
t-49.5 104.5q15 11 40 15q15 -38 45 -57.5t70 -19.5q77 0 115 77z" />
    <glyph glyph-name="Gdotaccent" unicode="&#x120;" horiz-adv-x="652" 
d="M126.5 80.5q-77.5 94.5 -77.5 268.5q0 173 80 267.5t224 94.5q54 0 104 -14t82 -41t32 -62q0 -32 -28 -54.5t-78 -21.5q-15 148 -110 148q-83 0 -122.5 -78.5t-39.5 -238.5t38.5 -238.5t120.5 -78.5q67 0 93 57t26 133q0 49 -13 84t-48 51q8 19 30 29.5t48 10.5
q52 0 84 -36.5t32 -106.5q0 -86 -34.5 -146.5t-93.5 -91t-131 -30.5q-141 0 -218.5 94.5zM294 773.5q-20 20.5 -20 48.5t20 48t48 20t48 -20t20 -48t-20 -48.5t-48 -20.5t-48 20.5z" />
    <glyph glyph-name="gdotaccent" unicode="&#x121;" horiz-adv-x="546" 
d="M92.5 -196.5q-53.5 28.5 -53.5 86.5q0 38 25 60.5t65 22.5q41 0 60 -22q-30 -26 -30 -68q0 -31 18 -49.5t54 -18.5q65 0 98.5 57t33.5 156q0 50 1 74q-17 -49 -55.5 -75t-95.5 -26q-84 0 -131 59t-47 189q0 129 58 205t186 76q63 0 119 -17.5t93 -48.5v-420
q0 -142 -70.5 -205.5t-193.5 -63.5q-81 0 -134.5 28.5zM333.5 111q27.5 50 28.5 138l1 213q-14 11 -34.5 17t-42.5 6q-65 0 -89 -62t-24 -187q0 -66 7.5 -103.5t24.5 -54.5t47 -17q54 0 81.5 50zM234.5 600q-19.5 20 -19.5 48t20 48t48 20t48 -20t20 -48t-20 -48t-48 -20
q-29 0 -48.5 20z" />
    <glyph glyph-name="Gcommaaccent" unicode="&#x122;" horiz-adv-x="652" 
d="M126.5 80.5q-77.5 94.5 -77.5 268.5q0 173 80 267.5t224 94.5q54 0 104 -14t82 -41t32 -62q0 -32 -28 -54.5t-78 -21.5q-15 148 -110 148q-83 0 -122.5 -78.5t-39.5 -238.5t38.5 -238.5t120.5 -78.5q67 0 93 57t26 133q0 49 -13 84t-48 51q8 19 30 29.5t48 10.5
q52 0 84 -36.5t32 -106.5q0 -86 -34.5 -146.5t-93.5 -91t-131 -30.5q-141 0 -218.5 94.5zM302 -254q18 22 27 40.5t9 37.5q0 33 -18 46.5t-47 20.5q0 31 22 53t54 22t53.5 -22.5t21.5 -68.5q0 -39 -19 -76t-61 -76q-23 4 -42 23z" />
    <glyph glyph-name="gcommaaccent" unicode="&#x123;" horiz-adv-x="546" 
d="M327 785q-27 -39 -27 -71q0 -26 16 -40.5t38 -20.5q0 -31 -21 -52t-52 -21q-29 0 -51.5 20t-22.5 62q0 32 16 64.5t57 81.5q27 -3 47 -23zM92.5 -196.5q-53.5 28.5 -53.5 86.5q0 38 25 60.5t65 22.5q41 0 60 -22q-30 -26 -30 -68q0 -31 18 -49.5t54 -18.5q65 0 98.5 57
t33.5 156q0 50 1 74q-17 -49 -55.5 -75t-95.5 -26q-84 0 -131 59t-47 189q0 129 58 205t186 76q63 0 119 -17.5t93 -48.5v-420q0 -142 -70.5 -205.5t-193.5 -63.5q-81 0 -134.5 28.5zM333.5 111q27.5 50 28.5 138l1 213q-14 11 -34.5 17t-42.5 6q-65 0 -89 -62t-24 -187
q0 -66 7.5 -103.5t24.5 -54.5t47 -17q54 0 81.5 50z" />
    <glyph glyph-name="Hcircumflex" unicode="&#x124;" horiz-adv-x="698" 
d="M632 15q-11 -11 -30.5 -20t-44.5 -9q-33 0 -54 18t-21 49v276h-266v-188q0 -79 19 -126q-11 -11 -30.5 -20t-44.5 -9q-33 0 -54 18t-21 49v502q0 76 -19 126q11 11 30.5 20t44.5 9q33 0 54 -18t21 -49v-244h266v156q0 76 -19 126q11 11 30.5 20t44.5 9q32 0 53.5 -18
t21.5 -49v-502q0 -79 19 -126zM516 765q0 -5 -8.5 -15t-15.5 -13l-146 79l-147 -79q-6 3 -14.5 13t-9.5 15l137 131q10 5 33 5q24 0 34 -5z" />
    <glyph glyph-name="hcircumflex" unicode="&#x125;" horiz-adv-x="570" 
d="M526 15q-33 -29 -73 -29q-32 0 -53 18t-21 49v255q0 83 -16.5 122t-59.5 39q-49 0 -79 -60t-30 -173q0 -110 3 -147.5t19 -74.5q-10 -10 -29.5 -19t-43.5 -9q-33 0 -54 20t-21 53l-1 606q0 33 19 50t50 17q24 0 46 -9t34 -19q-13 -42 -17 -94t-5 -138v-44q42 102 152 102
q82 0 121.5 -50.5t39.5 -151.5v-187q0 -76 19 -126zM-3 749.5q-14 5.5 -15 9.5l129 156q8 4 35 4q24 0 32 -4l129 -156q-1 -4 -16 -9.5t-24 -5.5l-122 83l-125 -83q-9 0 -23 5.5z" />
    <glyph glyph-name="Hbar" unicode="&#x126;" horiz-adv-x="698" 
d="M613 518v-377q0 -79 19 -126q-11 -11 -30.5 -20t-44.5 -9q-33 0 -54 18t-21 49v276h-266v-188q0 -79 19 -126q-11 -11 -30.5 -20t-44.5 -9q-33 0 -54 18t-21 49v465h-51q-4 11 -4 25q0 13 4 24h51q-2 68 -19 114q11 11 30.5 20t44.5 9q33 0 54 -18t21 -49v-76h266
q-2 68 -19 114q11 11 30.5 20t44.5 9q32 0 53.5 -18t21.5 -49v-76h44q5 -13 5 -24q0 -12 -5 -25h-44zM482 518h-266v-119h266v119z" />
    <glyph glyph-name="hbar" unicode="&#x127;" horiz-adv-x="572" 
d="M526 15q-33 -29 -73 -29q-32 0 -53 18t-21 49v255q0 83 -16.5 122t-59.5 39q-49 0 -79 -60t-30 -173q0 -110 3 -147.5t19 -74.5q-10 -10 -29.5 -19t-43.5 -9q-33 0 -54 20t-21 53l-1 509h-67q-3 12 -3 24t3 24h67v49q0 33 19 50t50 17q24 0 46 -9t34 -19q-11 -36 -16 -88
h105q4 -11 4 -24t-4 -24h-109q-2 -58 -2 -96v-44q42 102 152 102q82 0 121.5 -50.5t39.5 -151.5v-187q0 -76 19 -126z" />
    <glyph glyph-name="Itilde" unicode="&#x128;" horiz-adv-x="301" 
d="M106 4q-21 18 -21 49v502q0 76 -19 126q11 11 30.5 20t44.5 9q33 0 54 -18t21 -49v-502q0 -79 19 -126q-11 -11 -30.5 -20t-44.5 -9q-33 0 -54 18zM264.5 786.5q-23.5 -28.5 -61.5 -28.5q-17 0 -33 5.5t-37 16.5q-21 10 -36 15.5t-30 5.5q-26 0 -40 -10.5t-23 -28.5
l-5 -1q-12 0 -24 10q5 56 32.5 80.5t65.5 24.5q17 0 33.5 -5.5t37.5 -16.5q22 -11 37 -16.5t32 -5.5q23 0 33.5 9.5t20.5 29.5q11 0 17 -1.5t12 -6.5q-8 -48 -31.5 -76.5z" />
    <glyph glyph-name="itilde" unicode="&#x129;" horiz-adv-x="266" 
d="M219 15q-11 -11 -30 -20t-44 -9q-31 0 -51.5 18t-20.5 49v322q0 76 -19 127q31 28 72 28q33 0 53 -17.5t20 -49.5l2 -322q0 -79 18 -126zM245 607q-22 -28 -58 -28q-16 0 -31.5 6t-33.5 17q-3 2 -15.5 8t-24 9.5t-21.5 3.5q-42 0 -61 -39h-2q-5 0 -12.5 2.5t-11.5 6.5
q4 53 30 77.5t62 24.5q17 0 31.5 -5.5t34.5 -17.5q20 -11 34 -16.5t29 -5.5q22 0 33 10t19 30q10 0 15.5 -1.5t10.5 -6.5q-6 -47 -28 -75z" />
    <glyph glyph-name="Imacron" unicode="&#x12a;" horiz-adv-x="301" 
d="M106 4q-21 18 -21 49v502q0 76 -19 126q11 11 30.5 20t44.5 9q33 0 54 -18t21 -49v-502q0 -79 19 -126q-11 -11 -30.5 -20t-44.5 -9q-33 0 -54 18zM279 836q4 -12 4 -29q0 -16 -4 -29h-280q-5 17 -5 29q0 14 5 29h280z" />
    <glyph glyph-name="imacron" unicode="&#x12b;" horiz-adv-x="266" 
d="M219 15q-11 -11 -30 -20t-44 -9q-31 0 -51.5 18t-20.5 49v322q0 76 -19 127q31 28 72 28q33 0 53 -17.5t20 -49.5l2 -322q0 -79 18 -126zM267 659q4 -13 4 -29t-4 -29h-280q-5 17 -5 29t5 29h280z" />
    <glyph glyph-name="Iogonek" unicode="&#x12e;" horiz-adv-x="301" 
d="M290 -92q0 -7 -2 -11q-13 -32 -47 -54t-82 -22q-38 0 -69 19t-31 61q0 56 63 93q-17 8 -27 23t-10 36v502q0 76 -19 126q11 11 30.5 20t44.5 9q33 0 54 -18t21 -49v-502q0 -79 19 -126q-15 -15 -40 -24q-51 -32 -51 -75q0 -44 46 -44q53 0 85 58q15 -8 15 -22z" />
    <glyph glyph-name="iogonek" unicode="&#x12f;" horiz-adv-x="272" 
d="M82 600.5q-22 21.5 -22 52.5q0 32 22 53.5t53 21.5t52 -21.5t21 -53.5q0 -31 -21 -52.5t-52 -21.5t-53 21.5zM274 -90q0 -5 -3 -11q-12 -31 -46 -53.5t-82 -22.5q-38 0 -69 19t-31 61q0 58 64 93q-15 8 -23 23t-8 34v322q0 76 -19 127q31 28 72 28q33 0 53.5 -17.5
t20.5 -49.5l1 -322q0 -79 19 -126q-21 -21 -53 -27q-43 -30 -43 -70q0 -44 47 -44q54 0 85 57q15 -8 15 -21z" />
    <glyph glyph-name="Idotaccent" unicode="&#x130;" horiz-adv-x="301" 
d="M106 4q-21 18 -21 49v502q0 76 -19 126q11 11 30.5 20t44.5 9q33 0 54 -18t21 -49v-502q0 -79 19 -126q-11 -11 -30.5 -20t-44.5 -9q-33 0 -54 18zM90 773.5q-20 20.5 -20 48.5t20 48t48 20t48 -20t20 -48t-20 -48.5t-48 -20.5t-48 20.5z" />
    <glyph glyph-name="dotlessi" unicode="&#x131;" horiz-adv-x="266" 
d="M219 15q-11 -11 -30 -20t-44 -9q-31 0 -51.5 18t-20.5 49v322q0 76 -19 127q31 28 72 28q33 0 53 -17.5t20 -49.5l2 -322q0 -79 18 -126z" />
    <glyph glyph-name="Jcircumflex" unicode="&#x134;" horiz-adv-x="493" 
d="M80 19.5q-42 33.5 -42 82.5q0 35 19 60t56 25q39 0 55 -28q-15 -30 -15 -60q0 -28 16.5 -47.5t41.5 -19.5q41 0 55.5 39.5t14.5 109.5v413q0 25 1.5 39.5t6.5 23.5l-83 3q-20 1 -35 -8.5t-15 -31.5q0 -39 32 -59q-19 -15 -53 -15q-32 0 -55.5 21.5t-23.5 59.5
q0 39 29.5 61.5t84.5 22.5q16 0 62 -2q27 -2 84 -4q48 0 102 6q-6 -32 -6 -78v-437q0 -210 -201 -210q-89 0 -131 33.5zM415 765q0 -5 -8.5 -15t-15.5 -13l-146 79l-147 -79q-6 3 -14.5 13t-9.5 15l137 131q10 5 33 5q24 0 34 -5z" />
    <glyph glyph-name="jcircumflex" unicode="&#x135;" horiz-adv-x="263" 
d="M-74 -204q-32 24 -32 63q0 27 17.5 46t50.5 19q17 0 27.5 -6.5t18.5 -21.5q-15 -25 -15 -45q0 -18 9.5 -28t23.5 -10q23 0 33.5 25t13 62t2.5 101l1 373q0 79 -18 127q14 13 32.5 21t39.5 8q32 0 52.5 -18.5t20.5 -49.5v-484q0 -92 -43.5 -149t-138.5 -57q-63 0 -95 24z
M-20 572.5q-14 5.5 -15 9.5l129 156q8 4 35 4q24 0 32 -4l129 -156q-1 -4 -16 -9.5t-24 -5.5l-122 83l-125 -83q-9 0 -23 5.5z" />
    <glyph glyph-name="Kcommaaccent" unicode="&#x136;" horiz-adv-x="616" 
d="M600 53q0 -31 -24 -51.5t-62 -20.5q-54 0 -83 39t-51 105l-30 90q-15 44 -40.5 72t-76.5 28h-17v-174q0 -79 19 -126q-11 -11 -30.5 -20t-44.5 -9q-33 0 -54 18t-21 49v502q0 76 -19 126q11 11 30.5 20t44.5 9q33 0 53.5 -18t20.5 -49l1 -280l23 6q55 16 93.5 57t58 92
t19.5 96q0 27 -5.5 47.5t-12.5 31.5q29 12 54 12q91 0 91 -99q0 -75 -52.5 -145t-156.5 -110q57 -6 88.5 -29t49.5 -67l45 -106q18 -38 29 -52t27 -15h4q10 0 21 8q8 -22 8 -37zM290 -254q18 22 27 40.5t9 37.5q0 33 -18 46.5t-47 20.5q0 31 22 53t54 22t53.5 -22.5
t21.5 -68.5q0 -39 -19 -76t-61 -76q-23 4 -42 23z" />
    <glyph glyph-name="kcommaaccent" unicode="&#x137;" horiz-adv-x="551" 
d="M534 61q0 -32 -27 -53.5t-67 -21.5q-34 0 -61.5 19t-42.5 58l-65 153q-47 -13 -76 -18q0 -86 3.5 -117.5t18.5 -66.5q-16 -13 -33.5 -20.5t-44.5 -7.5q-41 0 -56 19t-15 54l-1 606q0 32 20.5 50t53.5 18q25 0 43.5 -9t29.5 -20q-11 -57 -14 -93.5t-4 -85.5l-2 -55l-1 -66
q23 59 68.5 92.5t111.5 33.5q64 0 95.5 -31.5t31.5 -80.5q0 -57 -40.5 -101t-102.5 -73q16 -4 29.5 -17.5t28.5 -38.5l31 -52q14 -25 21.5 -33.5t21.5 -8.5q15 0 28 9q17 -17 17 -42zM317 308q51 42 51 102q0 55 -46 55q-35 0 -64 -29.5t-46 -80t-17 -110.5q71 21 122 63z
M234 -254q18 22 27 40.5t9 37.5q0 33 -18 46.5t-47 20.5q0 31 22 53t54 22t53.5 -22.5t21.5 -68.5q0 -39 -19 -76t-61 -76q-23 4 -42 23z" />
    <glyph glyph-name="kgreenlandic" unicode="&#x138;" horiz-adv-x="593" 
d="M560 53q0 -30 -19 -48.5t-57 -18.5q-44 0 -74 26t-42 67l-19 66q-27 94 -107 94h-31v-98q0 -79 19 -126q-12 -11 -31.5 -20t-43.5 -9q-34 0 -55 18t-21 49v321q0 76 -19 127q35 29 76 29q33 0 54 -18t21 -50v-175q38 6 35 6q70 16 107.5 58.5t37.5 92.5q0 21 -6 42.5
t-12 30.5q27 13 52 13q33 0 63 -21t30 -66q0 -54 -41 -98t-106 -65q31 -10 55.5 -36.5t36.5 -62.5l12 -39q20 -58 53 -60h4q11 0 21 8q7 -16 7 -37z" />
    <glyph glyph-name="Lacute" unicode="&#x139;" horiz-adv-x="504" 
d="M216 70q65 1 135.5 17t111.5 38q12 -8 18.5 -27t6.5 -40q0 -24 -8.5 -41t-24.5 -17h-295q-33 0 -54 18t-21 49v488q0 76 -19 126q11 11 30.5 20t44.5 9q33 0 53.5 -18t20.5 -49zM121 745q-6 3 -13.5 14t-7.5 15l144 131q18 -8 41.5 -33t31.5 -47z" />
    <glyph glyph-name="lacute" unicode="&#x13a;" horiz-adv-x="290" 
d="M97 26.5q-31 36.5 -31 101.5v537q0 32 21 50t54 18q24 0 43 -9t30 -20q-11 -43 -15 -85t-4 -110v-370q0 -53 36 -53q8 0 17 3.5t13 10.5q13 -19 13 -41q0 -30 -25.5 -49.5t-62.5 -19.5q-58 0 -89 36.5z" />
    <glyph glyph-name="Lcommaaccent" unicode="&#x13b;" horiz-adv-x="504" 
d="M216 70q65 1 135.5 17t111.5 38q12 -8 18.5 -27t6.5 -40q0 -24 -8.5 -41t-24.5 -17h-295q-33 0 -54 18t-21 49v488q0 76 -19 126q11 11 30.5 20t44.5 9q33 0 53.5 -18t20.5 -49zM239 -254q18 22 27 40.5t9 37.5q0 33 -18 46.5t-47 20.5q0 31 22 53t54 22t53.5 -22.5
t21.5 -68.5q0 -39 -19 -76t-61 -76q-23 4 -42 23z" />
    <glyph glyph-name="lcommaaccent" unicode="&#x13c;" horiz-adv-x="290" 
d="M97 26.5q-31 36.5 -31 101.5v537q0 32 21 50t54 18q24 0 43 -9t30 -20q-11 -43 -15 -85t-4 -110v-370q0 -53 36 -53q8 0 17 3.5t13 10.5q13 -19 13 -41q0 -30 -25.5 -49.5t-62.5 -19.5q-58 0 -89 36.5zM131 -254q18 22 27 40.5t9 37.5q0 33 -18 46.5t-47 20.5q0 31 22 53
t54 22t53.5 -22.5t21.5 -68.5q0 -39 -19 -76t-61 -76q-23 4 -42 23z" />
    <glyph glyph-name="Lcaron" unicode="&#x13d;" horiz-adv-x="504" 
d="M305 618q0 -29 -3 -53h56q19 42 31.5 90t11.5 93q-24 9 -58 9q-31 0 -58 -9q20 -52 20 -130zM216 70q65 1 135.5 17t111.5 38q12 -8 18.5 -27t6.5 -40q0 -24 -8.5 -41t-24.5 -17h-295q-33 0 -54 18t-21 49v488q0 76 -19 126q11 11 30.5 20t44.5 9q33 0 53.5 -18t20.5 -49
z" />
    <glyph glyph-name="lcaron" unicode="&#x13e;" horiz-adv-x="386" 
d="M274 625q0 -29 -3 -53h56q19 41 31.5 89t12.5 94q-24 9 -57 9t-60 -9q20 -52 20 -130zM97 26.5q-31 36.5 -31 101.5v537q0 32 21 50t54 18q24 0 43 -9t30 -20q-11 -43 -15 -85t-4 -110v-370q0 -53 36 -53q8 0 17 3.5t13 10.5q13 -19 13 -41q0 -30 -25.5 -49.5
t-62.5 -19.5q-58 0 -89 36.5z" />
    <glyph glyph-name="Ldot" unicode="&#x13f;" horiz-adv-x="504" 
d="M216 70q65 1 135.5 17t111.5 38q12 -8 18.5 -27t6.5 -40q0 -24 -8.5 -41t-24.5 -17h-295q-33 0 -54 18t-21 49v488q0 76 -19 126q11 11 30.5 20t44.5 9q33 0 53.5 -18t20.5 -49zM342 285q-22 22 -22 53t22 52.5t53 21.5t52 -21.5t21 -52.5q0 -32 -21 -53.5t-52 -21.5
t-53 22z" />
    <glyph glyph-name="ldot" unicode="&#x140;" horiz-adv-x="379" 
d="M97 26.5q-31 36.5 -31 101.5v537q0 32 21 50t54 18q24 0 43 -9t30 -20q-11 -43 -15 -85t-4 -110v-370q0 -53 36 -53q8 0 17 3.5t13 10.5q13 -19 13 -41q0 -30 -25.5 -49.5t-62.5 -19.5q-58 0 -89 36.5zM268 295q-22 22 -22 53t22 52.5t53 21.5t52 -21.5t21 -52.5
q0 -32 -21 -53.5t-52 -21.5t-53 22z" />
    <glyph glyph-name="Lslash" unicode="&#x141;" horiz-adv-x="504" 
d="M481.5 98q6.5 -19 6.5 -40q0 -24 -8.5 -41t-24.5 -17h-295q-33 0 -54 18t-21 49v114l-49 -49q-25 6 -34 35l83 84v304q0 76 -19 126q11 11 30.5 20t44.5 9q33 0 53.5 -18t20.5 -49v-261l98 98q29 -8 35 -35l-132 -133v-242q65 1 135.5 17t111.5 38q12 -8 18.5 -27z" />
    <glyph glyph-name="lslash" unicode="&#x142;" horiz-adv-x="290" 
d="M248 89.5q9 3.5 13 10.5q13 -19 13 -41q0 -30 -25.5 -49.5t-62.5 -19.5q-58 0 -89 36.5t-31 101.5v81l-50 -66l-41 28l91 119v375q0 32 21 50t54 18q24 0 43 -9t30 -20q-11 -43 -15 -85t-4 -110v-49l69 90l39 -28l-108 -143v-240q0 -53 36 -53q8 0 17 3.5z" />
    <glyph glyph-name="Nacute" unicode="&#x143;" horiz-adv-x="700" 
d="M66 3q19 51 19 138v414q0 83 -7 138q6 8 23.5 12t36.5 4q25 0 31 -6q25 -36 143 -193q107 -143 160.5 -218t75.5 -123l-33 449l-1 14q0 33 15.5 53t45.5 23q32 2 54 -13q-13 -39 -13 -123l-1 -433q0 -89 6 -136q-7 -7 -23.5 -11.5t-34.5 -4.5q-21 0 -30 5
q-269 315 -376 515l28 -446q3 -32 -18 -53.5t-47 -21.5q-31 0 -54 17zM308 745q-6 3 -13.5 14t-7.5 15l144 131q18 -8 41.5 -33t31.5 -47z" />
    <glyph glyph-name="nacute" unicode="&#x144;" horiz-adv-x="586" 
d="M543 15q-33 -29 -75 -29q-32 0 -53 18t-21 49v255q-1 81 -17 119t-59 38q-48 0 -78 -58.5t-30 -170.5q0 -110 3 -147.5t18 -74.5q-10 -10 -29.5 -19t-43.5 -9q-34 0 -55 20t-21 53v321q-1 28 -7 40.5t-20 12.5q-19 0 -26 -12q-12 20 -12 41q0 30 20.5 48.5t57.5 18.5
q46 0 72.5 -29.5t27.5 -88.5q43 119 167 119q82 0 121.5 -50.5t39.5 -151.5v-187q3 -83 20 -126zM318 570q-36 2 -47 9l90 158q3 1 11 1q25 0 60 -9.5t44 -16.5z" />
    <glyph glyph-name="Ncommaaccent" unicode="&#x145;" horiz-adv-x="700" 
d="M66 3q19 51 19 138v414q0 83 -7 138q6 8 23.5 12t36.5 4q25 0 31 -6q25 -36 143 -193q107 -143 160.5 -218t75.5 -123l-33 449l-1 14q0 33 15.5 53t45.5 23q32 2 54 -13q-13 -39 -13 -123l-1 -433q0 -89 6 -136q-7 -7 -23.5 -11.5t-34.5 -4.5q-21 0 -30 5
q-269 315 -376 515l28 -446q3 -32 -18 -53.5t-47 -21.5q-31 0 -54 17zM309 -254q18 22 27 40.5t9 37.5q0 33 -18 46.5t-47 20.5q0 31 22 53t54 22t53.5 -22.5t21.5 -68.5q0 -39 -19 -76t-61 -76q-23 4 -42 23z" />
    <glyph glyph-name="ncommaaccent" unicode="&#x146;" horiz-adv-x="586" 
d="M543 15q-33 -29 -75 -29q-32 0 -53 18t-21 49v255q-1 81 -17 119t-59 38q-48 0 -78 -58.5t-30 -170.5q0 -110 3 -147.5t18 -74.5q-10 -10 -29.5 -19t-43.5 -9q-34 0 -55 20t-21 53v321q-1 28 -7 40.5t-20 12.5q-19 0 -26 -12q-12 20 -12 41q0 30 20.5 48.5t57.5 18.5
q46 0 72.5 -29.5t27.5 -88.5q43 119 167 119q82 0 121.5 -50.5t39.5 -151.5v-187q3 -83 20 -126zM269 -254q18 22 27 40.5t9 37.5q0 33 -18 46.5t-47 20.5q0 31 22 53t54 22t53.5 -22.5t21.5 -68.5q0 -39 -19 -76t-61 -76q-23 4 -42 23z" />
    <glyph glyph-name="Ncaron" unicode="&#x147;" horiz-adv-x="700" 
d="M66 3q19 51 19 138v414q0 83 -7 138q6 8 23.5 12t36.5 4q25 0 31 -6q25 -36 143 -193q107 -143 160.5 -218t75.5 -123l-33 449l-1 14q0 33 15.5 53t45.5 23q32 2 54 -13q-13 -39 -13 -123l-1 -433q0 -89 6 -136q-7 -7 -23.5 -11.5t-34.5 -4.5q-21 0 -30 5
q-269 315 -376 515l28 -446q3 -32 -18 -53.5t-47 -21.5q-31 0 -54 17zM353 746q-25 0 -35 5l-137 131q1 5 9 15t14 13l148 -79l146 79q6 -3 14.5 -13t9.5 -15l-138 -131q-10 -5 -31 -5z" />
    <glyph glyph-name="ncaron" unicode="&#x148;" horiz-adv-x="586" 
d="M543 15q-33 -29 -75 -29q-32 0 -53 18t-21 49v255q-1 81 -17 119t-59 38q-48 0 -78 -58.5t-30 -170.5q0 -110 3 -147.5t18 -74.5q-10 -10 -29.5 -19t-43.5 -9q-34 0 -55 20t-21 53v321q-1 28 -7 40.5t-20 12.5q-19 0 -26 -12q-12 20 -12 41q0 30 20.5 48.5t57.5 18.5
q46 0 72.5 -29.5t27.5 -88.5q43 119 167 119q82 0 121.5 -50.5t39.5 -151.5v-187q3 -83 20 -126zM309 664l122 83q9 0 24 -5t16 -9l-129 -157q-8 -4 -32 -4q-27 0 -35 4l-129 157q1 4 15.5 9t22.5 5z" />
    <glyph glyph-name="napostrophe" unicode="&#x149;" horiz-adv-x="719" 
d="M34 434h55l33 187q-21 8 -56 8q-36 0 -60 -8zM662 15q-33 -29 -75 -29q-32 0 -53 18t-21 49v255q-1 81 -17 119t-59 38q-48 0 -78 -58.5t-30 -170.5q0 -110 3 -147.5t18 -74.5q-10 -10 -29.5 -19t-43.5 -9q-34 0 -55 20t-21 53v321q-1 28 -7 40.5t-20 12.5q-19 0 -26 -12
q-12 20 -12 41q0 30 20.5 48.5t57.5 18.5q46 0 72.5 -29.5t27.5 -88.5q43 119 167 119q82 0 121.5 -50.5t39.5 -151.5v-187q3 -83 20 -126z" />
    <glyph glyph-name="Omacron" unicode="&#x14c;" horiz-adv-x="664" 
d="M120.5 77q-71.5 91 -71.5 272q0 180 71.5 271t211.5 91t211.5 -91t71.5 -271q0 -181 -71.5 -272t-211.5 -91t-211.5 91zM437 107.5q33 75.5 33 241.5t-33 241.5t-105 75.5t-105.5 -76t-33.5 -241t33.5 -241t105.5 -76t105 75.5zM473 836q4 -12 4 -29q0 -16 -4 -29h-280
q-5 17 -5 29q0 14 5 29h280z" />
    <glyph glyph-name="omacron" unicode="&#x14d;" horiz-adv-x="560" 
d="M100 57.5q-65 71.5 -65 199.5q0 129 64.5 201t180.5 72q115 0 179.5 -72t64.5 -201q0 -128 -64.5 -199.5t-179.5 -71.5t-180 71.5zM385 257q0 228 -105 228q-54 0 -80 -57t-26 -171q0 -113 26 -169.5t80 -56.5q105 0 105 226zM421 659q4 -13 4 -29t-4 -29h-280
q-5 17 -5 29t5 29h280z" />
    <glyph glyph-name="Ohungarumlaut" unicode="&#x150;" horiz-adv-x="664" 
d="M120.5 77q-71.5 91 -71.5 272q0 180 71.5 271t211.5 91t211.5 -91t71.5 -271q0 -181 -71.5 -272t-211.5 -91t-211.5 91zM437 107.5q33 75.5 33 241.5t-33 241.5t-105 75.5t-105.5 -76t-33.5 -241t33.5 -241t105.5 -76t105 75.5zM236 735q-6 1 -16 9.5t-12 12.5l104 163
q20 -2 49 -20t43 -37zM391 732q-6 1 -15.5 9.5t-11.5 12.5l104 163q20 -2 48.5 -20t42.5 -37z" />
    <glyph glyph-name="ohungarumlaut" unicode="&#x151;" horiz-adv-x="560" 
d="M100 57.5q-65 71.5 -65 199.5q0 129 64.5 201t180.5 72q115 0 179.5 -72t64.5 -201q0 -128 -64.5 -199.5t-179.5 -71.5t-180 71.5zM385 257q0 228 -105 228q-54 0 -80 -57t-26 -171q0 -113 26 -169.5t80 -56.5q105 0 105 226zM182 552q-6 1 -16.5 9.5t-12.5 12.5l116 166
q20 -2 44.5 -16t38.5 -32zM344 552q-6 2 -16.5 11t-12.5 12l117 165q19 -2 43 -15.5t39 -31.5z" />
    <glyph glyph-name="OE" unicode="&#x152;" horiz-adv-x="917" 
d="M869.5 92q6.5 -18 6.5 -38q0 -22 -8.5 -38t-24.5 -16h-317q-22 0 -39 8t-27 23q-47 -45 -128 -45q-140 0 -211.5 91t-71.5 272q0 180 71.5 271t211.5 91q75 0 119 -32q19 11 40.5 14.5t58.5 3.5h291q10 0 15.5 -10t5.5 -26q0 -24 -10 -47.5t-25 -30.5q-119 48 -246 51
v-237h217q4 -15 4 -33q0 -16 -4 -38h-216v-263q65 2 145 18.5t124 35.5q12 -7 18.5 -25zM404.5 59.5q29.5 27.5 45.5 87.5v368q-10 84 -38 117.5t-80 33.5q-72 0 -105.5 -76t-33.5 -241t33.5 -241t105.5 -76q43 0 72.5 27.5z" />
    <glyph glyph-name="oe" unicode="&#x153;" horiz-adv-x="875" 
d="M100 57.5q-65 71.5 -65 199.5q0 129 64.5 201t180.5 72q56 0 102.5 -24t73.5 -65q25 40 74.5 64.5t109.5 24.5q89 0 145 -39.5t56 -111.5q0 -73 -58.5 -113t-157.5 -40q-53 0 -100 4q7 -87 45 -125t103 -38q54 0 91.5 21t53.5 56q16 -7 16 -26q0 -13 -7 -31
q-20 -49 -69 -75t-120 -26q-59 0 -107 23.5t-73 63.5q-28 -41 -74 -64t-104 -23q-115 0 -180 71.5zM385 257q0 228 -105 228q-54 0 -80 -57t-26 -171q0 -113 26 -169.5t80 -56.5q105 0 105 226zM566 274q61 0 99.5 31t38.5 95q0 47 -19.5 66t-48.5 19q-34 0 -60 -26.5
t-39 -74t-12 -107.5q23 -3 41 -3z" />
    <glyph glyph-name="Racute" unicode="&#x154;" horiz-adv-x="626" 
d="M613 59q0 -35 -26 -54t-53 -19q-39 0 -63.5 16.5t-40 45t-37.5 83.5l-31 82q-13 33 -24 51.5t-31 31t-53 12.5l-38 1v-175q0 -75 19 -119q-11 -11 -30.5 -20t-44.5 -9q-33 0 -54 18t-21 49v502q0 76 -19 126q62 30 185 30q146 0 219.5 -43t73.5 -139q0 -73 -42 -123.5
t-116 -69.5q34 -10 56.5 -31t40.5 -54l42 -97q15 -35 28 -51t28 -17q14 0 24 9q8 -19 8 -36zM260 355q68 2 104 48t36 117q0 68 -33 107t-106 39q-33 0 -45 -2v-308q28 -2 44 -1zM263 745q-6 3 -13.5 14t-7.5 15l144 131q18 -8 41.5 -33t31.5 -47z" />
    <glyph glyph-name="racute" unicode="&#x155;" horiz-adv-x="468" 
d="M418.5 499.5q35.5 -30.5 35.5 -83.5q0 -38 -23 -63t-58 -26q-40 0 -59 21q11 18 15 33t4 35q0 26 -11 39.5t-33 13.5q-37 0 -58 -58.5t-21 -174.5q0 -107 3 -144.5t18 -73.5q-11 -11 -30 -19.5t-44 -9.5q-31 0 -53 20t-22 54v317q0 28 -6.5 40.5t-20.5 12.5
q-19 0 -26 -12q-12 20 -12 41q0 30 20.5 48.5t57.5 18.5q44 0 70 -27t30 -81q34 109 131 109q57 0 92.5 -30.5zM223 570q-36 2 -47 9l90 158q3 1 11 1q25 0 60 -9.5t44 -16.5z" />
    <glyph glyph-name="Rcommaaccent" unicode="&#x156;" horiz-adv-x="626" 
d="M613 59q0 -35 -26 -54t-53 -19q-39 0 -63.5 16.5t-40 45t-37.5 83.5l-31 82q-13 33 -24 51.5t-31 31t-53 12.5l-38 1v-175q0 -75 19 -119q-11 -11 -30.5 -20t-44.5 -9q-33 0 -54 18t-21 49v502q0 76 -19 126q62 30 185 30q146 0 219.5 -43t73.5 -139q0 -73 -42 -123.5
t-116 -69.5q34 -10 56.5 -31t40.5 -54l42 -97q15 -35 28 -51t28 -17q14 0 24 9q8 -19 8 -36zM260 355q68 2 104 48t36 117q0 68 -33 107t-106 39q-33 0 -45 -2v-308q28 -2 44 -1zM297 -254q18 22 27 40.5t9 37.5q0 33 -18 46.5t-47 20.5q0 31 22 53t54 22t53.5 -22.5
t21.5 -68.5q0 -39 -19 -76t-61 -76q-23 4 -42 23z" />
    <glyph glyph-name="rcommaaccent" unicode="&#x157;" horiz-adv-x="468" 
d="M418.5 499.5q35.5 -30.5 35.5 -83.5q0 -38 -23 -63t-58 -26q-40 0 -59 21q11 18 15 33t4 35q0 26 -11 39.5t-33 13.5q-37 0 -58 -58.5t-21 -174.5q0 -107 3 -144.5t18 -73.5q-11 -11 -30 -19.5t-44 -9.5q-31 0 -53 20t-22 54v317q0 28 -6.5 40.5t-20.5 12.5
q-19 0 -26 -12q-12 20 -12 41q0 30 20.5 48.5t57.5 18.5q44 0 70 -27t30 -81q34 109 131 109q57 0 92.5 -30.5zM115 -254q18 22 27 40.5t9 37.5q0 33 -18 46.5t-47 20.5q0 31 22 53t54 22t53.5 -22.5t21.5 -68.5q0 -39 -19 -76t-61 -76q-23 4 -42 23z" />
    <glyph glyph-name="Rcaron" unicode="&#x158;" horiz-adv-x="626" 
d="M613 59q0 -35 -26 -54t-53 -19q-39 0 -63.5 16.5t-40 45t-37.5 83.5l-31 82q-13 33 -24 51.5t-31 31t-53 12.5l-38 1v-175q0 -75 19 -119q-11 -11 -30.5 -20t-44.5 -9q-33 0 -54 18t-21 49v502q0 76 -19 126q62 30 185 30q146 0 219.5 -43t73.5 -139q0 -73 -42 -123.5
t-116 -69.5q34 -10 56.5 -31t40.5 -54l42 -97q15 -35 28 -51t28 -17q14 0 24 9q8 -19 8 -36zM260 355q68 2 104 48t36 117q0 68 -33 107t-106 39q-33 0 -45 -2v-308q28 -2 44 -1zM307 746q-25 0 -35 5l-137 131q1 5 9 15t14 13l148 -79l146 79q6 -3 14.5 -13t9.5 -15
l-138 -131q-10 -5 -31 -5z" />
    <glyph glyph-name="rcaron" unicode="&#x159;" horiz-adv-x="468" 
d="M418.5 499.5q35.5 -30.5 35.5 -83.5q0 -38 -23 -63t-58 -26q-40 0 -59 21q11 18 15 33t4 35q0 26 -11 39.5t-33 13.5q-37 0 -58 -58.5t-21 -174.5q0 -107 3 -144.5t18 -73.5q-11 -11 -30 -19.5t-44 -9.5q-31 0 -53 20t-22 54v317q0 28 -6.5 40.5t-20.5 12.5
q-19 0 -26 -12q-12 20 -12 41q0 30 20.5 48.5t57.5 18.5q44 0 70 -27t30 -81q34 109 131 109q57 0 92.5 -30.5zM214 664l122 83q9 0 24 -5t16 -9l-129 -157q-8 -4 -32 -4q-27 0 -35 4l-129 157q1 4 15.5 9t22.5 5z" />
    <glyph glyph-name="Sacute" unicode="&#x15a;" horiz-adv-x="566" 
d="M96 24.5q-60 39.5 -60 102.5q0 32 19 52.5t62 20.5q18 0 29 -2q-3 -13 -3 -27q0 -10 2 -24q7 -48 44 -81t103 -33q49 0 81 26.5t32 77.5q0 48 -31.5 80.5t-108.5 75.5q-73 42 -115 73.5t-65.5 72t-23.5 95.5q0 90 66.5 133.5t169.5 43.5q96 0 154 -30t58 -87
q0 -27 -15.5 -43.5t-51.5 -17.5q-4 -1 -14 -1q-9 0 -23 2q2 33 -8 58q-8 33 -37 53.5t-78 20.5q-40 0 -69.5 -20t-29.5 -66q0 -32 14 -57t47 -50t94 -59q60 -33 100 -62.5t67 -71.5t27 -98q0 -55 -28.5 -99.5t-87 -71t-143.5 -26.5q-117 0 -177 39.5zM246 745q-6 3 -13.5 14
t-7.5 15l144 131q18 -8 41.5 -33t31.5 -47z" />
    <glyph glyph-name="sacute" unicode="&#x15b;" horiz-adv-x="476" 
d="M78.5 18q-48.5 32 -48.5 85q0 28 17.5 49t55.5 21q7 0 23 -2q-2 -8 -2 -23q0 -17 4 -30q5 -35 33 -59.5t78 -24.5q41 0 66 15.5t25 46.5q0 25 -15.5 42.5t-36 29t-67.5 33.5q-54 26 -86 46t-55 54t-23 84q0 73 56 109.5t142 36.5q83 0 132.5 -25.5t49.5 -72.5
q0 -25 -14.5 -42t-46.5 -18q-5 -1 -15 -1q-6 0 -20 2q1 5 1 17q0 25 -8 41q-8 25 -30 39t-54 14q-33 0 -55 -14t-22 -42q0 -26 16 -45.5t39.5 -33t66.5 -34.5q54 -26 86.5 -45.5t56 -50.5t23.5 -74q0 -42 -23.5 -78.5t-75 -59t-131.5 -22.5q-94 0 -142.5 32zM245 571
q-36 2 -47 9l90 158q3 1 11 1q25 0 60 -9.5t44 -16.5z" />
    <glyph glyph-name="Scircumflex" unicode="&#x15c;" horiz-adv-x="566" 
d="M96 24.5q-60 39.5 -60 102.5q0 32 19 52.5t62 20.5q18 0 29 -2q-3 -13 -3 -27q0 -10 2 -24q7 -48 44 -81t103 -33q49 0 81 26.5t32 77.5q0 48 -31.5 80.5t-108.5 75.5q-73 42 -115 73.5t-65.5 72t-23.5 95.5q0 90 66.5 133.5t169.5 43.5q96 0 154 -30t58 -87
q0 -27 -15.5 -43.5t-51.5 -17.5q-4 -1 -14 -1q-9 0 -23 2q2 33 -8 58q-8 33 -37 53.5t-78 20.5q-40 0 -69.5 -20t-29.5 -66q0 -32 14 -57t47 -50t94 -59q60 -33 100 -62.5t67 -71.5t27 -98q0 -55 -28.5 -99.5t-87 -71t-143.5 -26.5q-117 0 -177 39.5zM454 765q0 -5 -8.5 -15
t-15.5 -13l-146 79l-147 -79q-6 3 -14.5 13t-9.5 15l137 131q10 5 33 5q24 0 34 -5z" />
    <glyph glyph-name="scircumflex" unicode="&#x15d;" horiz-adv-x="476" 
d="M78.5 18q-48.5 32 -48.5 85q0 28 17.5 49t55.5 21q7 0 23 -2q-2 -8 -2 -23q0 -17 4 -30q5 -35 33 -59.5t78 -24.5q41 0 66 15.5t25 46.5q0 25 -15.5 42.5t-36 29t-67.5 33.5q-54 26 -86 46t-55 54t-23 84q0 73 56 109.5t142 36.5q83 0 132.5 -25.5t49.5 -72.5
q0 -25 -14.5 -42t-46.5 -18q-5 -1 -15 -1q-6 0 -20 2q1 5 1 17q0 25 -8 41q-8 25 -30 39t-54 14q-33 0 -55 -14t-22 -42q0 -26 16 -45.5t39.5 -33t66.5 -34.5q54 -26 86.5 -45.5t56 -50.5t23.5 -74q0 -42 -23.5 -78.5t-75 -59t-131.5 -22.5q-94 0 -142.5 32zM86 573.5
q-14 5.5 -15 9.5l129 156q8 4 35 4q24 0 32 -4l129 -156q-1 -4 -16 -9.5t-24 -5.5l-122 83l-125 -83q-9 0 -23 5.5z" />
    <glyph glyph-name="Scedilla" unicode="&#x15e;" horiz-adv-x="566" 
d="M474.5 48.5q-57.5 -54.5 -168.5 -62.5l-8 -42q51 1 81 -18.5t30 -55.5q0 -43 -32.5 -68.5t-90.5 -25.5q-69 0 -98 34q-2 9 2.5 24t9.5 18q1 -1 13.5 -12.5t44.5 -11.5q20 0 31 11t11 30t-13 31.5t-37 12.5l-12 -1l14 73q-106 4 -161 43t-55 99q0 32 19 52.5t62 20.5
q18 0 29 -2q-3 -13 -3 -27q0 -10 2 -24q7 -48 44 -81t103 -33q49 0 81 26.5t32 77.5q0 48 -31.5 80.5t-108.5 75.5q-73 42 -115 73.5t-65.5 72t-23.5 95.5q0 90 66.5 133.5t169.5 43.5q96 0 154 -30t58 -87q0 -27 -15.5 -43.5t-51.5 -17.5q-4 -1 -14 -1q-9 0 -23 2
q2 33 -8 58q-8 33 -37 53.5t-78 20.5q-40 0 -69.5 -20t-29.5 -66q0 -32 14 -57t47 -50t94 -59q60 -33 100 -62.5t67 -71.5t27 -98q0 -79 -57.5 -133.5z" />
    <glyph glyph-name="scedilla" unicode="&#x15f;" horiz-adv-x="476" 
d="M404 40.5q-47 -44.5 -144 -52.5l-8 -44q51 1 81 -18.5t30 -55.5q0 -43 -32.5 -68.5t-90.5 -25.5q-69 0 -98 34q-2 9 2.5 24t9.5 18q1 -1 13.5 -12.5t44.5 -11.5q20 0 31 11t11 30t-13 31.5t-37 12.5l-12 -1l14 74q-87 3 -131.5 34.5t-44.5 82.5q0 28 17.5 49t55.5 21
q7 0 23 -2q-2 -8 -2 -23q0 -17 4 -30q5 -35 33 -59.5t78 -24.5q41 0 66 15.5t25 46.5q0 25 -15.5 42.5t-36 29t-67.5 33.5q-54 26 -86 46t-55 54t-23 84q0 73 56 109.5t142 36.5q83 0 132.5 -25.5t49.5 -72.5q0 -25 -14.5 -42t-46.5 -18q-5 -1 -15 -1q-6 0 -20 2q1 5 1 17
q0 25 -8 41q-8 25 -30 39t-54 14q-33 0 -55 -14t-22 -42q0 -26 16 -45.5t39.5 -33t66.5 -34.5q54 -26 86.5 -45.5t56 -50.5t23.5 -74q0 -61 -47 -105.5z" />
    <glyph glyph-name="Scaron" unicode="&#x160;" horiz-adv-x="566" 
d="M96 24.5q-60 39.5 -60 102.5q0 32 19 52.5t62 20.5q18 0 29 -2q-3 -13 -3 -27q0 -10 2 -24q7 -48 44 -81t103 -33q49 0 81 26.5t32 77.5q0 48 -31.5 80.5t-108.5 75.5q-73 42 -115 73.5t-65.5 72t-23.5 95.5q0 90 66.5 133.5t169.5 43.5q96 0 154 -30t58 -87
q0 -27 -15.5 -43.5t-51.5 -17.5q-4 -1 -14 -1q-9 0 -23 2q2 33 -8 58q-8 33 -37 53.5t-78 20.5q-40 0 -69.5 -20t-29.5 -66q0 -32 14 -57t47 -50t94 -59q60 -33 100 -62.5t67 -71.5t27 -98q0 -55 -28.5 -99.5t-87 -71t-143.5 -26.5q-117 0 -177 39.5zM290 746q-25 0 -35 5
l-137 131q1 5 9 15t14 13l148 -79l146 79q6 -3 14.5 -13t9.5 -15l-138 -131q-10 -5 -31 -5z" />
    <glyph glyph-name="scaron" unicode="&#x161;" horiz-adv-x="476" 
d="M78.5 18q-48.5 32 -48.5 85q0 28 17.5 49t55.5 21q7 0 23 -2q-2 -8 -2 -23q0 -17 4 -30q5 -35 33 -59.5t78 -24.5q41 0 66 15.5t25 46.5q0 25 -15.5 42.5t-36 29t-67.5 33.5q-54 26 -86 46t-55 54t-23 84q0 73 56 109.5t142 36.5q83 0 132.5 -25.5t49.5 -72.5
q0 -25 -14.5 -42t-46.5 -18q-5 -1 -15 -1q-6 0 -20 2q1 5 1 17q0 25 -8 41q-8 25 -30 39t-54 14q-33 0 -55 -14t-22 -42q0 -26 16 -45.5t39.5 -33t66.5 -34.5q54 -26 86.5 -45.5t56 -50.5t23.5 -74q0 -42 -23.5 -78.5t-75 -59t-131.5 -22.5q-94 0 -142.5 32zM237 665l122 83
q9 0 24 -5t16 -9l-129 -157q-8 -4 -32 -4q-27 0 -35 4l-129 157q1 4 15.5 9t22.5 5z" />
    <glyph glyph-name="uni0162" unicode="&#x162;" horiz-adv-x="553" 
d="M535.5 687q5.5 -10 5.5 -26q0 -23 -10 -47t-26 -31q-94 46 -163 61l1 -503q0 -79 19 -126q-22 -19 -48 -25l-8 -46q51 1 81 -18.5t30 -55.5q0 -43 -32.5 -68.5t-90.5 -25.5q-69 0 -98 34q-2 9 2.5 24t9.5 18q1 -1 13.5 -12.5t44.5 -11.5q20 0 31 11t11 30t-13 31.5
t-37 12.5l-12 -1l15 77q-23 6 -36.5 23t-13.5 41v591q-65 -14 -163 -61q-15 7 -25 31t-10 47q0 16 5 26t16 10h486q10 0 15.5 -10z" />
    <glyph glyph-name="uni0163" unicode="&#x163;" horiz-adv-x="353" 
d="M280.5 516.5q45.5 1.5 51.5 2.5l-1 -31q-1 -15 -10 -23.5t-23 -8.5h-89v-30v-287q0 -53 46 -53q12 0 24.5 3.5t15.5 10.5q13 -17 13 -41q0 -28 -24 -46.5t-66 -21.5l-8 -47q51 1 81 -18.5t30 -55.5q0 -43 -32.5 -68.5t-90.5 -25.5q-69 0 -98 34q-2 9 2.5 24t9.5 18
q1 -1 13.5 -12.5t44.5 -11.5q20 0 31 11t11 30t-13 31.5t-37 12.5l-12 -1l16 82q-41 11 -63.5 46t-22.5 88v328h-14q-41 0 -60 -3l1 31q1 15 10.5 23t23.5 8h39v67q0 31 21 49t54 18q24 0 43 -9t30 -20q-13 -51 -17 -105h3q21 0 66.5 1.5z" />
    <glyph glyph-name="Tcaron" unicode="&#x164;" horiz-adv-x="553" 
d="M535.5 687q5.5 -10 5.5 -26q0 -23 -10 -47t-26 -31q-94 46 -163 61l1 -503q0 -79 19 -126q-12 -11 -31.5 -20t-44.5 -9q-33 0 -54 18t-21 49v591q-65 -14 -163 -61q-15 7 -25 31t-10 47q0 16 5 26t16 10h486q10 0 15.5 -10zM279 746q-25 0 -35 5l-137 131q1 5 9 15t14 13
l148 -79l146 79q6 -3 14.5 -13t9.5 -15l-138 -131q-10 -5 -31 -5z" />
    <glyph glyph-name="tcaron" unicode="&#x165;" horiz-adv-x="400" 
d="M274 609q0 79 -20 134q27 9 58 9q34 0 59 -9q0 -45 -12.5 -93t-31.5 -90h-55q2 30 2 49zM214 515q21 0 66.5 1.5t51.5 2.5l-1 -31q-1 -15 -10 -23.5t-23 -8.5h-89v-30v-287q0 -53 46 -53q12 0 24.5 3.5t15.5 10.5q13 -17 13 -41q0 -31 -29 -50t-77 -19q-58 0 -90 37
t-32 101v328h-14q-41 0 -60 -3l1 31q1 15 10.5 23t23.5 8h39v67q0 31 21 49t54 18q24 0 43 -9t30 -20q-13 -51 -17 -105h3z" />
    <glyph glyph-name="Utilde" unicode="&#x168;" horiz-adv-x="673" 
d="M599 307q0 -160 -66 -240.5t-196 -80.5q-128 0 -191.5 78t-63.5 243v248q0 76 -19 126q11 11 30.5 20t44.5 9q32 0 53 -18t21 -49v-343q0 -141 30 -204.5t95 -63.5q68 0 100 67t32 201v255q0 76 -19 126q12 11 31 20t43 9q32 0 53.5 -18t21.5 -49v-336zM463.5 786.5
q-23.5 -28.5 -61.5 -28.5q-17 0 -33 5.5t-37 16.5q-21 10 -36 15.5t-30 5.5q-26 0 -40 -10.5t-23 -28.5l-5 -1q-12 0 -24 10q5 56 32.5 80.5t65.5 24.5q17 0 33.5 -5.5t37.5 -16.5q22 -11 37 -16.5t32 -5.5q23 0 33.5 9.5t20.5 29.5q11 0 17 -1.5t12 -6.5
q-8 -48 -31.5 -76.5z" />
    <glyph glyph-name="utilde" unicode="&#x169;" horiz-adv-x="581" 
d="M567 54q0 -31 -20.5 -49t-58.5 -18q-45 0 -71.5 29t-28.5 87q-42 -118 -163 -118q-82 0 -120 47t-38 156v186q0 76 -19 127q35 29 74 29q33 0 53.5 -18t20.5 -50l1 -254q0 -86 15 -124t56 -38q48 0 77 60t29 174q0 110 -3 147.5t-19 74.5q11 10 30.5 19t43.5 9
q32 0 53.5 -20t21.5 -54l1 -321q0 -28 6 -40t20 -12q17 0 26 11q13 -19 13 -40zM392 607q-22 -28 -58 -28q-16 0 -31.5 6t-33.5 17q-3 2 -15.5 8t-24 9.5t-21.5 3.5q-42 0 -61 -39h-2q-5 0 -12.5 2.5t-11.5 6.5q4 53 30 77.5t62 24.5q17 0 31.5 -5.5t34.5 -17.5
q20 -11 34 -16.5t29 -5.5q22 0 33 10t19 30q10 0 15.5 -1.5t10.5 -6.5q-6 -47 -28 -75z" />
    <glyph glyph-name="Umacron" unicode="&#x16a;" horiz-adv-x="673" 
d="M599 307q0 -160 -66 -240.5t-196 -80.5q-128 0 -191.5 78t-63.5 243v248q0 76 -19 126q11 11 30.5 20t44.5 9q32 0 53 -18t21 -49v-343q0 -141 30 -204.5t95 -63.5q68 0 100 67t32 201v255q0 76 -19 126q12 11 31 20t43 9q32 0 53.5 -18t21.5 -49v-336zM478 836
q4 -12 4 -29q0 -16 -4 -29h-280q-5 17 -5 29q0 14 5 29h280z" />
    <glyph glyph-name="umacron" unicode="&#x16b;" horiz-adv-x="581" 
d="M567 54q0 -31 -20.5 -49t-58.5 -18q-45 0 -71.5 29t-28.5 87q-42 -118 -163 -118q-82 0 -120 47t-38 156v186q0 76 -19 127q35 29 74 29q33 0 53.5 -18t20.5 -50l1 -254q0 -86 15 -124t56 -38q48 0 77 60t29 174q0 110 -3 147.5t-19 74.5q11 10 30.5 19t43.5 9
q32 0 53.5 -20t21.5 -54l1 -321q0 -28 6 -40t20 -12q17 0 26 11q13 -19 13 -40zM414 659q4 -13 4 -29t-4 -29h-280q-5 17 -5 29t5 29h280z" />
    <glyph glyph-name="Ubreve" unicode="&#x16c;" horiz-adv-x="673" 
d="M599 307q0 -160 -66 -240.5t-196 -80.5q-128 0 -191.5 78t-63.5 243v248q0 76 -19 126q11 11 30.5 20t44.5 9q32 0 53 -18t21 -49v-343q0 -141 30 -204.5t95 -63.5q68 0 100 67t32 201v255q0 76 -19 126q12 11 31 20t43 9q32 0 53.5 -18t21.5 -49v-336zM430.5 782.5
q-34.5 -36.5 -95.5 -36.5t-96 37.5t-44 93.5l40 10q11 -38 38.5 -55t66.5 -17q37 0 64 18t39 54q26 -6 35 -8q-13 -60 -47.5 -96.5z" />
    <glyph glyph-name="ubreve" unicode="&#x16d;" horiz-adv-x="581" 
d="M567 54q0 -31 -20.5 -49t-58.5 -18q-45 0 -71.5 29t-28.5 87q-42 -118 -163 -118q-82 0 -120 47t-38 156v186q0 76 -19 127q35 29 74 29q33 0 53.5 -18t20.5 -50l1 -254q0 -86 15 -124t56 -38q48 0 77 60t29 174q0 110 -3 147.5t-19 74.5q11 10 30.5 19t43.5 9
q32 0 53.5 -20t21.5 -54l1 -321q0 -28 6 -40t20 -12q17 0 26 11q13 -19 13 -40zM389 735q19 -5 36 -15q-18 -67 -54.5 -106t-98.5 -39q-67 0 -103.5 40.5t-49.5 104.5q15 11 40 15q15 -38 45 -57.5t70 -19.5q77 0 115 77z" />
    <glyph glyph-name="Uring" unicode="&#x16e;" horiz-adv-x="673" 
d="M599 307q0 -160 -66 -240.5t-196 -80.5q-128 0 -191.5 78t-63.5 243v248q0 76 -19 126q11 11 30.5 20t44.5 9q32 0 53 -18t21 -49v-343q0 -141 30 -204.5t95 -63.5q68 0 100 67t32 201v255q0 76 -19 126q12 11 31 20t43 9q32 0 53.5 -18t21.5 -49v-336zM412 894.5
q27 -23.5 27 -62.5q-1 -40 -29 -64.5t-73 -24.5q-44 0 -71 23.5t-27 61.5q0 41 28.5 65.5t73.5 24.5q44 0 71 -23.5zM311 869q-10 -14 -10 -39t10 -38.5t28 -13.5q38 0 38 52q0 26 -9.5 39.5t-28.5 13.5q-18 0 -28 -14z" />
    <glyph glyph-name="uring" unicode="&#x16f;" horiz-adv-x="581" 
d="M567 54q0 -31 -20.5 -49t-58.5 -18q-45 0 -71.5 29t-28.5 87q-42 -118 -163 -118q-82 0 -120 47t-38 156v186q0 76 -19 127q35 29 74 29q33 0 53.5 -18t20.5 -50l1 -254q0 -86 15 -124t56 -38q48 0 77 60t29 174q0 110 -3 147.5t-19 74.5q11 10 30.5 19t43.5 9
q32 0 53.5 -20t21.5 -54l1 -321q0 -28 6 -40t20 -12q17 0 26 11q13 -19 13 -40zM347 712.5q27 -23.5 27 -62.5q-1 -40 -29 -64.5t-73 -24.5q-44 0 -71 23.5t-27 61.5q0 41 28.5 65.5t73.5 24.5q44 0 71 -23.5zM246 687q-10 -14 -10 -39t10 -38.5t28 -13.5q38 0 38 52
q0 26 -9.5 39.5t-28.5 13.5q-18 0 -28 -14z" />
    <glyph glyph-name="Uhungarumlaut" unicode="&#x170;" horiz-adv-x="673" 
d="M599 307q0 -160 -66 -240.5t-196 -80.5q-128 0 -191.5 78t-63.5 243v248q0 76 -19 126q11 11 30.5 20t44.5 9q32 0 53 -18t21 -49v-343q0 -141 30 -204.5t95 -63.5q68 0 100 67t32 201v255q0 76 -19 126q12 11 31 20t43 9q32 0 53.5 -18t21.5 -49v-336zM241 735
q-6 1 -16 9.5t-12 12.5l104 163q20 -2 49 -20t43 -37zM396 732q-6 1 -15.5 9.5t-11.5 12.5l104 163q20 -2 48.5 -20t42.5 -37z" />
    <glyph glyph-name="uhungarumlaut" unicode="&#x171;" horiz-adv-x="581" 
d="M567 54q0 -31 -20.5 -49t-58.5 -18q-45 0 -71.5 29t-28.5 87q-42 -118 -163 -118q-82 0 -120 47t-38 156v186q0 76 -19 127q35 29 74 29q33 0 53.5 -18t20.5 -50l1 -254q0 -86 15 -124t56 -38q48 0 77 60t29 174q0 110 -3 147.5t-19 74.5q11 10 30.5 19t43.5 9
q32 0 53.5 -20t21.5 -54l1 -321q0 -28 6 -40t20 -12q17 0 26 11q13 -19 13 -40zM174 552q-6 1 -16.5 9.5t-12.5 12.5l116 166q20 -2 44.5 -16t38.5 -32zM336 552q-6 2 -16.5 11t-12.5 12l117 165q19 -2 43 -15.5t39 -31.5z" />
    <glyph glyph-name="Uogonek" unicode="&#x172;" horiz-adv-x="673" 
d="M577.5 692q21.5 -18 21.5 -49v-336q0 -245 -153 -303q-36 -19 -55 -40.5t-19 -48.5q0 -44 46 -44q53 0 85 58q15 -8 15 -22q0 -7 -2 -11q-13 -32 -47 -54t-82 -22q-38 0 -69 19t-31 61q0 51 52 86h-2q-128 0 -191.5 78t-63.5 243v248q0 76 -19 126q11 11 30.5 20t44.5 9
q32 0 53 -18t21 -49v-343q0 -141 30 -204.5t95 -63.5q68 0 100 67t32 201v255q0 76 -19 126q12 11 31 20t43 9q32 0 53.5 -18z" />
    <glyph glyph-name="uogonek" unicode="&#x173;" horiz-adv-x="581" 
d="M598 -104q0 -7 -2 -11q-13 -32 -47 -54t-82 -22q-38 0 -69 19t-31 61q0 65 84 104q-29 10 -45.5 37.5t-17.5 72.5q-42 -118 -163 -118q-82 0 -120 47t-38 156v186q0 76 -19 127q35 29 74 29q33 0 53.5 -18t20.5 -50l1 -254q0 -86 15 -124t56 -38q48 0 77 60t29 174
q0 110 -3 147.5t-19 74.5q11 10 30.5 19t43.5 9q32 0 53.5 -20t21.5 -54l1 -321q0 -28 6 -40t20 -12q17 0 26 11q13 -19 13 -40q0 -22 -10.5 -38t-30.5 -23q-36 -19 -55 -40.5t-19 -48.5q0 -44 46 -44q53 0 85 58q15 -8 15 -22z" />
    <glyph glyph-name="Wcircumflex" unicode="&#x174;" horiz-adv-x="956" 
d="M913.5 696q17.5 -12 17.5 -40q0 -23 -14 -69l-161 -583q-44 -18 -87 -18q-67 0 -75 36l-113 451l-120 -469q-45 -18 -85 -18q-74 0 -81 36l-148 598q-3 15 -12 33t-20 30q26 28 78 28q74 0 84 -50l117 -569l112 452q4 16 4 32q0 23 -9 43q19 9 44.5 14.5t47.5 5.5
q27 0 45 -9t22 -26l128 -511l102 526q1 8 3.5 21t2.5 23q0 19 -9 32q18 7 33 10t37 3q39 0 56.5 -12zM652 765q0 -5 -8.5 -15t-15.5 -13l-146 79l-147 -79q-6 3 -14.5 13t-9.5 15l137 131q10 5 33 5q24 0 34 -5z" />
    <glyph glyph-name="wcircumflex" unicode="&#x175;" horiz-adv-x="828" 
d="M166 28l-123 408q-7 22 -13.5 36.5t-16.5 25.5q24 30 73 30q31 0 51 -13t25 -38l94 -404l79 365q5 23 5 44q0 22 -9 32q28 12 84 14q33 0 57 -10.5t30 -36.5l92 -408l81 365q6 30 6 44q0 19 -9 32q18 7 32 10.5t35 3.5q37 0 54 -13t17 -42q0 -33 -14 -68l-136 -400
q-44 -19 -88 -19q-25 0 -43.5 10t-24.5 32l-89 372l-88 -395q-45 -19 -93 -19q-55 0 -68 42zM262 572.5q-14 5.5 -15 9.5l129 156q8 4 35 4q24 0 32 -4l129 -156q-1 -4 -16 -9.5t-24 -5.5l-122 83l-125 -83q-9 0 -23 5.5z" />
    <glyph glyph-name="Ycircumflex" unicode="&#x176;" horiz-adv-x="593" 
d="M362 262v-121q0 -76 19 -126q-11 -11 -31 -20t-44 -9q-33 0 -54 18t-21 49v209q-11 14 -22 37l-155 301q-22 41 -49 67q15 15 39 27.5t54 12.5q36 0 55 -18t36 -55l133 -286l121 268q11 23 11 43q0 10 -3.5 19.5t-9.5 15.5q31 13 74 13q30 0 45 -15.5t16 -40.5
q0 -15 -8.5 -36.5t-22.5 -43.5zM483 765q0 -5 -8.5 -15t-15.5 -13l-146 79l-147 -79q-6 3 -14.5 13t-9.5 15l137 131q10 5 33 5q24 0 34 -5z" />
    <glyph glyph-name="ycircumflex" unicode="&#x177;" horiz-adv-x="557" 
d="M502 52q0 -146 -69 -211.5t-189 -65.5q-189 0 -189 105q0 32 24.5 52.5t64.5 20.5q42 0 59 -22q-14 -10 -21 -23.5t-7 -26.5q0 -30 19 -48t53 -18q65 0 99.5 58.5t34.5 160.5q0 20 8 82q-41 -123 -166 -123q-80 0 -118 47t-38 155v179q0 76 -19 127q35 29 74 29
q33 0 53.5 -18t20.5 -50l1 -247q0 -84 14.5 -122.5t54.5 -38.5q49 0 78.5 58.5t29.5 169.5q0 109 -3 146t-19 74q11 10 30.5 19t43.5 9q32 0 53.5 -20t21.5 -54zM129 572.5q-14 5.5 -15 9.5l129 156q8 4 35 4q24 0 32 -4l129 -156q-1 -4 -16 -9.5t-24 -5.5l-122 83l-125 -83
q-9 0 -23 5.5z" />
    <glyph glyph-name="Ydieresis" unicode="&#x178;" horiz-adv-x="593" 
d="M362 262v-121q0 -76 19 -126q-11 -11 -31 -20t-44 -9q-33 0 -54 18t-21 49v209q-11 14 -22 37l-155 301q-22 41 -49 67q15 15 39 27.5t54 12.5q36 0 55 -18t36 -55l133 -286l121 268q11 23 11 43q0 10 -3.5 19.5t-9.5 15.5q31 13 74 13q30 0 45 -15.5t16 -40.5
q0 -15 -8.5 -36.5t-22.5 -43.5zM163.5 776q-19.5 20 -19.5 48t20 48t48 20t48 -20t20 -48t-20 -48t-48 -20q-29 0 -48.5 20zM374.5 776q-19.5 20 -19.5 48t20 48t48 20t48 -20t20 -48t-20 -48t-48 -20q-29 0 -48.5 20z" />
    <glyph glyph-name="Zacute" unicode="&#x179;" horiz-adv-x="594" 
d="M552.5 168q17.5 -26 17.5 -60q0 -51 -39 -81t-116 -29l-259 7q-31 1 -49.5 -1t-44.5 -11l-17 32q0 35 6.5 57.5t25.5 46.5l348 469l-201 -14q-28 -2 -49 -11t-30 -26q-9 -19 -9 -34q0 -13 6 -25q-37 7 -60 24q-18 10 -29.5 31t-11.5 45q0 52 43 83.5t129 28.5l200 -6
q78 -2 116 10l17 -38q0 -34 -6.5 -56t-26.5 -47l-353 -463l221 15q34 1 56 13t30 29q10 17 10 34q0 9 -4 23q14 -2 22 -5t10 -4q30 -11 47.5 -37zM256 745q-6 3 -13.5 14t-7.5 15l144 131q18 -8 41.5 -33t31.5 -47z" />
    <glyph glyph-name="zacute" unicode="&#x17a;" horiz-adv-x="504" 
d="M477 136.5q15 -25.5 15 -48.5q0 -42 -37.5 -68.5t-103.5 -25.5l-212 6q-59 2 -93 -10l-15 27q0 30 5.5 48.5t23.5 36.5l288 326l-158 -14q-38 -4 -60 -28q-16 -16 -16 -36q0 -6 1 -9q-23 4 -32 10q-28 12 -43 36t-15 44q0 43 36.5 69t112.5 23l184 -6q59 -2 91 9l13 -33
q0 -29 -5 -47.5t-23 -38.5l-263 -305l153 7q46 3 67 33q11 14 11 32q0 7 -1 10q22 -5 32 -9q29 -13 44 -38.5zM260 572q-36 2 -47 9l90 158q3 1 11 1q25 0 60 -9.5t44 -16.5z" />
    <glyph glyph-name="Zdotaccent" unicode="&#x17b;" horiz-adv-x="594" 
d="M552.5 168q17.5 -26 17.5 -60q0 -51 -39 -81t-116 -29l-259 7q-31 1 -49.5 -1t-44.5 -11l-17 32q0 35 6.5 57.5t25.5 46.5l348 469l-201 -14q-28 -2 -49 -11t-30 -26q-9 -19 -9 -34q0 -13 6 -25q-37 7 -60 24q-18 10 -29.5 31t-11.5 45q0 52 43 83.5t129 28.5l200 -6
q78 -2 116 10l17 -38q0 -34 -6.5 -56t-26.5 -47l-353 -463l221 15q34 1 56 13t30 29q10 17 10 34q0 9 -4 23q14 -2 22 -5t10 -4q30 -11 47.5 -37zM250 773.5q-20 20.5 -20 48.5t20 48t48 20t48 -20t20 -48t-20 -48.5t-48 -20.5t-48 20.5z" />
    <glyph glyph-name="zdotaccent" unicode="&#x17c;" horiz-adv-x="504" 
d="M477 136.5q15 -25.5 15 -48.5q0 -42 -37.5 -68.5t-103.5 -25.5l-212 6q-59 2 -93 -10l-15 27q0 30 5.5 48.5t23.5 36.5l288 326l-158 -14q-38 -4 -60 -28q-16 -16 -16 -36q0 -6 1 -9q-23 4 -32 10q-28 12 -43 36t-15 44q0 43 36.5 69t112.5 23l184 -6q59 -2 91 9l13 -33
q0 -29 -5 -47.5t-23 -38.5l-263 -305l153 7q46 3 67 33q11 14 11 32q0 7 -1 10q22 -5 32 -9q29 -13 44 -38.5zM202.5 596q-19.5 20 -19.5 48t20 48t48 20t48 -20t20 -48t-20 -48t-48 -20q-29 0 -48.5 20z" />
    <glyph glyph-name="Zcaron" unicode="&#x17d;" horiz-adv-x="594" 
d="M552.5 168q17.5 -26 17.5 -60q0 -51 -39 -81t-116 -29l-259 7q-31 1 -49.5 -1t-44.5 -11l-17 32q0 35 6.5 57.5t25.5 46.5l348 469l-201 -14q-28 -2 -49 -11t-30 -26q-9 -19 -9 -34q0 -13 6 -25q-37 7 -60 24q-18 10 -29.5 31t-11.5 45q0 52 43 83.5t129 28.5l200 -6
q78 -2 116 10l17 -38q0 -34 -6.5 -56t-26.5 -47l-353 -463l221 15q34 1 56 13t30 29q10 17 10 34q0 9 -4 23q14 -2 22 -5t10 -4q30 -11 47.5 -37zM300 746q-25 0 -35 5l-137 131q1 5 9 15t14 13l148 -79l146 79q6 -3 14.5 -13t9.5 -15l-138 -131q-10 -5 -31 -5z" />
    <glyph glyph-name="zcaron" unicode="&#x17e;" horiz-adv-x="504" 
d="M477 136.5q15 -25.5 15 -48.5q0 -42 -37.5 -68.5t-103.5 -25.5l-212 6q-59 2 -93 -10l-15 27q0 30 5.5 48.5t23.5 36.5l288 326l-158 -14q-38 -4 -60 -28q-16 -16 -16 -36q0 -6 1 -9q-23 4 -32 10q-28 12 -43 36t-15 44q0 43 36.5 69t112.5 23l184 -6q59 -2 91 9l13 -33
q0 -29 -5 -47.5t-23 -38.5l-263 -305l153 7q46 3 67 33q11 14 11 32q0 7 -1 10q22 -5 32 -9q29 -13 44 -38.5zM251 666l122 83q9 0 24 -5t16 -9l-129 -157q-8 -4 -32 -4q-27 0 -35 4l-129 157q1 4 15.5 9t22.5 5z" />
    <glyph glyph-name="uni018F" unicode="&#x18f;" horiz-adv-x="614" 
d="M491.5 615.5q76.5 -95.5 76.5 -269.5q0 -169 -74.5 -264.5t-213.5 -95.5q-104 0 -169.5 51t-65.5 146q0 96 65.5 150t173.5 54q46 0 79.5 -1.5t65.5 -7.5q-6 137 -52.5 194.5t-133.5 57.5q-60 0 -106 -22t-66 -60q-7 3 -11.5 10t-4.5 18q0 13 7 30q22 49 81 77t135 28
q137 0 213.5 -95.5zM392 110q38 80 38 224q-23 4 -49 4q-78 0 -138 -40t-60 -139q0 -70 29 -99.5t72 -29.5q70 0 108 80z" />
    <glyph glyph-name="florin" unicode="&#x192;" horiz-adv-x="401" 
d="M400.5 721q38.5 -22 38.5 -62q0 -30 -22.5 -50t-53.5 -20q-41 0 -58 20q12 15 16.5 28t4.5 29q0 19 -9 27.5t-29 8.5q-29 0 -43.5 -24.5t-19.5 -61.5t-8 -101h18q20 0 62.5 1.5t48.5 2.5l-2 -31q-1 -15 -11 -23.5t-24 -8.5h-95l-23 -447q-1 -8 -1 -29q0 -58 13 -97
q-35 -29 -76 -29q-32 0 -51.5 18t-17.5 49l27 535h-9q-41 0 -60 -3l2 31q1 15 11 23t24 8h35l1 20q11 208 202 208q71 0 109.5 -22z" />
    <glyph glyph-name="Ohorn" unicode="&#x1a0;" horiz-adv-x="664" 
d="M601 680q-26 -27 -69 -46q83 -91 83 -285q0 -181 -71.5 -272t-211.5 -91t-211.5 91t-71.5 272q0 180 71.5 271t211.5 91q97 0 162 -44q41 21 41 58q0 16 -6.5 31.5t-16.5 25.5q13 10 42 22.5t46 14.5q10 -11 18.5 -34.5t8.5 -46.5q0 -31 -26 -58zM437 107.5
q33 75.5 33 241.5t-33 241.5t-105 75.5t-105.5 -76t-33.5 -241t33.5 -241t105.5 -76t105 75.5z" />
    <glyph glyph-name="ohorn" unicode="&#x1a1;" horiz-adv-x="560" 
d="M538 491.5q-25 -26.5 -68 -45.5q54 -71 54 -189q0 -128 -64.5 -199.5t-179.5 -71.5t-180 71.5t-65 199.5q0 129 64.5 201t180.5 72q95 0 155 -49q36 19 36 55q0 16 -6.5 31.5t-16.5 25.5q13 10 42 22.5t46 14.5q10 -11 18.5 -34.5t8.5 -46.5q0 -31 -25 -57.5zM385 257
q0 228 -105 228q-54 0 -80 -57t-26 -171q0 -113 26 -169.5t80 -56.5q105 0 105 226z" />
    <glyph glyph-name="Uhorn" unicode="&#x1af;" horiz-adv-x="673" 
d="M578 692q21 -19 21 -49v-336q0 -160 -66 -240.5t-196 -80.5q-128 0 -191.5 78t-63.5 243v248q0 76 -19 126q11 11 30.5 20t44.5 9q32 0 53 -18t21 -49v-343q0 -141 30 -204.5t95 -63.5q68 0 100 67t32 201v255q0 76 -19 126q24 22 57 28q51 21 51 62q0 16 -6.5 31.5
t-16.5 25.5q13 10 42 22.5t46 14.5q10 -11 18.5 -34.5t8.5 -46.5q0 -53 -72 -92z" />
    <glyph glyph-name="uhorn" unicode="&#x1b0;" horiz-adv-x="581" 
d="M567 54q0 -31 -20.5 -49t-58.5 -18q-45 0 -71.5 29t-28.5 87q-42 -118 -163 -118q-82 0 -120 47t-38 156v186q0 76 -19 127q35 29 74 29q33 0 53.5 -18t20.5 -50l1 -254q0 -86 15 -124t56 -38q48 0 77 60t29 174q0 110 -3 147.5t-19 74.5q11 10 30.5 19t43.5 9
q32 0 53.5 -20t21.5 -54l1 -321q0 -28 6 -40t20 -12q17 0 26 11q13 -19 13 -40zM529 524q58 21 58 65q0 16 -6.5 31.5t-16.5 25.5q13 10 42 22.5t46 14.5q10 -11 18.5 -34.5t8.5 -46.5q0 -38 -37.5 -68.5t-95.5 -50.5z" />
    <glyph glyph-name="uni01CD" unicode="&#x1cd;" horiz-adv-x="623" 
d="M619 16q-26 -30 -77 -30q-31 0 -52.5 13t-26.5 38l-45 168h-226l-33 -129q-7 -26 -7 -44q0 -21 11 -32q-19 -7 -34.5 -10.5t-37.5 -3.5q-38 0 -55.5 13t-17.5 42q0 24 13 68l197 585q55 18 110 18q60 0 71 -43l178 -591q12 -41 32 -62zM399 276l-96 358l-93 -358h189z
M319 746q-25 0 -35 5l-137 131q1 5 9 15t14 13l148 -79l146 79q6 -3 14.5 -13t9.5 -15l-138 -131q-10 -5 -31 -5z" />
    <glyph glyph-name="uni01CE" unicode="&#x1ce;" horiz-adv-x="565" 
d="M559 59q0 -29 -25 -49t-67 -20q-48 0 -75 31.5t-31 102.5q-28 -61 -78 -97.5t-116 -36.5q-59 0 -95 31t-36 87q0 64 49 105t124 63q65 18 143 20v25q0 85 -20 125t-69 40q-32 0 -52 -18.5t-20 -56.5q0 -53 36 -74q-11 -11 -29.5 -17t-39.5 -6q-46 0 -72.5 26t-26.5 66
q0 59 57 91.5t155 32.5q111 0 162.5 -51t51.5 -166v-174q0 -53 33 -53q7 0 15 3.5t13 10.5q13 -19 13 -41zM286 98q30 24 50 65.5t20 90.5q-79 0 -118 -22q-28 -14 -44.5 -38t-16.5 -55q0 -27 12.5 -46t37.5 -19q29 0 59 24zM272 664l122 83q9 0 24 -5t16 -9l-129 -157
q-8 -4 -32 -4q-27 0 -35 4l-129 157q1 4 15.5 9t22.5 5z" />
    <glyph glyph-name="uni01CF" unicode="&#x1cf;" horiz-adv-x="301" 
d="M106 4q-21 18 -21 49v502q0 76 -19 126q11 11 30.5 20t44.5 9q33 0 54 -18t21 -49v-502q0 -79 19 -126q-11 -11 -30.5 -20t-44.5 -9q-33 0 -54 18zM140 746q-25 0 -35 5l-137 131q1 5 9 15t14 13l148 -79l146 79q6 -3 14.5 -13t9.5 -15l-138 -131q-10 -5 -31 -5z" />
    <glyph glyph-name="uni01D0" unicode="&#x1d0;" horiz-adv-x="266" 
d="M219 15q-11 -11 -30 -20t-44 -9q-31 0 -51.5 18t-20.5 49v322q0 76 -19 127q31 28 72 28q33 0 53 -17.5t20 -49.5l2 -322q0 -79 18 -126zM124 664l122 83q9 0 24 -5t16 -9l-129 -157q-8 -4 -32 -4q-27 0 -35 4l-129 157q1 4 15.5 9t22.5 5z" />
    <glyph glyph-name="uni01D1" unicode="&#x1d1;" horiz-adv-x="664" 
d="M120.5 77q-71.5 91 -71.5 272q0 180 71.5 271t211.5 91t211.5 -91t71.5 -271q0 -181 -71.5 -272t-211.5 -91t-211.5 91zM437 107.5q33 75.5 33 241.5t-33 241.5t-105 75.5t-105.5 -76t-33.5 -241t33.5 -241t105.5 -76t105 75.5zM334 746q-25 0 -35 5l-137 131q1 5 9 15
t14 13l148 -79l146 79q6 -3 14.5 -13t9.5 -15l-138 -131q-10 -5 -31 -5z" />
    <glyph glyph-name="uni01D2" unicode="&#x1d2;" horiz-adv-x="560" 
d="M100 57.5q-65 71.5 -65 199.5q0 129 64.5 201t180.5 72q115 0 179.5 -72t64.5 -201q0 -128 -64.5 -199.5t-179.5 -71.5t-180 71.5zM385 257q0 228 -105 228q-54 0 -80 -57t-26 -171q0 -113 26 -169.5t80 -56.5q105 0 105 226zM279 664l122 83q9 0 24 -5t16 -9l-129 -157
q-8 -4 -32 -4q-27 0 -35 4l-129 157q1 4 15.5 9t22.5 5z" />
    <glyph glyph-name="uni01D3" unicode="&#x1d3;" horiz-adv-x="673" 
d="M599 307q0 -160 -66 -240.5t-196 -80.5q-128 0 -191.5 78t-63.5 243v248q0 76 -19 126q11 11 30.5 20t44.5 9q32 0 53 -18t21 -49v-343q0 -141 30 -204.5t95 -63.5q68 0 100 67t32 201v255q0 76 -19 126q12 11 31 20t43 9q32 0 53.5 -18t21.5 -49v-336zM339 746
q-25 0 -35 5l-137 131q1 5 9 15t14 13l148 -79l146 79q6 -3 14.5 -13t9.5 -15l-138 -131q-10 -5 -31 -5z" />
    <glyph glyph-name="uni01D4" unicode="&#x1d4;" horiz-adv-x="581" 
d="M567 54q0 -31 -20.5 -49t-58.5 -18q-45 0 -71.5 29t-28.5 87q-42 -118 -163 -118q-82 0 -120 47t-38 156v186q0 76 -19 127q35 29 74 29q33 0 53.5 -18t20.5 -50l1 -254q0 -86 15 -124t56 -38q48 0 77 60t29 174q0 110 -3 147.5t-19 74.5q11 10 30.5 19t43.5 9
q32 0 53.5 -20t21.5 -54l1 -321q0 -28 6 -40t20 -12q17 0 26 11q13 -19 13 -40zM272 664l122 83q9 0 24 -5t16 -9l-129 -157q-8 -4 -32 -4q-27 0 -35 4l-129 157q1 4 15.5 9t22.5 5z" />
    <glyph glyph-name="uni01D5" unicode="&#x1d5;" horiz-adv-x="673" 
d="M599 307q0 -160 -66 -240.5t-196 -80.5q-128 0 -191.5 78t-63.5 243v248q0 76 -19 126q11 11 30.5 20t44.5 9q32 0 53 -18t21 -49v-343q0 -141 30 -204.5t95 -63.5q68 0 100 67t32 201v255q0 76 -19 126q12 11 31 20t43 9q32 0 53.5 -18t21.5 -49v-336zM183.5 776
q-19.5 20 -19.5 48t20 48t48 20t48 -20t20 -48t-20 -48t-48 -20q-29 0 -48.5 20zM394.5 776q-19.5 20 -19.5 48t20 48t48 20t48 -20t20 -48t-20 -48t-48 -20q-29 0 -48.5 20zM478 999q4 -12 4 -29q0 -16 -4 -29h-280q-5 17 -5 29q0 14 5 29h280z" />
    <glyph glyph-name="uni01D6" unicode="&#x1d6;" horiz-adv-x="581" 
d="M567 54q0 -31 -20.5 -49t-58.5 -18q-45 0 -71.5 29t-28.5 87q-42 -118 -163 -118q-82 0 -120 47t-38 156v186q0 76 -19 127q35 29 74 29q33 0 53.5 -18t20.5 -50l1 -254q0 -86 15 -124t56 -38q48 0 77 60t29 174q0 110 -3 147.5t-19 74.5q11 10 30.5 19t43.5 9
q32 0 53.5 -20t21.5 -54l1 -321q0 -28 6 -40t20 -12q17 0 26 11q13 -19 13 -40zM136 602.5q-18 17.5 -18 42.5t18 42.5t43 17.5t42.5 -17.5t17.5 -42.5t-17.5 -42.5t-42.5 -17.5t-43 17.5zM324.5 602.5q-17.5 17.5 -17.5 42.5t17.5 42.5t42.5 17.5t43 -17.5t18 -42.5
t-18 -42.5t-43 -17.5t-42.5 17.5zM414 822q4 -13 4 -29t-4 -29h-280q-5 17 -5 29t5 29h280z" />
    <glyph glyph-name="uni01D7" unicode="&#x1d7;" horiz-adv-x="673" 
d="M599 307q0 -160 -66 -240.5t-196 -80.5q-128 0 -191.5 78t-63.5 243v248q0 76 -19 126q11 11 30.5 20t44.5 9q32 0 53 -18t21 -49v-343q0 -141 30 -204.5t95 -63.5q68 0 100 67t32 201v255q0 76 -19 126q12 11 31 20t43 9q32 0 53.5 -18t21.5 -49v-336zM183.5 776
q-19.5 20 -19.5 48t20 48t48 20t48 -20t20 -48t-20 -48t-48 -20q-29 0 -48.5 20zM394.5 776q-19.5 20 -19.5 48t20 48t48 20t48 -20t20 -48t-20 -48t-48 -20q-29 0 -48.5 20zM295 908q-6 3 -13.5 14t-7.5 15l144 131q18 -8 41.5 -33t31.5 -47z" />
    <glyph glyph-name="uni01D8" unicode="&#x1d8;" horiz-adv-x="581" 
d="M567 54q0 -31 -20.5 -49t-58.5 -18q-45 0 -71.5 29t-28.5 87q-42 -118 -163 -118q-82 0 -120 47t-38 156v186q0 76 -19 127q35 29 74 29q33 0 53.5 -18t20.5 -50l1 -254q0 -86 15 -124t56 -38q48 0 77 60t29 174q0 110 -3 147.5t-19 74.5q11 10 30.5 19t43.5 9
q32 0 53.5 -20t21.5 -54l1 -321q0 -28 6 -40t20 -12q17 0 26 11q13 -19 13 -40zM136 602.5q-18 17.5 -18 42.5t18 42.5t43 17.5t42.5 -17.5t17.5 -42.5t-17.5 -42.5t-42.5 -17.5t-43 17.5zM324.5 602.5q-17.5 17.5 -17.5 42.5t17.5 42.5t42.5 17.5t43 -17.5t18 -42.5
t-18 -42.5t-43 -17.5t-42.5 17.5zM280 733q-36 2 -47 9l90 158q3 1 11 1q25 0 60 -9.5t44 -16.5z" />
    <glyph glyph-name="uni01D9" unicode="&#x1d9;" horiz-adv-x="673" 
d="M599 307q0 -160 -66 -240.5t-196 -80.5q-128 0 -191.5 78t-63.5 243v248q0 76 -19 126q11 11 30.5 20t44.5 9q32 0 53 -18t21 -49v-343q0 -141 30 -204.5t95 -63.5q68 0 100 67t32 201v255q0 76 -19 126q12 11 31 20t43 9q32 0 53.5 -18t21.5 -49v-336zM183.5 776
q-19.5 20 -19.5 48t20 48t48 20t48 -20t20 -48t-20 -48t-48 -20q-29 0 -48.5 20zM394.5 776q-19.5 20 -19.5 48t20 48t48 20t48 -20t20 -48t-20 -48t-48 -20q-29 0 -48.5 20zM339 909q-25 0 -35 5l-137 131q1 5 9 15t14 13l148 -79l146 79q6 -3 14.5 -13t9.5 -15l-138 -131
q-10 -5 -31 -5z" />
    <glyph glyph-name="uni01DA" unicode="&#x1da;" horiz-adv-x="581" 
d="M567 54q0 -31 -20.5 -49t-58.5 -18q-45 0 -71.5 29t-28.5 87q-42 -118 -163 -118q-82 0 -120 47t-38 156v186q0 76 -19 127q35 29 74 29q33 0 53.5 -18t20.5 -50l1 -254q0 -86 15 -124t56 -38q48 0 77 60t29 174q0 110 -3 147.5t-19 74.5q11 10 30.5 19t43.5 9
q32 0 53.5 -20t21.5 -54l1 -321q0 -28 6 -40t20 -12q17 0 26 11q13 -19 13 -40zM136 602.5q-18 17.5 -18 42.5t18 42.5t43 17.5t42.5 -17.5t17.5 -42.5t-17.5 -42.5t-42.5 -17.5t-43 17.5zM324.5 602.5q-17.5 17.5 -17.5 42.5t17.5 42.5t42.5 17.5t43 -17.5t18 -42.5
t-18 -42.5t-43 -17.5t-42.5 17.5zM272 827l122 83q9 0 24 -5t16 -9l-129 -157q-8 -4 -32 -4q-27 0 -35 4l-129 157q1 4 15.5 9t22.5 5z" />
    <glyph glyph-name="uni01DB" unicode="&#x1db;" horiz-adv-x="673" 
d="M599 307q0 -160 -66 -240.5t-196 -80.5q-128 0 -191.5 78t-63.5 243v248q0 76 -19 126q11 11 30.5 20t44.5 9q32 0 53 -18t21 -49v-343q0 -141 30 -204.5t95 -63.5q68 0 100 67t32 201v255q0 76 -19 126q12 11 31 20t43 9q32 0 53.5 -18t21.5 -49v-336zM183.5 776
q-19.5 20 -19.5 48t20 48t48 20t48 -20t20 -48t-20 -48t-48 -20q-29 0 -48.5 20zM394.5 776q-19.5 20 -19.5 48t20 48t48 20t48 -20t20 -48t-20 -48t-48 -20q-29 0 -48.5 20zM211.5 1035q23.5 25 41.5 33l144 -131q1 -4 -6.5 -15t-13.5 -14l-197 80q8 22 31.5 47z" />
    <glyph glyph-name="uni01DC" unicode="&#x1dc;" horiz-adv-x="581" 
d="M567 54q0 -31 -20.5 -49t-58.5 -18q-45 0 -71.5 29t-28.5 87q-42 -118 -163 -118q-82 0 -120 47t-38 156v186q0 76 -19 127q35 29 74 29q33 0 53.5 -18t20.5 -50l1 -254q0 -86 15 -124t56 -38q48 0 77 60t29 174q0 110 -3 147.5t-19 74.5q11 10 30.5 19t43.5 9
q32 0 53.5 -20t21.5 -54l1 -321q0 -28 6 -40t20 -12q17 0 26 11q13 -19 13 -40zM136 602.5q-18 17.5 -18 42.5t18 42.5t43 17.5t42.5 -17.5t17.5 -42.5t-17.5 -42.5t-42.5 -17.5t-43 17.5zM324.5 602.5q-17.5 17.5 -17.5 42.5t17.5 42.5t42.5 17.5t43 -17.5t18 -42.5
t-18 -42.5t-43 -17.5t-42.5 17.5zM156 891.5q35 9.5 60 9.5q8 0 11 -1l90 -158q-9 -7 -46 -9l-158 142q8 7 43 16.5z" />
    <glyph glyph-name="Gcaron" unicode="&#x1e6;" horiz-adv-x="652" 
d="M126.5 80.5q-77.5 94.5 -77.5 268.5q0 173 80 267.5t224 94.5q54 0 104 -14t82 -41t32 -62q0 -32 -28 -54.5t-78 -21.5q-15 148 -110 148q-83 0 -122.5 -78.5t-39.5 -238.5t38.5 -238.5t120.5 -78.5q67 0 93 57t26 133q0 49 -13 84t-48 51q8 19 30 29.5t48 10.5
q52 0 84 -36.5t32 -106.5q0 -86 -34.5 -146.5t-93.5 -91t-131 -30.5q-141 0 -218.5 94.5zM344 746q-25 0 -35 5l-137 131q1 5 9 15t14 13l148 -79l146 79q6 -3 14.5 -13t9.5 -15l-138 -131q-10 -5 -31 -5z" />
    <glyph glyph-name="gcaron" unicode="&#x1e7;" horiz-adv-x="546" 
d="M92.5 -196.5q-53.5 28.5 -53.5 86.5q0 38 25 60.5t65 22.5q41 0 60 -22q-30 -26 -30 -68q0 -31 18 -49.5t54 -18.5q65 0 98.5 57t33.5 156q0 50 1 74q-17 -49 -55.5 -75t-95.5 -26q-84 0 -131 59t-47 189q0 129 58 205t186 76q63 0 119 -17.5t93 -48.5v-420
q0 -142 -70.5 -205.5t-193.5 -63.5q-81 0 -134.5 28.5zM333.5 111q27.5 50 28.5 138l1 213q-14 11 -34.5 17t-42.5 6q-65 0 -89 -62t-24 -187q0 -66 7.5 -103.5t24.5 -54.5t47 -17q54 0 81.5 50zM284 670l122 83q9 0 24 -5t16 -9l-129 -157q-8 -4 -32 -4q-27 0 -35 4
l-129 157q1 4 15.5 9t22.5 5z" />
    <glyph glyph-name="Scommaaccent" unicode="&#x218;" horiz-adv-x="566" 
d="M96 24.5q-60 39.5 -60 102.5q0 32 19 52.5t62 20.5q18 0 29 -2q-3 -13 -3 -27q0 -10 2 -24q7 -48 44 -81t103 -33q49 0 81 26.5t32 77.5q0 48 -31.5 80.5t-108.5 75.5q-73 42 -115 73.5t-65.5 72t-23.5 95.5q0 90 66.5 133.5t169.5 43.5q96 0 154 -30t58 -87
q0 -27 -15.5 -43.5t-51.5 -17.5q-4 -1 -14 -1q-9 0 -23 2q2 33 -8 58q-8 33 -37 53.5t-78 20.5q-40 0 -69.5 -20t-29.5 -66q0 -32 14 -57t47 -50t94 -59q60 -33 100 -62.5t67 -71.5t27 -98q0 -55 -28.5 -99.5t-87 -71t-143.5 -26.5q-117 0 -177 39.5zM242 -254
q18 22 27 40.5t9 37.5q0 33 -18 46.5t-47 20.5q0 31 22 53t54 22t53.5 -22.5t21.5 -68.5q0 -39 -19 -76t-61 -76q-23 4 -42 23z" />
    <glyph glyph-name="scommaaccent" unicode="&#x219;" horiz-adv-x="476" 
d="M78.5 18q-48.5 32 -48.5 85q0 28 17.5 49t55.5 21q7 0 23 -2q-2 -8 -2 -23q0 -17 4 -30q5 -35 33 -59.5t78 -24.5q41 0 66 15.5t25 46.5q0 25 -15.5 42.5t-36 29t-67.5 33.5q-54 26 -86 46t-55 54t-23 84q0 73 56 109.5t142 36.5q83 0 132.5 -25.5t49.5 -72.5
q0 -25 -14.5 -42t-46.5 -18q-5 -1 -15 -1q-6 0 -20 2q1 5 1 17q0 25 -8 41q-8 25 -30 39t-54 14q-33 0 -55 -14t-22 -42q0 -26 16 -45.5t39.5 -33t66.5 -34.5q54 -26 86.5 -45.5t56 -50.5t23.5 -74q0 -42 -23.5 -78.5t-75 -59t-131.5 -22.5q-94 0 -142.5 32zM196 -254
q18 22 27 40.5t9 37.5q0 33 -18 46.5t-47 20.5q0 31 22 53t54 22t53.5 -22.5t21.5 -68.5q0 -39 -19 -76t-61 -76q-23 4 -42 23z" />
    <glyph glyph-name="uni021A" unicode="&#x21a;" horiz-adv-x="553" 
d="M535.5 687q5.5 -10 5.5 -26q0 -23 -10 -47t-26 -31q-94 46 -163 61l1 -503q0 -79 19 -126q-12 -11 -31.5 -20t-44.5 -9q-33 0 -54 18t-21 49v591q-65 -14 -163 -61q-15 7 -25 31t-10 47q0 16 5 26t16 10h486q10 0 15.5 -10zM250 -254q18 22 27 40.5t9 37.5q0 33 -18 46.5
t-47 20.5q0 31 22 53t54 22t53.5 -22.5t21.5 -68.5q0 -39 -19 -76t-61 -76q-23 4 -42 23z" />
    <glyph glyph-name="uni021B" unicode="&#x21b;" horiz-adv-x="353" 
d="M280.5 516.5q45.5 1.5 51.5 2.5l-1 -31q-1 -15 -10 -23.5t-23 -8.5h-89v-30v-287q0 -53 46 -53q12 0 24.5 3.5t15.5 10.5q13 -17 13 -41q0 -31 -29 -50t-77 -19q-58 0 -90 37t-32 101v328h-14q-41 0 -60 -3l1 31q1 15 10.5 23t23.5 8h39v67q0 31 21 49t54 18q24 0 43 -9
t30 -20q-13 -51 -17 -105h3q21 0 66.5 1.5zM154 -254q18 22 27 40.5t9 37.5q0 33 -18 46.5t-47 20.5q0 31 22 53t54 22t53.5 -22.5t21.5 -68.5q0 -39 -19 -76t-61 -76q-23 4 -42 23z" />
    <glyph glyph-name="uni0237" unicode="&#x237;" horiz-adv-x="263" 
d="M-74 -204q-32 24 -32 63q0 27 17.5 46t50.5 19q17 0 27.5 -6.5t18.5 -21.5q-15 -25 -15 -45q0 -18 9.5 -28t23.5 -10q23 0 33.5 25t13 62t2.5 101l1 373q0 79 -18 127q14 13 32.5 21t39.5 8q32 0 52.5 -18.5t20.5 -49.5v-484q0 -92 -43.5 -149t-138.5 -57q-63 0 -95 24z
" />
    <glyph glyph-name="uni0251" unicode="&#x251;" horiz-adv-x="588" 
d="M571 58q0 -29 -24.5 -48t-60.5 -19q-47 0 -73 34t-32 97q-45 -136 -168 -136q-92 0 -135 69t-43 184q0 139 56 214t159 75q93 0 122 -59q7 25 8 47q16 13 42 13q35 0 56 -18t21 -49l-1 -323q0 -52 34 -52q19 0 26 12q13 -20 13 -41zM339 134q30 77 30 186
q0 66 -17.5 104.5t-69.5 38.5q-57 0 -82.5 -55.5t-25.5 -165.5q0 -95 17 -140t60 -45q58 0 88 77z" />
    <glyph glyph-name="uni0259" unicode="&#x259;" horiz-adv-x="532" 
d="M429 458q68 -72 68 -202q0 -127 -66 -198.5t-188 -71.5q-90 0 -146 39t-56 111q0 74 58.5 114t157.5 40q55 0 99 -5q-7 88 -44.5 125.5t-103.5 37.5q-53 0 -90 -21t-54 -56q-16 9 -16 28q0 13 7 30q20 48 69.5 74.5t119.5 26.5q117 0 185 -72zM328.5 85.5
q29.5 55.5 29.5 153.5v1l-34 1q-63 0 -104 -25.5t-41 -100.5q0 -85 68 -85q52 0 81.5 55.5z" />
    <glyph glyph-name="uni0261" unicode="&#x261;" horiz-adv-x="546" 
d="M92.5 -196.5q-53.5 28.5 -53.5 86.5q0 38 25 60.5t65 22.5q41 0 60 -22q-30 -26 -30 -68q0 -31 18 -49.5t54 -18.5q65 0 98.5 57t33.5 156q0 50 1 74q-17 -49 -55.5 -75t-95.5 -26q-84 0 -131 59t-47 189q0 129 58 205t186 76q63 0 119 -17.5t93 -48.5v-420
q0 -142 -70.5 -205.5t-193.5 -63.5q-81 0 -134.5 28.5zM333.5 111q27.5 50 28.5 138l1 213q-14 11 -34.5 17t-42.5 6q-65 0 -89 -62t-24 -187q0 -66 7.5 -103.5t24.5 -54.5t47 -17q54 0 81.5 50z" />
    <glyph glyph-name="uni02BC" unicode="&#x2bc;" horiz-adv-x="600" 
d="M145 522h55l33 187q-21 8 -56 8q-36 0 -60 -8z" />
    <glyph glyph-name="circumflex" unicode="&#x2c6;" horiz-adv-x="600" 
d="M152 572.5q-14 5.5 -15 9.5l129 156q8 4 35 4q24 0 32 -4l129 -156q-1 -4 -16 -9.5t-24 -5.5l-122 83l-125 -83q-9 0 -23 5.5z" />
    <glyph glyph-name="caron" unicode="&#x2c7;" horiz-adv-x="600" 
d="M300 664l122 83q9 0 24 -5t16 -9l-129 -157q-8 -4 -32 -4q-27 0 -35 4l-129 157q1 4 15.5 9t22.5 5z" />
    <glyph glyph-name="breve" unicode="&#x2d8;" horiz-adv-x="600" 
d="M409 735q19 -5 36 -15q-18 -67 -54.5 -106t-98.5 -39q-67 0 -103.5 40.5t-49.5 104.5q15 11 40 15q15 -38 45 -57.5t70 -19.5q77 0 115 77z" />
    <glyph glyph-name="dotaccent" unicode="&#x2d9;" horiz-adv-x="600" 
d="M250.5 594q-19.5 20 -19.5 48t20 48t48 20t48 -20t20 -48t-20 -48t-48 -20q-29 0 -48.5 20z" />
    <glyph glyph-name="ring" unicode="&#x2da;" horiz-adv-x="600" 
d="M373 712.5q27 -23.5 27 -62.5q-1 -40 -29 -64.5t-73 -24.5q-44 0 -71 23.5t-27 61.5q0 41 28.5 65.5t73.5 24.5q44 0 71 -23.5zM272 687q-10 -14 -10 -39t10 -38.5t28 -13.5q38 0 38 52q0 26 -9.5 39.5t-28.5 13.5q-18 0 -28 -14z" />
    <glyph glyph-name="ogonek" unicode="&#x2db;" horiz-adv-x="600" 
d="M233 -153q-31 19 -31 61q0 48 43 79.5t109 46.5l7 -22q-36 -19 -55 -40.5t-19 -48.5q0 -44 46 -44q53 0 85 58q15 -8 15 -22q0 -3 -2 -11q-13 -32 -47 -54t-82 -22q-38 0 -69 19z" />
    <glyph glyph-name="tilde" unicode="&#x2dc;" horiz-adv-x="600" 
d="M420 612q-22 -28 -58 -28q-16 0 -31.5 6t-33.5 17q-3 2 -15.5 8t-24 9.5t-21.5 3.5q-42 0 -61 -39h-2q-5 0 -12.5 2.5t-11.5 6.5q4 53 30 77.5t62 24.5q17 0 31.5 -5.5t34.5 -17.5q20 -11 34 -16.5t29 -5.5q22 0 33 10t19 30q10 0 15.5 -1.5t10.5 -6.5q-6 -47 -28 -75z
" />
    <glyph glyph-name="hungarumlaut" unicode="&#x2dd;" horiz-adv-x="600" 
d="M159 552q-6 1 -16.5 9.5t-12.5 12.5l116 166q20 -2 44.5 -16t38.5 -32zM321 552q-6 2 -16.5 11t-12.5 12l117 165q19 -2 43 -15.5t39 -31.5z" />
    <glyph glyph-name="gravecomb" unicode="&#x300;" 
d="M-390 728.5q35 9.5 60 9.5q8 0 11 -1l90 -158q-9 -7 -46 -9l-158 142q8 7 43 16.5z" />
    <glyph glyph-name="acutecomb" unicode="&#x301;" 
d="M-352 570q-36 2 -47 9l90 158q3 1 11 1q25 0 60 -9.5t44 -16.5z" />
    <glyph glyph-name="uni0302" unicode="&#x302;" 
d="M-448 572.5q-14 5.5 -15 9.5l129 156q8 4 35 4q24 0 32 -4l129 -156q-1 -4 -16 -9.5t-24 -5.5l-122 83l-125 -83q-9 0 -23 5.5z" />
    <glyph glyph-name="tildecomb" unicode="&#x303;" 
d="M-180 612q-22 -28 -58 -28q-16 0 -31.5 6t-33.5 17q-3 2 -15.5 8t-24 9.5t-21.5 3.5q-42 0 -61 -39h-2q-5 0 -12.5 2.5t-11.5 6.5q4 53 30 77.5t62 24.5q17 0 31.5 -5.5t34.5 -17.5q20 -11 34 -16.5t29 -5.5q22 0 33 10t19 30q10 0 15.5 -1.5t10.5 -6.5q-6 -47 -28 -75z
" />
    <glyph glyph-name="uni0304" unicode="&#x304;" 
d="M-192 659q4 -13 4 -29t-4 -29h-280q-5 17 -5 29t5 29h280z" />
    <glyph glyph-name="uni0306" unicode="&#x306;" 
d="M-191 735q19 -5 36 -15q-18 -67 -54.5 -106t-98.5 -39q-67 0 -103.5 40.5t-49.5 104.5q15 11 40 15q15 -38 45 -57.5t70 -19.5q77 0 115 77z" />
    <glyph glyph-name="uni0307" unicode="&#x307;" 
d="M-349.5 594q-19.5 20 -19.5 48t20 48t48 20t48 -20t20 -48t-20 -48t-48 -20q-29 0 -48.5 20z" />
    <glyph glyph-name="uni0308" unicode="&#x308;" 
d="M-450 602.5q-18 17.5 -18 42.5t18 42.5t43 17.5t42.5 -17.5t17.5 -42.5t-17.5 -42.5t-42.5 -17.5t-43 17.5zM-261.5 602.5q-17.5 17.5 -17.5 42.5t17.5 42.5t42.5 17.5t43 -17.5t18 -42.5t-18 -42.5t-43 -17.5t-42.5 17.5z" />
    <glyph glyph-name="hookabovecomb" unicode="&#x309;" 
d="M-424 605q26 9 36 18t10 22q0 16 -19 20.5t-47 4.5l-2 47q60 3 105 -11t45 -55q0 -33 -28.5 -52.5t-92.5 -27.5z" />
    <glyph glyph-name="uni030A" unicode="&#x30a;" 
d="M-227 712.5q27 -23.5 27 -62.5q-1 -40 -29 -64.5t-73 -24.5q-44 0 -71 23.5t-27 61.5q0 41 28.5 65.5t73.5 24.5q44 0 71 -23.5zM-328 687q-10 -14 -10 -39t10 -38.5t28 -13.5q38 0 38 52q0 26 -9.5 39.5t-28.5 13.5q-18 0 -28 -14z" />
    <glyph glyph-name="uni030B" unicode="&#x30b;" 
d="M-441 552q-6 1 -16.5 9.5t-12.5 12.5l116 166q20 -2 44.5 -16t38.5 -32zM-279 552q-6 2 -16.5 11t-12.5 12l117 165q19 -2 43 -15.5t39 -31.5z" />
    <glyph glyph-name="uni030C" unicode="&#x30c;" 
d="M-300 664l122 83q9 0 24 -5t16 -9l-129 -157q-8 -4 -32 -4q-27 0 -35 4l-129 157q1 4 15.5 9t22.5 5z" />
    <glyph glyph-name="uni031B" unicode="&#x31b;" 
d="M-437 524q58 21 58 65q0 16 -6.5 31.5t-16.5 25.5q13 10 42 22.5t46 14.5q10 -11 18.5 -34.5t8.5 -46.5q0 -38 -37.5 -68.5t-95.5 -50.5z" />
    <glyph glyph-name="dotbelowcomb" unicode="&#x323;" 
d="M-353 -162.5q-22 21.5 -22 52.5t21.5 52.5t53.5 21.5q31 0 52.5 -21.5t21.5 -52.5t-21.5 -52.5t-52.5 -21.5t-53 21.5z" />
    <glyph glyph-name="uni0324" unicode="&#x324;" 
d="M-461.5 -189q-21.5 21 -21.5 52q0 32 21.5 53.5t52.5 21.5t52.5 -22t21.5 -53t-21.5 -52t-52.5 -21t-52.5 21zM-243.5 -189q-21.5 21 -21.5 52t21.5 53t53.5 22q31 0 52 -21.5t21 -53.5q0 -31 -21 -52t-52 -21q-32 0 -53.5 21z" />
    <glyph glyph-name="uni0326" unicode="&#x326;" 
d="M-345 -254q18 22 27 40.5t9 37.5q0 33 -18 46.5t-47 20.5q0 31 22 53t54 22t53.5 -22.5t21.5 -68.5q0 -39 -19 -76t-61 -76q-23 4 -42 23z" />
    <glyph glyph-name="uni0327" unicode="&#x327;" 
d="M-306 -56q51 1 81 -18.5t30 -55.5q0 -43 -32.5 -68.5t-90.5 -25.5q-69 0 -98 34q-2 9 2.5 24t9.5 18q1 -1 13.5 -12.5t44.5 -11.5q20 0 31 11t11 30t-13 31.5t-37 12.5l-12 -1l20 104h53z" />
    <glyph glyph-name="uni0328" unicode="&#x328;" 
d="M-367 -153q-31 19 -31 61q0 48 43 79.5t109 46.5l7 -22q-36 -19 -55 -40.5t-19 -48.5q0 -44 46 -44q53 0 85 58q15 -8 15 -22q0 -3 -2 -11q-13 -32 -47 -54t-82 -22q-38 0 -69 19z" />
    <glyph glyph-name="uni032E" unicode="&#x32e;" 
d="M-230 -123.5q27 19.5 40 56.5l35 -6q-12 -61 -48 -99.5t-98 -38.5q-66 0 -101.5 40t-42.5 97l40 8q9 -38 38 -57.5t70 -19.5q40 0 67 19.5z" />
    <glyph glyph-name="uni0331" unicode="&#x331;" 
d="M-160 -61q4 -11 4 -25t-4 -25h-280q-5 13 -5 25t5 25h280z" />
    <glyph glyph-name="uni03A9" unicode="&#x3a9;" horiz-adv-x="674" 
d="M654 58q0 -24 -12 -41t-29 -17h-248v24h-1q58 42 84.5 133.5t26.5 235.5q0 143 -33 208t-105 65t-105.5 -65t-33.5 -208q0 -140 28.5 -233t82.5 -136v-24h-247q-17 0 -29.5 17t-12.5 41q0 26 17 49l197 -60q-81 44 -130.5 141t-49.5 205q0 158 71.5 238t211.5 80
q139 0 211 -80t72 -238q0 -109 -48.5 -206t-130.5 -140l197 60q16 -23 16 -49z" />
    <glyph glyph-name="pi" unicode="&#x3c0;" horiz-adv-x="627" 
d="M475.5 516.5q127.5 1.5 133.5 2.5l-1 -31q-1 -15 -10 -23.5t-23 -8.5h-65v-317q0 -53 36 -53q8 0 17 3.5t13 10.5q13 -17 13 -41q0 -30 -25.5 -49.5t-62.5 -19.5q-58 0 -89 36.5t-31 101.5v328h-164l1 -315q0 -79 19 -126q-11 -11 -30.5 -20t-43.5 -9q-32 0 -52.5 18
t-20.5 49v403h-12q-40 0 -60 -3l1 31q1 15 10.5 23t23.5 8h243q52 0 179.5 1.5z" />
    <glyph glyph-name="uni0964" unicode="&#x964;" horiz-adv-x="275" 
d="M77 730h120v-862l-120 -10v872z" />
    <glyph glyph-name="uni0965" unicode="&#x965;" horiz-adv-x="514" 
d="M315 730h120v-862l-120 -10v872zM77 730h120v-862l-120 -10v872z" />
    <glyph glyph-name="uni0B82" unicode="&#xb82;" 
d="M-84 670q-32 30 -32 79t32 79.5t84 30.5t84 -30.5t32 -79.5t-32 -79t-84 -30t-84 30zM48 701q18 18 18 48t-18 48.5t-48 18.5q-32 0 -49 -17.5t-17 -49.5q0 -29 19 -47.5t47 -18.5q30 0 48 18z" />
    <glyph glyph-name="uni0B83" unicode="&#xb83;" horiz-adv-x="750" 
d="M265 327q-39 37 -39 104q0 61 39.5 95.5t109.5 34.5t110 -34.5t40 -95.5q0 -67 -39.5 -104t-110.5 -37t-110 37zM410.5 350q11.5 27 11.5 81q0 49 -11.5 73t-35.5 24t-35.5 -24t-11.5 -73q0 -54 11.5 -81t35.5 -27t35.5 27zM80.5 18q-39.5 36 -39.5 100t39.5 100
t109.5 36t110 -36t40 -100t-40 -100t-110 -36t-109.5 36zM450 18q-40 36 -40 100t40 100t110 36t109.5 -36t39.5 -100t-39.5 -100t-109.5 -36t-110 36zM225.5 41q11.5 25 11.5 77t-11.5 77t-35.5 25t-35 -25t-11 -77t11 -77t35 -25t35.5 25zM607 118q0 102 -47 102
q-24 0 -35.5 -25t-11.5 -77t11.5 -77t35.5 -25q47 0 47 102z" />
    <glyph glyph-name="uni0B85" unicode="&#xb85;" horiz-adv-x="1123" 
d="M1035 28q0 -44 1 -71t4 -34.5t10 -9.5q-34 -24 -77 -24q-38 0 -56.5 22t-18.5 81v150h-140q-52 -111 -172 -167t-275 -56q-136 0 -208.5 42t-72.5 110q0 118 229 118h378q13 49 13 101q0 103 -42 154.5t-109 51.5q-32 0 -62 -12t-49 -40q23 14 55 14q54 0 84.5 -29.5
t30.5 -77.5q0 -52 -34.5 -83t-91.5 -31q-62 0 -90 36t-28 90q0 55 26.5 100t78.5 71.5t127 26.5q103 0 174 -58t71 -199q0 -64 -16 -115h123v175q0 98 -19 164q44 33 82 33q33 0 53.5 -20t20.5 -57v-319v-137zM374.5 397q-13.5 -19 -13.5 -50q0 -30 12 -49.5t39 -19.5
q29 0 41 21.5t12 48.5q0 28 -12.5 48t-39.5 20q-25 0 -38.5 -19zM489.5 22q87.5 37 128.5 120h-325q-96 0 -142.5 -16.5t-46.5 -54.5q0 -41 49 -63.5t137 -22.5q112 0 199.5 37z" />
    <glyph glyph-name="uni0B86" unicode="&#xb86;" horiz-adv-x="1348" 
d="M1273.5 175.5q34.5 -47.5 34.5 -142.5q0 -149 -116.5 -253t-290.5 -155.5t-345 -51.5q-173 0 -258 46t-85 120q0 55 44 88.5t107.5 47t127.5 13.5q62 0 106.5 -12t66.5 -31t22 -40q0 -19 -10 -33.5t-38 -22.5q-35 74 -153 74q-68 0 -117 -22t-49 -67q0 -44 56 -73.5
t182 -29.5q136 0 276 39.5t236.5 128t96.5 224.5q0 110 -45 110q-42 0 -66 -45t-26 -126q1 -13 4 -17t10 -5q-32 -24 -77 -24q-38 0 -56.5 21.5t-18.5 80.5v124h-135q-51 -111 -170.5 -167t-274.5 -56q-137 0 -209.5 42t-72.5 110q0 118 229 118h377q13 49 13 101
q0 103 -41.5 154.5t-108.5 51.5q-33 0 -63 -12t-49 -40q23 14 55 14q54 0 84.5 -29.5t30.5 -77.5q0 -52 -34 -83t-91 -31q-63 0 -91 36t-28 90q0 55 26.5 100t78.5 71.5t127 26.5q104 0 174.5 -58.5t70.5 -198.5q0 -64 -16 -115h118v175q0 31 -3.5 77.5t-15.5 86.5
q44 33 82 33q33 0 53.5 -20t20.5 -57v-345q24 39 61.5 61.5t87.5 22.5q61 0 95.5 -47.5zM373.5 397q-13.5 -19 -13.5 -50q0 -30 12 -49.5t39 -19.5q29 0 41 21.5t12 48.5q0 28 -12.5 48t-39.5 20q-25 0 -38.5 -19zM489 22q87 37 128 120h-324q-96 0 -142.5 -16.5
t-46.5 -54.5q0 -41 49 -63.5t137 -22.5q112 0 199 37z" />
    <glyph glyph-name="uni0B87" unicode="&#xb87;" horiz-adv-x="1048" 
d="M779.5 656q98.5 -43 153.5 -128t55 -208q0 -59 -10 -92q-8 -29 -28 -45.5t-49 -16.5t-60 14q1 5 8 28t12 55t5 66q0 103 -44 176.5t-115.5 110.5t-154.5 37q-82 0 -148.5 -36t-104.5 -105.5t-38 -164.5q0 -83 31 -166q86 20 183 20q85 0 158 -15q19 63 19 126
q0 66 -20 114t-53 72.5t-73 24.5q-18 0 -30 -4h10q25 0 48.5 -14.5t38 -40t14.5 -58.5q0 -52 -36.5 -83.5t-92.5 -31.5t-86.5 31.5t-30.5 83.5q0 51 28.5 86.5t73 53t93.5 17.5q56 0 112.5 -24t95.5 -78.5t39 -141.5q0 -83 -37 -165q80 -33 125.5 -83.5t45.5 -112.5
q0 -61 -49 -101.5t-154 -40.5q-121 0 -240 57q-112 -57 -223 -57q-90 0 -150 38.5t-60 110.5q0 60 39 105.5t107 75.5q-49 96 -49 191q0 77 33.5 158.5t125.5 142.5t254 61q130 0 228.5 -43zM481 460q-14 19 -38 19q-25 0 -39 -19t-14 -51t14 -50.5t39 -18.5q24 0 38 18
t14 51q0 32 -14 51zM316 128q58 -108 157 -183q93 78 141 189q-63 21 -135 21q-93 0 -163 -27zM759 17.5q-18 36.5 -52 65.5q-67 -105 -175 -176q82 -45 153 -45q92 0 92 80q0 39 -18 75.5zM417 -96q-110 67 -187 172q-48 -50 -48 -117q0 -48 27.5 -72.5t73.5 -24.5
q62 0 134 42z" />
    <glyph glyph-name="uni0B88" unicode="&#xb88;" horiz-adv-x="763" 
d="M725 526q0 -17 -10.5 -21.5t-33.5 -4.5h-162v-351q0 -56 4.5 -83.5t13.5 -51.5q-35 -24 -78 -24q-39 0 -58 21t-19 77v412l-251 1v-501h-52v546h643q3 -10 3 -20zM298.5 295.5q17.5 -18.5 17.5 -43.5q0 -26 -17.5 -44t-42.5 -18t-42.5 19t-17.5 45q0 25 17.5 42.5
t42.5 17.5t42.5 -18.5zM678.5 295.5q17.5 -18.5 17.5 -43.5t-17.5 -43.5t-40.5 -18.5q-26 0 -44 18t-18 44q0 25 18 43.5t44 18.5q23 0 40.5 -18.5z" />
    <glyph glyph-name="uni0B89" unicode="&#xb89;" horiz-adv-x="1030" 
d="M73.5 22.5q-33.5 22.5 -33.5 64.5q0 52 44 75t141 25q66 2 104.5 16t56 47t17.5 92q0 87 -37.5 120.5t-97.5 33.5q-43 0 -74.5 -12.5t-47.5 -36.5q22 13 52 13q54 0 84.5 -29t30.5 -75q0 -50 -34.5 -81.5t-92.5 -31.5q-62 0 -92 36.5t-30 92.5q0 52 27 95t81.5 68.5
t133.5 25.5q98 0 168 -44.5t70 -155.5q0 -115 -78 -166.5t-244 -53.5q-63 -1 -86.5 -11.5t-23.5 -39.5q0 -20 17.5 -32t73.5 -12l816 1v-47h-821q-91 0 -124.5 22.5zM209.5 310.5q11.5 17.5 11.5 42.5q0 26 -12 45.5t-39 19.5q-25 0 -38 -17.5t-13 -47.5q0 -60 50 -60
q29 0 40.5 17.5z" />
    <glyph glyph-name="uni0B8A" unicode="&#xb8a;" horiz-adv-x="1534" 
d="M671 155q-54 51 -54 165q0 124 65 182.5t169 58.5q82 0 138.5 -36.5t75.5 -102.5q0 47 10.5 74t40 41t86.5 14h292q3 -9 3 -16q0 -26 -39 -26h-47l2 -266q1 -50 4 -73t9 -40q-28 -19 -65 -19q-34 0 -50 17t-16 66v314h-68q-26 0 -38 -7.5t-15.5 -21.5t-3.5 -41l2 -196
q1 -49 4 -72t9 -40q-26 -19 -72 -19q-29 0 -43 17.5t-14 65.5v87q0 52 -19 105.5t-64 91t-117 37.5q-71 0 -125 -44.5t-54 -159.5q0 -77 23 -118.5t59 -48.5q-33 38 -33 103q0 69 30.5 105t89.5 36q65 0 99 -40t34 -101q0 -73 -45.5 -108t-114.5 -35q-94 0 -148 51zM1522 47
v-47h-1323q-91 0 -125 22.5t-34 64.5q0 52 44 75t141 25q66 2 104.5 16t56.5 47t18 92q0 87 -38 120.5t-98 33.5q-43 0 -74.5 -12.5t-47.5 -36.5q23 13 53 13q54 0 84.5 -29t30.5 -75q0 -50 -34.5 -81.5t-92.5 -31.5q-62 0 -92.5 36.5t-30.5 92.5q0 52 27 95t81.5 68.5
t134.5 25.5q98 0 168 -44.5t70 -155.5q0 -114 -78 -166t-244 -54q-64 -1 -87.5 -11.5t-23.5 -39.5q0 -20 17.5 -32t73.5 -12zM132.5 400.5q-13.5 -17.5 -13.5 -47.5q0 -27 12 -43.5t38 -16.5q29 0 40.5 17.5t11.5 42.5q0 26 -12 45.5t-38 19.5q-25 0 -38.5 -17.5zM786 312.5
q-12 -27.5 -12 -73.5q0 -45 11 -69.5t33 -24.5q44 0 44 98q0 43 -10 70t-32 27t-34 -27.5z" />
    <glyph glyph-name="uni0B8E" unicode="&#xb8e;" horiz-adv-x="892" 
d="M889 526q0 -17 -11.5 -21.5t-35.5 -4.5h-120v-342q0 -61 4.5 -89.5t13.5 -54.5q-34 -24 -78 -24q-39 0 -58 22.5t-19 83.5v404h-157q-139 0 -230 -61.5t-91 -213.5q0 -85 28.5 -134.5t72.5 -59.5q-49 51 -49 138q0 88 40 131.5t117 43.5q83 0 125.5 -49.5t42.5 -127.5
q0 -94 -57.5 -138t-145.5 -44q-103 0 -169 62t-66 191q0 161 105 234.5t290 73.5h445q3 -10 3 -20zM235.5 253q-16.5 -36 -16.5 -98q0 -60 16 -92.5t46 -32.5t46 32t16 98q0 58 -14 93.5t-45 35.5q-32 0 -48.5 -36z" />
    <glyph glyph-name="uni0B8F" unicode="&#xb8f;" horiz-adv-x="893" 
d="M890 526q0 -17 -10.5 -21.5t-33.5 -4.5h-124l2 -368q1 -122 -67.5 -195t-159.5 -103t-165 -30q-16 0 -26 12t-11 28q15 -1 43 8q74 23 126 53.5t86.5 88.5t34.5 151v355h-157q-139 0 -230 -61.5t-91 -213.5q0 -86 28.5 -135.5t70.5 -59.5q-43 52 -43 137q0 86 39.5 131.5
t113.5 45.5q83 0 125.5 -49.5t42.5 -127.5q0 -94 -57.5 -138t-143.5 -44q-106 0 -171.5 61t-65.5 186q0 167 103 240.5t292 73.5h446q3 -10 3 -20zM235.5 253q-16.5 -36 -16.5 -98q0 -60 16 -92.5t46 -32.5t46 32t16 98q0 58 -14 93.5t-45 35.5q-32 0 -48.5 -36z" />
    <glyph glyph-name="uni0B90" unicode="&#xb90;" horiz-adv-x="897" 
d="M91.5 -141q-46.5 43 -46.5 115q0 76 50 121t132.5 68.5t213.5 43.5q98 15 157 39.5t86 62.5t27 95q0 94 -77 94q-38 0 -59.5 -25.5t-31 -68.5t-16.5 -112h-146q2 95 -33.5 152.5t-109.5 57.5q-37 0 -66.5 -14.5t-41.5 -47.5q22 12 53 12q55 0 86 -27t31 -71
q0 -47 -35 -75t-93 -28q-65 0 -93 33t-28 86q0 54 25 97t74.5 68.5t118.5 25.5q172 0 197 -160q13 75 62 117.5t139 42.5t137.5 -42.5t47.5 -123.5q0 -82 -47.5 -126.5t-121.5 -64t-203 -37.5q-110 -15 -174 -39.5t-92.5 -61.5t-28.5 -92q0 -94 81 -94q108 0 114 209h146
q-3 -95 23.5 -156t80.5 -61q38 0 58.5 26.5t20.5 72.5q0 38 -17.5 68.5t-52.5 41.5q11 19 34 34.5t54 15.5q52 0 86.5 -40t34.5 -102q0 -79 -56 -126t-152 -47q-92 0 -134.5 42.5t-57.5 115.5q-19 -78 -77.5 -118t-143.5 -40q-89 0 -135.5 43zM185.5 307.5
q10.5 19.5 10.5 44.5t-10.5 43.5t-34.5 18.5q-23 0 -34.5 -17.5t-11.5 -46.5q0 -62 45 -62q25 0 35.5 19.5z" />
    <glyph glyph-name="uni0B92" unicode="&#xb92;" horiz-adv-x="805" 
d="M505 176.5q-36 30.5 -36 79.5q0 19 6 38.5t15 28.5q-12 -3 -26 -18t-24 -40t-10 -59q0 -70 44 -106.5t114 -36.5q58 0 96 15l11 -9q-20 -76 -71.5 -133.5t-119.5 -88.5t-135 -31t-116 30.5t-49 90.5q0 39 19.5 57t45.5 18q17 0 25 -7l-1 -18q0 -107 110 -107
q60 0 107.5 27.5t75.5 63.5q-22 -3 -44 -3q-55 0 -102 22t-75.5 64t-28.5 101q0 66 33.5 112t81.5 69t90 23l10 -16q-11 -8 -15.5 -27.5t-4.5 -39.5q0 -34 12 -49t29 -15q25 0 38.5 28.5t13.5 71.5q0 95 -73 143t-187 48q-108 0 -177.5 -41.5t-91.5 -114.5q29 19 76 19
q58 0 89.5 -26.5t31.5 -70.5q0 -48 -34.5 -76t-95.5 -28q-127 0 -127 131q0 71 36 131t114 97t197 37q101 0 188.5 -27t141 -82.5t53.5 -136.5q0 -74 -43.5 -121.5t-119.5 -47.5q-61 0 -97 30.5zM107.5 310.5q-11.5 -17.5 -11.5 -47.5q0 -26 10.5 -43.5t34.5 -17.5
q26 0 36.5 19.5t10.5 43.5q0 26 -10.5 44.5t-35.5 18.5q-23 0 -34.5 -17.5z" />
    <glyph glyph-name="uni0B93" unicode="&#xb93;" horiz-adv-x="816" 
d="M515.5 176.5q-35.5 30.5 -35.5 79.5q0 20 5.5 38.5t15.5 28.5q-12 -3 -26.5 -17.5t-24.5 -40t-10 -58.5q0 -71 46.5 -107.5t117.5 -36.5q49 0 91 15l10 -9q-26 -75 -83 -132.5t-134.5 -89.5t-163.5 -32q-95 0 -158.5 39t-63.5 112q0 51 32.5 85t94.5 34q54 0 84 -26.5
t30 -71.5q0 -33 -17.5 -64t-58.5 -36q33 -10 81 -10q86 0 149.5 27.5t98.5 66.5q-21 -3 -43 -3q-52 0 -99.5 22t-77.5 65t-30 102q0 65 34 110.5t82 68.5t90 23l11 -17q-11 -8 -16.5 -30t-5.5 -43q0 -28 12.5 -42.5t29.5 -14.5q26 0 39 32t13 73q0 90 -72.5 138t-189.5 48
q-109 0 -177.5 -41t-90.5 -115q29 19 75 19q59 0 90 -26.5t31 -70.5q0 -48 -35 -76t-95 -28q-126 0 -126 132q0 71 36 131t113.5 96.5t196.5 36.5q101 0 189 -27.5t142 -83t54 -135.5q0 -73 -43.5 -121t-120.5 -48q-61 0 -96.5 30.5zM117 310.5q-12 -17.5 -12 -46.5
q0 -27 11 -44.5t35 -17.5q25 0 35.5 19.5t10.5 44.5t-10.5 43.5t-34.5 18.5q-23 0 -35 -17.5zM224.5 25q-11.5 -17 -11.5 -45q0 -27 10.5 -43t29.5 -16q20 0 32.5 16.5t12.5 45.5q0 27 -11.5 43t-30.5 16q-20 0 -31.5 -17zM213 35l-2 -2z" />
    <glyph glyph-name="uni0B94" unicode="&#xb94;" horiz-adv-x="2028" 
d="M505 176.5q-36 30.5 -36 79.5q0 19 6 38.5t15 28.5q-12 -3 -26 -18t-24 -40t-10 -59q0 -70 44 -106.5t114 -36.5q58 0 96 15l11 -9q-20 -76 -71.5 -133.5t-119.5 -88.5t-135 -31t-116 30.5t-49 90.5q0 39 19.5 57t45.5 18q17 0 25 -7l-1 -18q0 -107 110 -107
q60 0 107.5 27.5t75.5 63.5q-22 -3 -44 -3q-55 0 -102 22t-75.5 64t-28.5 101q0 66 33.5 112t81.5 69t90 23l10 -16q-11 -8 -15.5 -27.5t-4.5 -39.5q0 -34 12 -49t29 -15q25 0 38.5 28.5t13.5 71.5q0 95 -73 143t-187 48q-108 0 -177.5 -41.5t-91.5 -114.5q29 19 76 19
q58 0 89.5 -26.5t31.5 -70.5q0 -48 -34.5 -76t-95.5 -28q-127 0 -127 131q0 71 36 131t114 97t197 37q101 0 188.5 -27t141 -82.5t53.5 -136.5q0 -74 -43.5 -121.5t-119.5 -47.5q-61 0 -97 30.5zM107.5 310.5q-11.5 -17.5 -11.5 -47.5q0 -26 10.5 -43.5t34.5 -17.5
q26 0 36.5 19.5t10.5 43.5q0 26 -10.5 44.5t-35.5 18.5q-23 0 -34.5 -17.5zM2025 527q0 -17 -11.5 -21.5t-35.5 -4.5h-120v-343q1 -64 5 -93t13 -51q-34 -24 -78 -24q-39 0 -58 22.5t-19 83.5v405h-97q-45 0 -64.5 -20t-19.5 -69l2 -255q1 -63 4.5 -91.5t11.5 -51.5
q-33 -24 -80 -24q-35 0 -53 22.5t-18 83.5v136q0 63 -25 128t-85 110t-157 45q-91 0 -160 -59t-69 -212q0 -98 31.5 -151t80.5 -63q-25 29 -35 65.5t-10 71.5q0 86 39 131.5t113 45.5q83 0 125.5 -49.5t42.5 -127.5q0 -94 -57.5 -138t-144.5 -44q-113 0 -179 64t-66 206
q0 158 80.5 232t208.5 74q108 0 181.5 -46.5t96.5 -129.5q0 58 13.5 92t51.5 51.5t109 17.5h428q5 -9 5 -19zM1049.5 253q-16.5 -36 -16.5 -98q0 -60 16 -92.5t47 -32.5q29 0 45.5 32t16.5 98q0 58 -14 93.5t-46 35.5t-48.5 -36z" />
    <glyph glyph-name="uni0B95" unicode="&#xb95;" horiz-adv-x="864" 
d="M750.5 290.5q63.5 -41.5 63.5 -125.5q0 -85 -58 -132.5t-148 -47.5q-39 0 -60.5 10t-21.5 27q0 8 4 15.5t8 8.5q12 -2 33 -2q103 0 103 112q0 61 -30 95.5t-102 34.5h-17v-47q0 -83 -35 -140t-95.5 -85.5t-134.5 -28.5q-67 0 -114.5 24.5t-71.5 66t-24 92.5q0 57 29 98
t88 57v182q0 41 38 41h480q5 -9 5 -20q0 -17 -12 -21.5t-36 -4.5h-117v-168h34q128 0 191.5 -41.5zM211 331q9 1 29 1h148v168h-160q-17 0 -17 -18v-151zM388 286h-148q-65 0 -98 -33.5t-33 -84.5t36 -83.5t98 -32.5q145 0 145 177v57z" />
    <glyph glyph-name="uni0B99" unicode="&#xb99;" horiz-adv-x="1096" 
d="M993 540q17 -16 17 -46l-1 -494h-673v38q121 12 206 59.5t85 141.5q0 39 -16 63t-49 24q-45 0 -73.5 -42t-29.5 -113v-4q-25 -25 -75 -25q-26 0 -45 5.5t-19 14.5v338h-192v-500h-49v546h531q5 -9 5 -21q0 -17 -12.5 -21t-38.5 -4h-105v-160q47 76 146 76q78 0 120.5 -45
t42.5 -121q0 -69 -38 -126.5t-109 -81.5h247l1 440q0 48 -7 65q14 4 35 6.5t38 2.5q41 0 58 -16z" />
    <glyph glyph-name="uni0B9A" unicode="&#xb9a;" horiz-adv-x="749" 
d="M716 319q0 -13 -8 -23t-22 -10h-163v-47q0 -83 -35 -140t-94 -85.5t-130 -28.5q-67 0 -115.5 25t-73.5 67t-25 94q0 54 29.5 95t87.5 57v182q0 22 9 31.5t28 9.5h479q5 -6 5 -15q0 -31 -39 -31h-126v-168h190q3 -6 3 -13zM209 331q9 1 29 1h148v167h-160q-17 0 -17 -17
v-151zM386 286h-128q-78 0 -113.5 -31.5t-35.5 -82.5q0 -60 38 -90t97 -30q78 0 110 49.5t32 127.5v57z" />
    <glyph glyph-name="uni0B9C" unicode="&#xb9c;" horiz-adv-x="898" 
d="M796 79.5q51 -42.5 51 -112.5q0 -68 -47 -109.5t-134 -41.5q-88 0 -121.5 45t-33.5 106q0 19 2 31q-20 -15 -59 -60q-32 -38 -59 -63t-67.5 -42.5t-95.5 -17.5q-84 0 -135.5 41t-51.5 116q0 79 56 126t130 67.5t181 37.5l27 4q98 16 157.5 39t88 61t28.5 96q0 94 -76 94
q-37 0 -58.5 -22.5t-33 -65.5t-19.5 -117h-144q-1 210 -142 210q-40 0 -69 -16t-41 -46q22 12 53 12q55 0 86 -27t31 -71q0 -47 -34.5 -75t-93.5 -28q-65 0 -93 33.5t-28 85.5q0 53 25 96.5t74.5 69t118.5 25.5q84 0 134.5 -40t63.5 -120q13 77 60 118.5t139 41.5
q94 0 140.5 -43.5t46.5 -121.5q0 -81 -46.5 -125.5t-111.5 -62.5t-171 -34l-46 -7q-107 -17 -170 -40t-93 -59.5t-30 -93.5q0 -45 19 -69t56 -24q41 0 72.5 24.5t74.5 74.5q41 46 72 74t76.5 48t103.5 20q86 0 137 -42.5zM117.5 396.5q-12.5 -17.5 -12.5 -47.5
q0 -26 11 -43.5t34 -17.5q26 0 36.5 20t10.5 45q0 24 -10.5 42.5t-33.5 18.5t-35.5 -17.5zM699.5 -103q13.5 32 13.5 69q0 47 -16 71t-47 24q-36 0 -50.5 -28t-14.5 -67q0 -46 16.5 -73.5t50.5 -27.5t47.5 32z" />
    <glyph glyph-name="uni0B9E" unicode="&#xb9e;" horiz-adv-x="1365" 
d="M1280 350.5q35 -63.5 35 -156.5q0 -143 -76 -227.5t-216 -120.5t-347 -36q-340 0 -485 113.5t-145 294.5q0 107 42 181.5t104 113.5t123 46l11 1q11 0 19 -5.5t15 -20.5q-76 -36 -129 -104.5t-53 -209.5q0 -196 126 -278.5t369 -82.5q169 0 277.5 28.5t166.5 100.5
t58 201q0 74 -18 104.5t-52 30.5q-50 0 -75.5 -52t-26.5 -118v-4q0 -58 4 -84.5t12 -51.5q-33 -24 -79 -24q-39 0 -58 22.5t-19 83.5v404h-141q-146 0 -237.5 -60t-91.5 -215q0 -86 30 -136t80 -59q-40 51 -40 137q0 87 38 132t111 45q82 0 124.5 -50t42.5 -128
q0 -94 -58.5 -137.5t-150.5 -43.5q-72 0 -132.5 26t-97.5 83.5t-37 148.5q0 303 432 303h414q5 -9 5 -21q0 -17 -12.5 -21.5t-38.5 -4.5h-103l2 -184q46 99 152 99q91 0 126 -63.5zM529.5 253q-16.5 -36 -16.5 -98q0 -60 16 -92.5t47 -32.5q29 0 45.5 32t16.5 98
q0 58 -14 93.5t-46 35.5t-48.5 -36z" />
    <glyph glyph-name="uni0B9F" unicode="&#xb9f;" horiz-adv-x="834" 
d="M824 0h-700q-38 0 -38 39v442q0 48 -7 66q13 4 33.5 6.5t31.5 2.5q43 0 61 -15t18 -48v-447h601v-46z" />
    <glyph glyph-name="uni0BA3" unicode="&#xba3;" horiz-adv-x="1725" 
d="M1722 525q0 -17 -12.5 -21t-38.5 -4h-115v-342q0 -52 5 -89.5t13 -54.5q-34 -24 -79 -24q-39 0 -57.5 22.5t-18.5 83.5v404h-69q-79 0 -145 -21q55 -45 83.5 -112t28.5 -151q0 -107 -47 -169t-135 -62q-81 0 -123 53t-42 158q0 180 115 271q-58 46 -156 46t-167 -32
q69 -46 106 -115.5t37 -157.5q0 -100 -48 -161.5t-136 -61.5q-80 0 -122 53.5t-42 158.5q0 166 97 261q-77 53 -208 53q-147 0 -243.5 -65.5t-96.5 -217.5q0 -87 32 -137.5t79 -60.5q-23 26 -34 63t-11 74q0 86 39 131.5t115 45.5q81 0 123.5 -50t42.5 -128
q0 -94 -57.5 -137.5t-145.5 -43.5q-108 0 -175.5 62t-67.5 189q0 160 110 242t302 82q149 0 260 -53q92 53 225 53q126 0 217 -50q86 36 202 36h355q5 -9 5 -21zM1118 433q-95 -76 -95 -233q0 -73 20 -101.5t56 -28.5q45 0 61.5 35t16.5 101q0 150 -59 227zM747 104.5
q17 34.5 17 95.5q0 151 -76 230q-78 -80 -78 -229q0 -73 20.5 -102t55.5 -29q44 0 61 34.5zM243.5 253q-16.5 -36 -16.5 -98q0 -60 16 -92.5t47 -32.5q29 0 45 32t16 98q0 58 -14 93.5t-45 35.5q-32 0 -48.5 -36z" />
    <glyph glyph-name="uni0BA4" unicode="&#xba4;" horiz-adv-x="819" 
d="M709 275.5q60 -54.5 60 -161.5q0 -84 -41 -143t-116.5 -90t-175.5 -31h-176q-83 0 -87 -51q-2 -13 2.5 -23.5t19.5 -26.5q-3 -20 -21 -33t-45 -13q-35 0 -50 21t-15 51q0 58 51 90t152 32h121q130 0 185 60.5t55 160.5q0 78 -23 119.5t-81 46.5v-45q0 -82 -36.5 -139.5
t-97 -86t-131.5 -28.5q-64 0 -111 25t-72.5 67.5t-25.5 93.5q0 53 28 93.5t87 57.5v183q0 41 38 41h480q5 -9 5 -21q0 -17 -12 -21t-38 -4h-115l1 -169h10q115 -1 175 -55.5zM211 330q22 2 35 2h140v168h-158q-17 0 -17 -18v-152zM352 97q34 45 34 113v76h-120
q-84 0 -120.5 -32t-36.5 -82q0 -60 36.5 -90t97.5 -30q75 0 109 45z" />
    <glyph glyph-name="uni0BA8" unicode="&#xba8;" horiz-adv-x="846" 
d="M759.5 349.5q35.5 -64.5 35.5 -169.5q0 -111 -30.5 -183t-101.5 -109.5t-191 -37.5h-209q-83 0 -87 -51q-2 -13 2.5 -23.5t19.5 -26.5q-3 -20 -21 -33t-45 -13q-35 0 -50 21t-15 51q0 58 51.5 90t151.5 32h202q72 0 112 33t55 93.5t15 152.5q0 71 -16 109.5t-55 38.5
q-26 0 -47 -24t-33 -61t-13 -74q0 -104 18 -151q-34 -24 -80 -24q-38 0 -56.5 22.5t-18.5 83.5v404h-193v-500h-52v546h533q5 -9 5 -21q0 -17 -11 -21t-36 -4h-109v-167q45 81 139 81q95 0 130.5 -64.5z" />
    <glyph glyph-name="uni0BA9" unicode="&#xba9;" horiz-adv-x="1315" 
d="M1312 525q0 -17 -12.5 -21t-38.5 -4h-118v-342q0 -57 4 -87.5t14 -56.5q-33 -24 -79 -24q-39 0 -57.5 22.5t-18.5 83.5v404h-67q-94 0 -162 -27q62 -47 95 -114.5t33 -150.5q0 -100 -48.5 -161.5t-136.5 -61.5q-80 0 -121.5 53t-41.5 158q0 170 104 260q-77 59 -215 59
q-147 0 -243.5 -68t-96.5 -222q0 -85 32 -135t79 -60q-45 53 -45 138q0 86 39 131t114 45q82 0 124.5 -50t42.5 -128q0 -94 -57.5 -137.5t-147.5 -43.5q-107 0 -174 61t-67 187q0 162 109.5 246.5t300.5 84.5q163 0 276 -62q89 44 219 44h357q4 -9 4 -21zM695 424
q-85 -75 -85 -224q0 -73 20.5 -101.5t55.5 -28.5q44 0 61 34.5t17 96.5q0 146 -69 223zM243.5 253q-16.5 -36 -16.5 -98q0 -60 16 -92.5t47 -32.5q29 0 45 32t16 98q0 58 -14 93.5t-45 35.5q-32 0 -48.5 -36z" />
    <glyph glyph-name="uni0BAA" unicode="&#xbaa;" horiz-adv-x="858" 
d="M86 39v443q0 47 -7 65q13 4 33.5 6.5t31.5 2.5q43 0 61 -15t18 -48v-447h411v436q0 47 -7 65q13 4 33.5 6.5t31.5 2.5q43 0 61 -15t18 -48v-454q0 -39 -37 -39h-610q-38 0 -38 39z" />
    <glyph glyph-name="uni0BAE" unicode="&#xbae;" horiz-adv-x="902" 
d="M736 521q57 -40 86.5 -108t29.5 -152q0 -121 -44.5 -191t-159.5 -70h-524q-38 0 -38 39v442q0 48 -7 66q14 4 35.5 6.5t38.5 2.5q40 0 55 -16t15 -47v-447h203v322q0 106 44 149.5t130 43.5q79 0 136 -40zM563 47h70q67 0 103.5 22t50 66t13.5 118q0 77 -23 135t-62 89
t-86 31q-27 0 -41 -10.5t-19.5 -36.5t-5.5 -76v-338z" />
    <glyph glyph-name="uni0BAF" unicode="&#xbaf;" horiz-adv-x="1052" 
d="M966 493v-454q0 -39 -38 -39h-479q-37 0 -37 39v1q-32 -30 -69.5 -42.5t-81.5 -12.5q-90 0 -132.5 42.5t-42.5 132.5v322q0 47 -7 65q14 4 35 6.5t37 2.5q72 0 72 -63v-303q0 -49 6 -76.5t23.5 -41.5t53.5 -14q34 0 59 13t47 40v371q0 47 -7 65q13 4 34.5 6.5t37.5 2.5
q39 0 55.5 -16.5t16.5 -46.5v-451h280v440q0 47 -7 65q13 4 34.5 6.5t37.5 2.5q72 0 72 -63z" />
    <glyph glyph-name="uni0BB0" unicode="&#xbb0;" horiz-adv-x="670" 
d="M668 525q0 -17 -12.5 -21t-38.5 -4h-119l2 -371q0 -121 -65 -194t-152.5 -102t-161.5 -29q-16 0 -26 12t-11 28q16 -1 44 8q72 23 121 53t80.5 87t31.5 150v358h-225v-500h-52v546h579q5 -9 5 -21z" />
    <glyph glyph-name="uni0BB1" unicode="&#xbb1;" horiz-adv-x="893" 
d="M86 0v314q0 114 40.5 180.5t154.5 66.5q67 0 110 -38t50 -117q16 79 60.5 117t119.5 38q83 0 129.5 -41t64.5 -113t18 -178q0 -150 -33 -231t-110 -114.5t-218 -33.5h-214q-83 0 -87 -51q-2 -13 2.5 -23.5t19.5 -26.5q-3 -20 -21 -33t-45 -13q-35 0 -50 21t-15 51
q0 58 51.5 89.5t151.5 31.5h209q98 0 143 26t60 89t15 196q0 98 -7 158.5t-26.5 94t-57.5 33.5q-93 0 -93 -211v-125q0 -44 5 -85.5t12 -57.5q-33 -24 -78 -24q-39 0 -57.5 22t-18.5 84v239q0 86 -19.5 122.5t-54.5 36.5q-31 0 -47 -18.5t-21.5 -55t-5.5 -98.5v-322h-137z
" />
    <glyph glyph-name="uni0BB2" unicode="&#xbb2;" horiz-adv-x="994" 
d="M112 48q-66 62 -66 201q0 154 89.5 233t265.5 79q94 0 153.5 -25.5t90.5 -83.5t34 -158v-36q0 -73 3.5 -112t21 -68t57.5 -29q63 0 96 69.5t33 163.5q0 105 -37 152.5t-91 71.5q-3 7 2.5 20.5t19.5 24t35 10.5q32 0 61.5 -28.5t48.5 -88t19 -147.5q0 -122 -46 -217
t-177 -95q-109 0 -146 67t-37 169q0 100 -9.5 158t-50.5 96.5t-129 38.5q-110 0 -178.5 -65.5t-68.5 -210.5q0 -98 30.5 -147t80.5 -60q-24 22 -35 60.5t-11 80.5q0 79 40 124t120 45q84 0 122.5 -47.5t38.5 -123.5q0 -97 -57.5 -140.5t-147.5 -43.5q-109 0 -175 62z
M335.5 63q16.5 32 16.5 98q0 58 -14 93.5t-46 35.5t-48.5 -36t-16.5 -98q0 -60 16 -92.5t47 -32.5q29 0 45.5 32z" />
    <glyph glyph-name="uni0BB3" unicode="&#xbb3;" horiz-adv-x="1223" 
d="M1220 527q0 -17 -11.5 -21.5t-35.5 -4.5h-120v-343q1 -64 5 -93t13 -51q-34 -24 -78 -24q-39 0 -58 22.5t-19 83.5v405h-97q-45 0 -64.5 -20t-19.5 -69l2 -255q1 -63 4.5 -91.5t11.5 -51.5q-33 -24 -80 -24q-35 0 -53 22.5t-18 83.5v136q0 63 -25 128t-85 110t-157 45
q-91 0 -160 -59t-69 -212q0 -98 31.5 -151t80.5 -63q-25 29 -35 65.5t-10 71.5q0 86 39 131.5t113 45.5q83 0 125.5 -49.5t42.5 -127.5q0 -94 -57.5 -138t-144.5 -44q-113 0 -179 64t-66 206q0 158 80.5 232t208.5 74q108 0 181.5 -46.5t96.5 -129.5q0 58 13.5 92t51.5 51.5
t109 17.5h428q5 -9 5 -19zM244.5 253q-16.5 -36 -16.5 -98q0 -60 16 -92.5t47 -32.5q29 0 45.5 32t16.5 98q0 58 -14 93.5t-46 35.5t-48.5 -36z" />
    <glyph glyph-name="uni0BB4" unicode="&#xbb4;" horiz-adv-x="916" 
d="M113.5 -267.5q-31.5 41.5 -31.5 88.5q0 44 26 69.5t63 25.5q34 0 53 -19t19 -45q0 -18 -10 -34q-12 4 -25 2q-15 -2 -24 -11t-9 -25q0 -19 14.5 -30.5t44.5 -11.5q36 0 68 15t78 44q32 21 55 32.5t43 13.5q-24 10 -31 41.5t-7 92.5v19h-303q-37 0 -37 39v442q0 48 -7 66
q14 4 35 6.5t38 2.5q40 0 55.5 -16t15.5 -47v-447h203v323q0 104 43.5 148t125.5 44q123 0 190 -84.5t67 -226.5q0 -250 -204 -250h-85v-19q0 -47 6 -75t25 -43t57 -15h75v-49h-238q-30 0 -54 -11.5t-59 -35.5q-43 -30 -78 -45.5t-85 -15.5q-81 0 -112.5 41.5zM647 46
q65 0 101 21.5t50.5 62.5t14.5 107q0 88 -22.5 149t-61 91.5t-86.5 30.5q-27 0 -41 -10.5t-19.5 -36.5t-5.5 -76v-339h70z" />
    <glyph glyph-name="uni0BB5" unicode="&#xbb5;" horiz-adv-x="1128" 
d="M112.5 46.5q-66.5 61.5 -66.5 192.5q0 157 96.5 239.5t262.5 82.5q107 0 186 -35t121.5 -101.5t42.5 -159.5q0 -68 -22.5 -125.5t-61.5 -93.5h233l1 427q0 47 -7 65q13 4 34.5 6.5t37.5 2.5q39 0 55.5 -16.5t16.5 -46.5l-1 -484h-537v35q53 30 81.5 93.5t28.5 146.5
q0 108 -53.5 172t-175.5 64q-118 0 -198.5 -66t-80.5 -214q0 -91 31.5 -140.5t80.5 -60.5q-45 46 -45 138q0 85 39 130.5t114 45.5q82 0 124.5 -50t42.5 -128q0 -96 -58 -139.5t-148 -41.5q-108 0 -174.5 61.5zM335.5 60q16.5 32 16.5 100q0 58 -14 93.5t-46 35.5
q-31 0 -47.5 -36.5t-16.5 -97.5q0 -62 16 -94.5t46 -30.5q29 -2 45.5 30z" />
    <glyph glyph-name="uni0BB6" unicode="&#xbb6;" horiz-adv-x="1219" 
d="M1125 500l-3 -312q-1 -77 -40.5 -122.5t-92 -63t-95.5 -17.5q-124 0 -168.5 61t-45.5 160l-2 294h-137l-3 -312q-1 -77 -41 -122.5t-92.5 -63t-97.5 -17.5q-126 0 -171.5 61t-46.5 160l-3 269q0 46 -7 63q13 4 34 6.5t32 2.5q43 0 61 -15t18 -48l2 -272q1 -55 7.5 -88.5
t25 -52t55.5 -18.5q45 0 66 34t21 110v349h724v-46zM985 500h-170l2 -288q1 -83 17.5 -121t66.5 -38q43 0 63.5 34t20.5 110v303z" />
    <glyph glyph-name="uni0BB7" unicode="&#xbb7;" horiz-adv-x="1504" 
d="M1419 406v-406h-288v-246h-123v246h-509v35q54 31 82.5 94.5t28.5 148.5q0 234 -228 234q-120 0 -198 -66t-78 -214q0 -92 31.5 -141.5t80.5 -60.5q-45 47 -45 138q0 85 39 130.5t114 45.5q82 0 124.5 -50t42.5 -128q0 -96 -58 -139.5t-149 -41.5q-107 0 -173.5 61.5
t-66.5 194.5q0 157 96.5 238.5t271.5 81.5q161 0 249 -72t88 -219q0 -75 -22.5 -131.5t-61.5 -92.5h341v146q-95 5 -148.5 51t-53.5 132q0 83 48 126t122 43q80 0 117.5 -58.5t37.5 -196.5v-31q34 12 59.5 33.5t43.5 45t47 67.5v2h1q1 0 1 0.5v0.5l1 -1h135zM899.5 280
q40.5 -32 108.5 -36v38q0 85 -5.5 128.5t-19 61t-39.5 17.5q-39 0 -62 -29.5t-23 -79.5q0 -68 40.5 -100zM1281 46v251q-55 -73 -150 -95v-156h150zM244.5 252.5q-16.5 -36.5 -16.5 -97.5q0 -62 16 -94.5t46 -30.5q29 -2 45.5 30t16.5 100q0 58 -14 93.5t-46 35.5
q-31 0 -47.5 -36.5z" />
    <glyph glyph-name="uni0BB8" unicode="&#xbb8;" horiz-adv-x="1334" 
d="M110 49.5q-64 64.5 -64 205.5q0 106 37 175t99 100.5t139 31.5q100 0 169 -48.5t105 -133.5q0 78 42.5 130t163.5 52q99 0 145 -37.5t57.5 -100t11.5 -178.5v-42q0 -58 4 -89.5t19.5 -48.5t48.5 -17q42 0 73.5 35t48 91t16.5 118q0 162 -127 213q-3 6 2.5 20t19 25
t34.5 11q32 0 62 -29t49 -84.5t19 -132.5q0 -125 -51.5 -228t-189.5 -103q-76 0 -111 32.5t-43.5 86t-8.5 153.5l1 88q0 77 -16 117.5t-65 40.5q-46 0 -65.5 -33.5t-18.5 -87.5l2 -225q1 -60 5 -90t12 -53q-34 -24 -79 -24q-36 0 -54 22t-18 84v112q0 72 -25 142.5
t-82 117.5t-148 47q-93 0 -162.5 -58.5t-69.5 -212.5q0 -98 31.5 -151t79.5 -63q-40 51 -40 139q0 84 38 128t112 44q81 0 123 -49t42 -126q0 -94 -57.5 -137.5t-145.5 -43.5q-106 0 -170 64.5zM326.5 62q16.5 32 16.5 98q0 58 -14 93.5t-46 35.5t-48.5 -36t-16.5 -98
q0 -60 16 -92.5t47 -32.5q29 0 45.5 32z" />
    <glyph glyph-name="uni0BB9" unicode="&#xbb9;" horiz-adv-x="1683" 
d="M107 -313q-15 21 -15 52q0 57 51 88.5t152 31.5h986q85 0 126 26.5t56 95t15 211.5q0 105 -7.5 169t-28 98t-59.5 34q-48 0 -68 -48t-20 -132v-156q0 -43 5.5 -85t12.5 -58q-33 -24 -78 -24q-39 0 -57.5 22t-18.5 84v239q0 86 -20 122.5t-56 36.5q-43 0 -57.5 -46
t-14.5 -153v-295h-511v35q52 30 81 93.5t29 147.5q0 109 -56 173.5t-183 64.5q-122 0 -193 -67.5t-71 -212.5q0 -97 30.5 -144.5t78.5 -58.5q-43 42 -43 118q0 155 153 155q82 0 124.5 -44.5t42.5 -112.5q0 -85 -58 -123.5t-149 -38.5q-240 0 -240 264q0 159 88.5 235.5
t266.5 76.5q350 0 350 -291q0 -76 -22.5 -134.5t-61.5 -93.5h207v299q0 92 40.5 156t149.5 64q66 0 110 -34t55 -121q16 79 61 117t122 38q82 0 127.5 -41.5t62.5 -117t17 -190.5q0 -170 -34 -256t-104.5 -116t-199.5 -30h-993q-83 0 -87 -48q-2 -13 2.5 -23.5t18.5 -26.5
q-2 -20 -19.5 -33t-45.5 -13q-35 0 -50 21zM336 57.5q16 27.5 16 84.5q0 49 -14 79.5t-45 30.5t-48 -31t-17 -84q0 -51 16 -79t47 -28q29 0 45 27.5z" />
    <glyph glyph-name="uni0BBE" unicode="&#xbbe;" horiz-adv-x="681" 
d="M679 524q0 -16 -11.5 -20t-37.5 -4h-119v-350q0 -56 4 -83t13 -52q-33 -24 -77 -24q-39 0 -58 21t-19 77v411l-225 1v-501h-52v546h578q4 -18 4 -22z" />
    <glyph glyph-name="uni0BBF" unicode="&#xbbf;" horiz-adv-x="330" 
d="M115.5 12q-18.5 22 -18.5 84v341q0 164 -46.5 261.5t-170.5 97.5q-65 0 -98 -32.5t-33 -90.5q0 -102 85 -127q3 -7 -10.5 -19t-22.5 -11q-75 16 -118 54t-43 102q0 52 29.5 92t85.5 62t133 22q158 0 252 -99.5t94 -310.5v-281q0 -92 17 -143q-33 -24 -78 -24
q-39 0 -57.5 22z" />
    <glyph glyph-name="uni0BC0" unicode="&#xbc0;" 
d="M-421 571.5q-59 44.5 -59 126.5q0 86 66 129.5t162 43.5t142 -38.5t46 -96.5q0 -51 -34.5 -77.5t-86.5 -26.5q-55 0 -84 29.5t-29 73.5q0 33 17 59.5t53 36.5l-20 1q-64 -2 -99.5 -31t-35.5 -90q0 -77 40.5 -117.5t97.5 -47.5l-13 -19q-104 0 -163 44.5zM-123.5 684
q12.5 18 12.5 51q0 30 -11.5 47t-33.5 17q-25 0 -38 -18.5t-13 -48.5t13 -48t36 -18q22 0 34.5 18z" />
    <glyph glyph-name="uni0BC1" unicode="&#xbc1;" horiz-adv-x="411" 
d="M99 308.5q-33 35.5 -33 90.5q0 33 12.5 59.5t38.5 41.5h-313v46h341q104 0 155 -39.5t51 -101.5q0 -68 -46.5 -100t-105.5 -32q-67 0 -100 35.5zM216.5 336q15.5 22 15.5 63q0 36 -14.5 57t-42.5 21q-30 0 -46.5 -22t-16.5 -59q0 -38 16.5 -60t41.5 -22q31 0 46.5 22z
" />
    <glyph glyph-name="uni0BC2" unicode="&#xbc2;" horiz-adv-x="634" 
d="M105.5 312.5q-33.5 39.5 -33.5 102.5q0 46 18 85h-272v46h300q84 103 226 103q97 0 163.5 -47.5t66.5 -144.5q0 -65 -29.5 -106.5t-66 -61t-55.5 -19.5q-11 0 -18 7.5t-6 15.5q41 13 59 54t18 93q0 74 -35 118t-109 44q-39 0 -78.5 -13t-71.5 -43h12q87 0 125 -38t38 -98
q0 -72 -46 -104.5t-105 -32.5q-67 0 -100.5 39.5zM222.5 336.5q15.5 22.5 15.5 66.5q0 42 -14.5 64t-42.5 22q-30 0 -46.5 -24t-16.5 -65t16.5 -63.5t44.5 -22.5t43.5 22.5z" />
    <glyph glyph-name="uni0BC6" unicode="&#xbc6;" horiz-adv-x="847" 
d="M125.5 63q-74.5 78 -74.5 275q0 169 76 294t296 125q161 0 244 -67.5t83 -204.5v-329q0 -60 4.5 -88t13.5 -54q-34 -24 -78 -24q-39 0 -58 22t-19 84v387q0 90 -42.5 162.5t-165.5 72.5q-171 0 -233 -115.5t-62 -267.5q0 -159 38.5 -226.5t103.5 -77.5q-48 50 -48 138
t39.5 131.5t116.5 43.5q84 0 126.5 -50t42.5 -128q0 -94 -58 -137.5t-147 -43.5q-124 0 -198.5 78zM371.5 62q16.5 32 16.5 98q0 58 -14 93.5t-46 35.5t-48.5 -36t-16.5 -98q0 -60 16 -92.5t47 -32.5q29 0 45.5 32z" />
    <glyph glyph-name="uni0BC7" unicode="&#xbc7;" horiz-adv-x="702" 
d="M64 372q0 201 97.5 293.5t269.5 92.5q90 0 147.5 -43.5t57.5 -136.5q0 -71 -43 -119t-126 -48q-74 0 -113 41.5t-39 122.5q0 87 44 138q-66 -13 -115 -86t-49 -244q0 -186 49.5 -262.5t116.5 -89.5q-44 50 -44 138q0 81 39 122.5t113 41.5q83 0 126 -48t43 -119
q0 -94 -57.5 -137.5t-147.5 -43.5q-369 0 -369 387zM480.5 499q14.5 34 14.5 85q0 66 -16 97.5t-46 31.5t-46.5 -32.5t-16.5 -91.5q0 -55 17 -89.5t48 -34.5t45.5 34zM481 62q16 32 16 98q0 51 -14.5 85t-45.5 34t-48 -35t-17 -89q0 -60 16 -92.5t47 -32.5q30 0 46 32z" />
    <glyph glyph-name="uni0BC8" unicode="&#xbc8;" horiz-adv-x="1274" 
d="M1064 521.5q75 -39.5 117.5 -112t42.5 -167.5q0 -80 -30.5 -138t-82 -88.5t-111.5 -30.5q-9 0 -17.5 8t-11.5 20q58 17 88 75.5t30 149.5q0 144 -61 210t-152 66q-66 0 -121 -29q72 -46 110 -117t38 -160q0 -100 -48 -161.5t-137 -61.5q-162 0 -162 214q0 166 92 263
q-75 50 -202 50q-146 0 -243 -67.5t-97 -219.5q0 -85 31.5 -135t79.5 -60q-45 52 -45 138q0 83 39.5 128t114.5 45q81 0 123.5 -50t42.5 -128q0 -92 -58 -135t-147 -43q-106 0 -173.5 61.5t-67.5 187.5q0 160 110 243.5t300 83.5q147 0 252 -50q79 50 186 50q95 0 170 -39.5
zM745 104.5q17 34.5 17 95.5q0 156 -78 232q-75 -82 -75 -227q0 -76 20 -105.5t55 -29.5q44 0 61 34.5zM243.5 250q-16.5 -36 -16.5 -98q0 -58 16 -90t47 -32q29 0 45 31.5t16 95.5q0 58 -14 93.5t-45 35.5q-32 0 -48.5 -36z" />
    <glyph glyph-name="uni0BCA" unicode="&#xbca;" horiz-adv-x="2146" 
d="M748 156q0 -61 4 -89.5t14 -52.5q-34 -24 -78 -24q-39 0 -58 22t-19 84v387q0 90 -42.5 162.5t-166.5 72.5q-171 0 -232.5 -115.5t-61.5 -267.5q0 -159 38.5 -226.5t103.5 -77.5q-48 50 -48 138t39.5 131.5t116.5 43.5q83 0 125.5 -50t42.5 -128q0 -94 -57.5 -137.5
t-147.5 -43.5q-124 0 -198 78.5t-74 274.5q0 169 76 294t296 125q161 0 244 -67.5t83 -204.5v-329zM1167 549q8 -8 8 -20t-8 -20t-19 -8q-12 0 -20 8t-8 20t8 20t20 8q11 0 19 -8zM2146 524q0 -16 -11.5 -20t-36.5 -4h-120v-350q0 -55 4.5 -82t13.5 -53q-34 -24 -78 -24
q-39 0 -58 21t-19 77v411l-225 1v-501h-52v546h578q4 -18 4 -22zM1029 490q-8 8 -8 20t8 20t19 8q12 0 20 -8t8 -20t-8 -20t-20 -8q-11 0 -19 8zM1267 530q8 -8 8 -20t-8 -20t-19 -8q-12 0 -20 8t-8 20t8 20t20 8q11 0 19 -8zM985 474q8 -8 8 -20t-8 -20t-20 -8q-11 0 -19 8
t-8 20t8 20t19 8q12 0 20 -8zM1311 434q-8 8 -8 20t8 20t20 8q11 0 19 -8t8 -20t-8 -20t-19 -8q-12 0 -20 8zM889 350q-8 8 -8 20t8 20t19 8q12 0 20 -8t8 -20t-8 -20t-20 -8q-11 0 -19 8zM1368 350q-8 8 -8 20t8 20t20 8q11 0 19 -8t8 -20t-8 -20t-19 -8q-12 0 -20 8z
M909 250q-8 -8 -20 -8q-11 0 -19 8t-8 20t8 20t19 8q12 0 20 -8t8 -20t-8 -20zM1426 290q8 -8 8 -20t-8 -20t-19 -8q-12 0 -20 8t-8 20t8 20t20 8q11 0 19 -8zM277.5 253q-16.5 -36 -16.5 -98q0 -60 16 -92.5t47 -32.5q29 0 45.5 32t16.5 98q0 58 -14 93.5t-46 35.5
t-48.5 -36zM930 192q8 -8 8 -20t-8 -20t-20 -8q-11 0 -19 8t-8 20t8 20t19 8q12 0 20 -8zM1405 192q8 -8 8 -20t-8 -20t-19 -8q-12 0 -20 8t-8 20t8 20t20 8q11 0 19 -8zM985 109q8 -8 8 -20t-8 -20t-20 -8q-11 0 -19 8t-8 20t8 20t19 8q12 0 20 -8zM1350 109q8 -8 8 -20
t-8 -20t-19 -8q-12 0 -20 8t-8 20t8 20t20 8q11 0 19 -8zM1070 52q8 -8 8 -20t-8 -20t-20 -8q-11 0 -19 8t-8 20t8 20t19 8q12 0 20 -8zM1265 52q8 -8 8 -20t-8 -20t-19 -8q-12 0 -20 8t-8 20t8 20t20 8q11 0 19 -8zM1167 33q8 -8 8 -20t-8 -20t-19 -8q-12 0 -20 8t-8 20
t8 20t20 8q11 0 19 -8z" />
    <glyph glyph-name="uni0BCB" unicode="&#xbcb;" horiz-adv-x="2002" 
d="M595 285q43 -48 43 -119q0 -94 -57.5 -137.5t-147.5 -43.5q-369 0 -369 387q0 201 97.5 293.5t269.5 92.5q90 0 147.5 -43.5t57.5 -136.5q0 -71 -43 -119t-126 -48q-74 0 -113 41.5t-39 122.5q0 87 44 138q-66 -13 -115 -86t-49 -244q0 -186 49.5 -262.5t116.5 -89.5
q-44 50 -44 138q0 81 39 122.5t113 41.5q83 0 126 -48zM386.5 680.5q-16.5 -32.5 -16.5 -91.5q0 -55 17 -89.5t48 -34.5t45.5 34t14.5 85q0 66 -16 97.5t-46 31.5t-46.5 -32.5zM1016 545q8 -8 8 -20t-8 -20t-19 -8q-12 0 -20 8t-8 20t8 20t20 8q11 0 19 -8zM1984 524
q0 -16 -11 -20t-37 -4h-119v-350q0 -56 4 -83t13 -52q-33 -24 -78 -24q-39 0 -58 21t-19 77v411l-224 1v-501h-53v546h579q3 -13 3 -22zM878 486q-8 8 -8 20t8 20t19 8q12 0 20 -8t8 -20t-8 -20t-20 -8q-11 0 -19 8zM1116 526q8 -8 8 -20t-8 -20t-19 -8q-12 0 -20 8t-8 20
t8 20t20 8q11 0 19 -8zM834 470q8 -8 8 -20t-8 -20t-20 -8q-11 0 -19 8t-8 20t8 20t19 8q12 0 20 -8zM1160 430q-8 8 -8 20t8 20t20 8q11 0 19 -8t8 -20t-8 -20t-19 -8q-12 0 -20 8zM738 346q-8 8 -8 20t8 20t19 8q12 0 20 -8t8 -20t-8 -20t-20 -8q-11 0 -19 8zM1217 346
q-8 8 -8 20t8 20t20 8q11 0 19 -8t8 -20t-8 -20t-19 -8q-12 0 -20 8zM758 246q-8 -8 -20 -8q-11 0 -19 8t-8 20t8 20t19 8q12 0 20 -8t8 -20t-8 -20zM1275 286q8 -8 8 -20t-8 -20t-19 -8q-12 0 -20 8t-8 20t8 20t20 8q11 0 19 -8zM481 62q16 32 16 98q0 51 -14.5 85
t-45.5 34t-48 -35t-17 -89q0 -60 16 -92.5t47 -32.5q30 0 46 32zM779 188q8 -8 8 -20t-8 -20t-20 -8q-11 0 -19 8t-8 20t8 20t19 8q12 0 20 -8zM1254 188q8 -8 8 -20t-8 -20t-19 -8q-12 0 -20 8t-8 20t8 20t20 8q11 0 19 -8zM834 105q8 -8 8 -20t-8 -20t-20 -8q-11 0 -19 8
t-8 20t8 20t19 8q12 0 20 -8zM1199 105q8 -8 8 -20t-8 -20t-19 -8q-12 0 -20 8t-8 20t8 20t20 8q11 0 19 -8zM919 48q8 -8 8 -20t-8 -20t-20 -8q-11 0 -19 8t-8 20t8 20t19 8q12 0 20 -8zM1114 48q8 -8 8 -20t-8 -20t-19 -8q-12 0 -20 8t-8 20t8 20t20 8q11 0 19 -8z
M1016 29q8 -8 8 -20t-8 -20t-19 -8q-12 0 -20 8t-8 20t8 20t20 8q11 0 19 -8z" />
    <glyph glyph-name="uni0BCC" unicode="&#xbcc;" horiz-adv-x="2673" 
d="M748 156q0 -60 4 -88.5t13 -53.5q-33 -24 -78 -24q-39 0 -57.5 22t-18.5 84v387q0 90 -42.5 162.5t-166.5 72.5q-171 0 -232.5 -115.5t-61.5 -267.5q0 -160 38 -227t104 -77q-28 29 -38.5 63.5t-10.5 74.5q0 88 40 131.5t117 43.5q83 0 125.5 -50t42.5 -128
q0 -94 -57.5 -137.5t-147.5 -43.5q-124 0 -198.5 78t-74.5 275q0 168 76.5 293.5t295.5 125.5q161 0 244.5 -68t83.5 -204v-329zM2668 527q0 -17 -11.5 -21.5t-35.5 -4.5h-120v-343q1 -64 5 -93t13 -51q-34 -24 -78 -24q-39 0 -58 22.5t-19 83.5v405h-97q-45 0 -64.5 -20
t-19.5 -69l2 -255q0 -62 3.5 -90.5t12.5 -52.5q-33 -24 -80 -24q-35 0 -53 22.5t-18 83.5v136q0 63 -25 128t-85 110t-157 45q-91 0 -160 -58.5t-69 -212.5q0 -98 31.5 -151t80.5 -63q-45 51 -45 137t39 131.5t113 45.5q83 0 125.5 -49.5t42.5 -127.5q0 -94 -57.5 -138
t-144.5 -44q-113 0 -179 64t-66 206q0 158 80.5 232t208.5 74q108 0 181 -46.5t97 -129.5q0 58 13.5 92t51.5 51.5t109 17.5h428q5 -9 5 -19zM1134 545q8 -8 8 -20t-8 -20t-19 -8q-12 0 -20 8t-8 20t8 20t20 8q11 0 19 -8zM996 486q-8 8 -8 20t8 20t19 8q12 0 20 -8t8 -20
t-8 -20t-20 -8q-11 0 -19 8zM1234 526q8 -8 8 -20t-8 -20t-19 -8q-12 0 -20 8t-8 20t8 20t20 8q11 0 19 -8zM952 470q8 -8 8 -20t-8 -20t-20 -8q-11 0 -19 8t-8 20t8 20t19 8q12 0 20 -8zM1278 430q-8 8 -8 20t8 20t20 8q11 0 19 -8t8 -20t-8 -20t-19 -8q-12 0 -20 8z
M856 346q-8 8 -8 20t8 20t19 8q12 0 20 -8t8 -20t-8 -20t-20 -8q-11 0 -19 8zM1335 346q-8 8 -8 20t8 20t20 8q11 0 19 -8t8 -20t-8 -20t-19 -8q-12 0 -20 8zM876 246q-8 -8 -20 -8q-11 0 -19 8t-8 20t8 20t19 8q12 0 20 -8t8 -20t-8 -20zM1393 286q8 -8 8 -20t-8 -20
t-19 -8q-12 0 -20 8t-8 20t8 20t20 8q11 0 19 -8zM276.5 253q-16.5 -36 -16.5 -98q0 -60 16 -92.5t47 -32.5q30 0 46 32t16 98q0 58 -14 93.5t-46 35.5t-48.5 -36zM1692.5 253q-16.5 -36 -16.5 -98q0 -60 16 -92.5t47 -32.5q29 0 45.5 32t16.5 98q0 58 -14 93.5t-46 35.5
t-48.5 -36zM897 188q8 -8 8 -20t-8 -20t-20 -8q-11 0 -19 8t-8 20t8 20t19 8q12 0 20 -8zM1372 188q8 -8 8 -20t-8 -20t-19 -8q-12 0 -20 8t-8 20t8 20t20 8q11 0 19 -8zM952 105q8 -8 8 -20t-8 -20t-20 -8q-11 0 -19 8t-8 20t8 20t19 8q12 0 20 -8zM1317 105q8 -8 8 -20
t-8 -20t-19 -8q-12 0 -20 8t-8 20t8 20t20 8q11 0 19 -8zM1037 48q8 -8 8 -20t-8 -20t-20 -8q-11 0 -19 8t-8 20t8 20t19 8q12 0 20 -8zM1232 48q8 -8 8 -20t-8 -20t-19 -8q-12 0 -20 8t-8 20t8 20t20 8q11 0 19 -8zM1134 29q8 -8 8 -20t-8 -20t-19 -8q-12 0 -20 8t-8 20
t8 20t20 8q11 0 19 -8z" />
    <glyph glyph-name="uni0BCD" unicode="&#xbcd;" 
d="M-58 705.5q-17 16.5 -17 41.5t17 42t42 17q24 0 41.5 -17t17.5 -42q0 -24 -17.5 -41t-41.5 -17q-25 0 -42 16.5z" />
    <glyph glyph-name="uni0BD0" unicode="&#xbd0;" horiz-adv-x="815" 
d="M515.5 176.5q-35.5 30.5 -35.5 79.5q0 19 6 38.5t15 28.5q-12 -4 -26 -18.5t-24.5 -39.5t-10.5 -59q0 -70 44.5 -106.5t114.5 -36.5q57 0 96 15l10 -9q-56 -118 -158.5 -185.5t-227.5 -67.5q-74 0 -128.5 24t-83 65.5t-28.5 91.5q0 36 13.5 59.5t32.5 34.5t37 11
q22 0 32 -16q-17 -36 -17 -80q0 -43 12.5 -71t48 -44t102.5 -16q94 0 161.5 29t94.5 67q-22 -3 -44 -3q-55 0 -102 22t-75.5 64t-28.5 101q0 66 33.5 112t82 69t90.5 23l9 -16q-11 -8 -15.5 -28t-4.5 -39q0 -34 12.5 -49t29.5 -15q24 0 38 28.5t14 71.5q0 96 -73.5 143.5
t-188.5 47.5q-108 0 -177 -41.5t-91 -114.5q29 19 75 19q59 0 90 -26.5t31 -70.5q0 -48 -34.5 -76t-95.5 -28q-126 0 -126 132q0 71 35.5 130.5t113 96.5t196.5 37q101 0 188.5 -27t142 -82.5t54.5 -136.5q0 -74 -43.5 -121.5t-119.5 -47.5q-61 0 -96.5 30.5zM117 310.5
q-12 -17.5 -12 -47.5q0 -26 11 -43.5t35 -17.5q25 0 35.5 19.5t10.5 43.5q0 26 -10.5 44.5t-34.5 18.5q-23 0 -35 -17.5zM301 65q-4 -4 -10 -4t-10 4t-4 10t4 10t10 4t10 -4t4 -10t-4 -10zM261 41v-92h33v61q0 21 11.5 29.5t29.5 8.5q29 0 41 -19.5t12 -48.5
q0 -22 -7.5 -37.5t-35.5 -15.5h-105q-8 0 -9.5 3t-1.5 7v5v87q0 11 -2 15q12 2 18 2q16 0 16 -5zM328 -51h15q12 0 12 30q0 22 -5 34.5t-13 12.5q-9 0 -9 -14v-63z" />
    <glyph glyph-name="uni0BD7" unicode="&#xbd7;" horiz-adv-x="1223" 
d="M1220 527q0 -17 -11.5 -21.5t-35.5 -4.5h-120v-343q1 -64 5 -93t13 -51q-34 -24 -78 -24q-39 0 -58 22.5t-19 83.5v405h-97q-45 0 -64.5 -20t-19.5 -69l2 -255q1 -63 4.5 -91.5t11.5 -51.5q-33 -24 -80 -24q-35 0 -53 22.5t-18 83.5v136q0 63 -25 128t-85 110t-157 45
q-91 0 -160 -59t-69 -212q0 -98 31.5 -151t80.5 -63q-25 29 -35 65.5t-10 71.5q0 86 39 131.5t113 45.5q83 0 125.5 -49.5t42.5 -127.5q0 -94 -57.5 -138t-144.5 -44q-113 0 -179 64t-66 206q0 158 80.5 232t208.5 74q108 0 181.5 -46.5t96.5 -129.5q0 58 13.5 92t51.5 51.5
t109 17.5h428q5 -9 5 -19zM244.5 253q-16.5 -36 -16.5 -98q0 -60 16 -92.5t47 -32.5q29 0 45.5 32t16.5 98q0 58 -14 93.5t-46 35.5t-48.5 -36z" />
    <glyph glyph-name="uni0BE6" unicode="&#xbe6;" horiz-adv-x="634" 
d="M128.5 61.5q-67.5 76.5 -67.5 212.5t67.5 212.5t188.5 76.5t188.5 -76.5t67.5 -212.5t-67.5 -212.5t-188.5 -76.5t-188.5 76.5zM405.5 92.5q26.5 60.5 26.5 176.5q0 126 -32.5 187t-87.5 61q-110 0 -110 -243q0 -124 28.5 -183t87.5 -59q61 0 87.5 60.5z" />
    <glyph glyph-name="uni0BE7" unicode="&#xbe7;" horiz-adv-x="869" 
d="M766.5 296q63.5 -45 63.5 -121q0 -60 -37 -104t-94.5 -66.5t-116.5 -22.5q-12 0 -23.5 10.5t-11.5 21.5q81 26 111.5 64.5t30.5 98.5q0 44 -30.5 81t-105.5 37h-30v-56q0 -82 -35.5 -139.5t-94 -86t-129.5 -28.5q-67 0 -115.5 25t-73.5 67t-25 94q0 57 28.5 100t86.5 60
v174q0 41 38 41h503q5 -9 5 -20q0 -17 -12 -21.5t-38 -4.5h-138v-159h40q140 0 203.5 -45zM208 339q20 2 31 2h147v158h-161q-17 0 -17 -17v-143zM386 295h-128q-78 0 -113.5 -34t-35.5 -89q0 -60 38 -90t97 -30q78 0 110 49.5t32 127.5v66z" />
    <glyph glyph-name="uni0BE8" unicode="&#xbe8;" horiz-adv-x="1048" 
d="M1037 47v-47h-820q-91 0 -125 22.5t-34 63.5q0 38 28.5 63t81.5 26q22 0 35 1q-36 9 -63.5 36.5t-42.5 63.5t-15 68q0 103 60.5 160.5t181.5 57.5q59 0 113.5 -19t90 -64t35.5 -117q0 -115 -77.5 -166.5t-244.5 -54.5q-63 -1 -87 -11.5t-24 -39.5q0 -20 17.5 -32
t73.5 -12zM152.5 273q15.5 -35 47.5 -58.5t78 -23.5q73 0 108.5 39.5t35.5 112.5q0 83 -40 118.5t-101 35.5q-53 0 -98.5 -34.5t-45.5 -119.5q0 -35 15.5 -70z" />
    <glyph glyph-name="uni0BE9" unicode="&#xbe9;" horiz-adv-x="954" 
d="M941 42v-42h-586v38q127 11 217 58.5t90 142.5q0 39 -18 63t-56 24q-48 0 -79 -42t-32 -113v-1q-25 -25 -76 -25q-26 0 -44.5 5.5t-18.5 14.5v335h-210v-500h-49v546h575q4 -9 4 -20q0 -17 -12 -21.5t-38 -4.5h-131v-161q51 77 154 77q82 0 126.5 -45t44.5 -121
q0 -69 -37 -126.5t-107 -81.5h283z" />
    <glyph glyph-name="uni0BEA" unicode="&#xbea;" horiz-adv-x="799" 
d="M738 546v-204q0 -19 -14 -33t-33 -14h-167v-65q0 -79 -35.5 -134.5t-94.5 -83t-130 -27.5q-67 0 -115.5 25t-73.5 67t-25 94q0 57 29 100.5t87 60.5v173q0 41 38 41h439q5 -9 5 -20q0 -17 -12 -21.5t-43 -4.5h-69v-158h159q5 0 8.5 3.5t3.5 8.5v192h43zM209 341l30 1h148
v157h-161q-17 0 -17 -17v-141zM387 295h-128q-79 0 -114.5 -34t-35.5 -89q0 -60 38 -90t98 -30q142 0 142 168v75z" />
    <glyph glyph-name="uni0BEB" unicode="&#xbeb;" horiz-adv-x="1115" 
d="M1028.5 351q35.5 -63 35.5 -158q0 -138 -65.5 -225.5t-173.5 -126.5t-241 -39q-177 0 -298 59.5t-180.5 162.5t-59.5 234q0 240 136 370t400 130q86 0 160 -19.5t124 -45.5t68 -46q1 -17 -13 -26.5t-26 -9.5q-81 61 -150 81t-162 20q-210 0 -308 -113.5t-98 -340.5
q0 -202 103 -304t309 -102q143 0 238.5 75t95.5 260q0 77 -17.5 107t-51.5 30q-51 0 -75.5 -51t-27.5 -117q2 -98 18 -143q-35 -24 -80 -24q-38 0 -56.5 22.5t-18.5 83.5v405h-233v-500h-52v546h580q3 -10 3 -20q0 -17 -10.5 -21.5t-33.5 -4.5h-117v-184q44 98 151 98
q91 0 126.5 -63z" />
    <glyph glyph-name="uni0BEC" unicode="&#xbec;" horiz-adv-x="1233" 
d="M1223 42v-42h-316v42q54 18 75 60t21 93q0 59 -21.5 82.5t-59.5 23.5q-128 0 -128 -196v-9q0 -62 -20 -84t-60 -22q-46 0 -77 24q10 26 15 46q10 50 10 91q0 144 -112 144h-27v-56q0 -82 -35.5 -139.5t-94 -86t-129.5 -28.5q-67 0 -115.5 25t-73.5 67t-25 94
q0 57 28.5 100t86.5 60v174q0 41 38 41h479q5 -9 5 -20q0 -17 -12 -21.5t-38 -4.5h-114v-159h63q65 0 110 -23t71 -60q54 90 183 90q88 0 141 -40t53 -112q0 -46 -22 -89t-62 -65h163zM208 339q20 2 31 2h147v158h-161q-17 0 -17 -17v-143zM386 295h-128q-78 0 -113.5 -34
t-35.5 -90q0 -59 38 -89t97 -30q78 0 110 49.5t32 127.5v66z" />
    <glyph glyph-name="uni0BED" unicode="&#xbed;" horiz-adv-x="892" 
d="M889 526q0 -17 -11.5 -21.5t-35.5 -4.5h-120v-342q0 -61 4.5 -89.5t13.5 -54.5q-34 -24 -78 -24q-39 0 -58 22.5t-19 83.5v404h-157q-139 0 -230 -61.5t-91 -213.5q0 -85 28.5 -134.5t72.5 -59.5q-49 51 -49 138q0 88 40 131.5t117 43.5q83 0 125.5 -49.5t42.5 -127.5
q0 -94 -57.5 -138t-145.5 -44q-103 0 -169 62t-66 191q0 161 105 234.5t290 73.5h445q3 -10 3 -20zM235.5 253q-16.5 -36 -16.5 -98q0 -60 16 -92.5t46 -32.5t46 32t16 98q0 58 -14 93.5t-45 35.5q-32 0 -48.5 -36z" />
    </font>
</defs>
</svg>
